<svg xmlns="http://www.w3.org/2000/svg" viewBox="0 0 86.41 125.22"><defs><style>.cls-1,.cls-5{fill:#252e40;}.cls-1,.cls-2,.cls-3,.cls-4,.cls-6{stroke:#f7f8f9;stroke-miterlimit:10;}.cls-2{fill:#84152f;}.cls-3{fill:#642c46;}.cls-4{fill:#d7d7d7;}.cls-6{fill:none;}.cls-7{fill:#f7f8f9;}</style></defs><title>logo sem bola</title><g id="Camada_1" data-name="Camada 1"><path class="cls-1" d="M109.62,93.29a11.26,11.26,0,0,1-1.31.07,10.45,10.45,0,0,1-8.62-4.54,9.72,9.72,0,0,1-.77,2.05c-.13.27-.28.53-.43.78a10.45,10.45,0,0,1-8.32,5,10.46,10.46,0,0,0,5.09,5.82l.23.12a10.4,10.4,0,0,0,4,1h.45c.8,0,1.59-.11,2.38-.21a10.52,10.52,0,0,0,2.27-.79,10.49,10.49,0,0,0,5.69-7.27,10.71,10.71,0,0,0,.22-2.14h0C110.19,93.2,109.91,93.25,109.62,93.29Z" transform="translate(-56.89 -41.59)"/><path class="cls-2" d="M111.63,85.15a3.48,3.48,0,0,0-6.73-1.23A10.42,10.42,0,0,0,100,82.71l-.59,0a10.22,10.22,0,0,0-1.57.21,9.9,9.9,0,0,0-2.23.74q-.24.1-.48.24a3.48,3.48,0,0,0-2.73-2.21,3,3,0,0,0-.52,0,3.43,3.43,0,0,0-1.43.31,3.23,3.23,0,0,0-1,.68,3.45,3.45,0,0,0-1,2.49,3.53,3.53,0,0,0,.46,1.74,3.57,3.57,0,0,0,1.49,1.39,2,2,0,0,0,.34.14,10.31,10.31,0,0,0-1.13,4.73,10.71,10.71,0,0,0,.21,2.14,11.88,11.88,0,0,0,.37,1.33,10.45,10.45,0,0,0,8.32-5c.15-.25.3-.51.43-.78a9.72,9.72,0,0,0,.77-2.05,10.45,10.45,0,0,0,8.62,4.54,11.26,11.26,0,0,0,1.31-.07c.29,0,.57-.09.85-.15a10.4,10.4,0,0,0-1.13-4.72A3.48,3.48,0,0,0,111.63,85.15Z" transform="translate(-56.89 -41.59)"/><path class="cls-1" d="M115.06,113.08a17.42,17.42,0,0,0-8.62-7.41l-.32-.13a17.35,17.35,0,0,0-6.09-1.09h-.58a17.35,17.35,0,0,0-5.51,1.08l-.33.13A17,17,0,0,0,89.52,108a17.3,17.3,0,0,0-2.62,2.44A17.71,17.71,0,0,0,85,113.08a17.33,17.33,0,0,0-2.36,8.3c0,.16,0,.31,0,.47a17.27,17.27,0,0,0,.17,2.4l0,.21c0,.29.09.58.15.86s.12.57.19.84l.36-.68.92-1.75,3.47-6.65,5.89-11.27a10.4,10.4,0,0,0,4.74,2l.62.07c.28,0,.57,0,.87,0a10.44,10.44,0,0,0,6.23-2.06l5.88,11.27,4.39,8.4.36.68c.07-.27.14-.56.19-.84a17.4,17.4,0,0,0-2-12.24Z" transform="translate(-56.89 -41.59)"/><path class="cls-3" d="M120.69,133.44a53.43,53.43,0,0,1-41.34,0L83,126.52l.18-.36.36-.68.92-1.75,3.47-6.65,5.89-11.27a10.4,10.4,0,0,0,4.74,2l.61.07c.29,0,.59,0,.88,0a10.44,10.44,0,0,0,6.23-2.06l5.88,11.27,4.39,8.4.36.68Z" transform="translate(-56.89 -41.59)"/><path class="cls-1" d="M116.75,54.66s0-.09,0-.14A17.41,17.41,0,0,0,85.85,49.4a18,18,0,0,0-1.42,2.36,17.28,17.28,0,0,0-1.81,7.73,15.87,15.87,0,0,0,.12,2A17.37,17.37,0,0,0,99.79,76.89H100a17.35,17.35,0,0,0,6.66-1.32,17.14,17.14,0,0,0,4.46-2.7,15.89,15.89,0,0,0,1.78-1.7,17.35,17.35,0,0,0,4.39-9.72,18.1,18.1,0,0,0,.11-2A17.45,17.45,0,0,0,116.75,54.66Z" transform="translate(-56.89 -41.59)"/><path class="cls-4" d="M118.79,94.89c-.08-.64-.19-1.26-.32-1.88a27.05,27.05,0,0,0-1.34-4.49,28,28,0,0,0-7.44-10.64A17.31,17.31,0,0,1,100,80.81c-.52,0-1,0-1.54-.07l-.38,0a17.17,17.17,0,0,1-6.77-2.21c-.33-.19-.66-.39-1-.61-.37.32-.72.65-1.06,1s-.49.49-.72.74l-.25.27a27.74,27.74,0,0,0-5.26,8.26c-.28.67-.53,1.37-.76,2.07a2.2,2.2,0,0,1,.17.25c.33.48.65,1,.94,1.49a26.59,26.59,0,0,1,1.84,3.75c.11.27.21.53.31.8a29.11,29.11,0,0,1,1.09,3.84A28.09,28.09,0,0,1,81,97.15v.23c0,.44,0,.88,0,1.33a27.72,27.72,0,0,0,4,14.37,17.71,17.71,0,0,1,1.91-2.66A17.3,17.3,0,0,1,89.52,108a17,17,0,0,1,4.09-2.31l.33-.13a17.35,17.35,0,0,1,5.51-1.08H100a17.35,17.35,0,0,1,6.09,1.09l.32.13a17.42,17.42,0,0,1,8.62,7.41,27.63,27.63,0,0,0,4-14.37A26.73,26.73,0,0,0,118.79,94.89Zm-14.23,7.67a10.43,10.43,0,0,1-4.53,1h-.57a10.4,10.4,0,0,1-4-1l-.23-.12a10.46,10.46,0,0,1-5.09-5.82,11.88,11.88,0,0,1-.37-1.33,10.71,10.71,0,0,1-.21-2.14,10.31,10.31,0,0,1,1.13-4.73,2,2,0,0,1-.34-.14,3.57,3.57,0,0,1-1.49-1.39,3.53,3.53,0,0,1-.46-1.74,3.45,3.45,0,0,1,1-2.49,3.23,3.23,0,0,1,1-.68,3.43,3.43,0,0,1,1.43-.31,3,3,0,0,1,.52,0,3.48,3.48,0,0,1,2.73,2.21q.24-.14.48-.24a9.9,9.9,0,0,1,2.23-.74,10.22,10.22,0,0,1,1.57-.21l.59,0a10.42,10.42,0,0,1,4.87,1.21,3.48,3.48,0,1,1,4.44,4.5,10.4,10.4,0,0,1,1.13,4.72h0a10.71,10.71,0,0,1-.22,2.14,10.49,10.49,0,0,1-5.69,7.27Z" transform="translate(-56.89 -41.59)"/><path class="cls-5" d="M89.31,78.87c-.25.24-.49.49-.72.74a6.89,6.89,0,0,0-4.36-1.54,6.75,6.75,0,0,0-1.36.13,7,7,0,0,0-5.6,6.47,25.4,25.4,0,0,1,1.87,1.72c.56.56,1.1,1.14,1.6,1.75a24.57,24.57,0,0,1,1.58,2.07l.18.25c.32.48.64,1,.93,1.49a27.14,27.14,0,0,1,1.84,3.75c.11.27.21.53.31.8a29.11,29.11,0,0,1,1.09,3.84A27.35,27.35,0,0,1,81,97.15c-.36-.27-.72-.55-1.07-.84a27.83,27.83,0,0,1-9.72-15.92s0,0,0,0c-.11-.55-.21-1.11-.29-1.67l0-.18a28.54,28.54,0,0,1-.26-3.83c0-.53,0-1.06,0-1.59.48,0,1-.07,1.44-.08s.7,0,1,0a27.62,27.62,0,0,1,9.5,1.67,27,27,0,0,1,4,1.83q.86.48,1.68,1c.24.15.47.31.7.47C88.52,78.27,88.91,78.56,89.31,78.87Z" transform="translate(-56.89 -41.59)"/><path class="cls-6" d="M82.87,78.2a6.75,6.75,0,0,1,1.36-.13,6.89,6.89,0,0,1,4.36,1.54c.23-.25.47-.5.72-.74-.4-.31-.79-.6-1.21-.89-.23-.16-.46-.32-.7-.47q-.83-.54-1.68-1a27,27,0,0,0-4-1.83A27.62,27.62,0,0,0,72.2,73q-.53,0-1,0c-.48,0-1,0-1.44.08,0,.53,0,1.06,0,1.59a28.54,28.54,0,0,0,.26,3.83l0,.18c.08.56.18,1.12.29,1.67,0,0,0,0,0,0A27.83,27.83,0,0,0,80,96.31c.35.29.71.57,1.07.84a27.35,27.35,0,0,0,5.63,3.19,29.11,29.11,0,0,0-1.09-3.84c-.1-.27-.2-.53-.31-.8A27.14,27.14,0,0,0,83.43,92c-.29-.51-.61-1-.93-1.49l-.18-.25a24.57,24.57,0,0,0-1.58-2.07c-.5-.61-1-1.19-1.6-1.75a25.4,25.4,0,0,0-1.87-1.72A7,7,0,0,1,82.87,78.2Z" transform="translate(-56.89 -41.59)"/><path class="cls-1" d="M117.13,78.15a6.72,6.72,0,0,0-1.35-.13,6.94,6.94,0,0,0-4.37,1.54c-.23-.25-.47-.49-.72-.74.39-.3.8-.6,1.21-.89.23-.16.46-.32.7-.47.54-.36,1.11-.7,1.68-1a28.1,28.1,0,0,1,4-1.83,27.8,27.8,0,0,1,2.9-.88,28.12,28.12,0,0,1,6.6-.78c.35,0,.7,0,1,0s1,0,1.44.09c0,.52.05,1,.05,1.58a28.43,28.43,0,0,1-.26,3.83l0,.18c-.08.56-.18,1.12-.3,1.67v0A27.86,27.86,0,0,1,120,96.27L119,97.1a27.61,27.61,0,0,1-5.63,3.19,29.11,29.11,0,0,1,1.09-3.84c.1-.26.2-.53.31-.79a26.71,26.71,0,0,1,1.84-3.76c.29-.51.61-1,.94-1.49l.17-.25a24.57,24.57,0,0,1,1.58-2.07c.5-.61,1-1.19,1.59-1.75s1.23-1.17,1.88-1.72A7,7,0,0,0,117.13,78.15Z" transform="translate(-56.89 -41.59)"/><path class="cls-7" d="M96.82,66.48a3.48,3.48,0,1,1-5.18-4.29,3.54,3.54,0,0,0-.32,1.46,3.48,3.48,0,0,0,3.48,3.48A3.43,3.43,0,0,0,96.82,66.48Z" transform="translate(-56.89 -41.59)"/><path class="cls-7" d="M103.23,66.48a3.48,3.48,0,1,0,5.18-4.29,3.39,3.39,0,0,1,.32,1.46,3.48,3.48,0,0,1-5.5,2.83Z" transform="translate(-56.89 -41.59)"/><path class="cls-7" d="M98.22,94.71A3.48,3.48,0,1,1,92,97.59a3.48,3.48,0,0,0,6.29-2A3.7,3.7,0,0,0,98.22,94.71Z" transform="translate(-56.89 -41.59)"/><path class="cls-7" d="M101.84,94.71A3.48,3.48,0,1,0,108,97.59a3.47,3.47,0,0,1-6.28-2A3.2,3.2,0,0,1,101.84,94.71Z" transform="translate(-56.89 -41.59)"/><path class="cls-7" d="M66.59,153.26a2.83,2.83,0,0,1-2.26,1.36,4.65,4.65,0,0,1-3.06-1.26,15.32,15.32,0,0,1-2.18-2.11,2.86,2.86,0,0,1-.78-1.46,1.13,1.13,0,0,1,.32-.63c.21-.25.38-.35.49-.26s.26.23.25.32a.15.15,0,0,1-.08.14.18.18,0,0,0-.07.16s.08.2.26.45a7.57,7.57,0,0,0,.81.94,11.17,11.17,0,0,0,1.36,1.15,3.5,3.5,0,0,0,2.32.84,2.18,2.18,0,0,0,1.63-1,3.71,3.71,0,0,0,.66-2,4.92,4.92,0,0,0-.85-2.92,14.1,14.1,0,0,0-3-3.12c-1.34-1.13-2.37-2-3.09-2.62a10.89,10.89,0,0,1-1.76-1.9,3.26,3.26,0,0,1-.68-1.92A3.11,3.11,0,0,1,58.35,135a15.16,15.16,0,0,1,3.72-2.13,11.11,11.11,0,0,1,4.12-1c.65,0,1,.18,1,.55a8.43,8.43,0,0,1,0,1.24c0,.34-.11.51-.28.5a.53.53,0,0,1-.28-.14l-.26-.2-.34-.15a1.73,1.73,0,0,0-.55-.09,7.77,7.77,0,0,0-3,.67,14.11,14.11,0,0,0-3.06,1.57c-.86.58-1.28,1.14-1.29,1.77a2.51,2.51,0,0,0,.55,1.51,8.32,8.32,0,0,0,1.48,1.5c.62.49,1.49,1.16,2.63,2a14.62,14.62,0,0,1,3.67,3.69,6.59,6.59,0,0,1,1.07,3.9A6,6,0,0,1,66.59,153.26Z" transform="translate(-56.89 -41.59)"/><path class="cls-7" d="M79.66,159.83a1.37,1.37,0,0,1,.15.6,2.86,2.86,0,0,1-.29,1.11c-.19.39-.36.56-.53.5s-.49-.48-.61-1.12a9.35,9.35,0,0,1-.13-2.17c0-.68.14-2.71.33-6.11,0-.54.06-1.07.1-1.61a2.81,2.81,0,0,0-.24-1.47c-.83,2-1.6,3.64-2.3,5a11.78,11.78,0,0,1-2.61,3.39,2.56,2.56,0,0,1-3.11.5,2.47,2.47,0,0,1-1.13-1.36A5,5,0,0,1,69,155a11.11,11.11,0,0,1,1-3.66,38.37,38.37,0,0,1,2.46-4.64,29.15,29.15,0,0,1,2.93-4.09,8.91,8.91,0,0,1,1.51-1.45,1.54,1.54,0,0,1,1-.32,1.24,1.24,0,0,1,.78.52,3.57,3.57,0,0,1,.66,1.28,5.09,5.09,0,0,1,.22,1.79,7.24,7.24,0,0,1-.52,2.46l.42-.14c.18,0,.27.44.28,1.22l-.06,2.81c0,1.42-.06,2.59-.08,3.51s0,1.88-.07,2.77,0,1.61,0,2.13A1.93,1.93,0,0,0,79.66,159.83Zm-6.24-3.75a10.81,10.81,0,0,0,2.35-3.1c.71-1.32,1.51-3,2.4-5.15a11.43,11.43,0,0,0,.41-2.7,3.7,3.7,0,0,0-.24-1.59c-.18-.47-.44-.72-.79-.77s-.94.34-1.62,1.15a27.16,27.16,0,0,0-2.49,3.58,35.52,35.52,0,0,0-2.23,4.23,10.3,10.3,0,0,0-1,3.38c0,.75.17,1.23.61,1.44A2.22,2.22,0,0,0,73.42,156.08Z" transform="translate(-56.89 -41.59)"/><path class="cls-7" d="M94.84,141.53a3.3,3.3,0,0,0-.41.61,41.46,41.46,0,0,0-2.55,7.9q-1.23,5.1-2,11c-.06.46-.17,1.38-.32,2.77,0,.54-.11,1.08-.16,1.62a2.4,2.4,0,0,1-.38,1.1.89.89,0,0,1-1,.24,16.84,16.84,0,0,1-.8-3q-.68-2.94-1.38-6.3c-.32-1.49-.64-3-1-4.47-.57-2.67-1-4.74-1.42-6.23s-.66-2.23-.86-2.26-.12.06-.17.2-.09.21-.14.21-.15-.09-.21-.23a1.25,1.25,0,0,1-.07-.43,4.41,4.41,0,0,1,.42-1.46c.26-.59.5-.88.73-.86a.48.48,0,0,1,.37.21,3.45,3.45,0,0,1,.2.43c.06.15.11.28.14.37a69.75,69.75,0,0,1,1.82,7.39c.31,1.42,1.06,5.11,2.33,11.23.17.86.35,1.71.53,2.57,0-.81.13-2.09.35-3.87.46-3.61,1.11-7.18,1.92-10.76a56.94,56.94,0,0,1,2.73-9,6.83,6.83,0,0,1,.5-1.06.54.54,0,0,1,.48-.3q.12,0,.39.75a4.12,4.12,0,0,1,.26,1A1.32,1.32,0,0,1,94.84,141.53Z" transform="translate(-56.89 -41.59)"/><path class="cls-7" d="M106,153.57a23.41,23.41,0,0,1-.63,3.81,21.06,21.06,0,0,1-2,5.52c-.91,1.7-2.06,2.57-3.42,2.57a3.24,3.24,0,0,1-2.79-2,12.38,12.38,0,0,1-1.06-5.94,30.18,30.18,0,0,1,1-7.36,21.06,21.06,0,0,1,2.38-6c1-1.55,2-2.33,3-2.34a1.91,1.91,0,0,1,1.56.76,3.58,3.58,0,0,1,.65,2.26,6,6,0,0,1-1,3.28,10.27,10.27,0,0,1-2.57,2.83,10,10,0,0,1-3.3,1.71,31.85,31.85,0,0,0-.33,4.3,10.63,10.63,0,0,0,.69,4.34,2.22,2.22,0,0,0,2,1.56c1.34,0,2.42-.92,3.23-2.71a32.06,32.06,0,0,0,2-6c0-.13.09-.38.17-.75s.15-.56.22-.56S106,153.09,106,153.57Zm-2.91-9.31a1.24,1.24,0,0,0-1-.41,2.4,2.4,0,0,0-1.82,1.21,11.53,11.53,0,0,0-1.47,2.87,16,16,0,0,0-.78,3,5.8,5.8,0,0,0,2.46-1.23,10.69,10.69,0,0,0,2.14-2.23,3.65,3.65,0,0,0,.85-2A1.63,1.63,0,0,0,103.06,144.26Z" transform="translate(-56.89 -41.59)"/><path class="cls-7" d="M113.84,153a3.43,3.43,0,0,1-1.32.67l-1.68.59c-.41.14-.79.25-1.14.34a10.93,10.93,0,0,1-1.3.2.73.73,0,0,1-.58-.19.94.94,0,0,1-.27-.78,1.08,1.08,0,0,1,.21-.82,1.26,1.26,0,0,1,.76-.25q1-.09,1.35-.15a2.34,2.34,0,0,0,.69-.24l.58-.27c.31-.15.82-.36,1.52-.63.13,0,.24-.26.32-.64s.18-.58.28-.59.37.15.58.5a2.41,2.41,0,0,1,.32,1.13A1.49,1.49,0,0,1,113.84,153Z" transform="translate(-56.89 -41.59)"/><path class="cls-7" d="M132.14,157.22a1.14,1.14,0,0,1-.47.59q-.42.24-.45-.42c-.24-4.93-.53-8.66-.86-11.25s-.76-3.84-1.27-3.74c-.87.2-1.89,5.11-3.1,15.91v.05a2.09,2.09,0,0,1-.16.9.93.93,0,0,1-.49.56c-.3.13-.46-.06-.48-.55-.05-1.1-.09-2.8-.14-5.12,0-2.58-.11-4.6-.18-6.08-.09-2-.2-3.48-.31-4.33s-.29-1.25-.53-1.21c-.55.08-1.17,1.89-1.87,5.58s-1.42,8.12-2.18,13.33l-.18,1.21a3.44,3.44,0,0,1-.26.84.78.78,0,0,1-.41.44.58.58,0,0,1-.4,0c-.07,0-.12-.2-.15-.49q-.21-2.13-.41-5.76c-.06-.61-.13-1.63-.22-3.05-.35-5-.62-8.35-.81-10.1s-.3-2.75-.3-3a2.36,2.36,0,0,1,.16-.86c.12-.34.24-.51.35-.52.26,0,.49.3.68,1a37.85,37.85,0,0,1,.41,3.86q.28,3.38.57,8.37l.39,6.7q1.08-7.86,2.28-14c.79-4.1,1.58-6.1,2.38-6.19.53-.06.92.55,1.18,1.81a40,40,0,0,1,.55,5.56c.06,1.29.13,3.14.22,5.57l.06,1.87c.48-4.08,1-7.43,1.52-10.1s1.12-4,1.78-4.11q2.47-.31,3.24,15.87A1.74,1.74,0,0,1,132.14,157.22Z" transform="translate(-56.89 -41.59)"/><path class="cls-7" d="M143.3,142.9a12.85,12.85,0,0,1-.56,2.29,27,27,0,0,1-1.67,4.15,9.71,9.71,0,0,1-2.79,3.62c-.93.69-1.74.83-2.42.37s-1.07-1.66-1.15-3.51a18.59,18.59,0,0,1,.6-5.46,13.9,13.9,0,0,1,2-4.62,4.68,4.68,0,0,1,2.75-2.08,2.2,2.2,0,0,1,1.46.1,1.08,1.08,0,0,1,.61,1.06,3.75,3.75,0,0,1-.88,2.09,17.53,17.53,0,0,1-2.28,2.54,20.45,20.45,0,0,1-2.93,2.34,17.55,17.55,0,0,0-.15,3,3.84,3.84,0,0,0,.74,2.54c.44.43,1,.37,1.78-.14a8.25,8.25,0,0,0,2.67-3.44,40.88,40.88,0,0,0,1.69-4.29c0-.09.07-.24.15-.47s.13-.36.19-.39S143.3,142.66,143.3,142.9Zm-2.55-4a1.53,1.53,0,0,0-.9,0,3.17,3.17,0,0,0-1.67,1.18,8.06,8.06,0,0,0-1.29,2.24,9.66,9.66,0,0,0-.63,2.2,11,11,0,0,0,2.2-1.65,19.27,19.27,0,0,0,1.91-2c.52-.65.78-1.09.77-1.38A.56.56,0,0,0,140.75,138.87Z" transform="translate(-56.89 -41.59)"/></g></svg>