<svg id="Camada_1" data-name="Camada 1" xmlns="http://www.w3.org/2000/svg" viewBox="0 0 112.86 138.73"><defs><style>.cls-1,.cls-2,.cls-6{fill:#252e40;}.cls-1,.cls-2,.cls-3,.cls-4,.cls-5,.cls-7{stroke:#f7f8f9;stroke-miterlimit:10;}.cls-1{stroke-width:2px;}.cls-3{fill:#84152f;}.cls-4{fill:#642c46;}.cls-5{fill:#d7d7d7;}.cls-7{fill:none;}.cls-8,.cls-9{fill:#f7f8f9;}.cls-9{font-size:31.08px;font-family:InkFree, Ink Free;}</style></defs><title>logo com bola</title><path class="cls-1" d="M153.24,84.37A53.24,53.24,0,1,1,100,31.13,53.27,53.27,0,0,1,153.24,84.37Z" transform="translate(-43.57 -30.13)"/><path class="cls-2" d="M109.62,93.29a11.26,11.26,0,0,1-1.31.07,10.45,10.45,0,0,1-8.62-4.54,9.72,9.72,0,0,1-.77,2.05c-.13.27-.28.53-.43.78a10.45,10.45,0,0,1-8.32,5,10.46,10.46,0,0,0,5.09,5.82l.23.12a10.4,10.4,0,0,0,4,1h.45c.8,0,1.59-.11,2.38-.21a10.52,10.52,0,0,0,2.27-.79,10.49,10.49,0,0,0,5.69-7.27,10.71,10.71,0,0,0,.22-2.14h0C110.19,93.2,109.91,93.25,109.62,93.29Z" transform="translate(-43.57 -30.13)"/><path class="cls-3" d="M111.63,85.15a3.48,3.48,0,0,0-6.73-1.23A10.42,10.42,0,0,0,100,82.71l-.59,0a10.22,10.22,0,0,0-1.57.21,9.9,9.9,0,0,0-2.23.74q-.24.1-.48.24a3.48,3.48,0,0,0-2.73-2.21,3,3,0,0,0-.52,0,3.43,3.43,0,0,0-1.43.31,3.23,3.23,0,0,0-1,.68,3.45,3.45,0,0,0-1,2.49,3.53,3.53,0,0,0,.46,1.74,3.57,3.57,0,0,0,1.49,1.39,2,2,0,0,0,.34.14,10.31,10.31,0,0,0-1.13,4.73,10.71,10.71,0,0,0,.21,2.14,11.88,11.88,0,0,0,.37,1.33,10.45,10.45,0,0,0,8.32-5c.15-.25.3-.51.43-.78a9.72,9.72,0,0,0,.77-2.05,10.45,10.45,0,0,0,8.62,4.54,11.26,11.26,0,0,0,1.31-.07c.29,0,.57-.09.85-.15a10.4,10.4,0,0,0-1.13-4.72A3.48,3.48,0,0,0,111.63,85.15Z" transform="translate(-43.57 -30.13)"/><path class="cls-2" d="M115.06,113.08a17.42,17.42,0,0,0-8.62-7.41l-.32-.13a17.35,17.35,0,0,0-6.09-1.09h-.58a17.35,17.35,0,0,0-5.51,1.08l-.33.13A17,17,0,0,0,89.52,108a17.3,17.3,0,0,0-2.62,2.44A17.71,17.71,0,0,0,85,113.08a17.33,17.33,0,0,0-2.36,8.3c0,.16,0,.31,0,.47a17.27,17.27,0,0,0,.17,2.4l0,.21c0,.29.09.58.15.86s.12.57.19.84l.36-.68.92-1.75,3.47-6.65,5.89-11.27a10.4,10.4,0,0,0,4.74,2l.62.07c.28,0,.57,0,.87,0a10.44,10.44,0,0,0,6.23-2.06l5.88,11.27,4.39,8.4.36.68c.07-.27.14-.56.19-.84a17.4,17.4,0,0,0-2-12.24Z" transform="translate(-43.57 -30.13)"/><path class="cls-4" d="M120.69,133.44a53.43,53.43,0,0,1-41.34,0L83,126.52l.18-.36.36-.68.92-1.75,3.47-6.65,5.89-11.27a10.4,10.4,0,0,0,4.74,2l.61.07c.29,0,.59,0,.88,0a10.44,10.44,0,0,0,6.23-2.06l5.88,11.27,4.39,8.4.36.68Z" transform="translate(-43.57 -30.13)"/><path class="cls-2" d="M116.75,54.66s0-.09,0-.14A17.41,17.41,0,0,0,85.85,49.4a18,18,0,0,0-1.42,2.36,17.28,17.28,0,0,0-1.81,7.73,15.87,15.87,0,0,0,.12,2A17.37,17.37,0,0,0,99.79,76.89H100a17.35,17.35,0,0,0,6.66-1.32,17.14,17.14,0,0,0,4.46-2.7,15.89,15.89,0,0,0,1.78-1.7,17.35,17.35,0,0,0,4.39-9.72,18.1,18.1,0,0,0,.11-2A17.45,17.45,0,0,0,116.75,54.66Z" transform="translate(-43.57 -30.13)"/><path class="cls-5" d="M118.79,94.89c-.08-.64-.19-1.26-.32-1.88a27.05,27.05,0,0,0-1.34-4.49,28,28,0,0,0-7.44-10.64A17.31,17.31,0,0,1,100,80.81c-.52,0-1,0-1.54-.07l-.38,0a17.17,17.17,0,0,1-6.77-2.21c-.33-.19-.66-.39-1-.61-.37.32-.72.65-1.06,1s-.49.49-.72.74l-.25.27a27.74,27.74,0,0,0-5.26,8.26c-.28.67-.53,1.37-.76,2.07a2.2,2.2,0,0,1,.17.25c.33.48.65,1,.94,1.49a26.59,26.59,0,0,1,1.84,3.75c.11.27.21.53.31.8a29.11,29.11,0,0,1,1.09,3.84A28.09,28.09,0,0,1,81,97.15v.23c0,.44,0,.88,0,1.33a27.72,27.72,0,0,0,4,14.37,17.71,17.71,0,0,1,1.91-2.66A17.3,17.3,0,0,1,89.52,108a17,17,0,0,1,4.09-2.31l.33-.13a17.35,17.35,0,0,1,5.51-1.08H100a17.35,17.35,0,0,1,6.09,1.09l.32.13a17.42,17.42,0,0,1,8.62,7.41,27.63,27.63,0,0,0,4-14.37A26.73,26.73,0,0,0,118.79,94.89Zm-14.23,7.67a10.43,10.43,0,0,1-4.53,1h-.57a10.4,10.4,0,0,1-4-1l-.23-.12a10.46,10.46,0,0,1-5.09-5.82,11.88,11.88,0,0,1-.37-1.33,10.71,10.71,0,0,1-.21-2.14,10.31,10.31,0,0,1,1.13-4.73,2,2,0,0,1-.34-.14,3.57,3.57,0,0,1-1.49-1.39,3.53,3.53,0,0,1-.46-1.74,3.45,3.45,0,0,1,1-2.49,3.23,3.23,0,0,1,1-.68,3.43,3.43,0,0,1,1.43-.31,3,3,0,0,1,.52,0,3.48,3.48,0,0,1,2.73,2.21q.24-.14.48-.24a9.9,9.9,0,0,1,2.23-.74,10.22,10.22,0,0,1,1.57-.21l.59,0a10.42,10.42,0,0,1,4.87,1.21,3.48,3.48,0,1,1,4.44,4.5,10.4,10.4,0,0,1,1.13,4.72h0a10.71,10.71,0,0,1-.22,2.14,10.49,10.49,0,0,1-5.69,7.27Z" transform="translate(-43.57 -30.13)"/><path class="cls-6" d="M89.31,78.87c-.25.24-.49.49-.72.74a6.89,6.89,0,0,0-4.36-1.54,6.75,6.75,0,0,0-1.36.13,7,7,0,0,0-5.6,6.47,25.4,25.4,0,0,1,1.87,1.72c.56.56,1.1,1.14,1.6,1.75a24.57,24.57,0,0,1,1.58,2.07l.18.25c.32.48.64,1,.93,1.49a27.14,27.14,0,0,1,1.84,3.75c.11.27.21.53.31.8a29.11,29.11,0,0,1,1.09,3.84A27.35,27.35,0,0,1,81,97.15c-.36-.27-.72-.55-1.07-.84a27.83,27.83,0,0,1-9.72-15.92s0,0,0,0c-.11-.55-.21-1.11-.29-1.67l0-.18a28.54,28.54,0,0,1-.26-3.83c0-.53,0-1.06,0-1.59.48,0,1-.07,1.44-.08s.7,0,1,0a27.62,27.62,0,0,1,9.5,1.67,27,27,0,0,1,4,1.83q.86.48,1.68,1c.24.15.47.31.7.47C88.52,78.27,88.91,78.56,89.31,78.87Z" transform="translate(-43.57 -30.13)"/><path class="cls-7" d="M82.87,78.2a6.75,6.75,0,0,1,1.36-.13,6.89,6.89,0,0,1,4.36,1.54c.23-.25.47-.5.72-.74-.4-.31-.79-.6-1.21-.89-.23-.16-.46-.32-.7-.47q-.83-.54-1.68-1a27,27,0,0,0-4-1.83A27.62,27.62,0,0,0,72.2,73q-.53,0-1,0c-.48,0-1,0-1.44.08,0,.53,0,1.06,0,1.59a28.54,28.54,0,0,0,.26,3.83l0,.18c.08.56.18,1.12.29,1.67,0,0,0,0,0,0A27.83,27.83,0,0,0,80,96.31c.35.29.71.57,1.07.84a27.35,27.35,0,0,0,5.63,3.19,29.11,29.11,0,0,0-1.09-3.84c-.1-.27-.2-.53-.31-.8A27.14,27.14,0,0,0,83.43,92c-.29-.51-.61-1-.93-1.49l-.18-.25a24.57,24.57,0,0,0-1.58-2.07c-.5-.61-1-1.19-1.6-1.75a25.4,25.4,0,0,0-1.87-1.72A7,7,0,0,1,82.87,78.2Z" transform="translate(-43.57 -30.13)"/><path class="cls-2" d="M117.13,78.15a6.72,6.72,0,0,0-1.35-.13,6.94,6.94,0,0,0-4.37,1.54c-.23-.25-.47-.49-.72-.74.39-.3.8-.6,1.21-.89.23-.16.46-.32.7-.47.54-.36,1.11-.7,1.68-1a28.1,28.1,0,0,1,4-1.83,27.8,27.8,0,0,1,2.9-.88,28.12,28.12,0,0,1,6.6-.78c.35,0,.7,0,1,0s1,0,1.44.09c0,.52.05,1,.05,1.58a28.43,28.43,0,0,1-.26,3.83l0,.18c-.08.56-.18,1.12-.3,1.67v0A27.86,27.86,0,0,1,120,96.27L119,97.1a27.61,27.61,0,0,1-5.63,3.19,29.11,29.11,0,0,1,1.09-3.84c.1-.26.2-.53.31-.79a26.71,26.71,0,0,1,1.84-3.76c.29-.51.61-1,.94-1.49l.17-.25a24.57,24.57,0,0,1,1.58-2.07c.5-.61,1-1.19,1.59-1.75s1.23-1.17,1.88-1.72A7,7,0,0,0,117.13,78.15Z" transform="translate(-43.57 -30.13)"/><path class="cls-8" d="M96.82,66.48a3.48,3.48,0,1,1-5.18-4.29,3.54,3.54,0,0,0-.32,1.46,3.48,3.48,0,0,0,3.48,3.48A3.43,3.43,0,0,0,96.82,66.48Z" transform="translate(-43.57 -30.13)"/><path class="cls-8" d="M103.23,66.48a3.48,3.48,0,1,0,5.18-4.29,3.39,3.39,0,0,1,.32,1.46,3.48,3.48,0,0,1-5.5,2.83Z" transform="translate(-43.57 -30.13)"/><path class="cls-8" d="M98.22,94.71A3.48,3.48,0,1,1,92,97.59a3.48,3.48,0,0,0,6.29-2A3.7,3.7,0,0,0,98.22,94.71Z" transform="translate(-43.57 -30.13)"/><path class="cls-8" d="M101.84,94.71A3.48,3.48,0,1,0,108,97.59a3.47,3.47,0,0,1-6.28-2A3.2,3.2,0,0,1,101.84,94.71Z" transform="translate(-43.57 -30.13)"/><text class="cls-9" transform="translate(0 128.54)">Save-me</text></svg>