<?xml version="1.0" encoding="utf-8"?>
<!-- Generator: Adobe Illustrator 19.0.0, SVG Export Plug-In . SVG Version: 6.00 Build 0)  -->
<svg version="1.1" id="Layer_1" xmlns="http://www.w3.org/2000/svg" xmlns:xlink="http://www.w3.org/1999/xlink" x="0px" y="0px"
	 width="1400px" height="1400px" viewBox="0 0 1400 1400" enable-background="new 0 0 1400 1400" xml:space="preserve">
<g id="XMLID_1_">
	<rect id="XMLID_8585_" x="0" fill="#D195FF" width="1400" height="1400"/>
	<g id="XMLID_1221_">
		<defs>
			<rect id="XMLID_1217_" x="0" width="1400" height="1400"/>
		</defs>
		<clipPath id="XMLID_63_">
			<use xlink:href="#XMLID_1217_"  overflow="visible"/>
		</clipPath>
		<g id="XMLID_448_" clip-path="url(#XMLID_63_)">
			<g id="XMLID_6742_">
				<polygon id="XMLID_6762_" fill="#C77FFF" points="1074.4,1118.7 1149.8,1177.7 1215.1,1126.7 1280.3,1177.7 1345.6,1126.7 
					1410.9,1177.7 1476.1,1126.7 1541.4,1177.7 1606.7,1126.7 1672,1177.7 1737.2,1126.7 1802.5,1177.7 1867.8,1126.7 
					1933.1,1177.7 1998.3,1126.7 2063.6,1177.7 2128.9,1126.7 2194.2,1177.7 2259.5,1126.6 2324.7,1177.7 2390,1126.6 
					2455.3,1177.7 2520.6,1126.6 2585.9,1177.7 2651.2,1126.7 2716.4,1177.7 2781.7,1126.6 2847,1177.7 2912.3,1126.6 
					2977.6,1177.7 3042.9,1126.6 3108.2,1177.7 3173.5,1126.6 3238.8,1177.7 3304.1,1126.6 3359.3,1169.8 3379.5,1144 3304.1,1085 
					3238.8,1136.1 3173.5,1085 3108.2,1136.1 3042.9,1085 2977.6,1136.1 2912.3,1085 2847,1136.1 2781.7,1085 2716.4,1136.1 
					2651.2,1085 2585.9,1136.1 2520.6,1085 2455.3,1136.1 2390,1085 2324.7,1136.1 2259.5,1085 2194.2,1136.1 2128.9,1085 
					2063.6,1136.1 1998.3,1085 1933.1,1136.1 1867.8,1085 1802.5,1136.1 1737.2,1085 1672,1136.1 1606.7,1085 1541.4,1136.1 
					1476.1,1085 1410.9,1136.1 1345.6,1085 1280.3,1136.1 1215.1,1085 1149.8,1136.1 1094.6,1092.9 1074.4,1118.7 				"/>
				<polygon id="XMLID_6761_" fill="#C77FFF" points="1074.4,1226.3 1149.8,1285.3 1215.1,1234.2 1280.3,1285.3 1345.6,1234.2 
					1410.9,1285.3 1476.1,1234.2 1541.4,1285.3 1606.7,1234.2 1672,1285.3 1737.2,1234.2 1802.5,1285.3 1867.8,1234.2 
					1933.1,1285.3 1998.3,1234.2 2063.6,1285.3 2128.9,1234.2 2194.2,1285.3 2259.5,1234.2 2324.7,1285.3 2390,1234.2 
					2455.3,1285.3 2520.6,1234.2 2585.9,1285.3 2651.2,1234.2 2716.4,1285.3 2781.7,1234.2 2847,1285.3 2912.3,1234.2 
					2977.6,1285.3 3042.9,1234.2 3108.2,1285.3 3173.5,1234.2 3238.8,1285.3 3304.1,1234.2 3359.3,1277.4 3379.5,1251.5 
					3304.1,1192.6 3238.8,1243.6 3173.5,1192.6 3108.2,1243.6 3042.9,1192.6 2977.6,1243.6 2912.3,1192.6 2847,1243.6 
					2781.7,1192.6 2716.4,1243.6 2651.2,1192.6 2585.9,1243.6 2520.6,1192.6 2455.3,1243.6 2390,1192.6 2324.7,1243.6 
					2259.5,1192.6 2194.2,1243.6 2128.9,1192.6 2063.6,1243.6 1998.3,1192.6 1933.1,1243.6 1867.8,1192.6 1802.5,1243.6 
					1737.2,1192.6 1672,1243.6 1606.7,1192.6 1541.4,1243.6 1476.1,1192.6 1410.9,1243.6 1345.6,1192.6 1280.3,1243.6 
					1215.1,1192.6 1149.8,1243.6 1094.6,1200.5 1074.4,1226.3 				"/>
				<polygon id="XMLID_6760_" fill="#C77FFF" points="1074.4,1333.9 1149.8,1392.8 1215.1,1341.8 1280.3,1392.8 1345.6,1341.8 
					1410.9,1392.8 1476.1,1341.8 1541.4,1392.8 1606.7,1341.8 1672,1392.8 1737.2,1341.8 1802.5,1392.8 1867.8,1341.8 
					1933.1,1392.8 1998.3,1341.8 2063.6,1392.8 2128.9,1341.8 2194.2,1392.8 2259.5,1341.8 2324.7,1392.8 2390,1341.8 
					2455.3,1392.8 2520.6,1341.8 2585.9,1392.8 2651.2,1341.8 2716.4,1392.8 2781.7,1341.8 2847,1392.8 2912.3,1341.8 
					2977.6,1392.8 3042.9,1341.8 3108.2,1392.8 3173.5,1341.8 3238.8,1392.8 3304.1,1341.8 3359.3,1384.9 3379.5,1359.1 
					3304.1,1300.1 3238.8,1351.2 3173.5,1300.1 3108.2,1351.2 3042.9,1300.1 2977.6,1351.2 2912.3,1300.1 2847,1351.2 
					2781.7,1300.1 2716.4,1351.2 2651.2,1300.1 2585.9,1351.2 2520.6,1300.1 2455.3,1351.2 2390,1300.1 2324.7,1351.2 
					2259.5,1300.1 2194.2,1351.2 2128.9,1300.1 2063.6,1351.2 1998.3,1300.1 1933.1,1351.2 1867.8,1300.1 1802.5,1351.2 
					1737.2,1300.1 1672,1351.2 1606.7,1300.1 1541.4,1351.2 1476.1,1300.1 1410.9,1351.2 1345.6,1300.1 1280.3,1351.2 
					1215.1,1300.1 1149.8,1351.2 1094.6,1308 1074.4,1333.9 				"/>
				<polygon id="XMLID_6758_" fill="#C77FFF" points="1074.4,1441.4 1149.8,1500.4 1215.1,1449.3 1280.3,1500.4 1345.6,1449.3 
					1410.9,1500.4 1476.1,1449.3 1541.4,1500.4 1606.7,1449.3 1672,1500.4 1737.2,1449.3 1802.5,1500.4 1867.8,1449.3 
					1933.1,1500.4 1998.3,1449.3 2063.6,1500.4 2128.9,1449.3 2194.2,1500.4 2259.5,1449.3 2324.7,1500.4 2390,1449.3 
					2455.3,1500.4 2520.6,1449.3 2585.9,1500.4 2651.2,1449.3 2716.4,1500.4 2781.7,1449.3 2847,1500.4 2912.3,1449.3 
					2977.6,1500.4 3042.9,1449.3 3108.2,1500.4 3173.5,1449.3 3238.8,1500.4 3304.1,1449.3 3359.3,1492.5 3379.5,1466.6 
					3304.1,1407.7 3238.8,1458.7 3173.5,1407.7 3108.2,1458.7 3042.9,1407.7 2977.6,1458.7 2912.3,1407.7 2847,1458.7 
					2781.7,1407.7 2716.4,1458.7 2651.2,1407.7 2585.9,1458.7 2520.6,1407.7 2455.3,1458.7 2390,1407.7 2324.7,1458.7 
					2259.5,1407.7 2194.2,1458.7 2128.9,1407.7 2063.6,1458.7 1998.3,1407.7 1933.1,1458.7 1867.8,1407.7 1802.5,1458.7 
					1737.2,1407.7 1672,1458.7 1606.7,1407.7 1541.4,1458.7 1476.1,1407.7 1410.9,1458.7 1345.6,1407.7 1280.3,1458.7 
					1215.1,1407.7 1149.8,1458.7 1094.6,1415.6 1074.4,1441.4 				"/>
				<polygon id="XMLID_6756_" fill="#C77FFF" points="1074.4,1549 1149.8,1607.9 1215.1,1556.9 1280.3,1607.9 1345.6,1556.9 
					1410.9,1607.9 1476.1,1556.9 1541.4,1607.9 1606.7,1556.9 1672,1607.9 1737.2,1556.9 1802.5,1607.9 1867.8,1556.9 
					1933.1,1607.9 1998.3,1556.9 2063.6,1607.9 2128.9,1556.9 2194.2,1607.9 2259.5,1556.9 2324.7,1607.9 2390,1556.9 
					2455.3,1607.9 2520.6,1556.9 2585.9,1607.9 2651.2,1556.9 2716.4,1607.9 2781.7,1556.9 2847,1607.9 2912.3,1556.9 
					2977.6,1607.9 3042.9,1556.9 3108.2,1607.9 3173.5,1556.9 3238.8,1607.9 3304.1,1556.9 3359.3,1600 3379.5,1574.2 
					3304.1,1515.2 3238.8,1566.3 3173.5,1515.2 3108.2,1566.3 3042.9,1515.2 2977.6,1566.3 2912.3,1515.2 2847,1566.3 
					2781.7,1515.2 2716.4,1566.3 2651.2,1515.2 2585.9,1566.3 2520.6,1515.2 2455.3,1566.3 2390,1515.2 2324.7,1566.3 
					2259.5,1515.2 2194.2,1566.3 2128.9,1515.2 2063.6,1566.3 1998.3,1515.2 1933.1,1566.3 1867.8,1515.2 1802.5,1566.3 
					1737.2,1515.2 1672,1566.3 1606.7,1515.2 1541.4,1566.3 1476.1,1515.2 1410.9,1566.3 1345.6,1515.2 1280.3,1566.3 
					1215.1,1515.2 1149.8,1566.3 1094.6,1523.1 1074.4,1549 				"/>
				<polygon id="XMLID_6753_" fill="#C77FFF" points="1074.4,1656.5 1149.8,1715.5 1215.1,1664.4 1280.3,1715.5 1345.6,1664.4 
					1410.9,1715.5 1476.1,1664.4 1541.4,1715.5 1606.7,1664.4 1672,1715.5 1737.2,1664.4 1802.5,1715.5 1867.8,1664.4 
					1933.1,1715.5 1998.3,1664.4 2063.6,1715.5 2128.9,1664.4 2194.2,1715.5 2259.5,1664.4 2324.7,1715.5 2390,1664.4 
					2455.3,1715.5 2520.6,1664.4 2585.9,1715.5 2651.2,1664.4 2716.4,1715.5 2781.7,1664.4 2847,1715.5 2912.3,1664.4 
					2977.6,1715.5 3042.9,1664.4 3108.2,1715.5 3173.5,1664.4 3238.7,1715.5 3304.1,1664.4 3359.3,1707.6 3379.5,1681.7 
					3304.1,1622.8 3238.8,1673.8 3173.5,1622.8 3108.2,1673.8 3042.9,1622.8 2977.6,1673.8 2912.3,1622.8 2847,1673.8 
					2781.7,1622.8 2716.4,1673.8 2651.2,1622.8 2585.9,1673.8 2520.6,1622.8 2455.3,1673.8 2390,1622.8 2324.7,1673.8 
					2259.5,1622.8 2194.2,1673.8 2128.9,1622.8 2063.6,1673.8 1998.3,1622.8 1933.1,1673.8 1867.8,1622.8 1802.5,1673.8 
					1737.2,1622.8 1672,1673.8 1606.7,1622.8 1541.4,1673.8 1476.1,1622.8 1410.9,1673.8 1345.6,1622.8 1280.3,1673.8 
					1215.1,1622.8 1149.8,1673.8 1094.6,1630.7 1074.4,1656.5 				"/>
				<polygon id="XMLID_6752_" fill="#C77FFF" points="1074.4,1764.1 1149.8,1823 1215.1,1772 1280.3,1823 1345.6,1772 1410.9,1823 
					1476.1,1772 1541.4,1823 1606.7,1772 1672,1823 1737.2,1772 1802.5,1823 1867.8,1772 1933.1,1823 1998.3,1772 2063.6,1823 
					2128.9,1772 2194.2,1823 2259.5,1772 2324.7,1823 2390,1772 2455.3,1823 2520.6,1772 2585.9,1823 2651.2,1772 2716.4,1823 
					2781.7,1772 2847,1823 2912.3,1772 2977.6,1823 3042.9,1772 3108.2,1823 3173.5,1772 3238.8,1823 3304.1,1772 3359.3,1815.1 
					3379.5,1789.3 3304.1,1730.3 3238.8,1781.4 3173.5,1730.3 3108.2,1781.4 3042.9,1730.3 2977.6,1781.4 2912.3,1730.3 
					2847,1781.4 2781.7,1730.3 2716.4,1781.4 2651.2,1730.3 2585.9,1781.4 2520.6,1730.3 2455.3,1781.4 2390,1730.3 2324.7,1781.4 
					2259.5,1730.3 2194.2,1781.4 2128.9,1730.3 2063.6,1781.4 1998.3,1730.3 1933.1,1781.4 1867.8,1730.3 1802.5,1781.4 
					1737.2,1730.3 1672,1781.4 1606.7,1730.3 1541.4,1781.4 1476.1,1730.3 1410.9,1781.4 1345.6,1730.3 1280.3,1781.4 
					1215.1,1730.3 1149.8,1781.4 1094.6,1738.2 1074.4,1764.1 				"/>
				<polygon id="XMLID_6751_" fill="#C77FFF" points="1074.4,1871.6 1149.8,1930.6 1215.1,1879.5 1280.3,1930.6 1345.6,1879.5 
					1410.9,1930.6 1476.1,1879.5 1541.4,1930.6 1606.7,1879.5 1672,1930.6 1737.2,1879.5 1802.5,1930.6 1867.8,1879.5 
					1933.1,1930.6 1998.3,1879.5 2063.6,1930.6 2128.9,1879.5 2194.2,1930.6 2259.5,1879.5 2324.7,1930.6 2390,1879.5 
					2455.3,1930.6 2520.6,1879.5 2585.9,1930.6 2651.2,1879.5 2716.4,1930.6 2781.7,1879.5 2847,1930.6 2912.3,1879.5 
					2977.6,1930.6 3042.9,1879.5 3108.2,1930.6 3173.5,1879.5 3238.8,1930.6 3304.1,1879.5 3359.3,1922.7 3379.5,1896.9 
					3304.1,1837.9 3238.8,1889 3173.5,1837.9 3108.2,1889 3042.9,1837.9 2977.6,1889 2912.3,1837.9 2847,1889 2781.7,1837.9 
					2716.4,1889 2651.2,1837.9 2585.9,1889 2520.6,1837.9 2455.3,1889 2390,1837.9 2324.7,1889 2259.5,1837.9 2194.2,1889 
					2128.9,1837.9 2063.6,1889 1998.3,1837.9 1933.1,1889 1867.8,1837.9 1802.5,1889 1737.2,1837.9 1672,1889 1606.7,1837.9 
					1541.4,1889 1476.1,1837.9 1410.9,1889 1345.6,1837.9 1280.3,1889 1215.1,1837.9 1149.8,1889 1094.6,1845.8 1074.4,1871.6 				
					"/>
				<polygon id="XMLID_6750_" fill="#C77FFF" points="1074.4,1979.2 1149.8,2038.2 1215.1,1987.1 1280.3,2038.2 1345.6,1987.1 
					1410.9,2038.2 1476.1,1987.1 1541.4,2038.2 1606.7,1987.1 1672,2038.2 1737.2,1987.1 1802.5,2038.2 1867.8,1987.1 
					1933.1,2038.2 1998.3,1987.1 2063.6,2038.2 2128.9,1987.1 2194.2,2038.2 2259.5,1987.1 2324.7,2038.2 2390,1987.1 
					2455.3,2038.2 2520.6,1987.1 2585.9,2038.2 2651.2,1987.1 2716.4,2038.2 2781.7,1987.1 2847,2038.2 2912.3,1987.1 
					2977.6,2038.2 3042.9,1987.1 3108.2,2038.2 3173.5,1987.1 3238.8,2038.2 3304.1,1987.1 3359.3,2030.3 3379.5,2004.4 
					3304.1,1945.5 3238.8,1996.5 3173.5,1945.5 3108.2,1996.5 3042.9,1945.5 2977.6,1996.5 2912.3,1945.5 2847,1996.5 
					2781.7,1945.5 2716.4,1996.5 2651.2,1945.5 2585.9,1996.5 2520.6,1945.5 2455.3,1996.5 2390,1945.5 2324.7,1996.5 
					2259.5,1945.5 2194.2,1996.5 2128.9,1945.5 2063.6,1996.5 1998.3,1945.5 1933.1,1996.5 1867.8,1945.5 1802.5,1996.5 
					1737.2,1945.5 1672,1996.5 1606.7,1945.5 1541.4,1996.5 1476.1,1945.5 1410.9,1996.5 1345.6,1945.5 1280.3,1996.5 
					1215.1,1945.5 1149.8,1996.5 1094.6,1953.4 1074.4,1979.2 				"/>
				<polygon id="XMLID_6748_" fill="#C77FFF" points="1074.4,2086.8 1149.8,2145.7 1215.1,2094.7 1280.3,2145.7 1345.6,2094.7 
					1410.9,2145.7 1476.1,2094.7 1541.4,2145.7 1606.7,2094.7 1672,2145.7 1737.2,2094.7 1802.5,2145.7 1867.8,2094.7 
					1933.1,2145.7 1998.3,2094.7 2063.6,2145.7 2128.9,2094.7 2194.2,2145.7 2259.5,2094.7 2324.7,2145.7 2390,2094.7 
					2455.3,2145.7 2520.6,2094.7 2585.9,2145.7 2651.2,2094.7 2716.4,2145.7 2781.7,2094.7 2847,2145.7 2912.3,2094.7 
					2977.6,2145.7 3042.9,2094.7 3108.2,2145.7 3173.5,2094.7 3238.8,2145.7 3304.1,2094.7 3359.3,2137.8 3379.5,2112 3304.1,2053 
					3238.8,2104.1 3173.5,2053 3108.2,2104.1 3042.9,2053 2977.6,2104.1 2912.3,2053 2847,2104.1 2781.7,2053 2716.4,2104.1 
					2651.2,2053 2585.9,2104.1 2520.6,2053 2455.3,2104.1 2390,2053 2324.7,2104.1 2259.5,2053 2194.2,2104.1 2128.9,2053 
					2063.6,2104.1 1998.3,2053 1933.1,2104.1 1867.8,2053 1802.5,2104.1 1737.2,2053 1672,2104.1 1606.7,2053 1541.4,2104.1 
					1476.1,2053 1410.9,2104.1 1345.6,2053 1280.3,2104.1 1215.1,2053 1149.8,2104.1 1094.6,2060.9 1074.4,2086.8 				"/>
				<polygon id="XMLID_6747_" fill="#C77FFF" points="1074.4,2194.3 1149.8,2253.3 1215.1,2202.2 1280.3,2253.3 1345.6,2202.2 
					1410.9,2253.3 1476.1,2202.2 1541.4,2253.3 1606.7,2202.2 1672,2253.3 1737.2,2202.2 1802.5,2253.3 1867.8,2202.2 
					1933.1,2253.3 1998.3,2202.2 2063.6,2253.3 2128.9,2202.2 2194.2,2253.3 2259.5,2202.2 2324.7,2253.3 2390,2202.2 
					2455.3,2253.3 2520.6,2202.2 2585.9,2253.3 2651.2,2202.2 2716.4,2253.3 2781.7,2202.2 2847,2253.3 2912.3,2202.2 
					2977.6,2253.3 3042.9,2202.2 3108.2,2253.3 3173.5,2202.2 3238.8,2253.3 3304.1,2202.2 3359.3,2245.4 3379.5,2219.5 
					3304.1,2160.6 3238.8,2211.6 3173.5,2160.6 3108.2,2211.6 3042.9,2160.6 2977.6,2211.6 2912.3,2160.6 2847,2211.6 
					2781.7,2160.6 2716.4,2211.6 2651.2,2160.6 2585.9,2211.6 2520.6,2160.6 2455.3,2211.6 2390,2160.6 2324.7,2211.6 
					2259.5,2160.6 2194.2,2211.6 2128.9,2160.6 2063.6,2211.6 1998.3,2160.6 1933.1,2211.6 1867.8,2160.6 1802.5,2211.6 
					1737.2,2160.6 1672,2211.6 1606.7,2160.6 1541.4,2211.6 1476.1,2160.6 1410.9,2211.6 1345.6,2160.6 1280.3,2211.6 
					1215.1,2160.6 1149.8,2211.6 1094.6,2168.5 1074.4,2194.3 				"/>
				<polygon id="XMLID_6746_" fill="#C77FFF" points="1074.4,2301.9 1149.8,2360.8 1215.1,2309.8 1280.3,2360.8 1345.6,2309.8 
					1410.9,2360.8 1476.1,2309.8 1541.4,2360.8 1606.7,2309.8 1672,2360.8 1737.2,2309.8 1802.5,2360.8 1867.8,2309.8 
					1933.1,2360.8 1998.3,2309.8 2063.6,2360.8 2128.9,2309.8 2194.2,2360.8 2259.5,2309.8 2324.7,2360.8 2390,2309.8 
					2455.3,2360.8 2520.6,2309.8 2585.9,2360.8 2651.2,2309.8 2716.4,2360.8 2781.7,2309.8 2847,2360.8 2912.3,2309.8 
					2977.6,2360.8 3042.9,2309.8 3108.2,2360.8 3173.5,2309.8 3238.7,2360.8 3304.1,2309.8 3359.3,2352.9 3379.5,2327.1 
					3304.1,2268.1 3238.8,2319.2 3173.5,2268.1 3108.2,2319.2 3042.9,2268.1 2977.6,2319.2 2912.3,2268.1 2847,2319.2 
					2781.7,2268.1 2716.4,2319.2 2651.2,2268.1 2585.9,2319.2 2520.6,2268.1 2455.3,2319.2 2390,2268.1 2324.7,2319.2 
					2259.5,2268.1 2194.2,2319.2 2128.9,2268.1 2063.6,2319.2 1998.3,2268.1 1933.1,2319.2 1867.8,2268.1 1802.5,2319.2 
					1737.2,2268.1 1672,2319.2 1606.7,2268.1 1541.4,2319.2 1476.1,2268.1 1410.9,2319.2 1345.6,2268.1 1280.3,2319.2 
					1215.1,2268.1 1149.8,2319.2 1094.6,2276 1074.4,2301.9 				"/>
				<polygon id="XMLID_6745_" fill="#C77FFF" points="1074.4,2409.4 1149.8,2468.4 1215.1,2417.3 1280.3,2468.4 1345.6,2417.3 
					1410.9,2468.4 1476.1,2417.3 1541.4,2468.4 1606.7,2417.3 1672,2468.4 1737.2,2417.3 1802.5,2468.4 1867.8,2417.3 
					1933.1,2468.4 1998.3,2417.3 2063.6,2468.4 2128.9,2417.3 2194.2,2468.4 2259.5,2417.3 2324.7,2468.4 2390,2417.3 
					2455.3,2468.4 2520.6,2417.3 2585.9,2468.4 2651.2,2417.3 2716.4,2468.4 2781.7,2417.3 2847,2468.4 2912.3,2417.3 
					2977.6,2468.4 3042.9,2417.3 3108.2,2468.4 3173.5,2417.3 3238.8,2468.4 3304.1,2417.3 3359.3,2460.5 3379.5,2434.6 
					3304.1,2375.7 3238.8,2426.7 3173.5,2375.7 3108.2,2426.7 3042.9,2375.7 2977.6,2426.7 2912.3,2375.7 2847,2426.7 
					2781.7,2375.7 2716.4,2426.7 2651.2,2375.7 2585.9,2426.7 2520.6,2375.7 2455.3,2426.7 2390,2375.7 2324.7,2426.7 
					2259.5,2375.7 2194.2,2426.7 2128.9,2375.7 2063.6,2426.7 1998.3,2375.7 1933.1,2426.7 1867.8,2375.7 1802.5,2426.7 
					1737.2,2375.7 1672,2426.7 1606.7,2375.7 1541.4,2426.7 1476.1,2375.7 1410.9,2426.7 1345.6,2375.7 1280.3,2426.7 
					1215.1,2375.7 1149.8,2426.7 1094.6,2383.6 1074.4,2409.4 				"/>
				<polygon id="XMLID_6744_" fill="#C77FFF" points="1074.4,2517 1149.8,2575.9 1215.1,2524.9 1280.3,2575.9 1345.6,2524.9 
					1410.9,2575.9 1476.1,2524.9 1541.4,2575.9 1606.7,2524.9 1672,2575.9 1737.2,2524.9 1802.5,2575.9 1867.8,2524.9 
					1933.1,2575.9 1998.3,2524.9 2063.6,2575.9 2128.9,2524.9 2194.2,2575.9 2259.5,2524.9 2324.7,2575.9 2390,2524.9 
					2455.3,2575.9 2520.6,2524.9 2585.9,2575.9 2651.2,2524.9 2716.4,2575.9 2781.7,2524.9 2847,2575.9 2912.3,2524.9 
					2977.6,2575.9 3042.9,2524.9 3108.2,2575.9 3173.5,2524.9 3238.8,2575.9 3304.1,2524.9 3359.3,2568 3379.5,2542.2 
					3304.1,2483.2 3238.8,2534.3 3173.5,2483.2 3108.2,2534.3 3042.9,2483.2 2977.6,2534.3 2912.3,2483.2 2847,2534.3 
					2781.7,2483.2 2716.4,2534.3 2651.2,2483.2 2585.9,2534.3 2520.6,2483.2 2455.3,2534.3 2390,2483.2 2324.7,2534.3 
					2259.5,2483.2 2194.2,2534.3 2128.9,2483.2 2063.6,2534.3 1998.3,2483.2 1933.1,2534.3 1867.8,2483.2 1802.5,2534.3 
					1737.2,2483.2 1672,2534.3 1606.7,2483.2 1541.4,2534.3 1476.1,2483.2 1410.9,2534.3 1345.6,2483.2 1280.3,2534.3 
					1215.1,2483.2 1149.8,2534.3 1094.6,2491.1 1074.4,2517 				"/>
			</g>
			<circle id="XMLID_6741_" fill="#C77FFF" cx="1472.3" cy="205.2" r="186"/>
			<path id="XMLID_6740_" fill="#C77FFF" d="M-6.8,872.4c70.6-5.5,137.1,29.3,184.4,80c53,56.9,78.6,132.9,87.6,208.9
				c4.9,41.1,5.5,82.6,3.9,124c-1.5,39.4-6.3,79.2,0.8,118.3c6.4,34.9,24.5,65.7,53.9,85.9c26.7,18.4,59.4,26.5,91.4,29.3
				c81,7,159-27.6,239.9-20.5c10.7,0.9,21.3,2.8,31.8,5.5c9.4,2.4,13.3-12.1,4-14.5c-43-11-87.4-6.9-130.7,0
				c-39.2,6.2-78.2,15.2-118,15.4c-32,0.2-65.3-4.2-94.2-18.6c-30.5-15.2-52-41-60.8-74c-10.1-37.8-5.3-77.9-3.5-116.4
				c2-41.3,1.9-82.8-2.3-124c-7.9-78.2-31.2-156.3-82.2-217.5c-44.6-53.5-109.3-93.5-180-97.2c-8.6-0.5-17.3-0.3-25.9,0.4
				C-16.3,858.2-16.4,873.2-6.8,872.4z"/>
			<g id="XMLID_6737_">
				<polygon id="XMLID_6739_" fill="#C77FFF" points="218.2,906.7 122,1002.9 122,1065.3 184.4,1065.3 280.6,969.1 280.6,906.7 				
					"/>
				<rect id="XMLID_6738_" x="122" y="1002.9" fill="#C77FFF" width="62.4" height="62.4"/>
			</g>
			<path id="XMLID_6710_" fill="#90FFCE" d="M0,1004.6c0,0,450.5,512.1,481.3,481.3s-513.4,0-513.4,0L0,1004.6z"/>
			<path id="XMLID_6754_" fill="#FFFF72" d="M1764.1,2027.8c0,169-137,306-306,306c-169,0-306-137-306-306
				c0-88.8,37.8-168.7,98.2-224.6l207.8,224.6v-306C1627.1,1721.7,1764.1,1858.7,1764.1,2027.8z"/>
			<path id="XMLID_6759_" fill="#FFFF72" d="M1458,1721.7v306l-207.8-224.6C1304.8,1752.6,1377.8,1721.7,1458,1721.7z"/>
			<rect id="XMLID_8587_" x="0" fill="#90FFCE" width="311.9" height="576.6"/>
			<g id="XMLID_6875_">
				<defs>
					<rect id="XMLID_6873_" x="0" width="311.9" height="576.6"/>
				</defs>
				<clipPath id="XMLID_64_">
					<use xlink:href="#XMLID_6873_"  overflow="visible"/>
				</clipPath>
				<g id="XMLID_8380_" clip-path="url(#XMLID_64_)">
					<g id="XMLID_7134_">
						<rect id="XMLID_62_" x="-467.3" y="-113.9" fill="#FFFFFF" width="816.1" height="2"/>
					</g>
					<g id="XMLID_7135_">
						<rect id="XMLID_61_" x="-467.3" y="-86.8" fill="#FFFFFF" width="816.1" height="2"/>
					</g>
					<g id="XMLID_7136_">
						<rect id="XMLID_60_" x="-467.3" y="-59.7" fill="#FFFFFF" width="816.1" height="2"/>
					</g>
					<g id="XMLID_7137_">
						<rect id="XMLID_59_" x="-467.3" y="-32.6" fill="#FFFFFF" width="816.1" height="2"/>
					</g>
					<g id="XMLID_7138_">
						<rect id="XMLID_58_" x="-467.3" y="-5.4" fill="#FFFFFF" width="816.1" height="2"/>
					</g>
					<g id="XMLID_7139_">
						<rect id="XMLID_57_" x="-467.3" y="21.7" fill="#FFFFFF" width="816.1" height="2"/>
					</g>
					<g id="XMLID_7140_">
						<rect id="XMLID_56_" x="-467.3" y="48.8" fill="#FFFFFF" width="816.1" height="2"/>
					</g>
					<g id="XMLID_7141_">
						<rect id="XMLID_55_" x="-467.3" y="76" fill="#FFFFFF" width="816.1" height="2"/>
					</g>
					<g id="XMLID_7142_">
						<rect id="XMLID_54_" x="-467.3" y="103.1" fill="#FFFFFF" width="816.1" height="2"/>
					</g>
					<g id="XMLID_7143_">
						<rect id="XMLID_53_" x="-467.3" y="130.2" fill="#FFFFFF" width="816.1" height="2"/>
					</g>
					<g id="XMLID_7144_">
						<rect id="XMLID_52_" x="-467.3" y="157.4" fill="#FFFFFF" width="816.1" height="2"/>
					</g>
					<g id="XMLID_7145_">
						<rect id="XMLID_51_" x="-467.3" y="184.5" fill="#FFFFFF" width="816.1" height="2"/>
					</g>
					<g id="XMLID_7146_">
						<rect id="XMLID_50_" x="-467.3" y="211.6" fill="#FFFFFF" width="816.1" height="2"/>
					</g>
					<g id="XMLID_7147_">
						<rect id="XMLID_49_" x="-467.3" y="238.7" fill="#FFFFFF" width="816.1" height="2"/>
					</g>
					<g id="XMLID_7148_">
						<rect id="XMLID_48_" x="-467.3" y="265.9" fill="#FFFFFF" width="816.1" height="2"/>
					</g>
					<g id="XMLID_7149_">
						<rect id="XMLID_47_" x="-467.3" y="293" fill="#FFFFFF" width="816.1" height="2"/>
					</g>
					<g id="XMLID_7150_">
						<rect id="XMLID_46_" x="-467.3" y="320.1" fill="#FFFFFF" width="816.1" height="2"/>
					</g>
					<g id="XMLID_7151_">
						<rect id="XMLID_45_" x="-467.3" y="347.3" fill="#FFFFFF" width="816.1" height="2"/>
					</g>
					<g id="XMLID_7152_">
						<rect id="XMLID_44_" x="-467.3" y="374.4" fill="#FFFFFF" width="816.1" height="2"/>
					</g>
					<g id="XMLID_7153_">
						<rect id="XMLID_43_" x="-467.3" y="401.5" fill="#FFFFFF" width="816.1" height="2"/>
					</g>
					<g id="XMLID_7154_">
						<rect id="XMLID_42_" x="-467.3" y="428.7" fill="#FFFFFF" width="816.1" height="2"/>
					</g>
					<g id="XMLID_7155_">
						<rect id="XMLID_41_" x="-467.3" y="455.8" fill="#FFFFFF" width="816.1" height="2"/>
					</g>
					<g id="XMLID_7156_">
						<rect id="XMLID_40_" x="-467.3" y="482.9" fill="#FFFFFF" width="816.1" height="2"/>
					</g>
					<g id="XMLID_7157_">
						<rect id="XMLID_39_" x="-467.3" y="510" fill="#FFFFFF" width="816.1" height="2"/>
					</g>
					<g id="XMLID_7158_">
						<rect id="XMLID_38_" x="-467.3" y="537.2" fill="#FFFFFF" width="816.1" height="2"/>
					</g>
					<g id="XMLID_7159_">
						<rect id="XMLID_37_" x="-467.3" y="564.3" fill="#FFFFFF" width="816.1" height="2"/>
					</g>
					<g id="XMLID_7160_">
						<rect id="XMLID_36_" x="-467.3" y="591.4" fill="#FFFFFF" width="816.1" height="2"/>
					</g>
					<g id="XMLID_7161_">
						<rect id="XMLID_35_" x="-467.3" y="618.6" fill="#FFFFFF" width="816.1" height="2"/>
					</g>
					<g id="XMLID_7162_">
						<rect id="XMLID_34_" x="-467.3" y="645.7" fill="#FFFFFF" width="816.1" height="2"/>
					</g>
					<g id="XMLID_7191_">
						<rect id="XMLID_33_" x="-440" y="-141.2" fill="#FFFFFF" width="2" height="816.1"/>
					</g>
					<g id="XMLID_7190_">
						<rect id="XMLID_32_" x="-412.9" y="-141.2" fill="#FFFFFF" width="2" height="816.1"/>
					</g>
					<g id="XMLID_7189_">
						<rect id="XMLID_31_" x="-385.8" y="-141.2" fill="#FFFFFF" width="2" height="816.1"/>
					</g>
					<g id="XMLID_7188_">
						<rect id="XMLID_30_" x="-358.7" y="-141.2" fill="#FFFFFF" width="2" height="816.1"/>
					</g>
					<g id="XMLID_7186_">
						<rect id="XMLID_29_" x="-331.5" y="-141.2" fill="#FFFFFF" width="2" height="816.1"/>
					</g>
					<g id="XMLID_7185_">
						<rect id="XMLID_28_" x="-304.4" y="-141.2" fill="#FFFFFF" width="2" height="816.1"/>
					</g>
					<g id="XMLID_7184_">
						<rect id="XMLID_27_" x="-277.3" y="-141.2" fill="#FFFFFF" width="2" height="816.1"/>
					</g>
					<g id="XMLID_7183_">
						<rect id="XMLID_26_" x="-250.1" y="-141.2" fill="#FFFFFF" width="2" height="816.1"/>
					</g>
					<g id="XMLID_7182_">
						<rect id="XMLID_25_" x="-223" y="-141.2" fill="#FFFFFF" width="2" height="816.1"/>
					</g>
					<g id="XMLID_7181_">
						<rect id="XMLID_24_" x="-195.9" y="-141.2" fill="#FFFFFF" width="2" height="816.1"/>
					</g>
					<g id="XMLID_7180_">
						<rect id="XMLID_23_" x="-168.7" y="-141.2" fill="#FFFFFF" width="2" height="816.1"/>
					</g>
					<g id="XMLID_7179_">
						<rect id="XMLID_22_" x="-141.6" y="-141.2" fill="#FFFFFF" width="2" height="816.1"/>
					</g>
					<g id="XMLID_7178_">
						<rect id="XMLID_21_" x="-114.5" y="-141.2" fill="#FFFFFF" width="2" height="816.1"/>
					</g>
					<g id="XMLID_7177_">
						<rect id="XMLID_20_" x="-87.4" y="-141.2" fill="#FFFFFF" width="2" height="816.1"/>
					</g>
					<g id="XMLID_7176_">
						<rect id="XMLID_19_" x="-60.2" y="-141.2" fill="#FFFFFF" width="2" height="816.1"/>
					</g>
					<g id="XMLID_7175_">
						<rect id="XMLID_18_" x="-33.1" y="-141.2" fill="#FFFFFF" width="2" height="816.1"/>
					</g>
					<g id="XMLID_7174_">
						<rect id="XMLID_17_" x="-6" y="-141.2" fill="#FFFFFF" width="2" height="816.1"/>
					</g>
					<g id="XMLID_7173_">
						<rect id="XMLID_16_" x="21.2" y="-141.2" fill="#FFFFFF" width="2" height="816.1"/>
					</g>
					<g id="XMLID_7172_">
						<rect id="XMLID_15_" x="48.3" y="-141.2" fill="#FFFFFF" width="2" height="816.1"/>
					</g>
					<g id="XMLID_7171_">
						<rect id="XMLID_14_" x="75.4" y="-141.2" fill="#FFFFFF" width="2" height="816.1"/>
					</g>
					<g id="XMLID_7170_">
						<rect id="XMLID_13_" x="102.5" y="-141.2" fill="#FFFFFF" width="2" height="816.1"/>
					</g>
					<g id="XMLID_7169_">
						<rect id="XMLID_12_" x="129.7" y="-141.2" fill="#FFFFFF" width="2" height="816.1"/>
					</g>
					<g id="XMLID_7168_">
						<rect id="XMLID_11_" x="156.8" y="-141.2" fill="#FFFFFF" width="2" height="816.1"/>
					</g>
					<g id="XMLID_7167_">
						<rect id="XMLID_10_" x="183.9" y="-141.2" fill="#FFFFFF" width="2" height="816.1"/>
					</g>
					<g id="XMLID_7166_">
						<rect id="XMLID_9_" x="211.1" y="-141.2" fill="#FFFFFF" width="2" height="816.1"/>
					</g>
					<g id="XMLID_7165_">
						<rect id="XMLID_8_" x="238.2" y="-141.2" fill="#FFFFFF" width="2" height="816.1"/>
					</g>
					<g id="XMLID_7164_">
						<rect id="XMLID_7_" x="265.3" y="-141.2" fill="#FFFFFF" width="2" height="816.1"/>
					</g>
					<g id="XMLID_7163_">
						<rect id="XMLID_6_" x="292.5" y="-141.2" fill="#FFFFFF" width="2" height="816.1"/>
					</g>
					<g id="XMLID_7133_">
						<rect id="XMLID_5_" x="319.6" y="-141.2" fill="#FFFFFF" width="2" height="816.1"/>
					</g>
				</g>
			</g>
			<polygon id="XMLID_8601_" fill="#FFFFFF" points="311.9,576.6 733.9,154.6 733.9,0 311.9,0 			"/>
			<g id="XMLID_6707_">
				<defs>
					<polygon id="XMLID_6706_" points="311.9,576.6 733.9,154.6 733.9,0 311.9,0 					"/>
				</defs>
				<clipPath id="XMLID_65_">
					<use xlink:href="#XMLID_6706_"  overflow="visible"/>
				</clipPath>
				<g id="XMLID_6705_" clip-path="url(#XMLID_65_)">
					<path id="XMLID_6888_" fill="#E8CAFF" d="M334.2,88.1c0.5-0.1,2.1,0.3,3,0.3c1.9,0,3.5-0.8,5.2-1.4c3-1.2,6-2.6,8.8-4.2
						c6-3.4,11.6-7.8,16.7-12.4c9.4-8.5,21.8-20,22.7-33.4c0.4-5.7-6.6-9.1-11.2-6.4c-5.4,3.2-8.5,8-12.3,12.8
						c-3.7,4.7-7.6,9.1-11.9,13.2c-4.1,3.9-8.3,7.7-12.8,11.2c-2.3,1.8-4.4,3.6-6.6,5.4c-1.2,1-2.6,1.8-3.6,3
						c-1.1,1.2-1.4,3-2.6,3.9C325.6,83.2,329.8,89.3,334.2,88.1z"/>
					<path id="XMLID_6900_" fill="#E8CAFF" d="M399.3,90.1c7.9,7.6,23.2-2.5,30-7.9c4.4-3.5,7.8-7.5,10.4-12.5
						c1.8-3.4,4.3-9.9,0.8-13.1c-3.4-3.2-8.9,0.4-11.8,2.7c-4,3.1-7.9,6.2-11.8,9.5c-3.8,3.3-7.9,6.3-12.1,9.1
						C401.6,80.1,394.7,85.6,399.3,90.1z"/>
					<path id="XMLID_6908_" fill="#E8CAFF" d="M495.2,52.5c6.7,0,12.5-3.3,18.1-6.7c5.3-3.2,10.6-6.7,15.7-10.2
						c4.9-3.3,9.8-6.6,14.7-9.9c5.2-3.5,13-7.1,14.1-13.7c0.6-3.9-1-8.5-5.3-9.4c-7.3-1.6-12.4,3.3-18.1,7.2
						c-5.1,3.6-10.3,7.2-15.4,10.7c-5.1,3.6-10.2,7.3-15.2,11.1c-5.6,4.2-10.7,8.4-13.2,15.1C489.6,49.5,492.4,52.5,495.2,52.5z"/>
					<path id="XMLID_6915_" fill="#E8CAFF" d="M435.1,149c8.5-4.5,15.8-10.7,23.4-16.5c7.6-5.9,15.3-11.7,20.1-20.1
						c2.9-5-2-12.9-8.1-10.6c-5.3,2-9.3,4.4-13.6,8.1c-3.5,3-7,6-10.3,9.2c-7.1,6.7-14.3,13.3-20.1,21.2
						C422.3,145.8,430,151.7,435.1,149z"/>
					<path id="XMLID_8852_" fill="#E8CAFF" d="M528.1,119.5c9.5-0.8,17.4-5.5,25.1-10.8c7.9-5.5,15.9-12,21.4-19.9
						c6.8-9.7-7.7-19.5-15.8-12.2c-6,5.4-11.1,11.7-17.1,17.2c-5.9,5.4-12.7,9.7-17.6,16C521.4,113.3,522.7,120,528.1,119.5z"/>
					<path id="XMLID_8858_" fill="#E8CAFF" d="M478,216.5c1.8-0.4,3.7,0.1,5.5-0.5c1.8-0.6,3.6-1.7,5.2-2.6c4-2.2,7.7-4.8,11.5-7.3
						c3.8-2.5,7.5-5.2,11.2-7.8c4.2-3,8.2-5.4,9.4-10.8c1.2-5.5-2.5-10.2-8-10.6c-5.5-0.3-9,3.1-13.1,6.2c-3.6,2.8-7.1,5.6-10.6,8.6
						c-3.5,2.9-7,5.8-10.2,9c-1.3,1.4-2.8,2.7-3.8,4.3c-1,1.6-1.1,3.6-1.9,5.1C471.4,213.7,474.3,217.2,478,216.5z"/>
					<path id="XMLID_8864_" fill="#E8CAFF" d="M395.2,286.2c5.3,1.8,10-2.4,14.1-5.2c5-3.4,9.7-7.1,14.4-10.8
						c4.5-3.5,8.8-7.1,13.1-10.7c2.2-1.9,4.7-3.7,6.7-5.9c2.6-2.9,2.3-5.7,3.2-9.1c0.8-3.2-1.6-7.4-5.4-7.1
						c-2.8,0.3-5.4-0.3-8.1,0.8c-2.8,1.2-5.4,3.7-7.7,5.8c-4.7,4.1-9.4,8.4-13.8,12.8c-4.3,4.2-8.4,8.4-12.5,12.7
						c-3.7,4-8,7.9-6.9,13.8C392.5,284.7,393.8,285.7,395.2,286.2z"/>
					<path id="XMLID_8865_" fill="#E8CAFF" d="M389.9,201.7c7.1,5.1,16.5-0.7,22.1-5.7c2.7-2.4,5.1-5.3,7-8.3
						c2.6-4.1,2.8-7.8,2.8-12.1c0-3.6-2.6-7-6.1-8c-3.8-1.1-7.1,0.9-9.4,3.8c-0.3,0.3-0.5,0.7-0.8,1c1-1,2.1-2.1,3.1-3.1
						c-5.2,3.1-6.5,8.8-10.4,13c-3.9,4.2-9.7,7.3-10.9,13.2C386.8,198,387.8,200.2,389.9,201.7z"/>
					<path id="XMLID_8871_" fill="#E8CAFF" d="M340.8,159.7c5.3,2,10.2-0.5,14.7-3.2c4.3-2.6,8.5-5.4,12.5-8.7
						c7.9-6.5-2.3-19.4-10.8-14.1c-4.3,2.7-8.2,5.9-12.1,9.1c-4.1,3.4-7.6,7.1-7.4,12.7C337.7,157.6,338.9,159,340.8,159.7z"/>
					<path id="XMLID_8872_" fill="#E8CAFF" d="M306.7,313.4c11.6-4.6,21.5-14.9,30.9-23c4.7-4,9.5-8,14.1-12.1
						c5.1-4.6,11-8.9,14.2-15.2c3.1-6-2.2-15.9-9.9-12.8c-6.5,2.7-11.2,7.2-16.2,12c-4.7,4.5-9.4,9-14,13.6
						c-4.4,4.3-8.9,8.6-13.1,13.1c-4.5,4.8-9.8,9.6-12.8,15.6C297.8,308.7,301.4,315.5,306.7,313.4z"/>
					<path id="XMLID_8873_" fill="#E8CAFF" d="M332.9,375.8c9.2-0.8,37.5-6.9,31.7-21.2c-1.2-2.8-4.4-4.5-7.1-5.1
						c-4.3-0.9-7.7,0.8-11.5,2.6c-6.5,3-12.9,6.5-18.1,11.4C323.5,367.5,326.6,376.3,332.9,375.8z"/>
					<path id="XMLID_8874_" fill="#E8CAFF" d="M275.8,478.6c2.4-1.1,5-1.4,7.4-2.7c2.6-1.4,5-3,7.4-4.6c4.6-3,9.1-6.2,13.5-9.4
						c4.2-3,8.3-6.2,12.5-9.3c2.6-1.9,5.2-3.7,7.3-6.2c1.8-2.3,2.8-4.8,4.4-7.2c3.2-4.9-2.1-11.8-7.7-10c-2.3,0.7-4.7,1-7,1.9
						c-3.2,1.2-5.7,3.3-8.3,5.3c-4.4,3.4-8.7,6.7-13,10.2c-4,3.3-8,6.5-11.9,9.9c-2.2,1.9-4.4,3.8-6.4,5.9c-2.2,2.2-3.3,4.8-5.2,7.1
						C264.5,474.6,269.7,481.3,275.8,478.6z"/>
					<path id="XMLID_8875_" fill="#E8CAFF" d="M399,373.6c1.2,0.1,4.5,0.9,6.8,0.7c3-0.3,6.1-0.8,9-1.5c5.3-1.2,11.1-4.3,15.7-7.1
						c9.2-5.6,22.1-15.2,19.6-27.5c-0.2,1.5-0.4,3-0.6,4.4c0.7-1.4,1.4-2.8,2-4.2c2.2-4.8-3.4-9.8-7.6-5.9c-1.1,1.1-2.3,2.1-3.5,3.1
						c1.4-0.6,2.7-1.1,4.1-1.7c-10,0.1-17.2,9.7-24.7,15.1c-3.8,2.8-8,5-11.9,7.6c-2.2,1.4-4.3,2.7-6.6,4.1c-1.7,1-3.9,3.2-4.8,3.8
						C392.3,367.3,394.1,373.1,399,373.6z"/>
					<path id="XMLID_8876_" fill="#E8CAFF" d="M482.9,297.5c10.1-0.1,20.6-6.4,28.4-12.3c4.6-3.5,9.5-7.6,12.7-12.5
						c2.6-3.8,5.5-10.4,2.7-14.8c-6.3-9.8-19.4,4.8-24.4,9c-3.7,3.1-7.3,6.3-11.2,9.1c-4.4,3.1-9.3,5.7-13.2,9.5
						C473.7,289.8,476.9,297.6,482.9,297.5z"/>
					<path id="XMLID_8877_" fill="#E8CAFF" d="M494.6,346.9c7.2,10,24.4,0.4,31.8-5.3c8.8-6.8,19.5-18.5,16.7-30.6
						c-1.1-4.6-6.4-6.1-10.2-4.1c-4,2.1-7.6,6.8-10.4,10.2c-3.2,3.8-6.6,7.3-10.3,10.5c-3.3,2.8-6.8,5.4-10.5,7.6
						C498.3,337.1,491.2,342.3,494.6,346.9z"/>
					<path id="XMLID_8878_" fill="#E8CAFF" d="M592.8,214.4c5.1,13.8,29.2,2.2,37.4-2.5c11.7-6.6,24.7-17,29-30.2
						c3.4-10.2-10-16.5-17.1-10c-4.2,3.8-7.3,8.7-11.3,12.8c-3.8,3.8-7.8,7.3-12.3,10.1c-4.3,2.8-8.9,5.1-13.7,7.1
						C600.3,203.8,590.3,207.6,592.8,214.4z"/>
					<path id="XMLID_8879_" fill="#E8CAFF" d="M556.5,174.5c11.4,3.8,22.5,1.9,32.5-4.7c9.9-6.5,20.6-17.3,17.3-30.2
						c-1.2-4.7-7.2-7.2-11.3-4.6c-7.4,4.7-11,12.9-17.9,18.3c-5.8,4.5-13.7,8.6-20.6,10.9C551.4,165.9,551.4,172.8,556.5,174.5z"/>
					<path id="XMLID_8880_" fill="#E8CAFF" d="M661.6,92.8c3.6-1.3,7.5-1.6,11.1-2.9c3.9-1.4,7.6-3.1,11.3-4.9
						c6.7-3.3,13.2-7.1,19.4-11.3c6.5-4.4,12.7-9.1,18.6-14.2c6.3-5.4,14.3-10.9,13.8-20.2c-0.2-4.4-3.6-8.2-8.2-8.2
						c-8.8,0-13.5,6.8-19.4,12.2c-5,4.7-10.3,9.1-15.9,13.1c-5.8,4.2-11.8,8.3-18,12c-2.8,1.7-5.7,3.4-8.5,5.1
						c-3.2,2-6.4,4.8-9.7,6.4C649.2,83.4,654.2,95.4,661.6,92.8z"/>
					<path id="XMLID_8881_" fill="#E8CAFF" d="M611.4,39.7c3.2-1.5,8.3-2.9,12.4-5.7c4.2-2.9,8.7-5.6,13.1-8.2
						c4.3-2.5,8.6-4.8,13.1-6.8c6-2.6,11.6-4.5,13.4-11.5c1-4-0.8-7.4-4-9.7c-6.4-4.6-13.5-1.1-19.7,2c-5.1,2.5-10.2,5.4-14.8,8.8
						c-4.7,3.5-9,7.2-13,11.4c-4.3,4.6-5.6,9.6-7.4,14.4C602.9,38.6,608.1,41.2,611.4,39.7z"/>
					<path id="XMLID_8882_" fill="#E8CAFF" d="M700.6,152.4c10.1-2.2,19.9-9.8,28.6-15.2c4.5-2.8,8.9-5.9,13.3-8.9
						c2.3-1.5,4.7-3.1,6.7-4.9c1.4-1.2,2.4-2.4,3.2-4.1c0.9-2,0.4-3.9,0.9-6c0.9-3.8-1.7-6.7-5.4-7.1c-1.6-0.2-3.1-1.2-4.9-1.2
						c-1.8,0-3.6,0.6-5.2,1.4c-2.3,1.2-4.4,3.1-6.5,4.7c-4.7,3.5-9.4,7-14,10.6c-8,6.4-18,13-23.4,21.9
						C691.2,148.3,695.8,153.4,700.6,152.4z"/>
					<path id="XMLID_8883_" fill="#E8CAFF" d="M379.8,447.2c8-2.4,15.1-6.8,22.1-11.4c3.3-2.2,7.9-4.4,9.9-7.9
						c2-3.5,2.8-8.2,0.2-11.6c-6.2-8.1-15.9-0.8-21.7,3.6c-6.8,5.2-13.2,10.2-18.4,17.2C368.3,442,374.4,448.8,379.8,447.2z"/>
					<path id="XMLID_8884_" fill="#E8CAFF" d="M315.2,531.2c-1.1,1.6,2.9-2.4,3.3-2.8c1.4-1.5,2.7-3,4.2-4.4
						c2.6-2.6,5.2-5.2,8.1-7.5c6.2-4.9,13.5-7.4,20-11.8c6.8-4.6,5.2-17.9-4.6-17c-10.3,0.9-19.8,7-27.4,13.9
						c-3.6,3.2-6.9,6.9-9.6,10.9c-1.3,1.9-2.4,3.9-3.4,5.9c-1.2,2.5-1.4,5.2-2.4,7.6c-1.2,3,1.1,6.6,3.8,7.7
						C310.2,535.2,313.2,533.9,315.2,531.2z"/>
					<path id="XMLID_8885_" fill="#E8CAFF" d="M288.8,221c-1.6,1.1-3.7,3-5.7,3.2c-7.7,0.8-8,11.7,0,12.2c5.8,0.4,11.8-4.1,16.6-7.1
						c5.3-3.4,10.5-6.8,15.7-10.4c9.7-6.7,21.4-14.1,25.2-26c0.9-2.9-1.5-5.8-4.4-5.8c-12.5,0-23.3,9.1-32.6,16.4
						c-4.7,3.6-9.3,7.4-13.9,11.1c-4.6,3.8-10.9,8.1-12.3,14.1c3.9,1.1,7.8,2.2,11.8,3.2c0.6-2,2.8-3.8,4.3-5.2
						C296.2,224,292.2,218.6,288.8,221z"/>
					<path id="XMLID_8886_" fill="#E8CAFF" d="M542.9,296.5c9.2-0.7,16.7-4.5,23.6-10.6c7.1-6.3,14.5-16.1,7.2-24.8
						c0.5,1.3,1.1,2.6,1.6,3.9c0-0.5,0-0.9,0-1.4c-0.1-3.9-5.8-7.3-8.6-3.6c-0.3,0.3-0.5,0.7-0.8,1c1.3-0.5,2.6-1.1,3.9-1.6
						c-4.9,0.6-7.7,2.1-10.2,6.4c-1.5,2.5-2.9,5.1-4.7,7.4c-4,5-9.5,8.6-15,11.7C534.6,287.8,536.6,297,542.9,296.5z"/>
				</g>
			</g>
			
				<text id="XMLID_8740_" transform="matrix(1 0 0 1 313.1837 829.1747)" fill="#FFFFFF" font-family="'PTSans-Bold'" font-size="155.0177px">Memphis</text>
			
				<text id="XMLID_8739_" transform="matrix(1 0 0 1 311.9215 965.5677)" fill="#FFFFFF" font-family="'PTSans-Bold'" font-size="155.0177px">Design</text>
			<rect id="XMLID_8738_" x="320.6" y="1019.9" fill="#FFFFFF" width="66" height="15.8"/>
			<text id="XMLID_8737_" transform="matrix(1 0 0 1 320.6391 1108.8752)"><tspan x="0" y="0" fill="#FFFFFF" font-family="'OpenSansLight-Italic'" font-size="24px">Lorem ipsum dolor sit amet, consectetur adipiscing elit. </tspan><tspan x="0" y="35" fill="#FFFFFF" font-family="'OpenSansLight-Italic'" font-size="24px">Etiam consequat convallis ligula eget posuere. </tspan><tspan x="0" y="70" fill="#FFFFFF" font-family="'OpenSansLight-Italic'" font-size="24px">Praesent dapibus augue eget sem ultrices laoreet.</tspan></text>
			<g id="XMLID_8683_">
				<polygon id="XMLID_8684_" fill="#FFFFFF" points="1019.9,737 1019.9,747 1030,737 				"/>
				<polygon id="XMLID_8773_" fill="#FFFFFF" points="1089.2,737 1019.9,806.2 1019.9,821.1 1104.1,737 				"/>
				<polygon id="XMLID_8774_" fill="#FFFFFF" points="1163.2,737 1019.9,880.3 1019.9,895.2 1178.1,737 				"/>
				<polygon id="XMLID_8775_" fill="#FFFFFF" points="1237.3,737 1019.9,954.4 1019.9,961 1028.2,961 1243.9,745.3 1243.9,737 				
					"/>
				<polygon id="XMLID_8776_" fill="#FFFFFF" points="1102.3,961 1243.9,819.4 1243.9,804.4 1087.4,961 				"/>
				<polygon id="XMLID_8777_" fill="#FFFFFF" points="1176.4,961 1243.9,893.4 1243.9,878.5 1161.5,961 				"/>
				<polygon id="XMLID_8778_" fill="#FFFFFF" points="1243.9,961 1243.9,952.6 1235.5,961 				"/>
			</g>
			<path id="XMLID_6917_" fill="#C77FFF" d="M932,39c34.4-19.1,78.3,3.4,95.8,35.4c23.9,43.7,6.6,98.3-17.8,137.7
				c-27.1,43.9-65.3,79.5-93.2,122.8c-25.2,39.1-46.6,92.8-27.3,138.8c8.8,20.9,26.7,35.5,48.7,40.7c21.4,5.1,44.1,2.5,65.2-2.7
				c25.3-6.2,49.7-16.9,75.8-19.4c24.4-2.4,47,4.2,65.4,20.5c36.6,32.3,49.1,82,78.6,119.7c27.5,35.1,69,53.5,112.8,57.1
				c44.6,3.6,88.8-7.9,127.9-28.9c44-23.6,81.4-57.5,116.6-92.5c8.8-8.8,17.6-17.7,26.3-26.7c6.7-6.9-3.8-17.5-10.6-10.6
				c-64.9,66.5-139.2,141.6-238.4,144.3c-41.2,1.1-83.7-10.8-113.1-40.8c-34.2-34.9-46.1-85.1-78.6-121.4
				c-15.4-17.1-35.3-30.9-58.3-34.8c-26.8-4.5-53.3,2.6-78.8,10.3c-22.1,6.7-44.1,13.8-67.5,13.5c-20.3-0.2-41.4-6.7-53.1-24.4
				c-12.6-19.2-13-44.1-8.7-65.9c4.8-24.4,15.7-47,29-67.9c27.7-43.5,65.9-79.1,93.2-122.8c25.8-41.1,42.5-94.6,24.3-142
				c-14.1-36.8-53.3-66-93.8-61.9c-10,1-19.4,3.8-28.1,8.7C916,30.7,923.5,43.7,932,39z"/>
			<g id="XMLID_6704_">
				<polygon id="XMLID_6732_" fill="#90FFCE" points="1019.9,1064.3 1095.3,1123.2 1160.6,1072.2 1225.8,1123.2 1291.1,1072.2 
					1356.4,1123.2 1421.7,1072.2 1486.9,1123.2 1552.2,1072.2 1617.5,1123.2 1682.7,1072.2 1748,1123.2 1813.3,1072.2 
					1878.6,1123.2 1943.9,1072.2 2009.1,1123.2 2074.4,1072.2 2139.7,1123.2 2205,1072.2 2270.2,1123.2 2335.5,1072.2 
					2400.8,1123.2 2466.1,1072.2 2531.4,1123.2 2596.7,1072.2 2661.9,1123.2 2727.2,1072.2 2792.5,1123.2 2857.8,1072.2 
					2923.1,1123.2 2988.4,1072.2 3053.7,1123.2 3119,1072.2 3184.3,1123.2 3249.6,1072.2 3304.8,1115.3 3325,1089.5 3249.6,1030.5 
					3184.3,1081.6 3119,1030.5 3053.7,1081.6 2988.4,1030.5 2923.1,1081.6 2857.8,1030.5 2792.5,1081.6 2727.2,1030.5 
					2661.9,1081.6 2596.7,1030.5 2531.4,1081.6 2466.1,1030.5 2400.8,1081.6 2335.5,1030.5 2270.2,1081.6 2205,1030.5 
					2139.7,1081.6 2074.4,1030.5 2009.1,1081.6 1943.9,1030.5 1878.6,1081.6 1813.3,1030.5 1748,1081.6 1682.7,1030.5 
					1617.5,1081.6 1552.2,1030.5 1486.9,1081.6 1421.7,1030.5 1356.4,1081.6 1291.1,1030.5 1225.8,1081.6 1160.6,1030.5 
					1095.3,1081.6 1040.1,1038.4 1019.9,1064.3 				"/>
				<polygon id="XMLID_6858_" fill="#90FFCE" points="1019.9,1171.8 1095.3,1230.8 1160.6,1179.7 1225.8,1230.8 1291.1,1179.7 
					1356.4,1230.8 1421.7,1179.7 1486.9,1230.8 1552.2,1179.7 1617.5,1230.8 1682.7,1179.7 1748,1230.8 1813.3,1179.7 
					1878.6,1230.8 1943.9,1179.7 2009.1,1230.8 2074.4,1179.7 2139.7,1230.8 2205,1179.7 2270.2,1230.8 2335.5,1179.7 
					2400.8,1230.8 2466.1,1179.7 2531.4,1230.8 2596.7,1179.7 2661.9,1230.8 2727.2,1179.7 2792.5,1230.8 2857.8,1179.7 
					2923.1,1230.8 2988.4,1179.7 3053.7,1230.8 3119,1179.7 3184.3,1230.8 3249.6,1179.7 3304.8,1222.9 3325,1197 3249.6,1138.1 
					3184.3,1189.1 3119,1138.1 3053.7,1189.1 2988.4,1138.1 2923.1,1189.1 2857.8,1138.1 2792.5,1189.1 2727.2,1138.1 
					2661.9,1189.1 2596.7,1138.1 2531.4,1189.1 2466.1,1138.1 2400.8,1189.1 2335.5,1138.1 2270.2,1189.1 2205,1138.1 
					2139.7,1189.1 2074.4,1138.1 2009.1,1189.1 1943.9,1138.1 1878.6,1189.1 1813.3,1138.1 1748,1189.1 1682.7,1138.1 
					1617.5,1189.1 1552.2,1138.1 1486.9,1189.1 1421.7,1138.1 1356.4,1189.1 1291.1,1138.1 1225.8,1189.1 1160.6,1138.1 
					1095.3,1189.1 1040.1,1146 1019.9,1171.8 				"/>
				<polygon id="XMLID_6859_" fill="#90FFCE" points="1019.9,1279.4 1095.3,1338.3 1160.6,1287.3 1225.8,1338.3 1291.1,1287.3 
					1356.4,1338.3 1421.7,1287.3 1486.9,1338.3 1552.2,1287.3 1617.5,1338.3 1682.7,1287.3 1748,1338.3 1813.3,1287.3 
					1878.6,1338.3 1943.9,1287.3 2009.1,1338.3 2074.4,1287.3 2139.7,1338.3 2205,1287.3 2270.2,1338.3 2335.5,1287.3 
					2400.8,1338.3 2466.1,1287.3 2531.4,1338.3 2596.7,1287.3 2661.9,1338.3 2727.2,1287.3 2792.5,1338.3 2857.8,1287.3 
					2923.1,1338.3 2988.4,1287.3 3053.7,1338.3 3119,1287.3 3184.3,1338.3 3249.6,1287.3 3304.8,1330.4 3325,1304.6 3249.6,1245.6 
					3184.3,1296.7 3119,1245.6 3053.7,1296.7 2988.4,1245.6 2923.1,1296.7 2857.8,1245.6 2792.5,1296.7 2727.2,1245.6 
					2661.9,1296.7 2596.7,1245.6 2531.4,1296.7 2466.1,1245.6 2400.8,1296.7 2335.5,1245.6 2270.2,1296.7 2205,1245.6 
					2139.7,1296.7 2074.4,1245.6 2009.1,1296.7 1943.9,1245.6 1878.6,1296.7 1813.3,1245.6 1748,1296.7 1682.7,1245.6 
					1617.5,1296.7 1552.2,1245.6 1486.9,1296.7 1421.7,1245.6 1356.4,1296.7 1291.1,1245.6 1225.8,1296.7 1160.6,1245.6 
					1095.3,1296.7 1040.1,1253.5 1019.9,1279.4 				"/>
				<polygon id="XMLID_6860_" fill="#90FFCE" points="1019.9,1386.9 1095.3,1445.9 1160.6,1394.8 1225.8,1445.9 1291.1,1394.8 
					1356.4,1445.9 1421.7,1394.8 1486.9,1445.9 1552.2,1394.8 1617.5,1445.9 1682.7,1394.8 1748,1445.9 1813.3,1394.8 
					1878.6,1445.9 1943.9,1394.8 2009.1,1445.9 2074.4,1394.8 2139.7,1445.9 2205,1394.8 2270.2,1445.9 2335.5,1394.8 
					2400.8,1445.9 2466.1,1394.8 2531.4,1445.9 2596.7,1394.8 2661.9,1445.9 2727.2,1394.8 2792.5,1445.9 2857.8,1394.8 
					2923.1,1445.9 2988.4,1394.8 3053.7,1445.9 3119,1394.8 3184.3,1445.9 3249.6,1394.8 3304.8,1438 3325,1412.1 3249.6,1353.2 
					3184.3,1404.2 3119,1353.2 3053.7,1404.2 2988.4,1353.2 2923.1,1404.2 2857.8,1353.2 2792.5,1404.2 2727.2,1353.2 
					2661.9,1404.2 2596.7,1353.2 2531.4,1404.2 2466.1,1353.2 2400.8,1404.2 2335.5,1353.2 2270.3,1404.2 2205,1353.2 
					2139.7,1404.2 2074.4,1353.2 2009.1,1404.2 1943.9,1353.2 1878.6,1404.2 1813.3,1353.2 1748,1404.2 1682.7,1353.2 
					1617.5,1404.2 1552.2,1353.2 1486.9,1404.2 1421.7,1353.2 1356.4,1404.2 1291.1,1353.2 1225.8,1404.2 1160.6,1353.2 
					1095.3,1404.2 1040.1,1361.1 1019.9,1386.9 				"/>
				<polygon id="XMLID_6861_" fill="#90FFCE" points="1019.9,1494.5 1095.3,1553.4 1160.6,1502.4 1225.8,1553.4 1291.1,1502.4 
					1356.4,1553.4 1421.7,1502.4 1486.9,1553.4 1552.2,1502.4 1617.5,1553.4 1682.7,1502.4 1748,1553.4 1813.3,1502.4 
					1878.6,1553.4 1943.9,1502.4 2009.1,1553.4 2074.4,1502.4 2139.7,1553.4 2205,1502.4 2270.2,1553.4 2335.5,1502.4 
					2400.8,1553.4 2466.1,1502.4 2531.4,1553.4 2596.7,1502.4 2661.9,1553.4 2727.2,1502.4 2792.5,1553.4 2857.8,1502.4 
					2923.1,1553.4 2988.4,1502.4 3053.7,1553.4 3119,1502.4 3184.3,1553.4 3249.6,1502.4 3304.8,1545.5 3325,1519.7 3249.6,1460.7 
					3184.3,1511.8 3119,1460.7 3053.7,1511.8 2988.4,1460.7 2923.1,1511.8 2857.8,1460.7 2792.5,1511.8 2727.2,1460.7 
					2661.9,1511.8 2596.7,1460.7 2531.4,1511.8 2466.1,1460.7 2400.8,1511.8 2335.5,1460.7 2270.3,1511.8 2205,1460.7 
					2139.7,1511.8 2074.4,1460.7 2009.1,1511.8 1943.9,1460.7 1878.6,1511.8 1813.3,1460.7 1748,1511.8 1682.7,1460.7 
					1617.5,1511.8 1552.2,1460.7 1486.9,1511.8 1421.7,1460.7 1356.4,1511.8 1291.1,1460.7 1225.8,1511.8 1160.6,1460.7 
					1095.3,1511.8 1040.1,1468.6 1019.9,1494.5 				"/>
				<polygon id="XMLID_6862_" fill="#90FFCE" points="1019.9,1602 1095.3,1661 1160.6,1609.9 1225.8,1661 1291.1,1609.9 
					1356.4,1661 1421.7,1609.9 1486.9,1661 1552.2,1609.9 1617.5,1661 1682.7,1609.9 1748,1661 1813.3,1609.9 1878.6,1661 
					1943.9,1609.9 2009.1,1661 2074.4,1609.9 2139.7,1661 2205,1609.9 2270.2,1661 2335.5,1609.9 2400.8,1661 2466.1,1609.9 
					2531.4,1661 2596.7,1609.9 2661.9,1661 2727.2,1609.9 2792.5,1661 2857.8,1609.9 2923.1,1661 2988.4,1609.9 3053.7,1661 
					3119,1609.9 3184.3,1661 3249.6,1609.9 3304.8,1653.1 3325,1627.3 3249.6,1568.3 3184.3,1619.4 3119,1568.3 3053.7,1619.4 
					2988.4,1568.3 2923.1,1619.4 2857.8,1568.3 2792.5,1619.4 2727.2,1568.3 2661.9,1619.4 2596.7,1568.3 2531.4,1619.4 
					2466.1,1568.3 2400.8,1619.4 2335.5,1568.3 2270.2,1619.4 2205,1568.3 2139.7,1619.4 2074.4,1568.3 2009.1,1619.4 
					1943.9,1568.3 1878.6,1619.4 1813.3,1568.3 1748,1619.4 1682.7,1568.3 1617.5,1619.4 1552.2,1568.3 1486.9,1619.4 
					1421.7,1568.3 1356.4,1619.4 1291.1,1568.3 1225.8,1619.4 1160.6,1568.3 1095.3,1619.4 1040.1,1576.2 1019.9,1602 				"/>
				<polygon id="XMLID_6863_" fill="#90FFCE" points="1019.9,1709.6 1095.3,1768.6 1160.6,1717.5 1225.8,1768.6 1291.1,1717.5 
					1356.4,1768.6 1421.7,1717.5 1486.9,1768.6 1552.2,1717.5 1617.5,1768.6 1682.7,1717.5 1748,1768.6 1813.3,1717.5 
					1878.6,1768.6 1943.9,1717.5 2009.1,1768.6 2074.4,1717.5 2139.7,1768.6 2205,1717.5 2270.2,1768.6 2335.5,1717.5 
					2400.8,1768.6 2466.1,1717.5 2531.4,1768.6 2596.7,1717.5 2661.9,1768.6 2727.2,1717.5 2792.5,1768.6 2857.8,1717.5 
					2923.1,1768.6 2988.4,1717.5 3053.7,1768.6 3119,1717.5 3184.3,1768.6 3249.6,1717.5 3304.8,1760.7 3325,1734.8 3249.6,1675.9 
					3184.3,1726.9 3119,1675.9 3053.7,1726.9 2988.4,1675.9 2923.1,1726.9 2857.8,1675.9 2792.5,1726.9 2727.2,1675.9 
					2661.9,1726.9 2596.7,1675.8 2531.4,1726.9 2466.1,1675.9 2400.8,1726.9 2335.5,1675.9 2270.2,1726.9 2205,1675.9 
					2139.7,1726.9 2074.4,1675.9 2009.1,1726.9 1943.9,1675.8 1878.6,1726.9 1813.3,1675.8 1748,1726.9 1682.7,1675.8 
					1617.5,1726.9 1552.2,1675.8 1486.9,1726.9 1421.7,1675.8 1356.4,1726.9 1291.1,1675.8 1225.8,1726.9 1160.6,1675.8 
					1095.3,1726.9 1040.1,1683.8 1019.9,1709.6 				"/>
				<polygon id="XMLID_6864_" fill="#90FFCE" points="1019.9,1817.2 1095.3,1876.1 1160.6,1825.1 1225.8,1876.1 1291.1,1825.1 
					1356.4,1876.1 1421.7,1825.1 1486.9,1876.1 1552.2,1825.1 1617.5,1876.1 1682.7,1825.1 1748,1876.1 1813.3,1825.1 
					1878.6,1876.1 1943.9,1825.1 2009.1,1876.1 2074.4,1825.1 2139.7,1876.1 2205,1825.1 2270.2,1876.1 2335.5,1825.1 
					2400.8,1876.1 2466.1,1825.1 2531.4,1876.1 2596.7,1825.1 2661.9,1876.1 2727.2,1825.1 2792.5,1876.1 2857.8,1825.1 
					2923.1,1876.1 2988.4,1825.1 3053.7,1876.1 3119,1825.1 3184.3,1876.1 3249.6,1825.1 3304.8,1868.2 3325,1842.4 3249.6,1783.4 
					3184.3,1834.5 3119,1783.4 3053.7,1834.5 2988.4,1783.4 2923.1,1834.5 2857.8,1783.4 2792.5,1834.5 2727.2,1783.4 
					2661.9,1834.5 2596.7,1783.4 2531.4,1834.5 2466.1,1783.4 2400.8,1834.5 2335.5,1783.4 2270.2,1834.5 2205,1783.4 
					2139.7,1834.5 2074.4,1783.4 2009.1,1834.5 1943.9,1783.4 1878.6,1834.5 1813.3,1783.4 1748,1834.5 1682.7,1783.4 
					1617.5,1834.5 1552.2,1783.4 1486.9,1834.5 1421.7,1783.4 1356.4,1834.5 1291.1,1783.4 1225.8,1834.5 1160.6,1783.4 
					1095.3,1834.5 1040.1,1791.3 1019.9,1817.2 				"/>
				<polygon id="XMLID_6865_" fill="#90FFCE" points="1019.9,1924.7 1095.3,1983.7 1160.6,1932.6 1225.8,1983.7 1291.1,1932.6 
					1356.4,1983.7 1421.7,1932.6 1486.9,1983.7 1552.2,1932.6 1617.5,1983.7 1682.7,1932.6 1748,1983.7 1813.3,1932.6 
					1878.6,1983.7 1943.9,1932.6 2009.1,1983.7 2074.4,1932.6 2139.7,1983.7 2205,1932.6 2270.2,1983.7 2335.5,1932.6 
					2400.8,1983.7 2466.1,1932.6 2531.4,1983.7 2596.7,1932.6 2661.9,1983.7 2727.2,1932.6 2792.5,1983.7 2857.8,1932.6 
					2923.1,1983.7 2988.4,1932.6 3053.7,1983.7 3119,1932.6 3184.3,1983.7 3249.6,1932.6 3304.8,1975.8 3325,1949.9 3249.6,1891 
					3184.3,1942 3119,1891 3053.7,1942 2988.4,1891 2923.1,1942 2857.8,1891 2792.5,1942 2727.2,1891 2661.9,1942 2596.7,1891 
					2531.4,1942 2466.1,1891 2400.8,1942 2335.5,1891 2270.3,1942 2205,1891 2139.7,1942 2074.4,1891 2009.1,1942 1943.9,1891 
					1878.6,1942 1813.3,1891 1748,1942 1682.7,1891 1617.5,1942 1552.2,1891 1486.9,1942 1421.7,1891 1356.4,1942 1291.1,1891 
					1225.8,1942 1160.6,1891 1095.3,1942 1040.1,1898.9 1019.9,1924.7 				"/>
				<polygon id="XMLID_6866_" fill="#90FFCE" points="1019.9,2032.3 1095.3,2091.2 1160.6,2040.2 1225.8,2091.2 1291.1,2040.2 
					1356.4,2091.2 1421.7,2040.2 1486.9,2091.2 1552.2,2040.2 1617.5,2091.2 1682.7,2040.2 1748,2091.2 1813.3,2040.2 
					1878.6,2091.2 1943.9,2040.2 2009.1,2091.2 2074.4,2040.2 2139.7,2091.2 2205,2040.2 2270.2,2091.2 2335.5,2040.2 
					2400.8,2091.2 2466.1,2040.2 2531.4,2091.2 2596.7,2040.2 2661.9,2091.2 2727.2,2040.2 2792.5,2091.2 2857.8,2040.2 
					2923.1,2091.2 2988.4,2040.2 3053.7,2091.2 3119,2040.2 3184.3,2091.2 3249.6,2040.2 3304.8,2083.3 3325,2057.5 3249.6,1998.5 
					3184.3,2049.6 3119,1998.5 3053.7,2049.6 2988.4,1998.5 2923.1,2049.6 2857.8,1998.5 2792.5,2049.6 2727.2,1998.5 
					2661.9,2049.6 2596.7,1998.5 2531.4,2049.6 2466.1,1998.5 2400.8,2049.6 2335.5,1998.5 2270.3,2049.6 2205,1998.5 
					2139.7,2049.6 2074.4,1998.5 2009.1,2049.6 1943.9,1998.5 1878.6,2049.6 1813.3,1998.5 1748,2049.6 1682.7,1998.5 
					1617.5,2049.6 1552.2,1998.5 1486.9,2049.6 1421.7,1998.5 1356.4,2049.6 1291.1,1998.5 1225.8,2049.6 1160.6,1998.5 
					1095.3,2049.6 1040.1,2006.4 1019.9,2032.3 				"/>
				<polygon id="XMLID_6867_" fill="#90FFCE" points="1019.9,2139.8 1095.3,2198.8 1160.6,2147.7 1225.8,2198.8 1291.1,2147.7 
					1356.4,2198.8 1421.7,2147.7 1486.9,2198.8 1552.2,2147.7 1617.5,2198.8 1682.7,2147.7 1748,2198.8 1813.3,2147.7 
					1878.6,2198.8 1943.9,2147.7 2009.1,2198.8 2074.4,2147.7 2139.7,2198.8 2205,2147.7 2270.2,2198.8 2335.5,2147.7 
					2400.8,2198.8 2466.1,2147.7 2531.4,2198.8 2596.7,2147.7 2661.9,2198.8 2727.2,2147.7 2792.5,2198.8 2857.8,2147.7 
					2923.1,2198.8 2988.4,2147.7 3053.7,2198.8 3119,2147.7 3184.3,2198.8 3249.6,2147.7 3304.8,2190.9 3325,2165 3249.6,2106.1 
					3184.3,2157.1 3119,2106.1 3053.7,2157.1 2988.4,2106.1 2923.1,2157.1 2857.8,2106.1 2792.5,2157.1 2727.2,2106.1 
					2661.9,2157.1 2596.7,2106.1 2531.4,2157.1 2466.1,2106.1 2400.8,2157.1 2335.5,2106.1 2270.2,2157.1 2205,2106.1 
					2139.7,2157.1 2074.4,2106.1 2009.1,2157.1 1943.9,2106.1 1878.6,2157.1 1813.3,2106.1 1748,2157.1 1682.7,2106.1 
					1617.5,2157.1 1552.2,2106.1 1486.9,2157.1 1421.7,2106.1 1356.4,2157.1 1291.1,2106.1 1225.8,2157.1 1160.6,2106.1 
					1095.3,2157.1 1040.1,2114 1019.9,2139.8 				"/>
				<polygon id="XMLID_6868_" fill="#90FFCE" points="1019.9,2247.4 1095.3,2306.3 1160.6,2255.3 1225.8,2306.3 1291.1,2255.3 
					1356.4,2306.3 1421.7,2255.3 1486.9,2306.3 1552.2,2255.3 1617.5,2306.3 1682.7,2255.3 1748,2306.3 1813.3,2255.3 
					1878.6,2306.3 1943.9,2255.3 2009.1,2306.3 2074.4,2255.3 2139.7,2306.3 2205,2255.3 2270.2,2306.3 2335.5,2255.3 
					2400.8,2306.3 2466.1,2255.3 2531.4,2306.3 2596.7,2255.3 2661.9,2306.3 2727.2,2255.3 2792.5,2306.3 2857.8,2255.3 
					2923.1,2306.3 2988.4,2255.3 3053.7,2306.3 3119,2255.3 3184.3,2306.3 3249.6,2255.3 3304.8,2298.4 3325,2272.6 3249.6,2213.6 
					3184.3,2264.7 3119,2213.6 3053.7,2264.7 2988.4,2213.6 2923.1,2264.7 2857.8,2213.6 2792.5,2264.7 2727.2,2213.6 
					2661.9,2264.7 2596.7,2213.6 2531.4,2264.7 2466.1,2213.6 2400.8,2264.7 2335.5,2213.6 2270.2,2264.7 2205,2213.6 
					2139.7,2264.7 2074.4,2213.6 2009.1,2264.7 1943.9,2213.6 1878.6,2264.7 1813.3,2213.6 1748,2264.7 1682.7,2213.6 
					1617.5,2264.7 1552.2,2213.6 1486.9,2264.7 1421.7,2213.6 1356.4,2264.7 1291.1,2213.6 1225.8,2264.7 1160.6,2213.6 
					1095.3,2264.7 1040.1,2221.5 1019.9,2247.4 				"/>
				<polygon id="XMLID_6869_" fill="#90FFCE" points="1019.9,2354.9 1095.3,2413.9 1160.6,2362.8 1225.8,2413.9 1291.1,2362.8 
					1356.4,2413.9 1421.7,2362.8 1486.9,2413.9 1552.2,2362.8 1617.5,2413.9 1682.7,2362.8 1748,2413.9 1813.3,2362.8 
					1878.6,2413.9 1943.9,2362.8 2009.1,2413.9 2074.4,2362.8 2139.7,2413.9 2205,2362.8 2270.2,2413.9 2335.5,2362.8 
					2400.8,2413.9 2466.1,2362.8 2531.4,2413.9 2596.7,2362.8 2661.9,2413.9 2727.2,2362.8 2792.5,2413.9 2857.8,2362.8 
					2923.1,2413.9 2988.4,2362.8 3053.7,2413.9 3119,2362.8 3184.3,2413.9 3249.6,2362.8 3304.8,2406 3325,2380.2 3249.6,2321.2 
					3184.3,2372.3 3119,2321.2 3053.7,2372.2 2988.4,2321.2 2923.1,2372.2 2857.8,2321.2 2792.5,2372.2 2727.2,2321.2 
					2661.9,2372.2 2596.7,2321.2 2531.4,2372.2 2466.1,2321.2 2400.8,2372.2 2335.5,2321.2 2270.2,2372.2 2205,2321.2 
					2139.7,2372.2 2074.4,2321.2 2009.1,2372.2 1943.9,2321.2 1878.6,2372.2 1813.3,2321.2 1748,2372.2 1682.7,2321.2 
					1617.5,2372.2 1552.2,2321.2 1486.9,2372.2 1421.7,2321.2 1356.4,2372.2 1291.1,2321.2 1225.8,2372.2 1160.6,2321.2 
					1095.3,2372.2 1040.1,2329.1 1019.9,2354.9 				"/>
				<polygon id="XMLID_6870_" fill="#90FFCE" points="1019.9,2462.5 1095.3,2521.5 1160.6,2470.4 1225.8,2521.5 1291.1,2470.4 
					1356.4,2521.5 1421.7,2470.4 1486.9,2521.5 1552.2,2470.4 1617.5,2521.5 1682.7,2470.4 1748,2521.5 1813.3,2470.4 
					1878.6,2521.5 1943.9,2470.4 2009.1,2521.5 2074.4,2470.4 2139.7,2521.5 2205,2470.4 2270.2,2521.5 2335.5,2470.4 
					2400.8,2521.5 2466.1,2470.4 2531.4,2521.5 2596.7,2470.4 2661.9,2521.5 2727.2,2470.4 2792.5,2521.5 2857.8,2470.4 
					2923.1,2521.5 2988.4,2470.4 3053.7,2521.5 3119,2470.4 3184.3,2521.5 3249.6,2470.4 3304.8,2513.6 3325,2487.7 3249.6,2428.8 
					3184.3,2479.8 3119,2428.7 3053.7,2479.8 2988.4,2428.7 2923.1,2479.8 2857.8,2428.7 2792.5,2479.8 2727.2,2428.7 
					2661.9,2479.8 2596.7,2428.7 2531.4,2479.8 2466.1,2428.7 2400.8,2479.8 2335.5,2428.7 2270.3,2479.8 2205,2428.7 
					2139.7,2479.8 2074.4,2428.7 2009.1,2479.8 1943.9,2428.7 1878.6,2479.8 1813.3,2428.7 1748,2479.8 1682.7,2428.7 
					1617.5,2479.8 1552.2,2428.7 1486.9,2479.8 1421.7,2428.7 1356.4,2479.8 1291.1,2428.7 1225.8,2479.8 1160.6,2428.7 
					1095.3,2479.8 1040.1,2436.7 1019.9,2462.5 				"/>
			</g>
			<circle id="XMLID_6708_" fill="#90FFCE" cx="1338" cy="70.9" r="186"/>
			<path id="XMLID_6713_" fill="#FFFFFF" d="M-47.9,831.3c70.6-5.5,137.1,29.3,184.4,80c53,56.9,78.6,132.9,87.6,208.9
				c4.9,41.1,5.5,82.6,3.9,124c-1.5,39.4-6.3,79.2,0.8,118.3c6.4,34.9,24.5,65.7,53.9,85.9c26.7,18.4,59.4,26.5,91.4,29.3
				c81,7,159-27.6,239.9-20.5c10.7,0.9,21.3,2.8,31.8,5.5c9.4,2.4,13.3-12.1,4-14.5c-43-11-87.4-6.9-130.7,0
				c-39.2,6.2-78.2,15.2-118,15.4c-32,0.2-65.3-4.2-94.2-18.6c-30.5-15.2-52-41-60.8-74c-10.1-37.8-5.3-77.9-3.5-116.4
				c2-41.3,1.9-82.8-2.3-124c-7.9-78.2-31.2-156.3-82.2-217.5c-44.6-53.5-109.3-93.5-180-97.2c-8.6-0.5-17.3-0.3-25.9,0.4
				C-57.5,817-57.5,832-47.9,831.3z"/>
			<g id="XMLID_6876_">
				<path id="XMLID_6881_" fill="#FFFFFF" d="M1370-21.7c15.2,0,29.6,5.9,40.4,16.7c10.8,10.8,16.7,25.1,16.7,40.4
					c0,15.2-5.9,29.6-16.7,40.4l-244.6,244.6l-80.7-80.7L1329.6-5C1340.4-15.8,1354.8-21.7,1370-21.7 M1370-28.7
					c-16.4,0-32.8,6.3-45.3,18.8l-249.6,249.6l90.6,90.6l249.6-249.6c25-25,25-65.6,0-90.6C1402.8-22.5,1386.4-28.7,1370-28.7
					L1370-28.7z"/>
				<circle id="XMLID_6882_" fill="#E8CAFF" cx="1120.4" cy="284.9" r="64.1"/>
			</g>
			<path id="XMLID_6712_" fill="#FFFFFF" d="M891.3-1.7c34.4-19.1,78.3,3.4,95.8,35.4c23.9,43.7,6.6,98.3-17.8,137.7
				c-27.1,43.9-65.3,79.5-93.2,122.8c-25.2,39.1-46.6,92.8-27.3,138.8c8.8,20.9,26.7,35.5,48.7,40.7c21.4,5.1,44.1,2.5,65.2-2.7
				c25.3-6.2,49.7-16.9,75.8-19.4c24.4-2.4,47,4.2,65.4,20.5c36.6,32.3,49.1,82,78.6,119.7c27.5,35.1,69,53.5,112.8,57.1
				c44.6,3.6,88.8-7.9,127.9-28.9c44-23.6,81.4-57.5,116.6-92.5c8.8-8.8,17.6-17.7,26.3-26.7c6.7-6.9-3.8-17.5-10.6-10.6
				c-64.9,66.5-139.2,141.6-238.4,144.3c-41.2,1.1-83.7-10.8-113.1-40.8c-34.2-34.9-46.1-85.1-78.6-121.4
				c-15.4-17.1-35.3-30.9-58.3-34.8c-26.8-4.5-53.3,2.6-78.8,10.3c-22.1,6.7-44.1,13.8-67.5,13.5c-20.3-0.2-41.4-6.7-53.1-24.4
				c-12.6-19.2-13-44.1-8.7-65.9c4.8-24.4,15.7-47,29-67.9c27.7-43.5,65.9-79.1,93.2-122.8c25.8-41.1,42.5-94.6,24.3-142
				c-14.1-36.8-53.3-66-93.8-61.9c-10,1-19.4,3.8-28.1,8.7C875.3-9.9,882.9,3,891.3-1.7z"/>
			<circle id="XMLID_6776_" fill="#FFFFFF" cx="655.1" cy="470.6" r="18"/>
			<circle id="XMLID_6931_" fill="#C77FFF" cx="703.2" cy="518.8" r="18"/>
			<circle id="XMLID_6796_" fill="#FFFFFF" cx="216.6" cy="779" r="18"/>
			<circle id="XMLID_6831_" fill="#C77FFF" cx="282.7" cy="845.2" r="18"/>
			<circle id="XMLID_6792_" fill="#FFFFFF" cx="1090" cy="119.6" r="9"/>
			<circle id="XMLID_6933_" fill="#C77FFF" cx="1170.6" cy="200.2" r="9"/>
			<circle id="XMLID_6793_" fill="#FFFFFF" cx="945" cy="1245.9" r="9"/>
			<circle id="XMLID_6833_" fill="#C77FFF" cx="983.3" cy="1284.3" r="9"/>
			<polygon id="XMLID_6816_" fill="#FFFFFF" points="1239.7,463.1 1262.5,423.6 1285.4,463.1 			"/>
			<polygon id="XMLID_6932_" fill="#C77FFF" points="1282.3,505.7 1305.1,466.2 1327.9,505.7 			"/>
			<polygon id="XMLID_6926_" fill="#FFFFFF" points="500.1,1319.9 522.9,1280.4 545.7,1319.9 			"/>
			<polygon id="XMLID_6930_" fill="#FFFFFF" points="61.8,662.7 76.7,636.9 91.6,662.7 			"/>
			<polygon id="XMLID_6832_" fill="#C77FFF" points="110,710.8 124.8,685.1 139.7,710.8 			"/>
			<g id="XMLID_6709_">
				<polygon id="XMLID_6714_" fill="#90FFCE" points="172.9,861.4 76.7,957.6 76.7,1019.9 139.1,1019.9 235.2,923.8 235.2,861.4 
									"/>
				<rect id="XMLID_6711_" x="76.7" y="957.6" fill="#FFFFFF" width="62.4" height="62.4"/>
			</g>
		</g>
	</g>
</g>
</svg>
