<svg xmlns="http://www.w3.org/2000/svg" width="324" height="324" viewBox="0 0 324 324">
  <g id="Grupo_29" data-name="Grupo 29" transform="translate(-1353 411)">
    <g id="Camada_2" data-name="Camada 2" transform="translate(1353 -411)">
      <g id="Camada_10" data-name="Camada 10">
        <path id="Caminho_1254" data-name="Caminho 1254" d="M0,0V14.553L14.553,0Z" fill="#86012b"/>
        <path id="Caminho_1255" data-name="Caminho 1255" d="M100.141,0,0,100.141V121.7L121.7,0Z" fill="#86012b"/>
        <path id="Caminho_1256" data-name="Caminho 1256" d="M207.289,0,0,207.289v21.576L228.865,0Z" fill="#86012b"/>
        <path id="Caminho_1257" data-name="Caminho 1257" d="M314.437,0,0,314.437V324H12.013L324,12.013V0Z" fill="#86012b"/>
        <path id="Caminho_1258" data-name="Caminho 1258" d="M86.886,291.724,291.724,86.886V65.31L65.31,291.724Z" transform="translate(32.275 32.275)" fill="#86012b"/>
        <path id="Caminho_1259" data-name="Caminho 1259" d="M158.591,256.281l97.69-97.69V137.03L137.03,256.281Z" transform="translate(67.719 67.719)" fill="#86012b"/>
        <path id="Caminho_1260" data-name="Caminho 1260" d="M220.843,220.843v-12.1l-12.1,12.1Z" transform="translate(103.157 103.157)" fill="#86012b"/>
      </g>
      <g id="Camada_2-2" data-name="Camada 2" transform="translate(73.218 49.613)">
        <path id="Caminho_1261" data-name="Caminho 1261" d="M81.879,88.967a87.335,87.335,0,0,0,12.6,23.011c1.733,2.256,5.633,0,3.87-2.256A83.673,83.673,0,0,1,86.2,87.771C85.211,85.082,80.878,86.277,81.879,88.967Z" transform="translate(-32.827 -6.986)" fill="#c4b997"/>
        <path id="Caminho_1262" data-name="Caminho 1262" d="M91.93,109.741a5.977,5.977,0,0,0,1.494,3.735,2.241,2.241,0,0,0,3.108-3.168c.269.314-.269-.508-.149-.284s0,0,0-.179v-.1a2.241,2.241,0,0,0-4.483,0Z" transform="translate(-27.802 3.513)" fill="#c4b997"/>
        <path id="Caminho_1263" data-name="Caminho 1263" d="M109.784,122.5c4.766-2.839,13.657-8.756,19.559-7.322,4.886,1.2,10.28,8.965,11.3,13.448v-6.754c-.359,1.853-2.525,3.661-3.885,5.065a24.348,24.348,0,0,1-2.167,2.137l.717-1.106a29.883,29.883,0,0,1-5.573-1.18,30.675,30.675,0,0,1-10-3.885,16.778,16.778,0,0,1-2.839-2.3c-1.4-1.494-1.494-3.452-2-1.7l-3.272,5.633c.822-.941,5.469-2.3,6.933-1.494.837.493,1.061,3.885.852,5.5l3.721-8.965-.956,1.016,5.6-3.272-1.39.4h6.754l.777.329c-11.4-11.759-29.346,6.216-17.93,17.93s30.093,5.977,28.927-11.49c-.9-13.448-10.459-25.207-24.131-26.7-11.729-1.27-28.061,3.452-31.034,16.436s8.562,25.954,19.17,31.737,28.524,11.221,39.521,4.258c9.652-6.141,20.037-18.842,16.137-30.87-3.8-11.714-14.852-23.787-26.432-27.986-13.881-5.05-29.286,2.062-41.165,9.159-14.015,8.382-1.255,30.347,12.82,21.935Z" transform="translate(-29.1 -5.304)" fill="#c4b997"/>
        <path id="Caminho_1264" data-name="Caminho 1264" d="M144.822,169.46c-15.525-12.208-33.246-25.4-41.09-44.168-1.27-2.988-3.481-7.59-2.017-10.758s5.977-5.977,8.816-7.755a33.8,33.8,0,0,1,23.354-4.483c6.739,1.27,13.7-1.868,15.629-8.861,1.7-6.2-2.107-14.344-8.875-15.629a61.381,61.381,0,0,0-40.1,5.469c-12.222,6.231-24.7,18.244-24.714,32.872s8.786,29.107,17.527,40.194c9.518,12.058,21.5,21.636,33.515,31.079,5.394,4.229,12.7,5.26,17.93,0,4.483-4.408,5.424-13.7,0-17.93Z" transform="translate(-35.748 -11.769)" fill="#c4b997"/>
        <path id="Caminho_1265" data-name="Caminho 1265" d="M104.121,76.349c-6.171-.777-12.4,3.721-17.094,7.262A72.948,72.948,0,0,0,74.073,95.953c-4.318,5.319-5.2,12.76,0,17.93,4.483,4.483,13.612,5.349,17.93,0a70.224,70.224,0,0,1,8.248-8.621c1.674-1.494-1.121.777.657-.568a21.034,21.034,0,0,1,2.256-1.494c.762-.433,1.494-1,2.331-1.494l1.2-.687q2.391-1.27-2.6.747c6.619.837,12.985-6.425,12.7-12.7-.329-7.59-5.6-11.8-12.7-12.7Z" transform="translate(-38.379 -11.925)" fill="#c4b997"/>
        <path id="Caminho_1266" data-name="Caminho 1266" d="M70.149,116.229c2.032,15.719,7.934,30.676,23.414,37.444,13.3,5.812,31.961,5.364,45.408.164,14.942-5.8,23.683-20.485,26.372-35.741,1.494-7.964,2.869-16.436-2.465-23.25-5.035-6.425-11.954-11.759-17.5-17.766l-5.6,21.232c3.108-1.165,5.394-.822,8.7-.463,1.494.164,2.675,1.36,1.718.12-1.883-2.465,1.913,5.723,1.27,4.632a16.645,16.645,0,0,0,22.771,6.066c14.195-8.084,1.419-30.048-12.82-21.935l-1.3.747,6.41-1.733L165.03,85.6l6.41,1.733v-.12l3.272,5.6c-3.631-8.846-6.649-15.719-16.571-18.737-7.755-2.376-17.437-3.123-25.117-.254-8.965,3.347-12.491,13.806-5.6,21.217,3.362,3.631,6.8,7.172,10.355,10.624a52.987,52.987,0,0,1,4.9,4.617c-.956-3.721-1.494-4.363-1.494-1.957a17.947,17.947,0,0,1-.359,2.988c-1.106,7.157-3.721,15.883-11.042,18.916-6.485,2.675-17.153,2.988-23.817,1.031-6.9-2.032-9.563-8.278-10.459-15.061s-5.2-12.7-12.7-12.7c-6.171,0-13.582,5.857-12.7,12.7Z" transform="translate(-38.608 -14.047)" fill="#c4b997"/>
        <path id="Caminho_1267" data-name="Caminho 1267" d="M68.782,105.5c1.165,3.437,1.046,6.694,1.659,10.22.628,3.765,1.718,7.471,2.63,11.177,1.375,5.6,10.026,3.227,8.651-2.391a93.568,93.568,0,0,1-2.63-11.236,47.141,47.141,0,0,0-1.659-10.16C75.6,97.672,66.974,100.018,68.782,105.5Z" transform="translate(-39.349 -0.182)" fill="#c4b997"/>
        <path id="Caminho_1268" data-name="Caminho 1268" d="M74.94,126.643c2.585,1.494,3.481,3.75,4.871,6.306a9.8,9.8,0,0,0,8.861,5.439c5.768,0,5.783-8.965,0-8.965-1.39,0-2.3-3.556-2.988-4.632A19.245,19.245,0,0,0,79.5,118.9c-4.946-2.988-9.458,4.751-4.483,7.74Z" transform="translate(-37.214 8.815)" fill="#c4b997"/>
        <path id="Caminho_1269" data-name="Caminho 1269" d="M77.739,130.774c.134.09.478.239.553.374-.418-.314-.508-.374-.254-.164l.254.224c.179.164,1.046.882,1.031,1.106,0-.12-.448-.672-.09-.09l.359.568c.134.239.254.508.388.747.314.523-.359-.986,0,0a4.587,4.587,0,0,0,5.514,3.123,4.482,4.482,0,0,0,3.123-5.514,16.436,16.436,0,0,0-6.4-8.143,4.483,4.483,0,0,0-6.141,1.6A4.6,4.6,0,0,0,77.739,130.774Z" transform="translate(-35.904 10.869)" fill="#c4b997"/>
        <path id="Caminho_1270" data-name="Caminho 1270" d="M77.381,132.044c2.54,4.094,4.483,8.562,7.172,12.566s6.44,7.217,9.742,10.818c3.915,4.243,10.25-2.107,6.335-6.35-3.108-3.377-6.649-6.276-9.115-10.205-2.316-3.676-4.094-7.665-6.4-11.356-2.988-4.886-10.8-.388-7.74,4.483Z" transform="translate(-35.322 12.363)" fill="#c4b997"/>
        <path id="Caminho_1271" data-name="Caminho 1271" d="M92.553,151.065c3.123,1.345,4.483,5.08,7.471,6.8,3.885,2.2,8.965,2.988,13.224,4.3,5.543,1.659,7.9-6.993,2.391-8.651-3.5-1.046-8.965-1.673-11.789-3.945-2.525-1.972-3.6-4.886-6.769-6.246-5.245-2.256-9.817,5.454-4.483,7.74Z" transform="translate(-28.633 21.015)" fill="#c4b997"/>
        <path id="Caminho_1272" data-name="Caminho 1272" d="M109.576,162.169c5.5.164,10.071,1.494,15.554-.09s10.19-4.826,14.7-8.2.09-11.206-4.483-7.74c-3.825,2.854-7.889,5.977-12.551,7.292s-8.607-.09-13.179-.224c-5.768-.179-5.768,8.786,0,8.965Z" transform="translate(-21.182 22.178)" fill="#c4b997"/>
        <path id="Caminho_1273" data-name="Caminho 1273" d="M81.4,128.033c5.349,13.627,16.436,24.564,28.913,31.8l2.256-8.353c-4.019,0-6.858-1.808-10.1-3.915-4.243-2.764-9.189,3.6-5.439,7.038a46.515,46.515,0,0,0,12.3,7.65c4.214,1.957,8.816,2.226,13.014,3.93,5.334,2.167,7.665-6.5,2.376-8.651-3.511-1.494-7.277-1.419-10.878-2.988a38.327,38.327,0,0,1-10.459-6.246l-5.424,7.038c4.647,2.988,8.965,5.185,14.628,5.14a4.483,4.483,0,0,0,2.271-8.352c-10.295-5.977-20.336-15.106-24.8-26.447-2.077-5.3-10.758-2.988-8.636,2.391Z" transform="translate(-33.145 11.011)" fill="#c4b997"/>
        <path id="Caminho_1274" data-name="Caminho 1274" d="M136.258,157.848c1.644-2.675,4.483-4.483,6.6-6.814a41.151,41.151,0,0,0,6.559-9.742,7.71,7.71,0,0,0-2.675-10.235c-3.257-1.9-8.487-.971-10.235,2.69a28.39,28.39,0,0,1-5.723,8.308,43.331,43.331,0,0,0-7.471,8.263c-5.035,8.218,7.874,15.734,12.895,7.471Z" transform="translate(-12.841 14.68)" fill="#c4b997"/>
        <path id="Caminho_1275" data-name="Caminho 1275" d="M143.279,152.543a114.618,114.618,0,0,0,13.567-22.413,7.665,7.665,0,0,0-2.675-10.22c-3.272-1.913-8.472-.971-10.22,2.675-3.242,6.754-6.545,13.448-11.236,19.424-2.51,3.153-3.078,7.471,0,10.564,2.6,2.615,8.039,3.183,10.564,0Z" transform="translate(-8.67 9.168)" fill="#c4b997"/>
        <path id="Caminho_1276" data-name="Caminho 1276" d="M129.2,141.845c0-.1.433-3.452,0-2.988l-7.262,1.928q-1.3,2.988,1.21-4.752c-2.211-.224-2.764.971-1.629,3.586a22.9,22.9,0,0,1,3.317,2.092q-1.165-2.988,1.39-3.586l7.262,1.928c2.331,3.317,1.21,3.78-3.317,1.419-5.245-.164-5.977-1.046-2.032-2.675l7.277,1.913q4.8,5.11-3.108-3.227l13.911,3.78a7.232,7.232,0,0,1,1.584-3.885l-4.483,3.437L141,140.679c9.354,2.152,13.343-12.252,3.96-14.419s-12.91,7.366-13.7,14.942,10.459,9.921,13.926,3.765c5.364-9.727-3.392-22.577-14.539-16.944-5.11,2.585-8.308,8.427-8.756,14.09s2.764,11.953,9.219,11.162c10.788-1.18,13.209-19.634,2.884-23.429-11.685-4.3-17.93,13.059-11.087,20.709a7.336,7.336,0,0,0,7.277,1.913,13.6,13.6,0,0,0,9.2-10.459c.956-5.8-2.51-10.175-7.023-13.313s-10.235-5.349-15.764-3.676a13.044,13.044,0,0,0-9.4,11.819c-.493,12.267,12.163,17.288,22.248,12.671,11.58-5.3,7.082-19.753-3.526-23.175a7.321,7.321,0,0,0-7.262,1.913c-3.227,3.691-4.109,8.8-4.483,13.552-.583,9.608,14.359,9.578,14.942,0Z" transform="translate(-20.245 11.887)" fill="#c4b997"/>
        <path id="Caminho_1277" data-name="Caminho 1277" d="M141.965,150.251c8.427-7.142,15.7-13.732,16.346-25.4.314-5.783-2.226-10.16-2.988-15.7-.777-5.812.134-11.7-.732-17.572L143.623,100c5.02,2.988,5.26,13.776,5.289,18.722a50.667,50.667,0,0,1-3.556,19.738c-3.586,8.965,10.863,12.79,14.4,3.96,6.231-15.495,8.039-45.184-8.592-55.285-6.141-3.735-11.849,2.406-10.982,8.427.657,4.483-.134,9.1.194,13.612.284,4.049,1.853,7.277,2.7,11.117,2.062,9.234-5.558,14.255-11.714,19.424-7.351,6.216,3.272,16.75,10.564,10.564Z" transform="translate(-9.522 -7.114)" fill="#c4b997"/>
        <path id="Caminho_1278" data-name="Caminho 1278" d="M149.025,123.7c-2.884,5.977-5.768,12.148-10.131,17.2-4.677,5.394-10.594,9.488-16.436,13.537-7.83,5.454-.374,18.408,7.471,12.895,6.828-4.752,13.881-9.593,19.424-15.868,5.319-5.977,8.965-13.044,12.462-20.231,4.169-8.607-8.711-16.2-12.895-7.471Z" transform="translate(-14.341 9.636)" fill="#c4b997"/>
        <path id="Caminho_1279" data-name="Caminho 1279" d="M135.218,154.6l.1-.284-.747,1.778.149-.254-1.165,1.494c.687-.852,1.494-1.494,2.241-2.436a30.438,30.438,0,0,0,2.988-4.094,7.471,7.471,0,1,0-12.895-7.471,23.256,23.256,0,0,1-1.494,2.152l1.165-1.494a20.119,20.119,0,0,1-1.838,2.062,11.67,11.67,0,0,0-2.988,4.647,7.471,7.471,0,0,0,5.215,9.189,7.65,7.65,0,0,0,9.189-5.215Z" transform="translate(-13.683 19.142)" fill="#c4b997"/>
        <path id="Caminho_1280" data-name="Caminho 1280" d="M158.687,101.361l.194-.389-1.868,1.883c-1.763.9,1.6.179,2.211.134a27.477,27.477,0,0,1,3.84-.1l-2.645-.642c-.867-.508.747.777.792.792.7.911.807.643.344-.792.09-1.494-.12-1.718-.613-.717a5.064,5.064,0,0,1,.852-.329s-1.987-.478-2.226-.523c-3.989-.852-8.577.284-9.563,4.841a5.334,5.334,0,0,0,3.661,6.425,5.275,5.275,0,0,0,6.425-3.646l.12-.553-1.345,2.316c-1.957.508-2.226.852-.792,1.031a8.96,8.96,0,0,0,1.285.269,12.49,12.49,0,0,0,2.884.269,9.04,9.04,0,0,0,5.977-2.406c2.988-2.9,4.811-7.471,2.5-11.191a17.573,17.573,0,0,0-3.467-3.75,8.054,8.054,0,0,0-5.977-1.793c-3.78.134-9.533-.329-11.52,3.676a5.364,5.364,0,0,0,1.868,7.157,5.289,5.289,0,0,0,7.157-1.883Z" transform="translate(0.456 -3.93)" fill="#c4b997"/>
        <path id="Caminho_1281" data-name="Caminho 1281" d="M161.108,100.235a24.64,24.64,0,0,0-7.082,5.618,38.685,38.685,0,0,0-4.363,8.084,5.364,5.364,0,0,0,1.868,7.157,5.275,5.275,0,0,0,7.157-1.883,44.256,44.256,0,0,1,3.123-6.38,13.447,13.447,0,0,1,4.572-3.571c5.827-3.362.568-12.417-5.274-8.965Z" transform="translate(0.412 -0.429)" fill="#c4b997"/>
        <path id="Caminho_1282" data-name="Caminho 1282" d="M157.852,123.451c.3-2.63,2.675-5.3,3.422-7.889.149-.553.239-1.121.418-1.659s.134-.568-.269.164l.732-.418a10.325,10.325,0,0,0,3.765-2.719c4.617-4.9-2.764-12.3-7.471-7.471-1.106,1.151-2.884,1.688-4.109,2.794a11.311,11.311,0,0,0-2.988,5.618c-1.18,4-3.511,7.232-4,11.505-.314,2.809,2.645,5.23,5.23,5.23a5.349,5.349,0,0,0,5.23-5.23Z" transform="translate(-0.411 0.74)" fill="#c4b997"/>
        <path id="Caminho_1283" data-name="Caminho 1283" d="M58.553,97.6c-.672,2.884-1.853,6.933-.882,9.877,1.091,3.257,4.662,5.23,6.963,7.546a21.367,21.367,0,0,1,5.678,9.428,12.372,12.372,0,0,0,4.871,7.336c5.349,4.079,10.579-4.991,5.274-8.965-.224-.179-1.136-4.483-1.4-5.1a26.9,26.9,0,0,0-3.272-5.678c-2.7-3.691-6.365-6.246-9.369-9.608l1.494,3.706a17.6,17.6,0,0,1,.687-5.708c1.494-6.545-8.577-9.339-10.086-2.779Z" transform="translate(-44.899 -3.2)" fill="#c4b997"/>
        <path id="Caminho_1284" data-name="Caminho 1284" d="M71.3,102.5c-.628-.7-.433-.837-1.046-1.345s.284.329,0,.3l-.09.254c.134-.6.179-.747.149-.448a.686.686,0,0,1-.523.628,1.24,1.24,0,0,1-1.121.643c-.777.149-.807.194-.1.134h-.224l.568.149-.9-.523a1.808,1.808,0,0,1-.164-2.51A2.764,2.764,0,0,1,68.5,98.02l2.63-.7H70.67c-2.7.329-5.364,2.167-5.23,5.23.1,2.54,2.316,5.573,5.23,5.23a7.725,7.725,0,0,0,6.111-3.511,7.471,7.471,0,0,0,.732-5.887c-1.165-4.109-5.394-6.32-9.458-6.156A8.5,8.5,0,0,0,60,99.5c-.747,4.124,1.285,7.471,3.93,10.459a5.283,5.283,0,0,0,7.471-7.471Z" transform="translate(-43.643 -4.041)" fill="#c4b997"/>
        <path id="Caminho_1285" data-name="Caminho 1285" d="M76.065,92.344c-6.081.359-12.1.269-16.571,4.946s2.734,12.282,7.4,7.4c2.167-2.286,6.2-1.718,9.174-1.883C82.759,102.4,82.8,91.94,76.065,92.344Z" transform="translate(-44.51 -3.983)" fill="#c4b997"/>
        <path id="Caminho_1286" data-name="Caminho 1286" d="M109.177,164.811a15.34,15.34,0,0,0,1.33,1.061l.628.388a3.452,3.452,0,0,1-1.494-2.719c0,.194,0,.4,0,.613a15.935,15.935,0,0,1,0,1.688c.09-.613,0-.6,0,0,.269-.508.254-.508,0,0a5.23,5.23,0,1,0,8.965,5.274,13.045,13.045,0,0,0,1.494-7.471,7.471,7.471,0,0,0-1.494-4.483,7.32,7.32,0,0,0-1.494-1.494c-.149-.1-1.883-1.494-.687-.433a5.256,5.256,0,0,0-7.471,7.4Z" transform="translate(-20.126 27.321)" fill="#c4b997"/>
        <path id="Caminho_1287" data-name="Caminho 1287" d="M107.392,165.95a5.889,5.889,0,0,1,.314,1.031V169.1a29.019,29.019,0,0,0,.374,4.946c.4,2.7,3.96,4.483,6.425,3.646a5.394,5.394,0,0,0,3.661-6.425c.12.837,0-1.136,0-1.345V168a15.584,15.584,0,0,0-.747-4.826,5.231,5.231,0,0,0-10.086,2.779Z" transform="translate(-20.268 29.126)" fill="#c4b997"/>
        <path id="Caminho_1288" data-name="Caminho 1288" d="M119.043,166.089c6.739,0,6.754-10.459,0-10.459S112.3,166.089,119.043,166.089Z" transform="translate(-16.888 27.298)" fill="#c4b997"/>
        <path id="Caminho_1289" data-name="Caminho 1289" d="M115.543,160.783a14.523,14.523,0,0,1-1.883,5.648,10.728,10.728,0,0,1-2.5,4.333c-2.226,1.748-1.838,5.558,0,7.471,2.182,2.2,5.155,1.748,7.471,0s3.362-4.751,4.483-7.381a24.789,24.789,0,0,0,2.884-10c0-6.724-10.459-6.724-10.459,0Z" transform="translate(-19.036 27.389)" fill="#c4b997"/>
        <path id="Caminho_1290" data-name="Caminho 1290" d="M120.908,174.564c.867-1.285,1.793-2.54,2.585-3.87A13.732,13.732,0,0,0,125.33,165c.359-2.719-2.645-5.349-5.23-5.23a5.409,5.409,0,0,0-5.23,5.23c0-.613,0-.628-.1,0,.224-.523.209-.523,0,0a6.689,6.689,0,0,1-.747,1.21l-2.077,3.078a5.274,5.274,0,0,0,1.868,7.157,5.364,5.364,0,0,0,7.157-1.883Z" transform="translate(-18.244 29.343)" fill="#c4b997"/>
        <path id="Caminho_1291" data-name="Caminho 1291" d="M119.583,164.2c6.739,0,6.754-10.459,0-10.459S112.845,164.2,119.583,164.2Z" transform="translate(-16.621 26.364)" fill="#c4b997"/>
        <path id="Caminho_1292" data-name="Caminho 1292" d="M68.641,106.823a2.241,2.241,0,1,0-2.241-2.241,2.241,2.241,0,0,0,2.241,2.241Z" transform="translate(-40.403 0.963)" fill="#c4b997"/>
        <path id="Caminho_1293" data-name="Caminho 1293" d="M111.007,204.884a15.868,15.868,0,0,1,8.965-4.378,8.71,8.71,0,0,1,4.019.12c.553,0,.882.194.986.643,0,2.137.389,2.032,1.36-.269l4.139-1.121-1.942-.12,4.154,1.121a73.349,73.349,0,0,1-15.061-9.458c-3.511-2.779-8.188-3.362-11.625,0-2.884,2.824-3.467,8.875,0,11.625,6.246,4.916,15.928,13.926,24.475,13.268,9.623-.732,12.611-11.371,10.34-19.424-5.334-18.931-30.6-14.03-41.449-3.646-7.65,7.336,3.975,18.946,11.625,11.625Z" transform="translate(-25.348 41.352)" fill="#d4d6d6"/>
        <path id="Caminho_1294" data-name="Caminho 1294" d="M87.36,221.088c-.284-2.988,1.4-5.857,1.778-8.786.433-3.437.747-6.873,1.121-10.31.209-1.913-2.779-1.9-2.988,0-.388,3.556-.628,7.172-1.2,10.713-.448,2.869-1.987,5.439-1.7,8.382C84.566,222.986,87.554,223,87.36,221.088Z" transform="translate(-31.539 49.504)" fill="#d4d6d6"/>
        <path id="Caminho_1295" data-name="Caminho 1295" d="M87.56,218.024c-.329-7.471,2.032-14.165,2.734-21.531.179-1.913-2.809-1.9-2.988,0-.717,7.471-3.078,13.941-2.734,21.531C84.571,219.936,87.649,219.951,87.56,218.024Z" transform="translate(-31.44 46.786)" fill="#d4d6d6"/>
        <path id="Caminho_1296" data-name="Caminho 1296" d="M88.054,214.954a52.3,52.3,0,0,1,9.1-34.366c1.091-1.584-1.494-3.078-2.585-1.494a55.031,55.031,0,0,0-9.5,35.861C85.215,216.866,88.2,216.881,88.054,214.954Z" transform="translate(-31.277 38.56)" fill="#d4d6d6"/>
        <path id="Caminho_1297" data-name="Caminho 1297" d="M110.959,170.209c-6.709,2.331-12.731,7.605-18.6,11.535-1.6,1.061-.1,3.646,1.494,2.585,5.558-3.721,11.55-8.965,17.93-11.236,1.808-.628,1.031-3.511-.792-2.884Z" transform="translate(-27.914 34.459)" fill="#d4d6d6"/>
        <path id="Caminho_1298" data-name="Caminho 1298" d="M109.269,170.661C101.8,171.8,96.3,176.638,92.34,182.869c-1.031,1.629,1.494,3.138,2.585,1.494,3.571-5.648,8.367-9.817,15.151-10.833,1.9-.284,1.091-3.168-.807-2.884Z" transform="translate(-27.704 34.709)" fill="#d4d6d6"/>
        <path id="Caminho_1299" data-name="Caminho 1299" d="M98.9,174.293a16.063,16.063,0,0,0-7.471,5.17c-1.18,1.494.911,3.631,2.122,2.122a13.074,13.074,0,0,1,6.141-4.483c1.808-.613,1.031-3.5-.792-2.884Z" transform="translate(-28.209 36.442)" fill="#d4d6d6"/>
        <path id="Caminho_1300" data-name="Caminho 1300" d="M104.281,173.686c2.346,5.454,8.5,5.663,13.747,6.066,3.422.254,7.471.7,10.833-.388,3.646-1.165,5.1-3.676,9.189-2.63,9.787,2.54,16.884,13.373,19.081,22.263a173.923,173.923,0,0,1,4.483,34.366c.075,1.913,3.063,1.927,2.988,0a185.521,185.521,0,0,0-3.631-31.064c-1.718-8.054-2.9-13.448-8.846-19.051-4.154-3.9-11.266-11-17.572-10.624-3.631.224-5.857,4.079-9.981,4.348-5.05.344-15.42.493-17.706-4.8-.762-1.748-3.332-.239-2.57,1.494Z" transform="translate(-21.745 35.091)" fill="#d4d6d6"/>
        <path id="Caminho_1301" data-name="Caminho 1301" d="M86.714,217.634c3.661,0,7.187-1.614,10.773-2.3a89.171,89.171,0,0,1,16.063-1.494,1.494,1.494,0,1,0,0-2.988,94.849,94.849,0,0,0-13.014.986c-4.483.657-9.369,2.869-13.821,2.854a1.494,1.494,0,1,0,0,2.988Z" transform="translate(-31.103 54.587)" fill="#d4d6d6"/>
        <path id="Caminho_1302" data-name="Caminho 1302" d="M105.494,213.866c7.65,0,16.182-.314,23.623,1.494a1.5,1.5,0,0,0,.792-2.884c-7.77-1.957-16.436-1.673-24.415-1.659a1.494,1.494,0,0,0,0,2.988Z" transform="translate(-21.822 54.56)" fill="#d4d6d6"/>
        <path id="Caminho_1303" data-name="Caminho 1303" d="M122.233,215.28c5.215.538,10.579,1.494,15.823,1.031,4.946-.433,9.892-1.255,14.807-1.9,1.883-.239,1.913-3.242,0-2.988-4.916.643-9.862,1.494-14.807,1.9-5.245.463-10.609-.493-15.823-1.031-1.913-.179-1.9,2.809,0,2.988Z" transform="translate(-13.518 54.864)" fill="#d4d6d6"/>
        <path id="Caminho_1304" data-name="Caminho 1304" d="M104.879,210.215a90.249,90.249,0,0,1,14.942-24.863c4.752-5.6,1.942-15.51-6.335-15.3a13.761,13.761,0,0,0-11.834,6.694c-6.305,9.667,9.2,18.633,15.554,9.055h.269l-3.945,2.3v-.134l-6.35-15.315a116.98,116.98,0,0,0-19.619,32.782c-1.793,4.483,1.957,9.847,6.261,11.027,5.11,1.4,9.234-1.748,11.027-6.261Z" transform="translate(-30.172 34.423)" fill="#d4d6d6"/>
        <path id="Caminho_1305" data-name="Caminho 1305" d="M98.8,176.854c-12.148,9.593-11.655,22.7-12.521,36.981-.687,11.535,17.243,11.49,17.93,0a153.348,153.348,0,0,1,1.091-15.749c.687-4.124,2.988-6.066,6.246-8.592,3.84-2.988,3.108-9.5,0-12.671-3.706-3.8-8.89-2.988-12.671,0Z" transform="translate(-30.59 36.51)" fill="#d4d6d6"/>
        <path id="Caminho_1306" data-name="Caminho 1306" d="M112.973,197.283c3.75-.672,6.858-3.138,10.325-3.87,4.617-.971,8.8.732,13.448-1.315a10.145,10.145,0,0,0,2.734-1.494q3.855-2.66-.433-.314-4.049.613-.852,2.869a28.505,28.505,0,0,0,2.062,2.555c.568.672,2.869,4.064,3.526,4.154,8.278,1.151-3.108-5.379-2.376-4.273-6.455-9.488-21.994-.523-15.48,9.04,4.692,6.9,13.791,9.652,20.62,3.735,6.365-5.514,5.484-16.167-1.3-20.919a11.954,11.954,0,0,0-18.722,8.965c-.672,8.965,7.561,16.6,15.7,18.483s16.9-1.778,19.185-10.235c2.421-8.965-3.093-15.33-8.472-21.621-6.754-7.9-11.774-12.387-22.129-8.293-3.392,1.345-6.978.418-10.728,1.106-4.3.792-7.62,3.362-11.953,4.139-11.341,2.047-6.53,19.335,4.766,17.288Z" transform="translate(-22.98 35.984)" fill="#d4d6d6"/>
        <path id="Caminho_1307" data-name="Caminho 1307" d="M98.481,221a108.3,108.3,0,0,1,16.287-7.321c7.053-2.286,10.654.7,17.362,2.167a41.643,41.643,0,0,0,17.348-.3,60.965,60.965,0,0,0,7.307-2.092c1.6-.568,3.168-1.18,4.737-1.823q4.886-1.21-.4-1.614l-4.124-5.364a22.1,22.1,0,0,1,.3,5.439c.09,11.535,18.02,11.55,17.93,0,0-7.74-1.091-16.854-10.713-17.542-7.979-.568-15.525,5.812-23.713,6.126-8.965.359-16.077-5.364-25.521-3.691-8.965,1.584-17.93,6.38-25.835,10.534-10.25,5.3-1.2,20.784,8.965,15.48Z" transform="translate(-31.245 45.527)" fill="#d4d6d6"/>
        <path id="Caminho_1308" data-name="Caminho 1308" d="M167.376,207.123c-6.724,1.853-13.313.7-20.142.493s-13.179,0-19.813-.568a116.413,116.413,0,0,0-38.774,2.884c-5.6,1.36-3.227,10.011,2.391,8.651,13.956-3.377,26.9-3.138,41.075-2.122,6.38.448,12.775,0,19.17.344s12.282.672,18.468-1.031C175.31,214.28,172.95,205.584,167.376,207.123Z" transform="translate(-30.989 52.457)" fill="#d4d6d6"/>
        <path id="Caminho_1309" data-name="Caminho 1309" d="M102.959,212.738c10.056-.194,20.142-.7,30.183-.583,7.247,0,14.6,5.155,21.636,2.316,5.289-2.122,2.988-10.788-2.391-8.636-3.825,1.494-7.471-1.225-11.191-2a47.129,47.129,0,0,0-10.355-.613c-9.294.12-18.588.374-27.882.553-5.753.12-5.768,9.085,0,8.965Z" transform="translate(-24.471 50.786)" fill="#d4d6d6"/>
        <path id="Caminho_1310" data-name="Caminho 1310" d="M88.406,217.8c9.772,1.046,19.036-.523,28.763-.837s19.8-.359,29.69-.523c2.884,0,2.884-4.483,0-4.483-9.892.164-19.8.224-29.69.523s-18.991,1.883-28.763.837C85.552,213.021,85.567,217.5,88.406,217.8Z" transform="translate(-30.583 55.136)" fill="#d4d6d6"/>
        <path id="Caminho_1311" data-name="Caminho 1311" d="M115.053,217.144c6.813-.224,13.612-.359,20.411-.359h15.749q3.81,1.18,5.11-2.779c-1.778,2.226,1.36,5.424,3.168,3.168,3.825-4.8-4.318-4.856-6.814-4.856-12.536-.075-25.072-.134-37.624.284-2.869.09-2.884,4.572,0,4.483Z" transform="translate(-17.425 55.286)" fill="#d4d6d6"/>
        <path id="Caminho_1312" data-name="Caminho 1312" d="M142.681,217.7a2.241,2.241,0,1,0-2.241-2.241A2.241,2.241,0,0,0,142.681,217.7Z" transform="translate(-3.814 55.758)" fill="#d4d6d6"/>
        <path id="Caminho_1313" data-name="Caminho 1313" d="M145.072,213.3l-1.494-.344a2.241,2.241,0,0,0-1.2,4.318l1.494.359a2.3,2.3,0,0,0,2.764-1.569A2.271,2.271,0,0,0,145.072,213.3Z" transform="translate(-3.635 55.593)" fill="#d4d6d6"/>
        <path id="Caminho_1314" data-name="Caminho 1314" d="M141.37,211.72c.254,1.494.463,2.988.6,4.483a2.3,2.3,0,0,0,2.241,2.241,2.256,2.256,0,0,0,2.241-2.241c-.179-1.883-.433-3.75-.762-5.618a2.256,2.256,0,0,0-2.749-1.569,2.3,2.3,0,0,0-1.494,2.764Z" transform="translate(-3.354 53.643)" fill="#d4d6d6"/>
        <path id="Caminho_1315" data-name="Caminho 1315" d="M85.118,217.29c-1.494-2.346-.807-5.02-.254-7.471.628-2.824-3.691-4.019-4.318-1.2-.822,3.721-1.39,7.561.7,10.982a2.241,2.241,0,0,0,3.87-2.256Z" transform="translate(-33.78 52.69)" fill="#86012b"/>
        <path id="Caminho_1316" data-name="Caminho 1316" d="M86.465,216.384q-.672-5.648-1.659-11.206c-.508-2.839-4.826-1.644-4.333,1.18.6,3.332,1.106,6.664,1.494,10.026.344,2.824,4.826,2.854,4.483,0Z" transform="translate(-33.468 50.981)" fill="#86012b"/>
        <path id="Caminho_1317" data-name="Caminho 1317" d="M84.671,217.428a54.762,54.762,0,0,1,1.494-26.9c.837-2.764-3.481-3.945-4.333-1.2a59.857,59.857,0,0,0-1.494,29.2c.553,2.839,4.871,1.644,4.333-1.18Z" transform="translate(-34.08 43.183)" fill="#86012b"/>
        <path id="Caminho_1318" data-name="Caminho 1318" d="M82.382,207.15a75.016,75.016,0,0,0,2.017-7.605,26.731,26.731,0,0,1,1.629-7.008c1.24-2.585-2.615-4.856-3.87-2.256a23.01,23.01,0,0,0-1.883,6.978,69.938,69.938,0,0,1-2.241,8.7c-.822,2.764,3.5,3.96,4.318,1.2Z" transform="translate(-34.705 43.854)" fill="#86012b"/>
        <path id="Caminho_1319" data-name="Caminho 1319" d="M83.523,208.2a17.079,17.079,0,0,1-.3-5.857,58.147,58.147,0,0,1,.463-6.41c.389-2.809-3.93-4.034-4.318-1.18a65.043,65.043,0,0,0-.687,7.62,20.664,20.664,0,0,0,.523,7.008c.941,2.719,5.275,1.494,4.318-1.2Z" transform="translate(-34.381 45.826)" fill="#86012b"/>
        <path id="Caminho_1320" data-name="Caminho 1320" d="M86.151,219.692c-.523-14.21-.164-28.39,8.636-40.253,1.718-2.331-2.167-4.557-3.87-2.271-9.219,12.417-9.8,27.628-9.249,42.525C81.773,222.575,86.256,222.59,86.151,219.692Z" transform="translate(-32.931 37.468)" fill="#86012b"/>
        <path id="Caminho_1321" data-name="Caminho 1321" d="M89.8,177.443c-4.169,5.17-6.664,11.132-9.04,17.273-1.046,2.69,3.287,3.855,4.318,1.18,2.092-5.349,4.243-10.758,7.889-15.286,1.793-2.226-1.36-5.409-3.168-3.168Z" transform="translate(-33.385 37.7)" fill="#86012b"/>
        <path id="Caminho_1322" data-name="Caminho 1322" d="M107.222,169.389A43.8,43.8,0,0,0,87.8,179.1c-1.494,1.24.657,3.347,2.107,2.107a40.971,40.971,0,0,1,18.05-8.965c1.883-.4,1.076-3.287-.792-2.869Z" transform="translate(-30.079 34.069)" fill="#86012b"/>
        <path id="Caminho_1323" data-name="Caminho 1323" d="M91.967,180.333a57.4,57.4,0,0,1,5.155-4.931c1.494-1.24-.657-3.347-2.122-2.107a61.709,61.709,0,0,0-5.155,4.931C88.545,179.63,90.652,181.752,91.967,180.333Z" transform="translate(-29.019 35.841)" fill="#86012b"/>
        <path id="Caminho_1324" data-name="Caminho 1324" d="M105.9,166.3c-3.452,8.621,4.8,13.552,12.372,13.358,5.648-.134,16.526-5.842,11.162-12.671l-2.062,2.092c5.783,6.918-5.035,6.8-9.055,6.4l.4,2.988c4.483-1.39,8.651-3.287,10.728-7.77.807-1.733-1.778-3.257-2.585-1.494-1.748,3.78-5.14,5.215-8.965,6.4a1.507,1.507,0,1,0,.388,2.988c3.721.374,10.459.882,13-2.675,2.137-2.988.209-6.38-1.838-8.831-1.24-1.494-3.272.643-2.107,2.122,2.421,3.093-3.466,6.44-5.439,7.053a15.718,15.718,0,0,1-7.262.254c-4.692-.911-7.8-4.483-5.842-9.324.717-1.778-2.182-2.555-2.884-.792Z" transform="translate(-21.284 32.123)" fill="#86012b"/>
        <path id="Caminho_1325" data-name="Caminho 1325" d="M112.359,176.052c5.738.224,10.893-.09,15.764-3.362,1.584-1.076.09-3.661-1.494-2.585-4.483,2.988-9.055,3.168-14.255,2.988-1.913-.075-1.913,2.914,0,2.988Z" transform="translate(-18.392 34.324)" fill="#86012b"/>
        <path id="Caminho_1326" data-name="Caminho 1326" d="M124.4,172.383c5.006,2.525,10.743,3.362,15.315,6.709,5.753,4.184,9.264,10.459,11.266,17.153,1.36,4.6,2.211,9.369,3.212,14.045.568,2.7,1.165,5.394,1.629,8.113.209,1.151,2.525,12.267.867,13.448s0,3.721,1.494,2.585c3.661-2.69,1.494-10.041,1.016-13.732a214.384,214.384,0,0,0-4.692-22.771,40.224,40.224,0,0,0-8.4-17.019c-5.842-6.694-12.641-7.321-20.216-11.147-1.718-.867-3.242,1.718-1.494,2.585Z" transform="translate(-12.125 34.198)" fill="#86012b"/>
        <path id="Caminho_1327" data-name="Caminho 1327" d="M145.534,215.83h2.615a5.663,5.663,0,0,0,2.555-.3,2.854,2.854,0,0,0,1.091-3.765,6.44,6.44,0,0,0-1.494-1.793,4.722,4.722,0,0,0-1.778-1.345,1.883,1.883,0,0,0-2.107.926,3.78,3.78,0,0,0-.388.956l-.09.538c-.12.329-.09.344,0,0h.792l-.239-.075a1.5,1.5,0,1,0-.792,2.884,2.241,2.241,0,0,0,2.45-.822,2.854,2.854,0,0,0,.553-1.106,3.418,3.418,0,0,0,.1-.538c0-.4.284-.359-.1-.1l-1.151.149c-.314-.224-.374-.254-.164-.075l.359.344.613.568.687.717.1-.209h-3.735a1.494,1.494,0,1,0,0,2.988Z" transform="translate(-2.094 53.462)" fill="#86012b"/>
        <path id="Caminho_1328" data-name="Caminho 1328" d="M148.335,217.377c.762-6.216-.956-13.209-1.674-19.424-.209-1.9-3.2-1.913-2.988,0,.717,6.2,2.436,13.194,1.673,19.424C145.108,219.29,148.111,219.275,148.335,217.377Z" transform="translate(-2.221 47.507)" fill="#86012b"/>
        <path id="Caminho_1329" data-name="Caminho 1329" d="M148.206,217.372a19.722,19.722,0,0,0-.269-7.471,41.119,41.119,0,0,1-.807-9.847,1.494,1.494,0,0,0-2.988,0,48.669,48.669,0,0,0,.314,7.665c.448,2.988,1.36,5.708.867,8.875-.284,1.883,2.6,2.69,2.884.792Z" transform="translate(-2.002 48.513)" fill="#86012b"/>
        <path id="Caminho_1330" data-name="Caminho 1330" d="M153.353,225.917c.09-7.59-2.077-15.51-3.3-22.981a115.154,115.154,0,0,0-6.559-25.267c-.717-1.763-3.6-.986-2.884.792a105.145,105.145,0,0,1,6.126,22.622c1.33,8.039,3.721,16.705,3.631,24.833a1.494,1.494,0,0,0,2.988,0Z" transform="translate(-3.787 37.698)" fill="#86012b"/>
        <path id="Caminho_1331" data-name="Caminho 1331" d="M140.241,178.054a106.744,106.744,0,0,0,.4,12.372c.179,1.9,3.168,1.927,2.988,0a106.744,106.744,0,0,1-.4-12.372A1.5,1.5,0,0,0,140.241,178.054Z" transform="translate(-3.929 37.671)" fill="#86012b"/>
        <path id="Caminho_1332" data-name="Caminho 1332" d="M127.773,172.781c2.988,1.315,5.977,2.63,8.965,4.184s7.68,3.691,8.577,6.948c.508,1.883,3.183,1.061,2.869-.807a12.492,12.492,0,0,0-4.258-7.576c-1.494-1.255-3.571.852-2.107,2.122a10.1,10.1,0,0,1,3.5,6.261l2.869-.807c-.882-3.227-4.079-5.17-6.769-6.873a88.159,88.159,0,0,0-12.058-5.977c-1.748-.762-3.272,1.808-1.494,2.585Z" transform="translate(-10.421 34.457)" fill="#86012b"/>
        <path id="Caminho_1333" data-name="Caminho 1333" d="M129.97,175.7a135.878,135.878,0,0,1,14.255,12.611c1.345,1.375,3.452-.732,2.107-2.107a138.96,138.96,0,0,0-14.852-13.089c-1.494-1.165-2.988,1.494-1.494,2.585Z" transform="translate(-9.286 35.796)" fill="#86012b"/>
        <path id="Caminho_1334" data-name="Caminho 1334" d="M134.558,175.257l3.571,3.825c1.315,1.4,3.422-.7,2.107-2.107l-3.571-3.81c-1.315-1.494-3.422.7-2.107,2.107Z" transform="translate(-6.926 35.717)" fill="#86012b"/>
        <path id="Caminho_1335" data-name="Caminho 1335" d="M83.327,214.334a.747.747,0,1,0-.747-.747A.747.747,0,0,0,83.327,214.334Z" transform="translate(-32.407 55.57)" fill="#86012b"/>
        <path id="Caminho_1336" data-name="Caminho 1336" d="M147.181,217.283a2.241,2.241,0,1,0-2.241-2.241A2.241,2.241,0,0,0,147.181,217.283Z" transform="translate(-1.59 55.551)" fill="#86012b"/>
        <path id="Caminho_1337" data-name="Caminho 1337" d="M147.991,217.1a2.241,2.241,0,1,0-2.241-2.241,2.241,2.241,0,0,0,2.241,2.241Z" transform="translate(-1.189 55.462)" fill="#86012b"/>
        <path id="Caminho_1338" data-name="Caminho 1338" d="M148.081,217.1a2.241,2.241,0,1,0-2.241-2.241,2.241,2.241,0,0,0,2.241,2.241Z" transform="translate(-1.145 55.462)" fill="#86012b"/>
        <path id="Caminho_1339" data-name="Caminho 1339" d="M82.2,217.483a2.241,2.241,0,1,0-2.241-2.241A2.241,2.241,0,0,0,82.2,217.483Z" transform="translate(-33.702 55.65)" fill="#86012b"/>
        <path id="Caminho_1340" data-name="Caminho 1340" d="M84.216,88.248c7.307-2.615,15.39-2.585,23.085-3.153,9.07-.672,18.169-1.121,27.254-1.031a143.443,143.443,0,0,1,48.77,8.367c9.085,3.347,19.649-3.75,22.054-12.521,2.749-10.011-3.407-18.707-12.521-22.054-18.573-6.843-38.58-9.443-58.273-9.652-9.563-.09-19.141.4-28.688,1.136-10.205.792-21.471.852-31.184,4.333-9.144,3.2-15.256,12.163-12.491,22.054,2.421,8.816,12.895,15.794,22.054,12.521Z" transform="translate(-42.799 -25.796)" fill="#632b46"/>
        <path id="Caminho_1341" data-name="Caminho 1341" d="M90.883,83.384c19.424-12.043,47.5-8.756,67.881-1.345,9.1,3.3,19.634-3.721,22.054-12.521,2.749-9.981-3.392-18.737-12.521-22.054C139.22,36.885,99.938,35.511,72.774,52.425,53.2,64.543,71.175,95.577,90.883,83.384Z" transform="translate(-41.428 -30.048)" fill="#632b46"/>
        <path id="Caminho_1342" data-name="Caminho 1342" d="M63.807,87.45c11.55,0,11.565-17.93,0-17.93S52.257,87.45,63.807,87.45Z" transform="translate(-45.969 -15.257)" fill="#632b46"/>
        <path id="Caminho_1343" data-name="Caminho 1343" d="M69.033,73.367c-.7-.687-.613-.538.239.448q.672,1.853.224.448l-.134-.613c-.179-1-.164-.822,0,.508a11.179,11.179,0,0,0-.135-2.137c0-1.18-.134-2.361-.209-3.541-.194-3.8-2.645-7.725-6.559-8.621a9.309,9.309,0,0,0-10.116,4.109,14.852,14.852,0,0,0-1.972,4.677c-1.061,4.483,1.4,9.921,6.261,11.027C61.2,80.7,66.523,78.3,67.658,73.411c.463-1.987-.941,1.315.164-.388L51.118,68.54c.359,6.2.284,12.985,5.23,17.557,3.452,3.183,9.309,3.661,12.686,0s3.676-9.279,0-12.686Z" transform="translate(-48.445 -20.164)" fill="#632b46"/>
        <path id="Caminho_1344" data-name="Caminho 1344" d="M72.078,63.947l-.493-.6,2.376,3.96q-.971-2.794-.613,2.988c-.4.493-.224.329.508-.493,1.031-1.046,2.047-2.137,3.078-3.2a20.487,20.487,0,0,1,2.988-2.988c-.344.224-1.928,0,.3.09,4.841.269,8.965-4.3,8.965-8.965a9.13,9.13,0,0,0-8.965-8.965c-7.755-.418-12.984,5.035-17.93,10.16-2.465,2.57-4.931,5.215-5.9,8.741-1.24,4.483.179,8.517,2.988,12.028,2.988,3.75,9.5,3.183,12.686,0,3.706-3.721,3.063-8.965,0-12.686Z" transform="translate(-45.574 -27.001)" fill="#632b46"/>
        <path id="Caminho_1345" data-name="Caminho 1345" d="M82.714,64.638c3.825-2.331,8.143-3.287,11.849-5.977s6.276-4.184,10.893-4.766c9.249-1.2,18.782-2.017,27.941-.822,4.841.643,8.965-4.572,8.965-8.965,0-5.364-4.184-8.338-8.965-8.965-10.654-1.39-21.9-.344-32.633,1.4a32.872,32.872,0,0,0-13.448,5.17c-4.483,2.988-8.965,4.6-13.6,7.471-9.847,5.977-.837,21.5,8.965,15.48Z" transform="translate(-38.892 -32.563)" fill="#632b46"/>
        <path id="Caminho_1346" data-name="Caminho 1346" d="M116.938,47.9a41.837,41.837,0,0,0,16.018,2.675c2.57,0,4.333-.523,6.828.463,1.255.493,5.723,3.123,5.887,4.692.926,8.5,14.389,8.607,13.448,0-.837-7.74-5.977-12.626-12.551-16.317-8.024-4.483-17.482-1.285-26.059-4.483-8.113-2.988-11.625,9.966-3.571,12.97Z" transform="translate(-17.681 -32.572)" fill="#632b46"/>
        <path id="Caminho_1347" data-name="Caminho 1347" d="M139.377,48.74c-.672.433-1.345.867-2.047,1.24-.179.09-1.18.448-.389.209s-.6.12-.657.134a14.256,14.256,0,0,0-2.988,1.106,7.919,7.919,0,0,0-1.942,1.494c-.867.867-1.2.224,1.494-.672a6.858,6.858,0,0,0-4.707,8.278c1.076,3.3,4.707,5.887,8.278,4.692a8.487,8.487,0,0,0,4-2.361c.941-1.225-2.391.882-1.24.687a11.11,11.11,0,0,0,1.165-.3,22.412,22.412,0,0,0,5.827-2.824,6.724,6.724,0,1,0-6.784-11.61Z" transform="translate(-9.998 -25.944)" fill="#632b46"/>
        <path id="Caminho_1348" data-name="Caminho 1348" d="M138.933,52.186a16.869,16.869,0,0,1,6.634,3.855c.867.822,1.494,2.017,2.391,2.764q1.27,2.167.224-3.347l1.494-1.18h.478a19.142,19.142,0,0,1-2.047-.643,6.726,6.726,0,0,0-3.571,12.97c4.483,1.494,9.443,1.614,13.134-1.748a9.727,9.727,0,0,0,2.361-12.1,30.541,30.541,0,0,0-17.482-13.448c-8.263-2.63-11.8,10.34-3.571,12.97Z" transform="translate(-6.849 -30.361)" fill="#632b46"/>
        <path id="Caminho_1349" data-name="Caminho 1349" d="M147.4,57.079c2.824,2.465,5.379,2.988,7.127,6.425a58.362,58.362,0,0,1,3.84,11.4c2.256,8.353,15.226,4.811,12.97-3.571a74.276,74.276,0,0,0-5.155-14.628,22.205,22.205,0,0,0-3.661-5.424c-1.688-1.673-3.945-2.211-5.648-3.706-6.5-5.663-16.048,3.81-9.5,9.518Z" transform="translate(-1.476 -26.962)" fill="#632b46"/>
        <path id="Caminho_1350" data-name="Caminho 1350" d="M154.26,63.618c.433,2.5,1.39,4.617,1.225,7.2s-1.36,4.677-.672,7.142a7.262,7.262,0,0,0,8.622,4.976,7.172,7.172,0,0,0,4.483-3.227c.388-.613,1.659-3.467.717-1.808,4.318-7.471-7.292-14.3-11.61-6.8-.374.643-1.718,3.407-.717,1.823l4.019-3.018h-.433l5.185.672-.344-.269,3.332,5.812c.09.717.194.523.3-.6s.314-1.838.418-2.764a23.907,23.907,0,0,0,.179-4,74.51,74.51,0,0,0-1.688-8.771c-.628-3.586-5.02-5.6-8.278-4.707-3.78,1.046-5.319,4.677-4.692,8.278Z" transform="translate(2.971 -22.399)" fill="#632b46"/>
        <path id="Caminho_1351" data-name="Caminho 1351" d="M156.469,86.462c1.39-.389-1.3,0,0,0a11.047,11.047,0,0,0,1.4,0,10.146,10.146,0,0,0,4.841-1.494,13.3,13.3,0,0,0,4.572-5.528c1.494-3.168.986-7.471-2.406-9.2-2.988-1.584-7.59-.971-9.2,2.421a12.833,12.833,0,0,1-.807,1.494c-.12.194-.642.986,0,.09.344-.418.388-.493.149-.254s-.149.194.642-.478c.314-.194,1.419-.687,1.793-.478a3.333,3.333,0,0,0-.941,0,14.226,14.226,0,0,0-3.631.448,6.728,6.728,0,0,0,3.586,12.97Z" transform="translate(-0.104 -15.314)" fill="#632b46"/>
        <path id="Caminho_1352" data-name="Caminho 1352" d="M150.855,99.245c5.558,0,6.156-8.517,6.261-12.417,0-2.271.941-5.977-.6-7.934-1.9-2.376-5.812-.777-8.293-1.748a2.271,2.271,0,0,0-2.749,1.494c-.717,1.7.4,3.467,1.121,4.976,1.494,3.123,3.272,6.051,2,9.593-.971,2.719,3.362,3.9,4.333,1.2a11.445,11.445,0,0,0,0-7.605c-.418-1.3-3.541-5.977-3.123-6.963l-2.734,1.614a8.591,8.591,0,0,0,4.019.672c.09,0,2.3-.7,1.733-.911a18.378,18.378,0,0,1,0,3.108c0,1.629,0,3.272-.149,4.9,0,.762-.6,5.514-1.7,5.529a2.241,2.241,0,0,0,0,4.483Z" transform="translate(-1.439 -11.527)" fill="#632b46"/>
        <path id="Caminho_1353" data-name="Caminho 1353" d="M153.855,86.341c-1.3-1.913-.6-4.722-1.2-6.9a2.246,2.246,0,1,0-4.333,1.18c.762,2.719,0,5.514,1.659,7.994S155.483,88.732,153.855,86.341Z" transform="translate(0.044 -11.174)" fill="#632b46"/>
        <path id="Caminho_1354" data-name="Caminho 1354" d="M58.708,87.046c4.184,1.793,9.877,5.05,13.448.538,2.585-3.227,3.96-10.713,1.972-14.434a2.241,2.241,0,0,0-2.421-1.031c-1.987.657-2.226,2.152-2.9,4-.926,2.54-3.362,6.6-2.884,9.279.4,2.316,2.421,3.257,4.333,4.243,2.734,1.4,2.988,1.255,3.96,4.3a20.023,20.023,0,0,0,1.644,5.215,2.286,2.286,0,0,0,2.54,1.031c3.676-1.494,7.605-5.648,10.086-8.666,2.884-3.481,3.437-8.382,2.779-12.76-1.18-7.859-13.3-7.665-18.707-4.184a2.331,2.331,0,0,0-1.031,2.525c.359,1.733.747,1.733,1.763,3.153A6.978,6.978,0,0,1,76.1,84.969c-2.062-.508-2.988.523-2.525,3.108l4.483.6-1.494,3.078,4.393.6v-1.9l-4.483-.583a16.855,16.855,0,0,1,.209,3.78,2.256,2.256,0,0,0,4.169,1.136c1.494-2.032,2.839-4.079,4.154-6.171l-4.169-1.7L80.21,89.9A2.256,2.256,0,0,0,84.3,91.633a28.689,28.689,0,0,0,2.51-4.154L82.63,86.343v1.494a2.256,2.256,0,0,0,4.184,1.121A18.559,18.559,0,0,0,88.7,84.222a2.256,2.256,0,0,0-4.049-1.793l-1.121,1.494,4.094.538-.075-2.555c.374-2.271-2.988-4.273-4.094-1.733a4.6,4.6,0,0,1-1.868,2.6l3.75.986a8.173,8.173,0,0,1,.553-5.5l-4.408-.6-1.494,4.886,3.75.986L84.02,79.5l-4.094-.523a5.409,5.409,0,0,1-.538,5.977l2.779-.359c-.926-.478.583-7.949.672-8.338l-4.094.523,1.21-.284-2.271,2.241,2.122-1.36-.359,2.7c.583-.538,4.826.852,5.484,1.046a2.271,2.271,0,0,0,2.54-1.031l.388-.747-3.078.807a3.138,3.138,0,0,0,3.362-.134l-3.287-1.345.538,2.585A2.271,2.271,0,0,0,89.578,82.4L90.624,80.9,86.5,79.126,85.8,80.8l4.169,1.136a9.922,9.922,0,0,1,.732-3.99c.882-2.764-3.407-3.915-4.318-1.2l-3.213-.418-3.287,2.54L81.54,81.5l3.75-.986-.717-.687c-2.107-1.972-5.274,1.2-3.168,3.183l.717.672a2.271,2.271,0,0,0,3.75-.986c.852-2.988.642-8.861-3.78-8.875-3.541,0-4.752,4.841-3.915,7.471s4.229,4.766,6.679,2.361c2.988-2.9,0-7.127-2.719-8.711a2.256,2.256,0,0,0-3.287,2.525c2.346,6.9,9.458,7.59,11.849.418l-4.318-1.2a18.8,18.8,0,0,0-.9,5.2,2.256,2.256,0,0,0,4.184,1.136,14.017,14.017,0,0,0,1.151-2.764c.792-2.525-2.734-3.75-4.094-1.718l-1.061,1.494,4.184,1.121a15.375,15.375,0,0,0-.7-3.765,2.256,2.256,0,0,0-3.287-1.345l1.151.134a2.286,2.286,0,0,0-2.988.807l-.388.747,2.525-1.031c-2.869-.852-7.366-2.256-9.847.1a2.3,2.3,0,0,0-.344,2.719c1.255,2.316,5.3,3.063,6.739.344,1.718-3.287-2.361-5.6-4.991-5.723a2.241,2.241,0,0,0-2.241,2.241c.209,2.749,1.494,8.636,5.618,7.471S84.2,77,82.586,74.45a2.271,2.271,0,0,0-4.094.538c-.777,3.437-2.645,11.311,1.375,13.448a2.346,2.346,0,0,0,2.719-.344c2.988-2.436,2.839-7.112,1.688-10.37-.583-1.644-3.213-2.421-4.094-.538a9.817,9.817,0,0,0-.747,7.471,2.271,2.271,0,0,0,3.75.986,10.459,10.459,0,0,0,2.824-8.054A2.241,2.241,0,0,0,81.614,77a14.15,14.15,0,0,0-.553,7.874,2.256,2.256,0,0,0,3.735.986,8.86,8.86,0,0,0,2.525-3.437L83.228,80.71a10.265,10.265,0,0,0,.075,4.946c.418,2.092,2.988,1.927,4.094.538L88.518,84.7l-4.109-1.748a9.473,9.473,0,0,1-1.494,3.676l4.169,1.136V86.269c0-2.092-3.138-3.213-4.169-1.121a28.54,28.54,0,0,1-2.51,4.139l4.109,1.733.613-2.988A2.256,2.256,0,0,0,81.032,86.3c-1.315,2.107-2.7,4.154-4.154,6.171l4.184,1.136a16.855,16.855,0,0,0-.179-3.706c-.239-2.3-3.87-3.3-4.393-.6a8.562,8.562,0,0,0-.224,3.078c.194,2.331,3.945,3.272,4.483.6s1.136-8.158-2.331-9.339c-3.2-1.076-4.662,2.66-4.916,5.065-.284,2.66,3.6,2.824,4.408.6.9-2.51,2.2-9.234-2.361-9.13-4.094.1-4.363,6.291-2.69,8.816,2.017,2.988,5.424,1.584,6.933-1.255a7.725,7.725,0,0,0,.463-6.141c-.852-2.152-4.064-3.646-4.468-5.678L74.7,78.454c1.225-.807,9.144-2.241,10.848-1s1.39,4.094,1.27,5.723c-.254,3.481-1.957,5.439-4.273,7.815-1.315,1.345-3.721,4.2-5.469,4.886L79.6,96.907c-2.211-3.452-.792-7.77-4.766-10.071-2.032-1.18-3.989-1-4.154-2.988,0-.433,2.5-7.471,2.092-7.351l-2.54-1.031c.822,1.494,0,5.857-.672,7.142-2.406,4.229-5.23,2.077-8.651.613C58.29,82.1,56,85.97,58.649,87.09Z" transform="translate(-44.815 -14)" fill="#632b46"/>
        <path id="Caminho_1355" data-name="Caminho 1355" d="M83.86,83.022c16.705-3.556,33.739-3.945,50.8-4.109,14.6-.134,31.378,3.96,43.331,12.611,6.246,4.483,12.222-5.857,5.977-10.325C171.3,72.04,152.877,66.975,137.352,66.93c-18.976,0-38.1.6-56.779,4.572-7.471,1.6-4.333,13.119,3.183,11.52Z" transform="translate(-35.51 -16.537)" fill="#632b46"/>
        <path id="Caminho_1356" data-name="Caminho 1356" d="M85.753,88.755c2.988-1.345,6.843-.717,10.011-1.659s5.738-2.988,8.965-3.556c6.709-1.24,13.627-1.957,20.4-3.093,7.561-1.285,4.348-12.805-3.183-11.535-7.2,1.225-15.3,1.39-22.278,3.377-3.616,1.016-6.44,3.213-10.25,3.765a35.143,35.143,0,0,0-9.772,2.376c-7.023,3.108-.941,13.448,5.977,10.325Z" transform="translate(-35.401 -15.605)" fill="#632b46"/>
        <path id="Caminho_1357" data-name="Caminho 1357" d="M121.375,79.882c6.709-.344,14.075,3.347,20.4,5.364s13.791,3.467,16.9,10.22c3.212,6.978,13.448.911,10.325-5.977-3.646-7.919-11.1-11.46-18.991-14.09-8.861-2.988-19.215-7.9-28.629-7.471-7.65.418-7.71,12.372,0,11.954Z" transform="translate(-16.082 -16.056)" fill="#632b46"/>
        <path id="Caminho_1358" data-name="Caminho 1358" d="M154.044,92.28a21.053,21.053,0,0,0-5.693-6.858,58.273,58.273,0,0,0-8.681-4.647c-1.718-.837-3.242,1.733-1.494,2.585,2.436,1.2,4.946,2.286,7.262,3.706a17.572,17.572,0,0,1,5.977,6.724A1.494,1.494,0,0,0,154,92.295Z" transform="translate(-5.315 -9.776)" fill="#632b46"/>
        <path id="Caminho_1359" data-name="Caminho 1359" d="M121.438,77.346c2.122.672,25.252,8.1,24.818,9.458l1.494-1.091c-4.766.164-8.621-3.123-12.462-5.364-4.214-2.465-8.8-4.483-13.179-6.574-1.718-.837-3.242,1.733-1.494,2.585a138.212,138.212,0,0,1,15.9,8.412c3.108,2.077,7.307,4.064,11.147,3.93a1.494,1.494,0,0,0,1.494-1.091c1.18-3.646-4.154-4.931-6.545-5.887-6.679-2.7-13.448-5.1-20.336-7.262-1.853-.568-2.63,2.316-.807,2.884Z" transform="translate(-13.993 -13.236)" fill="#632b46"/>
        <path id="Caminho_1360" data-name="Caminho 1360" d="M122.259,77.875a19.036,19.036,0,0,1,10.25,2.406c1.688.941,3.2-1.644,1.494-2.585a22.144,22.144,0,0,0-11.759-2.809c-1.913.09-1.913,3.078,0,2.988Z" transform="translate(-13.515 -12.614)" fill="#632b46"/>
        <path id="Caminho_1361" data-name="Caminho 1361" d="M84.384,83.3a35.278,35.278,0,0,0,7.471-.478c1.883-.314,1.091-3.2-.807-2.869a31.633,31.633,0,0,1-6.724.359c-1.913-.09-1.913,2.9,0,2.988Z" transform="translate(-32.254 -10.116)" fill="#632b46"/>
        <path id="Caminho_1362" data-name="Caminho 1362" d="M114.642,110.711a7.471,7.471,0,0,1,0,2.45,2.256,2.256,0,0,0,2.241,2.241,2.3,2.3,0,0,0,2.241-2.241,11.1,11.1,0,0,0-.224-3.646,2.248,2.248,0,0,0-4.333,1.2Z" transform="translate(-16.64 3.693)" fill="#f9f9f9"/>
        <path id="Caminho_1363" data-name="Caminho 1363" d="M114.3,111.83a5.17,5.17,0,0,0,.418.926c.179.284.09.12,0-.12a2.286,2.286,0,0,0,2.241,2.241,2.229,2.229,0,0,0,2.241-2.241,5.41,5.41,0,0,0-.224-1.21c-.1-.254-.209-.493-.329-.732s-.149-.254-.09,0a2.241,2.241,0,1,0-4.318,1.2Z" transform="translate(-16.809 4.248)" fill="#f9f9f9"/>
        <path id="Caminho_1364" data-name="Caminho 1364" d="M114.418,113.337a6.261,6.261,0,0,0,4.692,3.437,42.539,42.539,0,0,0,6.619,1.494c2.869.254,2.854-4.243,0-4.483a33.547,33.547,0,0,1-4.124-1.091c-1.315-.314-2.734-.344-3.317-1.688-1.136-2.63-5.006-.359-3.87,2.271Z" transform="translate(-16.775 4.668)" fill="#f9f9f9"/>
        <path id="Caminho_1365" data-name="Caminho 1365" d="M122.522,117.267c4.109.852,6.47,1.2,10.459-.433,3.481-1.494,6.156-4.243,9.817-5.065,2.824-.628,1.629-4.946-1.18-4.318-3.213.717-4.916,2.346-7.665,3.96a17.094,17.094,0,0,1-4.991,2.122,12.76,12.76,0,0,1-5.215-.6c-2.809-.583-4.019,3.735-1.2,4.333Z" transform="translate(-13.449 3.457)" fill="#f9f9f9"/>
        <path id="Caminho_1366" data-name="Caminho 1366" d="M127.659,104.852c5.08.7,9.189,3.721,12.716,7.247.687.672,1.748-.388,1.061-1.061-3.691-3.661-8.084-6.888-13.373-7.635-.941-.12-1.36,1.315-.4,1.494Z" transform="translate(-10.398 1.484)" fill="#f9f9f9"/>
        <path id="Caminho_1367" data-name="Caminho 1367" d="M117.321,109.944c.134,1.494-.553,3.631,1.614,3.945a6.38,6.38,0,0,0,5.5-1.584l-1.285-.523c0,1.165-2.182.284-2.57,0a2.152,2.152,0,0,1-.672-.956c-.164-.613.194-1.494.867-.867s1.763-.4,1.046-1.046-2-1.24-2.988-.329a2.824,2.824,0,0,0,0,3.422,3.975,3.975,0,0,0,3.377,1.883,2.167,2.167,0,0,0,2.436-2.047.747.747,0,0,0-1.27-.538,4.2,4.2,0,0,1-3.213,1.18c-.717,0-1.285,0-1.494-.837-.09-.493.134-1.121.09-1.644-.09-.941-1.584-.956-1.494,0Z" transform="translate(-15.27 3.818)" fill="#f9f9f9"/>
        <path id="Caminho_1368" data-name="Caminho 1368" d="M120.078,114.9c4.871.672,13.089,2.122,17.153-1.659a3.975,3.975,0,0,0,0-6.081,5.26,5.26,0,0,0-6.485.209c-2.988,2.3,0,7.471,2.988,5.17,1.016-.508.717-1.046-.926-1.6l.3-2.3c-.911,2.092-9.667.747-11.505.508-3.765-.523-5.394,5.23-1.584,5.753Z" transform="translate(-14.979 2.84)" fill="#f9f9f9"/>
        <path id="Caminho_1369" data-name="Caminho 1369" d="M127.057,108.5a43.54,43.54,0,0,0,4.752,1.957c1.673.732,2.5,2.286,4.572,2.167a3.063,3.063,0,0,0,2.988-2.988,2.988,2.988,0,0,0-2.988-2.988c.448,0,.941.568.284-.09a7.768,7.768,0,0,0-.971-.762,10.236,10.236,0,0,0-2.152-1.046,22.414,22.414,0,0,1-3.467-1.4c-3.347-1.913-6.35,3.257-2.988,5.155Z" transform="translate(-11.14 1.254)" fill="#f9f9f9"/>
        <path id="Caminho_1370" data-name="Caminho 1370" d="M135.026,111.877c3.84,0,3.855-5.977,0-5.977S131.171,111.877,135.026,111.877Z" transform="translate(-7.918 2.722)" fill="#f9f9f9"/>
        <path id="Caminho_1371" data-name="Caminho 1371" d="M135.836,112.757c3.84,0,3.855-5.977,0-5.977S131.981,112.757,135.836,112.757Z" transform="translate(-7.518 3.157)" fill="#f9f9f9"/>
        <path id="Caminho_1372" data-name="Caminho 1372" d="M133.348,109.155c-1.838,1.718-5.1,1.808-7.471,2.241a2.988,2.988,0,0,0-2.092,3.676,3.063,3.063,0,0,0,3.676,2.092c3.646-.672,7.277-1.136,10.086-3.78s-1.419-6.858-4.229-4.229Z" transform="translate(-12.097 3.92)" fill="#f9f9f9"/>
        <path id="Caminho_1373" data-name="Caminho 1373" d="M87.9,111.117c-.538.941-.239.837.882-.314.508-.359,1.031-.687,1.494-.986a31.381,31.381,0,0,1,2.988-1.644c2.107-.911,4.483-1.076,6.649-1.793,1.823-.6,1.031-3.481-.792-2.884-2.988,1-5.977,1.33-8.786,2.839-1.614.882-5.6,2.48-5.529,4.781a1.494,1.494,0,0,0,2.988,0Z" transform="translate(-31.306 1.494)" fill="#f9f9f9"/>
        <path id="Caminho_1374" data-name="Caminho 1374" d="M87.429,111.238a6.62,6.62,0,0,1,3.138,1.4c1.046.643,2.062,1.3,3.078,1.987,1.6,1.076,3.093-1.494,1.494-2.585-2.2-1.494-4.961-3.825-7.725-3.8a1.494,1.494,0,1,0,0,2.988Z" transform="translate(-30.757 3.883)" fill="#f9f9f9"/>
        <path id="Caminho_1375" data-name="Caminho 1375" d="M87.046,112.416c7.366,3.765,33.365,13.074,30.048-3.84-.374-1.883-3.257-1.091-2.884.792,2.361,12.043-21.367,2.66-25.655.463-1.7-.867-3.213,1.7-1.494,2.585Z" transform="translate(-30.568 3.512)" fill="#f9f9f9"/>
        <path id="Caminho_1376" data-name="Caminho 1376" d="M106.848,111.426c-.09-.314,0-.1-.164.1a5.739,5.739,0,0,1-.4.732,1.21,1.21,0,0,1-.9.553,1.5,1.5,0,1,0,.792,2.884,4.154,4.154,0,0,0,2.645-1.883,4.094,4.094,0,0,0,.911-3.183,1.5,1.5,0,0,0-2.884.792Z" transform="translate(-21.681 4.518)" fill="#f9f9f9"/>
        <path id="Caminho_1377" data-name="Caminho 1377" d="M113.07,110.157c-5.618,8.427-16.884,1.6-23.235-2.077v2.585c.762-.523,5.125-2.988,6.126-2.436l-.687-1.688c-1.494.986-1.778,1.673-.7,2.047.777.269,1.061.882.9,1.853l2.047.538.4,1.584H100.8l-1.494-1.883v2.107l2.63,1.285,1.046-1.838-2.869-.149,1.285,2.256c.643-1.121,5.6-1.031,6.619-.956l-1.061-2.555L104.613,112l.792,2.884a44.237,44.237,0,0,1,6.365-1.494l-1.688-2.182-.224.3c-.9,1.2.852,2.839,2.047,2.032a29.1,29.1,0,0,1,3.765-2.137l-1.823-2.346-.194.3c-1.33,1.39.777,3.5,2.107,2.107l.239-.239a1.494,1.494,0,0,0-1.808-2.346,25.986,25.986,0,0,0-3.765,2.137l2.047,2.032.224-.3c.882-1.165-.568-2.361-1.688-2.182a42.281,42.281,0,0,0-6.365,1.494,1.5,1.5,0,0,0,.792,2.884A7.352,7.352,0,0,0,109.1,113a1.494,1.494,0,0,0-1.046-2.54c-2.525-.179-7.74,0-9.189,2.436a1.494,1.494,0,0,0,1.285,2.241c2.734.09,5.514-2.645,1.688-4.124a1.494,1.494,0,0,0-1.494.374c-2.436,2.107,1.375,4.483,3.422,3.8a1.494,1.494,0,0,0,1.046-1.838c-.523-2.988-5.364-4.662-7.635-2.6a1.494,1.494,0,0,0,0,2.107c1.688,2.017,5.827.4,4.378-2.271-1.6-2.988-4.677.374-3.721,2.839.493,1.27,2.525,1.494,2.884,0,1.614-6.978-8.188-4.483-5.872-.867a1.494,1.494,0,0,0,2.047.538c5.618-3.242-.329-11.565-4.483-5.827-3.153,4.348,4.483,5.977,5.648.134a1.494,1.494,0,0,0-.672-1.673c-2.391-1.494-7.187,1.076-9.144,2.421a1.494,1.494,0,0,0,0,2.585c8.143,4.722,20.62,11.057,27.314,1,1.076-1.6-1.494-3.093-2.57-1.494Z" transform="translate(-29.98 2.409)" fill="#f9f9f9"/>
        <path id="Caminho_1378" data-name="Caminho 1378" d="M95.518,107.425a6.905,6.905,0,0,0,1.18.374h-.1a1.39,1.39,0,0,1-.433-1.225,2.749,2.749,0,0,0,0,1.046,2.3,2.3,0,0,0,2.241,2.241,2.219,2.219,0,0,0,2.241-2.241v-.179c-.09.239,0,0,0-.538a2.84,2.84,0,0,0,0-.867,2.988,2.988,0,0,0-.882-1.494,6.978,6.978,0,0,0-2.988-1.345,2.256,2.256,0,0,0-2.749,1.494A2.286,2.286,0,0,0,95.518,107.425Z" transform="translate(-26.787 1.346)" fill="#252e40"/>
        <path id="Caminho_1379" data-name="Caminho 1379" d="M94.527,106.63c2.794,7.471,11.3,5.678,16.974,2.719,1.285-.657.149-2.6-1.136-1.928-4.139,2.152-11.46,4.483-13.687-1.39C96.185,104.687,94,105.27,94.527,106.63Z" transform="translate(-26.543 2.41)" fill="#252e40"/>
        <path id="Caminho_1380" data-name="Caminho 1380" d="M109.447,107.584c-2.6.6-10.28,3.989-10.743-.388v-.732c-.254-.986,0-1.3.956-.941a7.366,7.366,0,0,1,3.2.822c1.046.374,4.393,1.046,4.826,1.972V107.2c-.269.628-3.287.493-3.945.583s-1.315.224-1.972.359l-.986.209c-.926.284-.7,0,.642-.762l.3-1.091-1.853.882.284,1.091.956-.314-.284-1.091-.523.4,1.255,1.644a1.315,1.315,0,0,1,1.3-.926l1.644-1.27-.149-.12.553.971v-.209l-.553.971-.075-.374,1.494-1.076h-.149l.777.777v-.164l-.284,1.091h-.1l-.777-.777h-3.96a7.9,7.9,0,0,1-4.139-1.24c-1.21-.807-2.331,1.136-1.136,1.927,2.167,1.494,12.058,3.541,11.386-1.33a1.076,1.076,0,0,0-.777-.777c-1.808-.448-3.556,2.107-1.39,2.69a1.136,1.136,0,0,0,1.419-1.091c-.164-3.84-5.723-1.21-3.153.687.807.6,1.913-.388,1.644-1.255-.9-3.093-4.034-1.4-5.379.4-.583.777.388,1.942,1.27,1.644,1.33-.463,2.988-2.062,1.494-3.362a2.988,2.988,0,0,0-4.393,1.6,1.091,1.091,0,0,0,.284,1.091c1.36,1.151,5.155.389,5.349-1.673.209-2.346-3.481-2.869-4.856-1.793-1.838,1.494-2.092,4.916.717,5.245,1.913.224,4.109-.747,5.977-.9,1.24-.09,2.988,0,3.84-1.046,1.868-2.421-2.988-3.556-4.258-4.019-1.9-.657-6.873-3.168-8.308-.418-1.225,2.361-.448,5.708,2.017,6.694,3.691,1.494,7.62-.478,11.206-1.3,1.4-.329.822-2.5-.6-2.167Z" transform="translate(-26.028 1.351)" fill="#252e40"/>
        <path id="Caminho_1381" data-name="Caminho 1381" d="M115.915,110.1c2.51,3.272,10.818,4.766,10.952-.971s-8.218-4.094-10.459-.837a1.121,1.121,0,0,0,.956,1.688c3.571.12,5.289-2.988,8.442-4,1.868-.642,6.664-1.659,4.737,2.122-.6,1.18-5.394,4.662-6.485,2.406-.7-1.494,2.256-2.092,3.168-2.57.254-.12,2.988-1.494,2.9-1.39.478-1.494-2.376-1.27-2.988-1.27a10.938,10.938,0,0,0-8.233,3.646,1.136,1.136,0,0,0,.493,1.883c.657.12,4.109.732,4.2-.224a1.15,1.15,0,0,0,.822,1.091c2.391.9,5.17-1.644,6.963-2.988.7-.493.777-1.868-.269-2.047a8.5,8.5,0,0,0-6.515,1.285c-.732.493-.747,1.868.269,2.047a6.051,6.051,0,0,0,4.647-.747,1.125,1.125,0,1,0-1.136-1.942l-2.988.538.269,2.047a6.47,6.47,0,0,1,4.781-1.076l-.269-2.047c-1.076.777-3.81,3.242-5.23,2.7l.822,1.076c.284-3.093-4.288-1.629-5.842-1.942l.493,1.868a8.472,8.472,0,0,1,5.529-2.988c1.3-.134,2.615.179,3.915,0s2-.329,2.51-1.6a1.091,1.091,0,0,0-.284-1.091c-1.345-1.18-3.123-.448-4.483.254s-2.839,1.33-4.288,1.957a3.691,3.691,0,0,0-1.853,1.33c-2.5,3.9,4.244,5.319,6.754,4.258s8.128-6.425,4.572-9.174c-1.494-1.165-5.006-.359-6.724,0-3.093.747-5.6,4.288-8.756,4.184l.971,1.688a4.483,4.483,0,0,1,3.123-1.748c.628-.09,5.484-.478,2.988,2.391-1.255,1.494-5.723,0-6.634-1.106s-2.809,0-1.928,1.136Z" transform="translate(-16.091 1.182)" fill="#252e40"/>
        <path id="Caminho_1382" data-name="Caminho 1382" d="M117.349,115.462a14.568,14.568,0,0,1,3.93,1.629.568.568,0,0,0,.568-.971,16.3,16.3,0,0,0-4.214-1.748.568.568,0,0,0-.284,1.091Z" transform="translate(-15.402 6.906)" fill="#8f45d6"/>
        <path id="Caminho_1383" data-name="Caminho 1383" d="M118.277,118.387c10.026,4.587,20.351.852,26.761-7.471.448-.583-.523-1.136-.956-.568-5.977,7.83-15.838,11.431-25.237,7.127-.657-.3-1.225.657-.568.971Z" transform="translate(-14.911 4.803)" fill="#8f45d6"/>
        <path id="Caminho_1384" data-name="Caminho 1384" d="M129.944,119.116c1.748-1.494,3.885-2.3,5.753-3.6a15.613,15.613,0,0,0,3.855-4.3c.418-.6-.553-1.165-.971-.568a14.7,14.7,0,0,1-4.856,4.781,31.511,31.511,0,0,0-4.572,2.9c-.553.463.239,1.255.792.792Z" transform="translate(-9.485 4.941)" fill="#8f45d6"/>
        <path id="Caminho_1385" data-name="Caminho 1385" d="M143.156,110.471a31.647,31.647,0,0,1-13.448,7.7,19.693,19.693,0,0,1-4.483.762c-1.27-.209-2.54-.388-3.8-.568-.1,0,2.376-.09,2.406-.1l-.3-1.076a4.572,4.572,0,0,0-2.137,1.255c-.478.4,0,1.016.553.941,1.345-.209,2.107-1.031,3.467-1.494l-.538-.941-1.494,1.076a.556.556,0,0,0,.568.956,20.723,20.723,0,0,1,2.69-1.375l-.687-.882a7.1,7.1,0,0,1-1.733,1.673c-.538.433.149,1.121.672.882l3.631-1.644-.687-.882-2.2,1.733c-.508.389.149,1.21.672.882a29.882,29.882,0,0,1,4.677-2.51l-.553-.941a13.642,13.642,0,0,1-3.332,2.107l.568.971a37.35,37.35,0,0,1,5.753-2.675L133,115.283c-1.375.807-2.749,1.494-4.184,2.241-.657.314-.09,1.27.568.971q5.842-2.734,11.8-5.275l-.568-.971a47.816,47.816,0,0,1-10.818,5.663c-.657.269-.374,1.36.3,1.091a49.86,49.86,0,0,0,11.087-5.783.568.568,0,0,0-.568-.971c-3.96,1.7-7.9,3.452-11.8,5.275l.568.971c1.494-.7,2.809-1.494,4.184-2.241.538-.314.179-1.255-.433-1.016a41.39,41.39,0,0,0-5.977,2.779c-.628.359-.075,1.3.568.971a22.174,22.174,0,0,0,3.556-2.286.561.561,0,0,0-.538-.941,34.846,34.846,0,0,0-4.946,2.63l.687.882,2.2-1.733c.538-.433-.149-1.121-.672-.882l-3.631,1.644.687.882a7.1,7.1,0,0,0,1.733-1.673.554.554,0,1,0-.672-.882,22.885,22.885,0,0,0-2.69,1.39l.568.956c.717-.493.971-.687,1.659-1.24.448-.359,0-1.091-.553-.926a29.669,29.669,0,0,1-3.467,1.419l.538.941,1.644-.971a.558.558,0,0,0-.3-1.076c-1.3.179-3.108-.314-4.483-.12a.568.568,0,0,0-.389.956c2.675,2.824,8.039,2.137,11.4,1.24a33.335,33.335,0,0,0,13.926-7.994c.523-.493-.269-1.285-.792-.792Z" transform="translate(-14.658 4.874)" fill="#8f45d6"/>
        <path id="Caminho_1386" data-name="Caminho 1386" d="M116.269,108.984a11.953,11.953,0,0,1,8.846-5.872c.7,0,.717-1.21,0-1.121a13.119,13.119,0,0,0-9.817,6.425C114.924,109.029,115.9,109.6,116.269,108.984Z" transform="translate(-16.28 0.788)" fill="#8f45d6"/>
        <path id="Caminho_1387" data-name="Caminho 1387" d="M117.259,107.5c2.69-1.494,5.708-3.661,8.741-4.169.717-.12.4-1.18-.3-1.076a23.263,23.263,0,0,0-5.827,1.6c-.657.269-.374,1.36.3,1.076a23.907,23.907,0,0,1,5.827-1.6l-.3-1.076c-3.168.538-6.2,2.779-8.965,4.273-.628.344,0,1.315.568.971Z" transform="translate(-15.657 0.916)" fill="#8f45d6"/>
        <path id="Caminho_1388" data-name="Caminho 1388" d="M119.112,105.3c2.9-1.494,5.812-2.988,9.189-2.779l-.149-1.106a25.249,25.249,0,0,0-3.885,1.165.553.553,0,0,0,.149,1.091h3.87a.568.568,0,0,0,0-1.121h-3.81l.149,1.106a24.758,24.758,0,0,1,3.885-1.165c.642-.134.448-1.046-.149-1.091-3.571-.239-6.694,1.3-9.742,2.988-.642.344,0,1.3.553.956Z" transform="translate(-14.73 0.485)" fill="#8f45d6"/>
        <path id="Caminho_1389" data-name="Caminho 1389" d="M125.258,102.932a21.428,21.428,0,0,1,5.977.09c.7.1,1-.971.3-1.076a22.414,22.414,0,0,0-6.246-.134c-.717,0-.717,1.21,0,1.121Z" transform="translate(-11.567 0.624)" fill="#8f45d6"/>
        <path id="Caminho_1390" data-name="Caminho 1390" d="M125.618,103.379a19.8,19.8,0,0,1,12.462,3.631c.6.418,1.165-.553.568-.956a20.8,20.8,0,0,0-13.029-3.8C124.9,102.258,124.9,103.409,125.618,103.379Z" transform="translate(-11.404 0.91)" fill="#8f45d6"/>
        <path id="Caminho_1391" data-name="Caminho 1391" d="M127.935,102.965a24.52,24.52,0,0,1,8.278,4.094c.6.4,1.15-.568.568-.971a25.521,25.521,0,0,0-8.547-4.214C127.531,101.725,127.217,102.8,127.935,102.965Z" transform="translate(-10.195 0.726)" fill="#8f45d6"/>
        <path id="Caminho_1392" data-name="Caminho 1392" d="M118.278,106.027a10.071,10.071,0,0,0,2.167-1.718c.508-.523-.284-1.315-.792-.792a10.311,10.311,0,0,1-1.942,1.494.556.556,0,0,0,.568.956Z" transform="translate(-15.181 1.459)" fill="#8f45d6"/>
        <path id="Caminho_1393" data-name="Caminho 1393" d="M128.461,168.1c11.087,6.589-3.153,10.728-7.979,10.937a19.873,19.873,0,0,1-7.142-.657c-4.647-1.36-10.728-6.53-5.08-12.193a1.121,1.121,0,0,0-1.584-1.584,8.965,8.965,0,0,0-.807,11.8c3.407,4.856,9.279,5.11,14.613,4.871,4.617-.209,11.416-1.091,13.911-5.738,2.241-4.169-1.494-7.471-4.8-9.383a1.125,1.125,0,1,0-1.136,1.942Z" transform="translate(-21.808 31.582)" fill="#252e40"/>
        <path id="Caminho_1394" data-name="Caminho 1394" d="M82.608,239.6c-.134-7.187-2.211-14.03-2.69-21.173a55.285,55.285,0,0,1,3.257-21.053c5.2-15.495,17.5-26.193,34.127-26.9a1.121,1.121,0,1,0,0-2.241,38.58,38.58,0,0,0-33.2,21.232,63.13,63.13,0,0,0-6.141,21.217c-1.091,9.832,2.3,19.156,2.5,28.913a1.121,1.121,0,1,0,2.241,0Z" transform="translate(-34.796 33.529)" fill="#252e40"/>
        <path id="Caminho_1395" data-name="Caminho 1395" d="M162.841,234.266c.448-7.785-1.21-15.047-2.854-22.607-1.793-8.248-2.2-16.914-5.245-24.848-4.572-11.953-18.08-16.018-29.719-18.065-1.494-.239-2.017,1.913-.6,2.167a59.318,59.318,0,0,1,19.813,6.739c6.8,3.989,9.115,10.459,10.654,17.781,2.585,12.252,6.425,26.372,5.708,38.849-.09,1.494,2.152,1.494,2.241,0Z" transform="translate(-12.14 33.771)" fill="#252e40"/>
        <path id="Caminho_1396" data-name="Caminho 1396" d="M114.723,169c-12.237,3.257-21.143,9.413-26.283,21.277-6.53,15.017-4.483,31.871-5.17,47.814a1.121,1.121,0,1,0,2.241,0c1.091-26.761-2.3-58.363,29.884-66.895a1.124,1.124,0,1,0-.6-2.167Z" transform="translate(-32.066 33.902)" fill="#252e40"/>
        <path id="Caminho_1397" data-name="Caminho 1397" d="M123.677,172.66c10.459,5.26,21.9,11.505,25.521,23.519s4.9,25.4,4.976,37.7a1.121,1.121,0,0,0,2.241,0c-.075-12.835-1.106-28.6-5.872-40.672-4.483-11.236-15.51-17.333-25.73-22.413-1.285-.643-2.421,1.285-1.136,1.942Z" transform="translate(-12.377 34.727)" fill="#252e40"/>
        <path id="Caminho_1398" data-name="Caminho 1398" d="M107.384,158.239l-.433,10.086c-.12,2.764-.553,5.857.568,8.487,1.614,3.81,5.528,4.408,9.294,4.139,11.953-.852,11.834-13.956,11.953-23.25a1.121,1.121,0,1,0-2.241,0c-.12,7.561.553,19.678-9.219,20.919-3.242.4-6.6.418-8.039-3.541-.628-1.718-.209-4.2-.134-5.977.134-3.616.3-7.232.463-10.863a1.121,1.121,0,1,0-2.241,0Z" transform="translate(-20.454 27.767)" fill="#252e40"/>
        <path id="Caminho_1399" data-name="Caminho 1399" d="M107.3,166.455l.642-.284a1.121,1.121,0,1,0-1.136-1.927l-.642.269a1.121,1.121,0,0,0-.389,1.494,1.136,1.136,0,0,0,1.494.4Z" transform="translate(-21.013 31.46)" fill="#252e40"/>
        <path id="Caminho_1400" data-name="Caminho 1400" d="M111.928,192.661c11.849,6.9,28.24,9.608,40.791,2.7,7.217-3.96,13.358-11.177,19.006-17,6.156-6.32,11.864-12.94,15.465-21.068l-2.047-.867-.254.792a1.121,1.121,0,0,0,2.047.867c4.483-8.517,6.305-17.8,7.471-27.269.926-6.978,2.271-16.182-.418-23-2.361-5.977-8.756-14.075-13.747-18.11a11.849,11.849,0,0,0-6.32-2.585c-2.749-.448-5.274-.254-7.919-1.3a64.322,64.322,0,0,1-6.515-3.6c-6.9-3.721-15.883-7.605-23.907-7.576-4.064,0-7.71,1.494-11.535,2.63a28.733,28.733,0,0,1-6.35,1.494c-2.54.224-4.826-.687-7.307-.613a8.517,8.517,0,0,0-5.08,1.673c-2.749,1.688-4.662,4.109-7.889,5.05-3.915,1.151-6.141-.388-9.817-.3-2.7,0-2.779.314-4.617,2.182C78.8,91,77.771,96.047,71.435,98.467a1.136,1.136,0,0,0-.493,1.868c1.016,1-2.152,11.221-2.376,13.448a50.46,50.46,0,0,0,.792,14.942,97.122,97.122,0,0,0,10.459,27.418,112.617,112.617,0,0,0,15.659,22.2c4.139,4.483,10.579,12.641,16.72,14.434a1.122,1.122,0,1,0,.583-2.167c-3.78-1.106-7.964-6.081-10.833-8.831A102.116,102.116,0,0,1,94,173.252a113.68,113.68,0,0,1-15.405-24.445c-4.692-10.011-8.5-21.128-7.979-32.334.149-2.988,4.677-14.942,1.928-17.706l-.493,1.883c5.26-2,7.277-5.783,10.863-9.757,4.886-5.379,11.311-1.883,17.362-4.662,4.692-2.137,7.082-4.856,12.91-5.26,2.585-.164,4.572.314,7.142-.239,3.347-.732,6.47-2.256,9.787-2.988,5.633-1.39,10.713-.374,16.033,1.494a80.682,80.682,0,0,1,13.448,5.678,33.484,33.484,0,0,0,7.576,3.93c3.9,1.061,7.157.314,10.788,2.525,4.393,2.675,7.7,7.755,10.564,11.953,5.23,7.576,5.125,15.569,4.169,24.564-1.076,10.041-2.839,20.216-7.62,29.211l2.047.867.254-.792c.388-1.2-1.494-2.032-2.047-.867-5.872,13.239-17.841,24.31-28.688,33.634-12.178,10.459-30.407,8.562-43.526.941a1.121,1.121,0,0,0-1.18,1.778Z" transform="translate(-39.447 -12.722)" fill="#252e40"/>
        <path id="Caminho_1401" data-name="Caminho 1401" d="M200.376,122.909a20.142,20.142,0,0,0,4.751-9.892c.134-.822-.344-5.977-.09-6.44,1.136-1.718,5.977-.822,8.1-1.673a8.054,8.054,0,0,0,5.409-6.261c.12-.672-.7-4.094-.568-4.587.553-1.987.538-.478,1.9-2.615,5.768-9.085,1.614-17.333-2.45-26.4a20.186,20.186,0,0,0-8.547-9.458,39.762,39.762,0,0,1-8.965-7.008,17.482,17.482,0,0,0-4.946-3.885c-4.662-2.256-9.832-2.421-14.583-4.677s-9.369-3.78-14.763-3.227c-4.273.448-6.126.717-10.19-.687a25.147,25.147,0,0,0-4.752-1.3c-2.988-.433-6.261.747-9.159.269-2-.314-3.631-1.688-5.842-1.853a21.726,21.726,0,0,0-6.993.941,36.548,36.548,0,0,1-12.85,1.255,23.414,23.414,0,0,0-12.805,2.211c-6.216,3.123-10.908,8.726-17.691,10.863a44.691,44.691,0,0,0-14.389,6.679C65.181,59.511,63.075,65.757,58.2,70.478c-2.914,2.839-6.5,3.2-8.158,7.59-3.661,9.7,2.794,22.278,11.8,26.283v-1.927l-1.494.971a1.15,1.15,0,0,0-.224,1.763,13.208,13.208,0,0,0,11.132,5.289c4.019-.1,6.1,1.031,7.292,5.349.538,1.957.149,3.123,1.494,4.916.852,1.136,2.794,0,1.928-1.136-2.465-3.287.717-8.875-3.138-11.445-1.151-.762-1.673-.628-3.272-.657s-3.467.837-5.23.762c-.224,0-9.085-2.734-7.336-3.885a1.126,1.126,0,0,0,0-1.927c-6.425-2.854-9.936-8.517-11.072-15.33-.747-4.483-.583-8.308,3.183-11.281,1.136-.9,2.988-1.375,4-2.331,3.093-2.839,4.363-7.471,7.053-10.669a36.667,36.667,0,0,1,11.759-9.354c3.735-1.868,7.665-2.167,11.386-3.78,5.08-2.182,8.965-6.993,13.926-9.593,6.664-3.526,11.4-1.494,18.169-1.957,4.483-.269,8.7-2.869,13.209-2.734,4.856.149,5.245,1.793,9.324,1.718,2.854,0,5.842-.538,8.651.3a42.436,42.436,0,0,0,5.558,2.958c4.169.463,8.1-1.629,12.462-1.151,5.349.6,9.055,3.975,13.986,5.379,6.664,1.9,9.249,1.33,14.6,7.038a24.789,24.789,0,0,0,7.59,5.424c6.4,3.437,8.308,8.353,10.459,14.837,1.957,5.812,7.068,16.436-1.494,19.424a1.136,1.136,0,0,0-.777,1.39c2.988,7.785-5.842,10.848-11.61,11.1a1.136,1.136,0,0,0-1.091,1.419,17.527,17.527,0,0,1-3.586,16.137c-.911,1.106.672,2.7,1.584,1.584Z" transform="translate(-49.002 -33.204)" fill="#252e40"/>
        <path id="Caminho_1402" data-name="Caminho 1402" d="M80.738,105.542c7.546-1.883,14.389-5.977,20.754-10.355S113.879,85.774,120.5,81.74a3.183,3.183,0,0,1,0,1.793c-1.165,5.977-2.48,12.312-6.634,16.795a31.961,31.961,0,0,1-9.264,6.231,128.171,128.171,0,0,1-15.211,6.784,3.505,3.505,0,0,1-4.5-.792c-2.077-1.883-4.288-4.034-4.572-6.814" transform="translate(-33.524 -9.218)" fill="#632b46"/>
        <path id="Caminho_1403" data-name="Caminho 1403" d="M81.092,106.239a63.907,63.907,0,0,0,17.661-8.233c3.257-2.122,6.38-4.483,9.518-6.754,2.167-1.6,6.918-6.545,9.458-6.813,1.868-.194,1.778,0,1.733,2.436a16.825,16.825,0,0,1-1.151,4.483,22.532,22.532,0,0,1-9.877,12.716c-7.307,4.483-23.773,15.091-27.433,1.659a.556.556,0,0,0-1.076.284c3.556,13.119,14.165,6.6,22.622,2.406,11.132-5.5,18.662-13.239,18.647-26.537a.553.553,0,0,0-.837-.478c-13.014,8.4-24.31,19.5-39.566,23.8a.558.558,0,1,0,.3,1.076Z" transform="translate(-33.728 -9.422)" fill="#252e40"/>
        <path id="Caminho_1404" data-name="Caminho 1404" d="M154.28,105.907c-7.605-1.942-14.374-5.977-20.739-10.459S121.139,86.034,114.535,82a2.988,2.988,0,0,0,0,1.778c1.151,5.977,2.48,12.327,6.619,16.795a31.871,31.871,0,0,0,9.264,6.231,126.84,126.84,0,0,0,15.211,6.784,4.617,4.617,0,0,0,2.854.344,4.931,4.931,0,0,0,1.659-1.121c2.077-1.883,4.288-4.034,4.557-6.828" transform="translate(-16.683 -9.089)" fill="#632b46"/>
        <path id="Caminho_1405" data-name="Caminho 1405" d="M154.573,105.488c-15.241-4.3-26.552-15.48-39.611-23.8a.568.568,0,0,0-.852.493c0,13.3,7.471,21.038,18.647,26.537,8.472,4.184,19.066,10.728,22.622-2.406a.558.558,0,1,0-1.076-.3c-.941,3.5-4.483,7.277-8.382,7.217-2.615,0-6.47-2.585-8.831-3.676-3.123-1.494-6.246-2.988-9.234-4.632A22.054,22.054,0,0,1,117.4,92.772a21.784,21.784,0,0,1-1.255-4.483c-.3-2.361-1.106-3.84,1.494-3.556,2.376.254,6.485,4.6,8.412,5.977,3.123,2.316,6.231,4.647,9.473,6.814a65.923,65.923,0,0,0,18.737,8.965.558.558,0,0,0,.3-1.076Z" transform="translate(-16.826 -9.282)" fill="#252e40"/>
        <path id="Caminho_1406" data-name="Caminho 1406" d="M85.043,112.034c3.721-5.035,9.847-7.172,15.838-7.949,4.826-.628,15.734,2.331,17.542,8.367,2.734,9.189-13.328,8.158-17.123,7.112a50.907,50.907,0,0,1-16.167-8.233c-.553-.433-1.36.344-.792.792,6.545,5.17,15.226,9.174,23.623,9.115,5.185,0,12.641-.329,11.953-7.471-.687-6.291-9.951-10.878-15.614-11.1-7.292-.284-15.749,2.854-20.157,8.831-.433.568.538,1.136.971.553Z" transform="translate(-31.687 1.115)" fill="#252e40"/>
        <path id="Caminho_1407" data-name="Caminho 1407" d="M94.093,103.722c-2.51,10.773,12.521,11.864,18.513,6.545.538-.493-.254-1.27-.792-.792-5.006,4.483-18.931,4.393-16.645-5.454C95.333,103.319,94.257,103.02,94.093,103.722Z" transform="translate(-26.856 1.448)" fill="#252e40"/>
        <path id="Caminho_1408" data-name="Caminho 1408" d="M149.475,111.487c-4.408-5.977-12.85-9.115-20.157-8.831-5.738.239-14.942,4.781-15.6,11.1-.777,7.172,6.664,7.471,11.953,7.471,8.4,0,17.079-3.945,23.608-9.115.568-.448-.224-1.225-.792-.792a51.729,51.729,0,0,1-14.434,7.471,23.235,23.235,0,0,1-8.382,1.255c-3.721,0-12.895.493-10.459-7.665,1.494-5.2,11.52-8.756,15.7-8.621,6.425.194,13.791,2.988,17.676,8.2.418.583,1.39,0,.956-.553Z" transform="translate(-17.047 1.11)" fill="#252e40"/>
        <path id="Caminho_1409" data-name="Caminho 1409" d="M132.826,104.021c2.286,9.8-11.61,9.906-16.63,5.454-.538-.478-1.345.3-.807.792,5.977,5.319,21.023,4.229,18.528-6.545C133.752,103.02,132.662,103.319,132.826,104.021Z" transform="translate(-16.281 1.448)" fill="#252e40"/>
        <path id="Caminho_1410" data-name="Caminho 1410" d="M128,146.886s5.648-.807,18.916-24.833c1.614-1.494,9.593,2.869,1.121,15.958S128.613,156.12,128,147.693Z" transform="translate(-9.961 10.566)" fill="#e2d5af" stroke="#252e40" stroke-miterlimit="10" stroke-width="0.5"/>
        <path id="Caminho_1411" data-name="Caminho 1411" d="M144.012,97.568a34.277,34.277,0,0,0,2.346,14.12c.254.672,1.33.374,1.076-.3a33.589,33.589,0,0,1-2.3-13.821.561.561,0,0,0-1.121,0Z" transform="translate(-2.066 -1.662)" fill="#252e40"/>
        <path id="Caminho_1412" data-name="Caminho 1412" d="M140.39,96.377c0,5.02,2.854,10.071,4.632,14.673.254.657,1.345.374,1.076-.3-1.718-4.483-4.587-9.548-4.587-14.374a.568.568,0,0,0-1.121,0Z" transform="translate(-3.838 -2.219)" fill="#252e40"/>
        <path id="Caminho_1413" data-name="Caminho 1413" d="M139.868,104.108c4.662.433,8.965-2.914,13.582-1.494.687.224.986-.852.3-1.076-4.781-1.494-9.1,1.838-13.881,1.39a.561.561,0,0,0,0,1.121Z" transform="translate(-4.362 0.375)" fill="#252e40"/>
        <path id="Caminho_1414" data-name="Caminho 1414" d="M107.139,149.723c5.334-5.3,12.88-2.226,18.692.179.672.269.956-.807.3-1.091-3.96-1.629-7.471-3.437-11.819-2.988a12.178,12.178,0,0,0-7.964,3.108c-.523.508.269,1.3.792.792Z" transform="translate(-20.747 22.417)" fill="#252e40"/>
        <path id="Caminho_1415" data-name="Caminho 1415" d="M108.512,132.051a23.906,23.906,0,0,0,.239,5.573,20.246,20.246,0,0,0,1.823,4.019c1.419,2.719,2.57,3.317,5.8,2.988,7.351-.642,5.05-9.354,5.573-14.374a.561.561,0,0,0-1.121,0c-.463,4.483,1.763,12.895-4.856,13.253-2.779.164-3.855-1.3-4.991-3.556-1.375-2.749-1.27-5.006-1.345-7.964a.568.568,0,0,0-1.121,0Z" transform="translate(-19.625 14.493)" fill="#252e40"/>
        <path id="Caminho_1416" data-name="Caminho 1416" d="M110.723,136.237c.463,1.868,1.9,3.721,4.034,3.452a5.842,5.842,0,0,0,4.258-3.721c.224-.687-.867-.986-1.091-.3a4.856,4.856,0,0,1-2.9,2.809c-1.733.553-2.869-1.091-3.213-2.54a.568.568,0,0,0-1.091.3Z" transform="translate(-18.504 17.241)" fill="#252e40"/>
        <path id="Caminho_1417" data-name="Caminho 1417" d="M151.785,95.534c8.009-4.587,19.589,0,17.437,10.116-1.151,5.334-3.646,7.471-7.471,10.818a13.313,13.313,0,0,0-3.93,4.766c-1.27,2.988-.538,10.564-5.215,10.967-1.419.12-1.494,2.361,0,2.241,5.006-.433,5.514-5.768,6.709-9.712,2.182-7.157,9.623-8.831,11.595-16.048,1.18-4.348,2.391-9.787-1.3-13.044A16.287,16.287,0,0,0,150.6,93.592a1.125,1.125,0,1,0,1.136,1.942Z" transform="translate(0.934 -4.424)" fill="#252e40"/>
        <path id="Caminho_1418" data-name="Caminho 1418" d="M154.995,100.914a3.242,3.242,0,0,1,1.763-3.347,4.273,4.273,0,0,1,3.212.149A3.84,3.84,0,0,1,162,103.469c-.344.643.613,1.21.956.568a5.006,5.006,0,0,0-3.123-7.471,4.632,4.632,0,0,0-4.483.613,4.483,4.483,0,0,0-1.494,4.109c.149.7,1.225.4,1.091-.3Z" transform="translate(2.789 -2.049)" fill="#252e40"/>
        <path id="Caminho_1419" data-name="Caminho 1419" d="M158.289,97.037a21.157,21.157,0,0,1,1.27,10.25c-.239,2.645-2.884,10.19-6.559,10.325-.717,0-.732,1.151,0,1.121,3.481-.134,5.977-5.155,7.008-8.039a20.919,20.919,0,0,0-.747-14.225c-.284-.672-1.255-.09-.971.568Z" transform="translate(2.125 -2.086)" fill="#252e40"/>
        <path id="Caminho_1420" data-name="Caminho 1420" d="M78.748,93.614a17.123,17.123,0,0,0-17.93.657c-5.708,3.556-5.1,8.233-3.437,14.464a11.744,11.744,0,0,0,4.333,6.769c4.2,3.511,6.216,4.483,8.069,10.22,1.255,3.885,2.122,8.382,6.873,8.771,1.494.12,1.494-2.122,0-2.241-4.766-.388-4.288-7.919-5.558-10.967a11.774,11.774,0,0,0-3.661-4.483c-4.079-3.467-7.068-5.2-8.323-11.057C56.828,95.168,69.738,91.134,77.627,95.631a1.121,1.121,0,0,0,1.121-1.942Z" transform="translate(-45.429 -4.446)" fill="#252e40"/>
        <path id="Caminho_1421" data-name="Caminho 1421" d="M71.092,101.209c.7-3.586-2.884-5.573-5.977-4.781-3.646.926-5.454,4.2-3.526,7.605.344.628,1.315,0,.956-.568a3.825,3.825,0,0,1,2.391-5.827c2.2-.717,5.693.134,5.08,3.272-.134.7.941,1,1.076.3Z" transform="translate(-43.168 -2.045)" fill="#252e40"/>
        <path id="Caminho_1422" data-name="Caminho 1422" d="M64.991,96.467a20.142,20.142,0,0,0-.792,14.225c1.076,2.988,3.81,7.9,7.381,8.039a.561.561,0,0,0,0-1.121c-3.885-.134-6.664-7.307-6.978-10.325a20.441,20.441,0,0,1,1.345-10.25c.3-.657-.672-1.225-.956-.568Z" transform="translate(-41.953 -2.084)" fill="#252e40"/>
        <path id="Caminho_1423" data-name="Caminho 1423" d="M70.261,121h2.361a1.121,1.121,0,0,0,0-2.241H70.261C68.766,118.85,68.766,121.091,70.261,121Z" transform="translate(-39.049 9.077)" fill="#252e40"/>
        <path id="Caminho_1424" data-name="Caminho 1424" d="M86.821,109.36s5.558.628,7.471,2.376,4.483-1.21,8.427,0,6.813,1.808,9.413.568,9.234,2.077,7.172,4.229,5.5,16.854.822,20.351-4.483-2.51-3.422-7.8-1.255-12.193-3.138-10.459-2.421,6.993,0,8.875.448,8.069-2.062,6.276-1.255-9.951-6.276-11.834-6.724-8.786-10.22-3.945-.359,18.737,4.214,18.827,10.265,6.365,5.006,7.71S81.591,128.545,86.821,109.36Z" transform="translate(-30.791 4.432)" fill="#8addd9" opacity="0.33"/>
        <path id="Caminho_1425" data-name="Caminho 1425" d="M115.282,116.592c4.483,4.916,10.459,6.081,16.839,5.11,7.934-1.21,12.327-5.3,16.107-12.163a.568.568,0,0,0-.971-.568c-3.093,5.6-6.8,9.847-13.358,11.251s-13.134.792-17.826-4.483c-.493-.538-1.285.254-.792.792Z" transform="translate(-16.324 4.133)" fill="#252e40"/>
        <path id="Caminho_1426" data-name="Caminho 1426" d="M114.747,113.445c2.107-7.65,7.038-11.311,14.942-11.221,6.231.075,13.851,2.346,16.81,8.308.314.642,1.285,0,.956-.568-3.452-6.993-12.85-9.264-20.067-8.816-7.83.493-11.729,4.483-13.791,11.954a.556.556,0,1,0,1.076.284Z" transform="translate(-17.089 0.347)" fill="#252e40"/>
        <path id="Caminho_1427" data-name="Caminho 1427" d="M115.736,114.571s6.858-1.121,8.128.882,5.678-1.18,9.249,0,7.785-7.292,12.357-5.977-11.55,16.436-6.5,25.4c2.555,5.663-4.946,12.491-6.858,6.843s3.467-12.491,1-16.048-6.5-5.1-6.32,2.555,4.3,8.278-.09,12.028-.732-9.1-3.93-12.656S112.822,122.819,115.736,114.571Z" transform="translate(-16.374 4.42)" fill="#8addd9" opacity="0.33"/>
        <path id="Caminho_1428" data-name="Caminho 1428" d="M133.882,133.483a23.324,23.324,0,0,0,5.977,5.364.568.568,0,0,0,.568-.971,22.2,22.2,0,0,1-5.708-5.185c-.463-.553-1.255.254-.792.792Z" transform="translate(-7.102 15.87)" fill="#252e40"/>
        <path id="Caminho_1429" data-name="Caminho 1429" d="M137.867,126.812c-.224,1.091,1.375,2.51,2.062,3.2a30.661,30.661,0,0,0,4,3.212c.6.418,1.151-.553.568-.956a34.769,34.769,0,0,1-3.227-2.525,15.228,15.228,0,0,1-1.2-1.21,11.482,11.482,0,0,1-.747-.941c-.134-.194-.314-.807-.388-.478.149-.7-.941-1-1.076-.3Z" transform="translate(-5.096 12.859)" fill="#252e40"/>
        <path id="Caminho_1430" data-name="Caminho 1430" d="M140.657,125.371a.568.568,0,1,0-.476-.56A.568.568,0,0,0,140.657,125.371Z" transform="translate(-3.941 11.79)" fill="#252e40"/>
        <path id="Caminho_1431" data-name="Caminho 1431" d="M142.217,126.311a.568.568,0,1,0-.476-.56A.568.568,0,0,0,142.217,126.311Z" transform="translate(-3.171 12.255)" fill="#252e40"/>
        <path id="Caminho_1432" data-name="Caminho 1432" d="M141.587,128.081a.568.568,0,1,0-.476-.56.568.568,0,0,0,.476.56Z" transform="translate(-3.482 13.13)" fill="#252e40"/>
        <path id="Caminho_1433" data-name="Caminho 1433" d="M140.417,127.121a.568.568,0,1,0-.476-.56A.568.568,0,0,0,140.417,127.121Z" transform="translate(-4.06 12.655)" fill="#252e40"/>
        <path id="Caminho_1434" data-name="Caminho 1434" d="M130.667,139.151a.568.568,0,1,0-.476-.56A.568.568,0,0,0,130.667,139.151Z" transform="translate(-8.878 18.6)" fill="#252e40"/>
        <path id="Caminho_1435" data-name="Caminho 1435" d="M132.652,140.759v-.09c.329-.643-.642-1.21-.971-.553v.09C131.367,140.849,132.323,141.417,132.652,140.759Z" transform="translate(-8.173 19.487)" fill="#252e40"/>
        <path id="Caminho_1436" data-name="Caminho 1436" d="M134.657,138.911a.568.568,0,1,0-.476-.56A.568.568,0,0,0,134.657,138.911Z" transform="translate(-6.907 18.482)" fill="#252e40"/>
        <path id="Caminho_1437" data-name="Caminho 1437" d="M133.217,137.261a.568.568,0,1,0-.476-.56A.568.568,0,0,0,133.217,137.261Z" transform="translate(-7.618 17.666)" fill="#252e40"/>
        <path id="Caminho_1438" data-name="Caminho 1438" d="M80.511,217.531H183.072a1.121,1.121,0,1,0,0-2.241H80.511a1.121,1.121,0,0,0,0,2.241Z" transform="translate(-33.984 56.781)" fill="#252e40"/>
        <path id="Caminho_1439" data-name="Caminho 1439" d="M148.444,213.291a13.537,13.537,0,0,1-.314,3.646c-.314,1.4,1.853,2.017,2.167.6a16.168,16.168,0,0,0,.388-4.243,1.121,1.121,0,1,0-2.241,0Z" transform="translate(-0.028 55.239)" fill="#252e40"/>
        <path id="Caminho_1440" data-name="Caminho 1440" d="M143.83,213.651v2.869a1.121,1.121,0,1,0,2.241,0v-2.869a1.121,1.121,0,1,0-2.241,0Z" transform="translate(-2.138 55.417)" fill="#252e40"/>
        <path id="Caminho_1441" data-name="Caminho 1441" d="M134.7,176.845l1.315,1.629c.613.747,1.659-.314,1.061-1.061l-1.33-1.629c-.6-.747-1.659.314-1.046,1.061Z" transform="translate(-6.741 37.132)" fill="#86012b"/>
        <path id="Caminho_1442" data-name="Caminho 1442" d="M142.547,184.014a.747.747,0,1,0-.747-.747A.747.747,0,0,0,142.547,184.014Z" transform="translate(-3.142 40.587)" fill="#86012b"/>
        <path id="Caminho_1443" data-name="Caminho 1443" d="M73.507,62.824c1.972.314,4.378-.792,5.439,1.494a10.639,10.639,0,0,1,.508,6.5c-.194.941,1.24,1.345,1.494.4a12.447,12.447,0,0,0-.717-7.859c-1.345-2.779-3.81-1.569-6.261-1.957-.941-.164-1.345,1.285-.4,1.494Z" transform="translate(-37.126 -19.274)" fill="#632b46"/>
        <path id="Caminho_1444" data-name="Caminho 1444" d="M83.136,76.413c-.777-3.81-.642-10.683,3.2-12.82,3.108-1.733,7.471-.164,10.669.643l-4.931-6.485v1.494l1.972-4.766C85.6,63.8,70.391,67.538,64.16,79c-5.812,10.594,4.064,20.62,14.807,19.424,10.459-1.106,18.483-9.772,24.579-17.6,3.272-4.2,6.305-8.607,9.981-12.476a22.189,22.189,0,0,1,6.081-5.185c3.422-1.494,4-.224,6.291,2.57,5.469,6.709,14.942-2.854,9.5-9.5C119.55,36.8,102.92,60.171,92.819,72.887a42.837,42.837,0,0,1-9.772,9.8c-.568.359-5.588,3.377-6.186,2.5-1-1.494,6.276-6.1,6.828-6.5,7.082-5.185,21.636-11.057,21.935-21.038a6.813,6.813,0,0,0-4.991-6.38c-8.054-2.047-17.273-3.362-24.027,2.7-7.082,6.38-8.2,17.2-6.4,26.014,1.718,8.472,14.688,4.886,12.97-3.571Z" transform="translate(-42.362 -25.497)" fill="#632b46"/>
      </g>
    </g>
  </g>
</svg>
