<svg xmlns="http://www.w3.org/2000/svg" width="201.504" height="164.943" viewBox="0 0 201.504 164.943">
  <g id="canto" transform="translate(0 -543.057)">
    <g id="circulo_2" data-name="circulo 2" transform="translate(16.967 579.5)">
      <path id="Caminho_62" data-name="Caminho 62" d="M126.65,1695.5A57.35,57.35,0,1,0,184,1752.85,57.421,57.421,0,0,0,126.65,1695.5Zm0,108.911a51.561,51.561,0,1,1,51.561-51.561A51.621,51.621,0,0,1,126.65,1804.411Z" transform="translate(-69.3 -1695.5)" fill="#252d40"/>
      <path id="Caminho_63" data-name="Caminho 63" d="M140.353,1722.5a44.153,44.153,0,1,0,44.153,44.153A44.22,44.22,0,0,0,140.353,1722.5Zm0,82.419a38.315,38.315,0,1,1,38.315-38.315A38.336,38.336,0,0,1,140.353,1804.919Z" transform="translate(-83.003 -1709.254)" fill="#252d40"/>
    </g>
    <path id="Subtração_8" data-name="Subtração 8" d="M559.5,448h-2.837c.53-.022,1.032-.031,1.491-.031s.914.01,1.347.029Zm-10.082,0H358V283.057c11.63,31.216,23.852,56.235,36.329,74.361,15.936,23.151,32.235,34.889,48.444,34.889a34.3,34.3,0,0,0,4.56-.307,92.543,92.543,0,0,1,12.25-.881,53.888,53.888,0,0,1,16.69,2.37,38.971,38.971,0,0,1,11.979,6.264,51.821,51.821,0,0,1,8.858,8.888c2.609,3.26,5.007,6.81,7.326,10.244l.481.712c8.628,12.764,18.4,27.229,44.5,28.4Z" transform="translate(-358 260)" fill="#85002b"/>
  </g>
</svg>
