<svg xmlns="http://www.w3.org/2000/svg" width="1366.501" height="195.354" viewBox="0 0 1366.501 195.354">
  <g id="Grupo_19" data-name="Grupo 19" transform="translate(0.5 0.5)">
    <path id="Subtração_9" data-name="Subtração 9" d="M820.648,205.353h0a120.282,120.282,0,0,1-12.265-1.993,149.273,149.273,0,0,1-26.1-8.337c-34.606-14.5-60.43-24.756-83.733-33.269-28.285-10.333-53.909-18.427-78.336-24.744a630,630,0,0,0-80.555-15.426,724.38,724.38,0,0,0-90.394-5.317c-49.281,0-105.369,4.187-171.468,12.8-19.3,2.515-38.039,4.409-55.689,5.63-16.643,1.15-32.756,1.734-47.891,1.735a499.4,499.4,0,0,1-50.788-2.442,340.344,340.344,0,0,1-40.154-6.438C62.488,122.838,44.6,116.266,30.1,108.018A112.554,112.554,0,0,1,14.711,97.584a78.508,78.508,0,0,1-9.522-9.1A39.065,39.065,0,0,1-1,79.6L9.735,10.5H820.648Z" transform="translate(545.352 -10.5)" fill="#632b46"/>
    <path id="nuvem_azul" data-name="nuvem azul" d="M546.126,148.067h0c-22.767,0-46.382-2.794-72.195-8.537-23.8-5.3-46.482-12.465-65.527-18.779-5.671-1.881-11.282-3.774-16.232-5.445l-.156-.053-.007,0-.005,0c-34.7-11.706-64.666-21.816-89.825-21.816-15.738,0-28.434,4.046-38.812,12.369-13.8,5.031-27.393,9.452-40.387,13.139-12.505,3.549-24.82,6.519-36.6,8.828-11.309,2.217-22.457,3.888-33.135,4.967a299.211,299.211,0,0,1-29.986,1.556h-.014a240.347,240.347,0,0,1-75.556-11.713,266.723,266.723,0,0,1-30.724-12.225C11.487,107.794,5.939,105.01,0,101.844V0H814.433a410.907,410.907,0,0,1-56.2,58.273,434.866,434.866,0,0,1-47.7,35.252,468.385,468.385,0,0,1-58.824,31.818,260.539,260.539,0,0,1-27.161,10.526,250.016,250.016,0,0,1-26.681,7.036,252.107,252.107,0,0,1-26.155,3.936c-8.355.813-16.962,1.225-25.582,1.225Z" transform="translate(0 0)" fill="#252d40" stroke="#252d40" stroke-width="1"/>
  </g>
</svg>
