<?xml version="1.0" encoding="UTF-8" standalone="no"?>
<svg
   xmlns:dc="http://purl.org/dc/elements/1.1/"
   xmlns:cc="http://creativecommons.org/ns#"
   xmlns:rdf="http://www.w3.org/1999/02/22-rdf-syntax-ns#"
   xmlns:svg="http://www.w3.org/2000/svg"
   xmlns="http://www.w3.org/2000/svg"
   xmlns:sodipodi="http://sodipodi.sourceforge.net/DTD/sodipodi-0.dtd"
   xmlns:inkscape="http://www.inkscape.org/namespaces/inkscape"
   inkscape:version="1.0 (4035a4fb49, 2020-05-01)"
   sodipodi:docname="favicon.svg"
   id="svg894"
   version="1.1"
   viewBox="0 0 29.860874 36.705646"
   height="138.73"
   width="112.86">
  <defs
     id="defs888" />
  <sodipodi:namedview
     inkscape:window-maximized="0"
     inkscape:window-y="0"
     inkscape:window-x="0"
     inkscape:window-height="728"
     inkscape:window-width="1366"
     units="px"
     showgrid="false"
     inkscape:document-rotation="0"
     inkscape:current-layer="layer1"
     inkscape:document-units="mm"
     inkscape:cy="76.824793"
     inkscape:cx="58.193349"
     inkscape:zoom="3.959798"
     inkscape:pageshadow="2"
     inkscape:pageopacity="0.0"
     borderopacity="1.0"
     bordercolor="#666666"
     pagecolor="#ffffff"
     id="base" />
  <metadata
     id="metadata891">
    <rdf:RDF>
      <cc:Work
         rdf:about="">
        <dc:format>image/svg+xml</dc:format>
        <dc:type
           rdf:resource="http://purl.org/dc/dcmitype/StillImage" />
        <dc:title></dc:title>
      </cc:Work>
    </rdf:RDF>
  </metadata>
  <g
     id="layer1"
     inkscape:groupmode="layer"
     inkscape:label="Layer 1">
    <path
       style="fill:#252e40;stroke:#f7f8f9;stroke-width:0.350414;stroke-miterlimit:10"
       class="cls-2"
       d="m 18.82376,19.589253 a 3.9456612,3.9456612 0 0 1 -0.459042,0.02453 3.6618259,3.6618259 0 0 1 -3.020568,-1.590879 3.4060237,3.4060237 0 0 1 -0.269818,0.718349 c -0.04556,0.09461 -0.09811,0.185719 -0.150678,0.273323 a 3.6618259,3.6618259 0 0 1 -2.915444,1.752069 3.66533,3.66533 0 0 0 1.783607,2.039409 l 0.08058,0.04206 a 3.6443053,3.6443053 0 0 0 1.401655,0.350415 h 0.157687 c 0.280331,0 0.557158,-0.03855 0.833986,-0.07359 a 3.6863549,3.6863549 0 0 0 0.795439,-0.276827 3.6758425,3.6758425 0 0 0 1.993855,-2.54751 3.7529336,3.7529336 0 0 0 0.07709,-0.749885 v 0 c -0.108626,0.007 -0.206744,0.02453 -0.308365,0.03854 z"
       id="path10" />
    <path
       style="fill:#84152f;stroke:#f7f8f9;stroke-width:0.350414;stroke-miterlimit:10"
       class="cls-3"
       d="m 19.528093,16.736884 a 1.2194406,1.2194406 0 0 0 -2.358286,-0.43101 3.6513134,3.6513134 0 0 0 -1.717029,-0.424 h -0.206744 a 3.5812307,3.5812307 0 0 0 -0.55015,0.07359 3.4690983,3.4690983 0 0 0 -0.781423,0.259306 q -0.0841,0.03505 -0.168199,0.0841 a 1.2194406,1.2194406 0 0 0 -0.956631,-0.774415 1.0512419,1.0512419 0 0 0 -0.182215,0 1.2019199,1.2019199 0 0 0 -0.501091,0.108626 1.1318371,1.1318371 0 0 0 -0.350414,0.23828 1.2089282,1.2089282 0 0 0 -0.350415,0.872532 1.2369612,1.2369612 0 0 0 0.161192,0.60972 1.2509778,1.2509778 0 0 0 0.522116,0.487076 0.70082792,0.70082792 0 0 0 0.119144,0.04905 3.6127679,3.6127679 0 0 0 -0.395968,1.657458 3.7529336,3.7529336 0 0 0 0.07359,0.749887 4.1629179,4.1629179 0 0 0 0.129658,0.46605 3.6618259,3.6618259 0 0 0 2.915445,-1.75207 c 0.05257,-0.0876 0.105134,-0.178713 0.150677,-0.273324 a 3.4060237,3.4060237 0 0 0 0.269819,-0.718347 3.6618259,3.6618259 0 0 0 3.020568,1.590878 3.9456612,3.9456612 0 0 0 0.459043,-0.02453 c 0.101618,0 0.199737,-0.03153 0.297851,-0.05257 a 3.6443053,3.6443053 0 0 0 -0.395967,-1.653953 1.2194406,1.2194406 0 0 0 0.795439,-1.142351 z"
       id="path12" />
    <path
       style="fill:#252e40;stroke:#f7f8f9;stroke-width:0.350414;stroke-miterlimit:10"
       class="cls-2"
       d="m 20.730013,26.523945 a 6.1042113,6.1042113 0 0 0 -3.02057,-2.596567 l -0.112141,-0.04556 a 6.0796822,6.0796822 0 0 0 -2.134018,-0.381951 h -0.203239 a 6.0796822,6.0796822 0 0 0 -1.930781,0.378447 l -0.115633,0.04556 a 5.9570375,5.9570375 0 0 0 -1.433193,0.819968 6.0621616,6.0621616 0 0 0 -0.918085,0.85501 6.2058312,6.2058312 0 0 0 -0.665785,0.925093 6.0726741,6.0726741 0 0 0 -0.8269787,2.908436 c 0,0.05606 0,0.108626 0,0.164694 a 6.0516492,6.0516492 0 0 0 0.059574,0.840994 v 0.07359 c 0,0.101619 0.031533,0.20324 0.052567,0.301355 0.021022,0.09811 0.042044,0.199737 0.066582,0.294348 l 0.1261484,-0.23828 0.322381,-0.613225 1.2159363,-2.330252 2.063938,-3.949166 a 3.6443053,3.6443053 0 0 0 1.660963,0.700827 l 0.217257,0.02453 c 0.09811,0 0.199736,0 0.304859,0 a 3.6583217,3.6583217 0 0 0 2.183081,-0.721854 l 2.060434,3.949167 1.538316,2.943478 0.126149,0.23828 c 0.02453,-0.09461 0.04905,-0.196231 0.06658,-0.294347 a 6.097203,6.097203 0 0 0 -0.700828,-4.289067 z"
       id="path14" />
    <path
       style="fill:#642c46;stroke:#f7f8f9;stroke-width:0.350414;stroke-miterlimit:10"
       class="cls-4"
       d="m 22.702843,33.658373 a 18.722617,18.722617 0 0 1 -14.4861137,0 l 1.2790112,-2.424864 0.063066,-0.126149 0.1261492,-0.238282 0.3223813,-0.613224 1.215936,-2.330252 2.063939,-3.949166 a 3.6443053,3.6443053 0 0 0 1.660963,0.700827 l 0.213752,0.02453 c 0.101618,0 0.206744,0 0.308364,0 a 3.6583217,3.6583217 0 0 0 2.183078,-0.721853 l 2.060435,3.949166 1.538318,2.943477 0.126148,0.238281 z"
       id="path16" />
    <path
       style="fill:#252e40;stroke:#f7f8f9;stroke-width:0.350414;stroke-miterlimit:10"
       class="cls-2"
       d="m 21.322213,6.0527625 c 0,0 0,-0.031533 0,-0.049051 A 6.100707,6.100707 0 0 0 10.49442,4.2095935 6.3074513,6.3074513 0 0 0 9.9968317,5.0365695 6.0551532,6.0551532 0 0 0 9.3625819,7.7452701 5.5610695,5.5610695 0 0 0 9.4046259,8.446096 6.0866905,6.0866905 0 0 0 15.379184,13.842471 h 0.07359 a 6.0796822,6.0796822 0 0 0 2.333757,-0.462546 6.0060953,6.0060953 0 0 0 1.562846,-0.946117 5.5680779,5.5680779 0 0 0 0.623738,-0.595704 6.0796822,6.0796822 0 0 0 1.538317,-3.4060239 6.3424927,6.3424927 0 0 0 0.03854,-0.7008283 6.1147237,6.1147237 0 0 0 -0.227769,-1.6784822 z"
       id="path18" />
    <path
       style="fill:#d7d7d7;stroke:#f7f8f9;stroke-width:0.350414;stroke-miterlimit:10"
       class="cls-5"
       d="m 22.037057,20.149916 c -0.02804,-0.224266 -0.06658,-0.441522 -0.112141,-0.658779 a 9.4786977,9.4786977 0 0 0 -0.469551,-1.573358 9.811591,9.811591 0 0 0 -2.60708,-3.728405 6.0656657,6.0656657 0 0 1 -3.39551,1.026713 c -0.182216,0 -0.350415,0 -0.539638,-0.02453 h -0.133158 a 6.0166077,6.0166077 0 0 1 -2.372302,-0.774415 c -0.115633,-0.06658 -0.231273,-0.136661 -0.350414,-0.213752 -0.129659,0.112141 -0.252298,0.227769 -0.371438,0.350414 -0.119144,0.12264 -0.171704,0.171703 -0.252299,0.259305 l -0.0876,0.09461 a 9.7204834,9.7204834 0 0 0 -1.8431781,2.89442 c -0.098115,0.234777 -0.1857195,0.480066 -0.2663159,0.725357 a 0.77091071,0.77091071 0 0 1 0.059574,0.0876 c 0.1156331,0.168199 0.2277708,0.350413 0.3293907,0.522117 a 9.3175073,9.3175073 0 0 1 0.6447613,1.314052 c 0.03854,0.09461 0.07359,0.185718 0.108626,0.28033 a 10.20055,10.20055 0 0 1 0.381951,1.345591 9.8431282,9.8431282 0 0 1 -1.965823,-1.135342 v 0.08058 c 0,0.154182 0,0.308364 0,0.466051 a 9.7134751,9.7134751 0 0 0 1.401657,5.035449 6.2058312,6.2058312 0 0 1 0.66929,-0.932102 6.0621616,6.0621616 0 0 1 0.91458,-0.848002 5.9570375,5.9570375 0 0 1 1.433193,-0.809455 l 0.115633,-0.04556 a 6.0796822,6.0796822 0 0 1 1.93078,-0.378446 h 0.192728 a 6.0796822,6.0796822 0 0 1 2.13402,0.381951 l 0.112141,0.04555 a 6.1042113,6.1042113 0 0 1 3.020567,2.596568 9.6819378,9.6819378 0 0 0 1.401658,-5.03545 9.3665652,9.3665652 0 0 0 -0.0841,-1.349093 z M 17.050666,22.83759 A 3.6548177,3.6548177 0 0 1 15.46329,23.188004 H 15.263555 A 3.6443053,3.6443053 0 0 1 13.861898,22.83759 l -0.08058,-0.04204 a 3.66533,3.66533 0 0 1 -1.783607,-2.039409 4.1629179,4.1629179 0 0 1 -0.129658,-0.466051 3.7529336,3.7529336 0 0 1 -0.07359,-0.749886 3.6127679,3.6127679 0 0 1 0.395967,-1.657459 0.70082792,0.70082792 0 0 1 -0.119142,-0.04905 1.2509778,1.2509778 0 0 1 -0.522119,-0.487075 1.2369612,1.2369612 0 0 1 -0.161191,-0.609721 1.2089282,1.2089282 0 0 1 0.350414,-0.872532 1.1318371,1.1318371 0 0 1 0.350415,-0.23828 1.2019199,1.2019199 0 0 1 0.501092,-0.108626 1.0512419,1.0512419 0 0 1 0.182215,0 1.2194406,1.2194406 0 0 1 0.956631,0.774415 q 0.0841,-0.04905 0.168198,-0.0841 a 3.4690983,3.4690983 0 0 1 0.781423,-0.259308 3.5812307,3.5812307 0 0 1 0.550149,-0.07359 h 0.206745 a 3.6513134,3.6513134 0 0 1 1.706516,0.424001 1.2194406,1.2194406 0 1 1 1.555838,1.576862 3.6443053,3.6443053 0 0 1 0.395968,1.653954 v 0 a 3.7529336,3.7529336 0 0 1 -0.07709,0.749886 3.6758425,3.6758425 0 0 1 -1.993856,2.547509 z"
       id="path20" />
    <path
       style="fill:#252e40;stroke-width:0.350414"
       class="cls-6"
       d="m 11.706853,14.536284 c -0.0876,0.0841 -0.171703,0.171701 -0.252298,0.259305 a 2.4143522,2.4143522 0 0 0 -1.5278043,-0.539637 2.3652943,2.3652943 0 0 0 -0.4765651,0.04556 2.4528977,2.4528977 0 0 0 -1.9623166,2.267177 8.9005147,8.9005147 0 0 1 0.6552726,0.602713 c 0.1962323,0.196232 0.3854559,0.399472 0.5606632,0.613224 a 8.6096711,8.6096711 0 0 1 0.5536539,0.725358 l 0.063078,0.0876 c 0.1121412,0.168198 0.2242659,0.350414 0.325885,0.522118 a 9.510235,9.510235 0 0 1 0.6447623,1.314052 c 0.03854,0.09461 0.07359,0.185719 0.108625,0.280331 a 10.20055,10.20055 0 0 1 0.381952,1.34559 9.5838219,9.5838219 0 0 1 -1.9868488,-1.117821 C 8.6687681,20.847248 8.5426189,20.749134 8.4199743,20.647515 A 9.7520206,9.7520206 0 0 1 5.0139508,15.068924 c 0,0 0,0 0,0 -0.03854,-0.192727 -0.073583,-0.388958 -0.1016208,-0.58519 v -0.06308 a 10.000814,10.000814 0 0 1 -0.091106,-1.34209 c 0,-0.185718 0,-0.371438 0,-0.557158 0.1681987,0 0.3504149,-0.02453 0.5045961,-0.02804 0.1541826,-0.0034 0.2452907,0 0.3504149,0 a 9.6784337,9.6784337 0 0 1 3.3289318,0.585192 9.461177,9.461177 0 0 1 1.4016572,0.641256 q 0.301355,0.168199 0.588695,0.350416 c 0.0841,0.05257 0.164694,0.108626 0.245289,0.164694 0.189224,0.09111 0.325886,0.192728 0.466052,0.301357 z"
       id="path22" />
    <path
       style="fill:none;stroke:#f7f8f9;stroke-width:0.350414;stroke-miterlimit:10"
       class="cls-7"
       d="m 9.4501856,14.301507 a 2.3652943,2.3652943 0 0 1 0.4765651,-0.04556 2.4143522,2.4143522 0 0 1 1.5278043,0.539636 c 0.08059,-0.0876 0.164694,-0.175205 0.252298,-0.259304 -0.140165,-0.108625 -0.276828,-0.210249 -0.424002,-0.311869 -0.08058,-0.05606 -0.161189,-0.112142 -0.245289,-0.164695 Q 10.746719,13.870491 10.448867,13.709301 A 9.461177,9.461177 0 0 0 9.0472098,13.068044 9.6784337,9.6784337 0 0 0 5.7112695,12.479348 q -0.1857192,0 -0.3504135,0 c -0.1681987,0 -0.3504148,0 -0.5045961,0.02804 0,0.185719 0,0.371438 0,0.557159 a 10.000814,10.000814 0 0 0 0.091105,1.342085 v 0.06308 c 0.028038,0.19623 0.063068,0.392463 0.1016208,0.58519 0,0 0,0 0,0 A 9.7520206,9.7520206 0 0 0 8.444496,20.64751 c 0.1226395,0.101618 0.2487932,0.199735 0.374942,0.294348 a 9.5838219,9.5838219 0 0 0 1.972831,1.117819 10.20055,10.20055 0 0 0 -0.38195,-1.34559 c -0.03505,-0.09461 -0.07009,-0.185718 -0.108626,-0.280332 A 9.510235,9.510235 0 0 0 9.6464177,19.13722 C 9.544799,18.958507 9.4326649,18.786805 9.3205319,18.615102 l -0.063078,-0.0876 A 8.6096711,8.6096711 0 0 0 8.7038048,17.802141 C 8.5285975,17.588389 8.35339,17.38515 8.1431416,17.188917 A 8.9005147,8.9005147 0 0 0 7.487869,16.586205 2.4528977,2.4528977 0 0 1 9.4501856,14.301507 Z"
       id="path24" />
    <path
       style="fill:#252e40;stroke:#f7f8f9;stroke-width:0.350414;stroke-miterlimit:10"
       class="cls-2"
       d="m 21.455369,14.283986 a 2.3547818,2.3547818 0 0 0 -0.473059,-0.04556 2.4318728,2.4318728 0 0 0 -1.531307,0.539637 c -0.08061,-0.0876 -0.164697,-0.171703 -0.252299,-0.259307 0.136661,-0.105134 0.28033,-0.210248 0.424,-0.311868 0.08061,-0.05606 0.161191,-0.112141 0.24529,-0.164694 0.189223,-0.12615 0.388959,-0.24529 0.588695,-0.350413 a 9.8466324,9.8466324 0 0 1 1.401656,-0.641259 9.7415083,9.7415083 0 0 1 1.016201,-0.308364 9.8536406,9.8536406 0 0 1 2.312733,-0.273323 c 0.122639,0 0.245289,0 0.350413,0 0.105122,0 0.350414,0 0.504596,0.03153 0,0.182216 0.01752,0.350415 0.01752,0.553654 a 9.9622691,9.9622691 0 0 1 -0.09111,1.342086 v 0.06308 c -0.02804,0.196231 -0.06308,0.392463 -0.105122,0.58519 v 0 a 9.762533,9.762533 0 0 1 -3.402521,5.589104 l -0.350414,0.290843 a 9.6749295,9.6749295 0 0 1 -1.972831,1.117821 10.20055,10.20055 0 0 1 0.381952,-1.345589 c 0.03505,-0.09111 0.07009,-0.185721 0.108625,-0.276827 a 9.3595569,9.3595569 0 0 1 0.644763,-1.317558 c 0.101618,-0.178711 0.213752,-0.350413 0.329388,-0.522117 l 0.05957,-0.0876 a 8.6096711,8.6096711 0 0 1 0.553654,-0.725356 c 0.175207,-0.213753 0.350413,-0.416993 0.557159,-0.613225 0.206745,-0.196232 0.431008,-0.409984 0.658778,-0.602711 a 2.4528977,2.4528977 0 0 0 -1.976335,-2.267179 z"
       id="path26" />
    <path
       style="fill:#f7f8f9;stroke-width:0.350414"
       class="cls-8"
       d="m 14.338462,10.194655 a 1.2194406,1.2194406 0 1 1 -1.815144,-1.5032747 1.2404654,1.2404654 0 0 0 -0.112142,0.5116027 1.2194406,1.2194406 0 0 0 1.21944,1.21944 1.2019199,1.2019199 0 0 0 0.707838,-0.227768 z"
       id="path28" />
    <path
       style="fill:#f7f8f9;stroke-width:0.350414"
       class="cls-8"
       d="M 16.584615,10.194655 A 1.2194406,1.2194406 0 1 0 18.39976,8.6913803 1.1879033,1.1879033 0 0 1 18.511901,9.202983 1.2194406,1.2194406 0 0 1 16.584625,10.194655 Z"
       id="path30" />
    <path
       style="fill:#f7f8f9;stroke-width:0.350414"
       class="cls-8"
       d="m 14.82904,20.086842 a 1.2194406,1.2194406 0 1 1 -2.179574,1.009192 1.2194406,1.2194406 0 0 0 2.204103,-0.700829 1.2965316,1.2965316 0 0 0 -0.02452,-0.308363 z"
       id="path32" />
    <path
       style="fill:#f7f8f9;stroke-width:0.350414"
       class="cls-8"
       d="m 16.097539,20.086842 a 1.2194406,1.2194406 0 1 0 2.15855,1.009192 1.2159365,1.2159365 0 0 1 -2.200598,-0.700829 1.1213247,1.1213247 0 0 1 0.04204,-0.308363 z"
       id="path34" />
  </g>
</svg>
