<svg id="Camada_2" data-name="Camada 2" xmlns="http://www.w3.org/2000/svg" viewBox="0 0 98.78 123.85"><defs><style>.cls-1{fill:#252e40;}.cls-2{fill:#d8d8d8;}.cls-3{fill:#632c46;}.cls-4{fill:#85152f;}.cls-5,.cls-8{fill:#f8f8f8;}.cls-6,.cls-7{fill:none;stroke:#f8f8f8;stroke-miterlimit:10;}.cls-6{stroke-width:2px;}.cls-8{font-size:23.28px;font-family:InkFree, Ink Free;}</style></defs><title>logo tcm parece que é o final galerinha</title><g id="desenho"><path class="cls-1" d="M250,188.57a48.4,48.4,0,0,1,14.41,94.6l-1.28-2.66h0v0a14,14,0,0,0,.76-4.56,14,14,0,0,0-1.93-7.09l.05,0a22.27,22.27,0,0,0,5.84-11.38l.22-.14a22.42,22.42,0,0,0,6.66-6.81,22.14,22.14,0,0,0,3.24-9.17,21.83,21.83,0,0,0,.16-2.69,23.87,23.87,0,0,0-.33-3.9,14,14,0,0,0-17.73,1.37l-.25-.2-.42-.33a14,14,0,0,1-18.8,0h0l-.65.52a14,14,0,0,0-17.71-1.33,22.72,22.72,0,0,0-.33,3.9,21.67,21.67,0,0,0,.16,2.68,22.37,22.37,0,0,0,9.9,16l.2.12a22.36,22.36,0,0,0,5.79,11.31l0,.05a13.64,13.64,0,0,0-1.74,4.7,2,2,0,0,0,0,.24h0a12.89,12.89,0,0,0-.17,2.17,13.84,13.84,0,0,0,.77,4.58h0l-1.26,2.61A48.4,48.4,0,0,1,250,188.57Zm13.65,34.86a14.21,14.21,0,0,0,.25-2.63,14,14,0,1,0-22.09,11.37,14.61,14.61,0,0,0,3,1.64,14.08,14.08,0,0,0,10.22,0,14.09,14.09,0,0,0,7.83-7.75A14.51,14.51,0,0,0,263.65,223.43Z" transform="translate(-200.61 -187.57)"/><path class="cls-1" d="M278.12,238.62a21.83,21.83,0,0,1-.16,2.69,22.14,22.14,0,0,1-3.24,9.17,22.42,22.42,0,0,1-6.66,6.81l-.22.14a22.21,22.21,0,0,1-7.24,3,22.12,22.12,0,0,1,4.95-11.54h0a5.35,5.35,0,0,0,1.83-.51l.25-.13a5.6,5.6,0,0,0,2.83-3.77,6.32,6.32,0,0,0,.12-1.15,5.59,5.59,0,0,0-5.59-5.59,5.49,5.49,0,0,0-2.55.62c-.15-.18-.31-.35-.48-.52l-.11-.12c-.08-.07-.15-.15-.22-.22s-.46-.44-.69-.65l-.19-.18-.2-.17-.49-.42a14,14,0,0,1,17.73-1.37A23.87,23.87,0,0,1,278.12,238.62Z" transform="translate(-200.61 -187.57)"/><path class="cls-1" d="M270.58,243.34a6.32,6.32,0,0,1-.12,1.15,5.6,5.6,0,0,1-2.83,3.77,22.14,22.14,0,0,0-1.83-5h0l-.3-.56c-.09-.18-.19-.36-.29-.53s-.37-.62-.57-.92l-.27-.41-.52-.74-.22-.29c-.12-.16-.25-.32-.38-.47l-.12-.16-.2-.24-.24-.28-.25-.27a5.49,5.49,0,0,1,2.55-.62A5.59,5.59,0,0,1,270.58,243.34Z" transform="translate(-200.61 -187.57)"/><path class="cls-2" d="M267.63,248.26l-.25.13a5.35,5.35,0,0,1-1.83.51h0a22.12,22.12,0,0,0-4.95,11.54,22.21,22.21,0,0,0,7.24-3A22.27,22.27,0,0,1,262,268.81l-.05,0,0,0a14,14,0,0,0-6.71-5.8,14,14,0,0,0-16.43,4.48h0a13.48,13.48,0,0,0-.86,1.27,22.36,22.36,0,0,1-5.79-11.31,22.21,22.21,0,0,0,3.23,1.73,23,23,0,0,0,4,1.3,22.26,22.26,0,0,0-5-11.54h0a5.66,5.66,0,0,1-1.83-.51c-.09-.05-.19-.09-.28-.15.08-.35.18-.71.27-1.05a22.28,22.28,0,0,1,4.91-8.85c.23-.25.47-.51.71-.75.54-.54,1.1-1,1.69-1.54l.65-.52h0a14,14,0,0,0,18.8,0l.42.33.25.2.49.42.2.17.19.18c.23.21.47.43.69.65s.14.15.22.22l.11.12c.16.17.33.34.48.52l.25.27.24.28.2.24.12.16c.13.15.25.31.38.47l.22.29.52.74.27.41c.2.3.39.61.57.92s.2.35.29.53l.3.56h0A22.14,22.14,0,0,1,267.63,248.26Zm-9.32,3.16a8.85,8.85,0,0,0-.14-1.55,8.53,8.53,0,0,0-.88-2.45,2.79,2.79,0,1,0-4.09-3.72,8.49,8.49,0,0,0-3.27-.66h-.48a8.19,8.19,0,0,0-2.81.65,2.79,2.79,0,1,0-4.08,3.72,8.53,8.53,0,0,0-.92,2.74,8.66,8.66,0,0,0-.09,1.25,8.38,8.38,0,0,0,6.19,8.09h0a8.36,8.36,0,0,0,6.43-.87,8.43,8.43,0,0,0,3-3A8.34,8.34,0,0,0,258.31,251.42Z" transform="translate(-200.61 -187.57)"/><path class="cls-3" d="M236.73,280.52h0l2.76-5.72,1.57-3.25,3.77-7.83,0,0h0a8.29,8.29,0,0,0,3.32,1.5l.3.05.06,0,.28,0h.1l.2,0,.13,0h.66q.34,0,.69,0l.31,0,.3,0,.25-.05h.09l.25-.06a8.41,8.41,0,0,0,3.18-1.5h0l3.81,7.89,1.57,3.25,2.76,5.72h0l1.28,2.66h0a48.69,48.69,0,0,1-28.94,0Z" transform="translate(-200.61 -187.57)"/><path class="cls-1" d="M263.67,273.51a13.79,13.79,0,0,1,.21,2.42,14,14,0,0,1-.76,4.56v0l-2.76-5.72-1.57-3.25L255,263.65h0l.25-.63a14,14,0,0,1,6.71,5.8l0,0A13.87,13.87,0,0,1,263.67,273.51Z" transform="translate(-200.61 -187.57)"/><path class="cls-1" d="M263.9,220.8a14.21,14.21,0,0,1-.25,2.63,14.51,14.51,0,0,1-.78,2.63,14,14,0,0,1-18.05,7.75,14.61,14.61,0,0,1-3-1.64,14,14,0,0,1-5.6-8.75,14.11,14.11,0,0,1-.25-2.62,14,14,0,0,1,27.94,0Zm-7.39,3.61a2.77,2.77,0,0,0-1-2.15,2.62,2.62,0,0,1,.06.57A2.79,2.79,0,0,1,251,225a2.79,2.79,0,0,0,5.53-.57Zm-10.37,2.79a2.78,2.78,0,0,0,2.73-2.22,2.76,2.76,0,0,1-1.78.65,2.79,2.79,0,0,1-2.79-2.8,2.62,2.62,0,0,1,.06-.57,2.79,2.79,0,0,0,1.78,4.94Z" transform="translate(-200.61 -187.57)"/><path class="cls-2" d="M263.63,239.79c-.13-.16-.25-.32-.38-.47C263.38,239.47,263.51,239.63,263.63,239.79Z" transform="translate(-200.61 -187.57)"/><path class="cls-1" d="M262.44,238.37c-.15-.18-.32-.35-.48-.52C262.13,238,262.29,238.19,262.44,238.37Z" transform="translate(-200.61 -187.57)"/><path class="cls-1" d="M243.63,253.81a2.79,2.79,0,1,0,5.15-1.75,2.62,2.62,0,0,1,0,.28,2.79,2.79,0,0,1-5.16,1.47Zm12.6,0a2.8,2.8,0,0,1-5.17-1.47,2.64,2.64,0,0,1,0-.28,2.79,2.79,0,1,0,5.15,1.75Zm1.94-3.94a8.85,8.85,0,0,1,.14,1.55,8.34,8.34,0,0,1-1.12,4.18,8.43,8.43,0,0,1-3,3,8.36,8.36,0,0,1-6.43.87h0a8.38,8.38,0,0,1-6.19-8.09,8.66,8.66,0,0,1,.09-1.25,5.59,5.59,0,0,0,7.7-2.47,5.58,5.58,0,0,0,8.83,2.17Z" transform="translate(-200.61 -187.57)"/><path class="cls-4" d="M258.31,245.26a2.81,2.81,0,0,1-1,2.16,8.46,8.46,0,0,0-4.09-3.72,2.79,2.79,0,0,1,5.11,1.56Z" transform="translate(-200.61 -187.57)"/><path class="cls-4" d="M257.29,247.42a8.53,8.53,0,0,1,.88,2.45,5.58,5.58,0,0,1-8.83-2.17,5.57,5.57,0,0,0,.56-2.44,5.44,5.44,0,0,0-.4-2.06l.08-.15h.35a8.34,8.34,0,0,1,7.36,4.38Z" transform="translate(-200.61 -187.57)"/><path class="cls-5" d="M255.5,222.26a2.79,2.79,0,0,1-1.78,4.94A2.8,2.8,0,0,1,251,225a2.79,2.79,0,0,0,4.58-2.15A2.62,2.62,0,0,0,255.5,222.26Z" transform="translate(-200.61 -187.57)"/><path class="cls-5" d="M256.23,253.81a2.79,2.79,0,1,1-5.15-1.75,2.64,2.64,0,0,0,0,.28,2.8,2.8,0,0,0,5.17,1.47Z" transform="translate(-200.61 -187.57)"/><path class="cls-1" d="M255.22,263l-.25.63a8.41,8.41,0,0,1-3.18,1.5l-.25.06h-.09l-.25.05-.3,0-.31,0q-.34,0-.69,0h-.66l-.13,0-.2,0h-.1l-.28,0-.06,0-.3-.05a8.29,8.29,0,0,1-3.32-1.5h0l0,0-.85-.42a13.94,13.94,0,0,1,11.25-.28Z" transform="translate(-200.61 -187.57)"/><path class="cls-4" d="M249.5,243.2a5.44,5.44,0,0,1,.4,2.06,5.59,5.59,0,0,1-8.26,4.91,8.4,8.4,0,0,1,5-6.46,8.19,8.19,0,0,1,2.81-.65S249.48,243.15,249.5,243.2Z" transform="translate(-200.61 -187.57)"/><path class="cls-4" d="M249.58,243.05l-.08.15s0-.1-.05-.14Z" transform="translate(-200.61 -187.57)"/><path class="cls-5" d="M248.78,252.06a2.79,2.79,0,1,1-5.15,1.75,2.79,2.79,0,0,0,5.16-1.47A2.62,2.62,0,0,0,248.78,252.06Z" transform="translate(-200.61 -187.57)"/><path class="cls-5" d="M248.87,225a2.79,2.79,0,1,1-4.51-2.72,2.62,2.62,0,0,0-.06.57,2.79,2.79,0,0,0,2.79,2.8A2.76,2.76,0,0,0,248.87,225Z" transform="translate(-200.61 -187.57)"/><path class="cls-4" d="M244.31,242.47a2.78,2.78,0,0,1,2.33,1.24,8.44,8.44,0,0,0-4.08,3.72,2.76,2.76,0,0,1-1-2.17A2.79,2.79,0,0,1,244.31,242.47Z" transform="translate(-200.61 -187.57)"/><path class="cls-1" d="M237.93,268.76a13.48,13.48,0,0,1,.86-1.27h0a13.94,13.94,0,0,1,5.18-4.2l.85.42-3.77,7.83-1.57,3.25-2.76,5.72a13.84,13.84,0,0,1-.77-4.58,12.89,12.89,0,0,1,.17-2.17h0a2,2,0,0,1,0-.24,13.64,13.64,0,0,1,1.74-4.7Z" transform="translate(-200.61 -187.57)"/><path class="cls-1" d="M239.92,236.09c-.59.49-1.15,1-1.69,1.54-.24.24-.48.5-.71.75a5.6,5.6,0,0,0-8.1,5,5.4,5.4,0,0,0,.12,1.15,5.62,5.62,0,0,0,2.8,3.76c.09.06.19.1.28.15a5.66,5.66,0,0,0,1.83.51h0a22.26,22.26,0,0,1,5,11.54,23,23,0,0,1-4-1.3,22.21,22.21,0,0,1-3.23-1.73l-.2-.12a22.37,22.37,0,0,1-9.9-16,21.67,21.67,0,0,1-.16-2.68,22.72,22.72,0,0,1,.33-3.9,14,14,0,0,1,17.71,1.33Z" transform="translate(-200.61 -187.57)"/><path class="cls-1" d="M235,237.79a5.59,5.59,0,0,1,2.51.59,22.28,22.28,0,0,0-4.91,8.85c-.09.34-.19.7-.27,1.05a5.62,5.62,0,0,1-2.8-3.76,5.4,5.4,0,0,1-.12-1.15A5.58,5.58,0,0,1,235,237.79Z" transform="translate(-200.61 -187.57)"/><path class="cls-6" d="M264.41,283.17a48.4,48.4,0,1,1,34-46.21,48.29,48.29,0,0,1-34,46.21" transform="translate(-200.61 -187.57)"/><path class="cls-7" d="M242.56,247.43a2.76,2.76,0,0,1-1-2.17,2.8,2.8,0,0,1,5.12-1.55" transform="translate(-200.61 -187.57)"/><path class="cls-7" d="M253.2,243.7a2.79,2.79,0,1,1,4.09,3.72A8.46,8.46,0,0,0,253.2,243.7Z" transform="translate(-200.61 -187.57)"/><path class="cls-7" d="M249.45,243.06s0,.09.05.14a5.44,5.44,0,0,1,.4,2.06,5.59,5.59,0,0,1-8.26,4.91" transform="translate(-200.61 -187.57)"/><path class="cls-7" d="M249.34,247.7a5.58,5.58,0,0,0,8.83,2.17" transform="translate(-200.61 -187.57)"/><path class="cls-7" d="M249.58,243.05l-.08.15" transform="translate(-200.61 -187.57)"/><path class="cls-7" d="M257.29,247.42a8.53,8.53,0,0,1,.88,2.45,8.85,8.85,0,0,1,.14,1.55,8.34,8.34,0,0,1-1.12,4.18,8.43,8.43,0,0,1-3,3,8.36,8.36,0,0,1-6.43.87h0a8.38,8.38,0,0,1-6.19-8.09,8.66,8.66,0,0,1,.09-1.25,8.4,8.4,0,0,1,5-6.46,8.19,8.19,0,0,1,2.81-.65h.48a8.49,8.49,0,0,1,3.27.66" transform="translate(-200.61 -187.57)"/><path class="cls-7" d="M262,268.84a14,14,0,0,1,1.93,7.09,14,14,0,0,1-.76,4.56v0l-2.76-5.72-1.57-3.25L255,263.65h0a8.41,8.41,0,0,1-3.18,1.5l-.25.06h-.09l-.25.05-.3,0-.31,0q-.34,0-.69,0h-.66l-.13,0-.2,0h-.1l-.28,0-.06,0-.3-.05a8.29,8.29,0,0,1-3.32-1.5h0l0,0-3.77,7.83-1.57,3.25-2.76,5.72a13.84,13.84,0,0,1-.77-4.58,12.89,12.89,0,0,1,.17-2.17h0a2,2,0,0,1,0-.24,13.64,13.64,0,0,1,1.74-4.7l0-.05a13.48,13.48,0,0,1,.86-1.27h0a14,14,0,0,1,23.14,1.32Z" transform="translate(-200.61 -187.57)"/><polyline class="cls-7" points="36.13 92.94 36.12 92.94 34.86 95.56 34.86 95.56"/><line class="cls-7" x1="63.8" y1="95.59" x2="62.52" y2="92.94"/><line class="cls-6" x1="63.8" y1="95.6" x2="63.8" y2="95.59"/><path class="cls-7" d="M263.9,220.8a14.21,14.21,0,0,1-.25,2.63,14.51,14.51,0,0,1-.78,2.63,14,14,0,0,1-18.05,7.75,14.61,14.61,0,0,1-3-1.64,14,14,0,0,1-5.6-8.75,14.11,14.11,0,0,1-.25-2.62,14,14,0,0,1,27.94,0Z" transform="translate(-200.61 -187.57)"/><path class="cls-7" d="M262,268.81a22.27,22.27,0,0,0,5.84-11.38" transform="translate(-200.61 -187.57)"/><path class="cls-7" d="M263.63,239.79c-.12-.16-.25-.32-.38-.47" transform="translate(-200.61 -187.57)"/><path class="cls-7" d="M267.63,248.26a22.14,22.14,0,0,0-1.83-5" transform="translate(-200.61 -187.57)"/><path class="cls-7" d="M232.34,248.28c.09.06.19.1.28.15a5.66,5.66,0,0,0,1.83.51h0a22.26,22.26,0,0,1,5,11.54,23,23,0,0,1-4-1.3,22.21,22.21,0,0,1-3.23-1.73l-.2-.12a22.37,22.37,0,0,1-9.9-16,21.67,21.67,0,0,1-.16-2.68,22.72,22.72,0,0,1,.33-3.9,14,14,0,0,1,17.71,1.33c-.59.49-1.15,1-1.69,1.54-.24.24-.48.5-.71.75a5.6,5.6,0,0,0-8.1,5,5.4,5.4,0,0,0,.12,1.15A5.62,5.62,0,0,0,232.34,248.28Z" transform="translate(-200.61 -187.57)"/><path class="cls-7" d="M260.06,236.09a14,14,0,0,1,17.73-1.37,23.87,23.87,0,0,1,.33,3.9,21.83,21.83,0,0,1-.16,2.69,22.14,22.14,0,0,1-3.24,9.17,22.42,22.42,0,0,1-6.66,6.81l-.22.14a22.21,22.21,0,0,1-7.24,3,22.12,22.12,0,0,1,4.95-11.54h0a5.35,5.35,0,0,0,1.83-.51l.25-.13a5.6,5.6,0,0,0,2.83-3.77,6.32,6.32,0,0,0,.12-1.15,5.59,5.59,0,0,0-5.59-5.59,5.49,5.49,0,0,0-2.55.62c-.15-.18-.31-.35-.48-.52l-.11-.12c-.08-.07-.15-.15-.22-.22s-.46-.44-.69-.65l-.19-.18-.2-.17" transform="translate(-200.61 -187.57)"/><path class="cls-7" d="M238,268.81l0-.05a22.36,22.36,0,0,1-5.79-11.31" transform="translate(-200.61 -187.57)"/><path class="cls-7" d="M232.34,248.28c.08-.35.18-.71.27-1.05a22.28,22.28,0,0,1,4.91-8.85" transform="translate(-200.61 -187.57)"/><path class="cls-7" d="M265.8,243.24h0l-.3-.56c-.09-.18-.19-.36-.29-.53s-.37-.62-.57-.92l-.27-.41-.52-.74-.22-.29c-.13-.16-.25-.32-.38-.47l-.12-.16-.2-.24-.24-.28-.25-.27c-.15-.18-.32-.35-.48-.52" transform="translate(-200.61 -187.57)"/><path class="cls-7" d="M260.55,236.51l-.49-.42-.25-.2-.42-.33a14,14,0,0,1-18.8,0h0l-.65.52" transform="translate(-200.61 -187.57)"/></g><text class="cls-8" transform="translate(7.13 116.22)">Save-me</text></svg>