<svg xmlns="http://www.w3.org/2000/svg" width="373" height="373" viewBox="0 0 373 373">
  <g id="Grupo_29" data-name="Grupo 29" transform="translate(-1353 411)">
    <g id="Camada_2" data-name="Camada 2" transform="translate(1353 -411)">
      <g id="Camada_10" data-name="Camada 10">
        <path id="Caminho_1254" data-name="Caminho 1254" d="M0,0V16.754L16.754,0Z" fill="#86012b"/>
        <path id="Caminho_1255" data-name="Caminho 1255" d="M115.285,0,0,115.285v24.822L140.107,0Z" fill="#86012b"/>
        <path id="Caminho_1256" data-name="Caminho 1256" d="M238.638,0,0,238.638v24.839L263.477,0Z" fill="#86012b"/>
        <path id="Caminho_1257" data-name="Caminho 1257" d="M361.991,0,0,361.991V373H13.83L373,13.83V0Z" fill="#86012b"/>
        <path id="Caminho_1258" data-name="Caminho 1258" d="M90.149,325.966,325.966,90.149V65.31L65.31,325.966Z" transform="translate(47.034 47.034)" fill="#86012b"/>
        <path id="Caminho_1259" data-name="Caminho 1259" d="M161.852,274.316,274.316,161.852V137.03L137.03,274.316Z" transform="translate(98.684 98.684)" fill="#86012b"/>
        <path id="Caminho_1260" data-name="Caminho 1260" d="M222.673,222.673V208.74L208.74,222.673Z" transform="translate(150.327 150.327)" fill="#86012b"/>
      </g>
      <g id="Camada_2-2" data-name="Camada 2" transform="translate(84.291 57.116)">
        <path id="Caminho_1261" data-name="Caminho 1261" d="M81.9,89.377a100.544,100.544,0,0,0,14.5,26.491c2,2.6,6.485,0,4.455-2.6A96.328,96.328,0,0,1,86.873,88C85.738,84.9,80.749,86.281,81.9,89.377Z" transform="translate(-25.432 5.002)" fill="#c4b997"/>
        <path id="Caminho_1262" data-name="Caminho 1262" d="M91.934,110.08a6.881,6.881,0,0,0,1.72,4.3,2.58,2.58,0,0,0,3.578-3.647c.31.361-.31-.585-.172-.327s0,0,0-.206v-.12a2.58,2.58,0,0,0-5.16,0Z" transform="translate(-18.108 20.302)" fill="#c4b997"/>
        <path id="Caminho_1263" data-name="Caminho 1263" d="M112.886,127.469c5.487-3.268,15.722-10.08,22.517-8.429,5.625,1.376,11.835,10.321,13,15.481v-7.775c-.413,2.133-2.907,4.214-4.472,5.831a28.029,28.029,0,0,1-2.494,2.46l.826-1.273a34.4,34.4,0,0,1-6.416-1.359,35.314,35.314,0,0,1-11.508-4.472,19.316,19.316,0,0,1-3.268-2.649c-1.617-1.72-1.72-3.974-2.305-1.961L115,129.809c.946-1.084,6.3-2.649,7.982-1.72.963.568,1.221,4.472.98,6.33l4.283-10.321-1.1,1.17L133.6,121.5l-1.6.464h7.775l.894.378c-13.125-13.538-33.784,7.156-20.642,20.642s34.644,6.881,33.3-13.228c-1.032-15.481-12.041-29.019-27.781-30.739-13.5-1.462-32.3,3.974-35.728,18.922s9.857,29.879,22.07,36.536,32.838,12.918,45.5,4.9c11.112-7.07,23.067-21.691,18.578-35.539-4.369-13.486-17.1-27.385-30.43-32.219-15.98-5.814-33.715,2.374-47.391,10.545C82.009,111.816,96.7,137.1,112.9,127.418Z" transform="translate(-20 7.454)" fill="#c4b997"/>
        <path id="Caminho_1264" data-name="Caminho 1264" d="M155.257,183.507c-17.872-14.054-38.274-29.243-47.3-50.848-1.462-3.44-4.008-8.738-2.322-12.385s6.881-6.881,10.149-8.928a38.91,38.91,0,0,1,26.886-5.16c7.758,1.462,15.774-2.15,17.993-10.2,1.961-7.139-2.425-16.514-10.218-17.993a70.664,70.664,0,0,0-46.169,6.3c-14.071,7.173-28.434,21-28.451,37.844S85.935,155.641,96,168.4c10.957,13.882,24.753,24.908,38.583,35.779,6.21,4.868,14.621,6.055,20.642,0,5.16-5.074,6.244-15.774,0-20.642Z" transform="translate(-29.688 -1.968)" fill="#c4b997"/>
        <path id="Caminho_1265" data-name="Caminho 1265" d="M109.206,76.363c-7.1-.894-14.277,4.283-19.679,8.36A83.98,83.98,0,0,0,74.614,98.931c-4.971,6.124-5.986,14.69,0,20.642,5.16,5.16,15.671,6.158,20.642,0a80.844,80.844,0,0,1,9.5-9.925c1.927-1.72-1.29.894.757-.654a24.215,24.215,0,0,1,2.6-1.72c.877-.5,1.72-1.152,2.683-1.72l1.376-.791q2.752-1.462-2.993.86c7.62.963,14.948-7.4,14.621-14.621-.378-8.738-6.451-13.589-14.621-14.621Z" transform="translate(-33.522 -2.196)" fill="#c4b997"/>
        <path id="Caminho_1266" data-name="Caminho 1266" d="M70.166,122.923c2.339,18.1,9.134,35.315,26.955,43.107,15.309,6.691,36.794,6.175,52.276.189,17.2-6.674,27.265-23.583,30.361-41.146,1.72-9.168,3.3-18.922-2.838-26.766-5.8-7.4-13.761-13.538-20.143-20.453L150.326,102.3c3.578-1.342,6.21-.946,10.011-.533,1.72.189,3.079,1.565,1.978.138-2.167-2.838,2.2,6.588,1.462,5.333a19.163,19.163,0,0,0,26.215,6.984c16.342-9.306,1.634-34.592-14.759-25.252l-1.5.86,7.379-2-1.72-.172,7.379,2v-.138l3.767,6.451c-4.18-10.183-7.655-18.1-19.077-21.571-8.928-2.735-20.074-3.6-28.916-.292C132.23,77.958,128.17,90,136.1,98.532c3.87,4.18,7.827,8.257,11.921,12.23a61,61,0,0,1,5.642,5.315c-1.1-4.283-1.72-5.023-1.72-2.253a20.662,20.662,0,0,1-.413,3.44c-1.273,8.24-4.283,18.285-12.712,21.777-7.466,3.079-19.747,3.44-27.419,1.187-7.947-2.339-11.009-9.53-12.041-17.339s-5.986-14.621-14.621-14.621c-7.1,0-15.636,6.743-14.621,14.621Z" transform="translate(-33.856 -5.288)" fill="#c4b997"/>
        <path id="Caminho_1267" data-name="Caminho 1267" d="M68.819,106.33c1.342,3.956,1.2,7.706,1.909,11.766.722,4.335,1.978,8.6,3.027,12.867,1.583,6.451,11.542,3.716,9.96-2.752a107.719,107.719,0,0,1-3.027-12.936,54.27,54.27,0,0,0-1.909-11.7C76.663,97.317,66.738,100.017,68.819,106.33Z" transform="translate(-34.935 14.917)" fill="#c4b997"/>
        <path id="Caminho_1268" data-name="Caminho 1268" d="M75.256,127.915c2.976,1.72,4.008,4.318,5.608,7.259a11.284,11.284,0,0,0,10.2,6.261c6.64,0,6.657-10.321,0-10.321-1.6,0-2.649-4.094-3.44-5.333A22.155,22.155,0,0,0,80.5,119c-5.694-3.44-10.889,5.47-5.16,8.91Z" transform="translate(-31.824 28.028)" fill="#c4b997"/>
        <path id="Caminho_1269" data-name="Caminho 1269" d="M78.076,132.043c.155.1.55.275.636.43-.482-.361-.585-.43-.292-.189l.292.258c.206.189,1.2,1.015,1.187,1.273,0-.138-.516-.774-.1-.1l.413.654c.155.275.292.585.447.86.361.6-.413-1.135,0,0a5.281,5.281,0,0,0,6.347,3.6,5.16,5.16,0,0,0,3.6-6.347,18.922,18.922,0,0,0-7.362-9.375,5.16,5.16,0,0,0-7.07,1.841A5.3,5.3,0,0,0,78.076,132.043Z" transform="translate(-29.914 31.022)" fill="#c4b997"/>
        <path id="Caminho_1270" data-name="Caminho 1270" d="M77.487,133.048c2.924,4.713,5.16,9.857,8.257,14.467s7.414,8.308,11.215,12.454c4.507,4.885,11.8-2.425,7.293-7.311-3.578-3.888-7.655-7.225-10.493-11.749-2.666-4.232-4.713-8.824-7.362-13.073-3.44-5.625-12.437-.447-8.91,5.16Z" transform="translate(-29.067 33.199)" fill="#c4b997"/>
        <path id="Caminho_1271" data-name="Caminho 1271" d="M92.906,152.3c3.6,1.548,5.16,5.849,8.6,7.827,4.472,2.529,10.321,3.44,15.223,4.954,6.382,1.909,9.1-8.05,2.752-9.96-4.025-1.2-10.321-1.927-13.572-4.541-2.907-2.271-4.146-5.625-7.792-7.19-6.038-2.6-11.3,6.279-5.16,8.91Z" transform="translate(-19.32 45.807)" fill="#c4b997"/>
        <path id="Caminho_1272" data-name="Caminho 1272" d="M110.223,164.725c6.33.189,11.594,1.72,17.907-.1s11.732-5.556,16.926-9.444.1-12.9-5.16-8.91c-4.4,3.286-9.082,6.881-14.449,8.394s-9.908-.1-15.172-.258c-6.64-.206-6.64,10.115,0,10.321Z" transform="translate(-8.461 47.502)" fill="#c4b997"/>
        <path id="Caminho_1273" data-name="Caminho 1273" d="M81.452,128.844c6.158,15.688,18.922,28.279,33.285,36.605l2.6-9.616c-4.627,0-7.9-2.081-11.628-4.507-4.885-3.182-10.579,4.146-6.261,8.1a53.55,53.55,0,0,0,14.157,8.807c4.851,2.253,10.149,2.563,14.983,4.524,6.141,2.494,8.824-7.483,2.735-9.96-4.042-1.72-8.377-1.634-12.523-3.44a44.124,44.124,0,0,1-12.041-7.19l-6.244,8.1c5.35,3.44,10.321,5.969,16.84,5.917a5.16,5.16,0,0,0,2.615-9.616c-11.852-6.881-23.411-17.391-28.555-30.447-2.391-6.107-12.385-3.44-9.943,2.752Z" transform="translate(-25.894 31.228)" fill="#c4b997"/>
        <path id="Caminho_1274" data-name="Caminho 1274" d="M138.388,162.045c1.892-3.079,5.16-5.161,7.6-7.844a47.374,47.374,0,0,0,7.551-11.215,8.876,8.876,0,0,0-3.079-11.783c-3.75-2.185-9.771-1.118-11.783,3.1a32.683,32.683,0,0,1-6.588,9.564,49.884,49.884,0,0,0-8.6,9.512c-5.8,9.461,9.065,18.113,14.845,8.6Z" transform="translate(3.694 36.576)" fill="#c4b997"/>
        <path id="Caminho_1275" data-name="Caminho 1275" d="M145.194,157.624a131.953,131.953,0,0,0,15.619-25.8,8.824,8.824,0,0,0-3.079-11.766c-3.767-2.2-9.753-1.118-11.766,3.079-3.733,7.775-7.534,15.481-12.936,22.362-2.89,3.63-3.544,8.6,0,12.162,2.993,3.01,9.254,3.664,12.162,0Z" transform="translate(9.773 28.542)" fill="#c4b997"/>
        <path id="Caminho_1276" data-name="Caminho 1276" d="M132.528,144.476c0-.12.5-3.974,0-3.44l-8.36,2.219q-1.5,3.44,1.393-5.47c-2.546-.258-3.182,1.118-1.875,4.128a26.368,26.368,0,0,1,3.819,2.408q-1.342-3.44,1.6-4.128l8.36,2.219c2.683,3.819,1.393,4.352-3.819,1.634-6.038-.189-6.881-1.2-2.339-3.079l8.377,2.2q5.522,5.883-3.578-3.716l16.015,4.352a8.326,8.326,0,0,1,1.823-4.472l-5.16,3.956-2.666-.155c10.768,2.477,15.361-14.105,4.558-16.6s-14.862,8.48-15.774,17.2,12.041,11.422,16.032,4.335c6.175-11.2-3.9-25.992-16.737-19.507-5.883,2.976-9.564,9.7-10.08,16.221s3.182,13.761,10.613,12.85c12.42-1.359,15.206-22.6,3.32-26.972C124.6,125.709,117.407,145.7,125.286,154.5a8.446,8.446,0,0,0,8.377,2.2,15.653,15.653,0,0,0,10.6-12.041c1.1-6.674-2.89-11.714-8.085-15.327s-11.783-6.158-18.148-4.232a15.017,15.017,0,0,0-10.82,13.606c-.568,14.123,14,19.9,25.613,14.587,13.331-6.107,8.154-22.741-4.06-26.68a8.429,8.429,0,0,0-8.36,2.2c-3.716,4.249-4.73,10.132-5.161,15.6-.671,11.061,16.531,11.026,17.2,0Z" transform="translate(-7.096 32.505)" fill="#c4b997"/>
        <path id="Caminho_1277" data-name="Caminho 1277" d="M143.942,159.969c9.7-8.222,18.079-15.808,18.819-29.243.361-6.657-2.563-11.7-3.44-18.079-.894-6.691.155-13.469-.843-20.229l-12.626,9.7c5.78,3.44,6.055,15.86,6.089,21.554a58.33,58.33,0,0,1-4.094,22.723c-4.128,10.321,12.506,14.725,16.582,4.558,7.173-17.838,9.255-52.018-9.891-63.646-7.07-4.3-13.641,2.769-12.643,9.7.757,5.16-.155,10.476.224,15.671.327,4.662,2.133,8.377,3.113,12.8,2.374,10.631-6.4,16.41-13.486,22.362C123.283,155,135.513,167.125,143.908,160Z" transform="translate(8.531 4.816)" fill="#c4b997"/>
        <path id="Caminho_1278" data-name="Caminho 1278" d="M153.545,124.275c-3.32,6.881-6.64,13.985-11.663,19.8-5.384,6.21-12.2,10.923-18.922,15.585-9.014,6.279-.43,21.192,8.6,14.845,7.861-5.47,15.98-11.043,22.362-18.268,6.124-6.881,10.321-15.017,14.346-23.291,4.8-9.908-10.029-18.647-14.845-8.6Z" transform="translate(1.507 29.226)" fill="#c4b997"/>
        <path id="Caminho_1279" data-name="Caminho 1279" d="M137.449,156.936l.12-.327-.86,2.047.172-.292-1.342,1.72c.791-.98,1.72-1.72,2.58-2.8a35.04,35.04,0,0,0,3.44-4.713,8.6,8.6,0,1,0-14.845-8.6,26.773,26.773,0,0,1-1.72,2.477l1.342-1.72a23.162,23.162,0,0,1-2.116,2.374,13.435,13.435,0,0,0-3.44,5.35,8.6,8.6,0,0,0,6,10.579,8.807,8.807,0,0,0,10.579-6Z" transform="translate(2.466 43.078)" fill="#c4b997"/>
        <path id="Caminho_1280" data-name="Caminho 1280" d="M160.14,102.71l.224-.447-2.15,2.167c-2.03,1.032,1.841.206,2.546.155a31.632,31.632,0,0,1,4.421-.12l-3.045-.74c-1-.585.86.894.912.912.809,1.049.929.74.4-.912.1-1.72-.138-1.978-.705-.826a5.83,5.83,0,0,1,.98-.378s-2.288-.55-2.563-.6c-4.593-.981-9.874.327-11.009,5.573a6.141,6.141,0,0,0,4.214,7.4,6.072,6.072,0,0,0,7.4-4.2l.138-.636-1.548,2.666c-2.253.585-2.563.98-.912,1.187a10.315,10.315,0,0,0,1.479.31,14.379,14.379,0,0,0,3.32.31,10.407,10.407,0,0,0,6.881-2.769c3.44-3.337,5.539-8.6,2.873-12.884A20.23,20.23,0,0,0,170,94.556a9.272,9.272,0,0,0-6.881-2.064c-4.352.155-10.975-.378-13.262,4.232a6.175,6.175,0,0,0,2.15,8.24,6.089,6.089,0,0,0,8.24-2.167Z" transform="translate(23.072 9.456)" fill="#c4b997"/>
        <path id="Caminho_1281" data-name="Caminho 1281" d="M162.94,100.343a28.366,28.366,0,0,0-8.154,6.468,44.536,44.536,0,0,0-5.023,9.306,6.175,6.175,0,0,0,2.15,8.24,6.072,6.072,0,0,0,8.24-2.167,50.948,50.948,0,0,1,3.6-7.345,15.481,15.481,0,0,1,5.264-4.111c6.709-3.87.654-14.295-6.072-10.321Z" transform="translate(23.007 14.557)" fill="#c4b997"/>
        <path id="Caminho_1282" data-name="Caminho 1282" d="M159.444,126.712c.344-3.027,3.079-6.107,3.939-9.082.172-.636.275-1.29.482-1.909s.155-.654-.31.189l.843-.482a11.886,11.886,0,0,0,4.335-3.131c5.315-5.642-3.182-14.157-8.6-8.6-1.273,1.325-3.32,1.944-4.73,3.217a13.022,13.022,0,0,0-3.44,6.468c-1.359,4.61-4.042,8.326-4.61,13.245-.361,3.234,3.045,6.021,6.021,6.021a6.158,6.158,0,0,0,6.021-6.021Z" transform="translate(21.807 16.261)" fill="#c4b997"/>
        <path id="Caminho_1283" data-name="Caminho 1283" d="M58.742,98.154c-.774,3.32-2.133,7.982-1.015,11.37,1.256,3.75,5.367,6.021,8.016,8.687a24.6,24.6,0,0,1,6.537,10.854,14.243,14.243,0,0,0,5.608,8.446c6.158,4.7,12.179-5.745,6.072-10.321-.258-.206-1.307-5.16-1.617-5.866a30.963,30.963,0,0,0-3.767-6.537c-3.113-4.249-7.328-7.19-10.785-11.061l1.72,4.266a20.264,20.264,0,0,1,.791-6.571c1.72-7.534-9.874-10.751-11.611-3.2Z" transform="translate(-43.023 10.519)" fill="#c4b997"/>
        <path id="Caminho_1284" data-name="Caminho 1284" d="M73.03,104.059c-.722-.808-.5-.963-1.2-1.548s.327.378,0,.344l-.1.292c.155-.688.206-.86.172-.516a.79.79,0,0,1-.6.722,1.428,1.428,0,0,1-1.29.74c-.894.172-.929.224-.12.155h-.258l.654.172-1.032-.6a2.081,2.081,0,0,1-.189-2.89,3.182,3.182,0,0,1,.757-2.03l3.027-.808h-.533c-3.113.378-6.175,2.494-6.021,6.021.12,2.924,2.666,6.416,6.021,6.021a8.893,8.893,0,0,0,7.035-4.042,8.6,8.6,0,0,0,.843-6.777c-1.342-4.73-6.21-7.276-10.889-7.087a9.788,9.788,0,0,0-9.272,8.377c-.86,4.748,1.479,8.6,4.524,12.041a6.082,6.082,0,1,0,8.6-8.6Z" transform="translate(-41.192 9.293)" fill="#c4b997"/>
        <path id="Caminho_1285" data-name="Caminho 1285" d="M78.784,92.345c-7,.413-13.933.31-19.077,5.694s3.148,14.14,8.515,8.515c2.494-2.632,7.139-1.978,10.562-2.167C86.49,103.922,86.542,91.881,78.784,92.345Z" transform="translate(-42.457 9.378)" fill="#c4b997"/>
        <path id="Caminho_1286" data-name="Caminho 1286" d="M109.441,166.192a17.66,17.66,0,0,0,1.531,1.221l.722.447a3.974,3.974,0,0,1-1.72-3.131c0,.224,0,.464,0,.705a18.346,18.346,0,0,1,0,1.944c.1-.705,0-.688,0,0,.31-.585.292-.585,0,0a6.021,6.021,0,1,0,10.321,6.072,15.017,15.017,0,0,0,1.72-8.6,8.6,8.6,0,0,0-1.72-5.161,8.427,8.427,0,0,0-1.72-1.72c-.172-.12-2.167-1.72-.791-.5a6.051,6.051,0,0,0-8.6,8.515Z" transform="translate(-6.922 54.997)" fill="#c4b997"/>
        <path id="Caminho_1287" data-name="Caminho 1287" d="M107.43,166.952a6.779,6.779,0,0,1,.361,1.187v2.443a33.408,33.408,0,0,0,.43,5.694c.464,3.113,4.558,5.16,7.4,4.2a6.21,6.21,0,0,0,4.214-7.4c.138.963,0-1.307,0-1.548v-2.219a17.942,17.942,0,0,0-.86-5.556,6.022,6.022,0,0,0-11.611,3.2Z" transform="translate(-7.13 57.626)" fill="#c4b997"/>
        <path id="Caminho_1288" data-name="Caminho 1288" d="M119.809,167.671c7.758,0,7.775-12.041,0-12.041S112.051,167.671,119.809,167.671Z" transform="translate(-2.204 54.963)" fill="#c4b997"/>
        <path id="Caminho_1289" data-name="Caminho 1289" d="M116.436,161.535a16.72,16.72,0,0,1-2.167,6.5,12.351,12.351,0,0,1-2.873,4.988c-2.563,2.013-2.116,6.4,0,8.6,2.511,2.529,5.935,2.013,8.6,0s3.87-5.47,5.16-8.5a28.538,28.538,0,0,0,3.32-11.508c0-7.741-12.041-7.741-12.041,0Z" transform="translate(-5.334 55.096)" fill="#c4b997"/>
        <path id="Caminho_1290" data-name="Caminho 1290" d="M122.37,176.8c1-1.479,2.064-2.924,2.976-4.455a15.808,15.808,0,0,0,2.116-6.554c.413-3.131-3.045-6.158-6.021-6.021a6.227,6.227,0,0,0-6.021,6.021c0-.705,0-.722-.12,0,.258-.6.241-.6,0,0a7.7,7.7,0,0,1-.86,1.393l-2.391,3.544a6.072,6.072,0,0,0,2.15,8.24,6.175,6.175,0,0,0,8.24-2.167Z" transform="translate(-4.18 57.943)" fill="#c4b997"/>
        <path id="Caminho_1291" data-name="Caminho 1291" d="M120.349,165.781c7.758,0,7.775-12.041,0-12.041S112.591,165.781,120.349,165.781Z" transform="translate(-1.815 53.602)" fill="#c4b997"/>
        <path id="Caminho_1292" data-name="Caminho 1292" d="M68.98,107.5a2.58,2.58,0,1,0-2.58-2.58,2.58,2.58,0,0,0,2.58,2.58Z" transform="translate(-36.472 16.586)" fill="#c4b997"/>
        <path id="Caminho_1293" data-name="Caminho 1293" d="M113.146,208.032a18.267,18.267,0,0,1,10.321-5.04,10.028,10.028,0,0,1,4.627.138c.636,0,1.015.224,1.135.74,0,2.46.447,2.339,1.565-.31l4.765-1.29-2.236-.138,4.782,1.29a84.441,84.441,0,0,1-17.339-10.889c-4.042-3.2-9.426-3.87-13.383,0-3.32,3.251-3.991,10.218,0,13.383,7.19,5.659,18.337,16.032,28.176,15.275,11.078-.843,14.518-13.09,11.9-22.362-6.141-21.794-35.229-16.152-47.717-4.2-8.807,8.446,4.576,21.812,13.383,13.383Z" transform="translate(-14.532 75.444)" fill="#d4d6d6"/>
        <path id="Caminho_1294" data-name="Caminho 1294" d="M87.817,224.192c-.327-3.44,1.617-6.743,2.047-10.115.5-3.956.86-7.913,1.29-11.869.241-2.2-3.2-2.185-3.44,0-.447,4.094-.722,8.257-1.376,12.334-.516,3.3-2.288,6.261-1.961,9.65C84.6,226.377,88.041,226.394,87.817,224.192Z" transform="translate(-23.554 87.323)" fill="#d4d6d6"/>
        <path id="Caminho_1295" data-name="Caminho 1295" d="M88.017,221.5c-.378-8.6,2.339-16.307,3.148-24.788.206-2.2-3.234-2.185-3.44,0-.826,8.6-3.544,16.049-3.148,24.788C84.576,223.7,88.12,223.715,88.017,221.5Z" transform="translate(-23.41 83.362)" fill="#d4d6d6"/>
        <path id="Caminho_1296" data-name="Caminho 1296" d="M88.536,220.479a60.206,60.206,0,0,1,10.476-39.564c1.256-1.823-1.72-3.544-2.976-1.72A63.353,63.353,0,0,0,85.1,220.479C85.267,222.681,88.708,222.7,88.536,220.479Z" transform="translate(-23.172 71.374)" fill="#d4d6d6"/>
        <path id="Caminho_1297" data-name="Caminho 1297" d="M113.876,170.223c-7.724,2.683-14.656,8.756-21.416,13.28-1.841,1.221-.12,4.2,1.72,2.976,6.4-4.283,13.3-10.321,20.642-12.936,2.081-.723,1.187-4.042-.912-3.32Z" transform="translate(-18.272 65.399)" fill="#d4d6d6"/>
        <path id="Caminho_1298" data-name="Caminho 1298" d="M111.866,170.667c-8.6,1.307-14.931,6.881-19.489,14.054-1.187,1.875,1.72,3.612,2.976,1.72,4.111-6.5,9.633-11.3,17.442-12.471,2.185-.327,1.256-3.647-.929-3.32Z" transform="translate(-17.965 65.763)" fill="#d4d6d6"/>
        <path id="Caminho_1299" data-name="Caminho 1299" d="M100.079,174.317a18.492,18.492,0,0,0-8.6,5.952c-1.359,1.72,1.049,4.18,2.443,2.443a15.052,15.052,0,0,1,7.07-5.16c2.081-.705,1.187-4.025-.912-3.32Z" transform="translate(-18.701 68.288)" fill="#d4d6d6"/>
        <path id="Caminho_1300" data-name="Caminho 1300" d="M104.3,174.032c2.7,6.279,9.788,6.519,15.826,6.984,3.939.292,8.6.809,12.471-.447,4.2-1.342,5.866-4.232,10.579-3.027,11.267,2.924,19.438,15.4,21.966,25.63a200.226,200.226,0,0,1,5.16,39.564c.086,2.2,3.526,2.219,3.44,0a213.578,213.578,0,0,0-4.18-35.762c-1.978-9.272-3.337-15.481-10.183-21.932-4.782-4.49-12.97-12.66-20.229-12.23-4.18.258-6.743,4.7-11.491,5.006-5.814.4-17.752.568-20.384-5.522-.877-2.013-3.836-.275-2.959,1.72Z" transform="translate(-9.281 66.32)" fill="#d4d6d6"/>
        <path id="Caminho_1301" data-name="Caminho 1301" d="M86.94,218.66c4.214,0,8.274-1.858,12.4-2.649a102.657,102.657,0,0,1,18.492-1.72,1.72,1.72,0,1,0,0-3.44,109.192,109.192,0,0,0-14.983,1.135c-5.161.757-10.785,3.3-15.912,3.285a1.72,1.72,0,1,0,0,3.44Z" transform="translate(-22.918 94.73)" fill="#d4d6d6"/>
        <path id="Caminho_1302" data-name="Caminho 1302" d="M105.72,214.33c8.807,0,18.629-.361,27.2,1.72a1.721,1.721,0,0,0,.912-3.32c-8.945-2.253-18.922-1.927-28.107-1.909a1.72,1.72,0,0,0,0,3.44Z" transform="translate(-9.394 94.691)" fill="#d4d6d6"/>
        <path id="Caminho_1303" data-name="Caminho 1303" d="M122.449,215.865c6,.619,12.179,1.72,18.216,1.187,5.694-.5,11.387-1.445,17.047-2.185,2.167-.275,2.2-3.733,0-3.44-5.659.74-11.353,1.72-17.047,2.185-6.038.533-12.213-.568-18.216-1.187-2.2-.206-2.185,3.234,0,3.44Z" transform="translate(2.708 95.134)" fill="#d4d6d6"/>
        <path id="Caminho_1304" data-name="Caminho 1304" d="M107.568,216.29a103.9,103.9,0,0,1,17.2-28.624c5.47-6.451,2.236-17.855-7.294-17.614a15.843,15.843,0,0,0-13.624,7.706c-7.259,11.129,10.6,21.45,17.907,10.424h.31l-4.541,2.649v-.155l-7.311-17.632a134.671,134.671,0,0,0-22.586,37.74c-2.064,5.161,2.253,11.336,7.207,12.695,5.883,1.617,10.631-2.013,12.695-7.208Z" transform="translate(-21.562 65.346)" fill="#d4d6d6"/>
        <path id="Caminho_1305" data-name="Caminho 1305" d="M100.694,177.245c-13.985,11.043-13.417,26.129-14.415,42.574-.791,13.28,19.851,13.228,20.642,0a176.539,176.539,0,0,1,1.256-18.131c.791-4.748,3.44-6.984,7.19-9.891,4.421-3.44,3.578-10.94,0-14.587-4.266-4.369-10.235-3.44-14.587,0Z" transform="translate(-22.171 68.388)" fill="#d4d6d6"/>
        <path id="Caminho_1306" data-name="Caminho 1306" d="M114.684,200.925c4.318-.774,7.9-3.612,11.886-4.455,5.315-1.118,10.132.843,15.481-1.514a11.68,11.68,0,0,0,3.148-1.72q4.438-3.062-.5-.361-4.662.705-.98,3.3a32.813,32.813,0,0,0,2.374,2.942c.654.774,3.3,4.679,4.06,4.782,9.53,1.325-3.578-6.193-2.735-4.92-7.431-10.923-25.321-.6-17.821,10.407,5.4,7.947,15.877,11.112,23.738,4.3,7.328-6.347,6.313-18.612-1.5-24.082a13.761,13.761,0,0,0-21.554,10.321c-.774,10.321,8.7,19.111,18.079,21.278s19.455-2.047,22.087-11.783c2.787-10.321-3.561-17.649-9.753-24.891-7.775-9.1-13.555-14.26-25.476-9.547-3.9,1.548-8.033.482-12.351,1.273-4.954.912-8.773,3.87-13.761,4.765-13.056,2.357-7.517,22.259,5.487,19.9Z" transform="translate(-11.081 67.621)" fill="#d4d6d6"/>
        <path id="Caminho_1307" data-name="Caminho 1307" d="M100.53,225.309a124.679,124.679,0,0,1,18.75-8.429c8.119-2.632,12.265.808,19.988,2.494a47.941,47.941,0,0,0,19.971-.344,70.187,70.187,0,0,0,8.412-2.408c1.841-.654,3.647-1.359,5.453-2.1q5.625-1.393-.464-1.858l-4.748-6.175a25.444,25.444,0,0,1,.344,6.261c.1,13.28,20.745,13.3,20.642,0,0-8.91-1.256-19.4-12.334-20.195-9.186-.654-17.873,6.691-27.3,7.053-10.321.413-18.509-6.175-29.38-4.249-10.321,1.823-20.642,7.345-29.742,12.127-11.8,6.107-1.376,23.927,10.321,17.821Z" transform="translate(-23.126 81.527)" fill="#d4d6d6"/>
        <path id="Caminho_1308" data-name="Caminho 1308" d="M179.766,207.211c-7.741,2.133-15.327.808-23.188.568s-15.172,0-22.809-.654a134.018,134.018,0,0,0-44.638,3.32c-6.451,1.565-3.716,11.525,2.752,9.96,16.066-3.887,30.963-3.612,47.287-2.443,7.345.516,14.707,0,22.07.4s14.14.774,21.261-1.187C188.9,215.451,186.182,205.44,179.766,207.211Z" transform="translate(-22.753 91.626)" fill="#d4d6d6"/>
        <path id="Caminho_1309" data-name="Caminho 1309" d="M103.612,214.187c11.577-.224,23.188-.808,34.747-.671,8.343,0,16.806,5.935,24.908,2.666,6.089-2.443,3.44-12.42-2.752-9.943-4.4,1.72-8.6-1.411-12.884-2.305a54.257,54.257,0,0,0-11.921-.705c-10.7.138-21.4.43-32.1.636-6.623.138-6.64,10.459,0,10.321Z" transform="translate(-13.255 89.191)" fill="#d4d6d6"/>
        <path id="Caminho_1310" data-name="Caminho 1310" d="M88.729,218.686c11.25,1.2,21.915-.6,33.113-.963s22.792-.413,34.18-.6c3.32,0,3.32-5.161,0-5.161-11.387.189-22.792.258-34.18.6s-21.863,2.167-33.113.963C85.443,213.181,85.461,218.342,88.729,218.686Z" transform="translate(-22.161 95.53)" fill="#d4d6d6"/>
        <path id="Caminho_1311" data-name="Caminho 1311" d="M115.38,217.882c7.844-.258,15.671-.413,23.5-.413h18.13q4.386,1.359,5.883-3.2c-2.047,2.563,1.565,6.244,3.647,3.647,4.4-5.522-4.971-5.591-7.844-5.591-14.432-.086-28.864-.155-43.314.327-3.3.1-3.32,5.264,0,5.16Z" transform="translate(-2.987 95.749)" fill="#d4d6d6"/>
        <path id="Caminho_1312" data-name="Caminho 1312" d="M143.02,218.381a2.58,2.58,0,1,0-2.58-2.58A2.58,2.58,0,0,0,143.02,218.381Z" transform="translate(16.849 96.437)" fill="#d4d6d6"/>
        <path id="Caminho_1313" data-name="Caminho 1313" d="M145.718,213.357l-1.72-.4a2.58,2.58,0,0,0-1.376,4.971l1.72.413a2.649,2.649,0,0,0,3.182-1.806A2.615,2.615,0,0,0,145.718,213.357Z" transform="translate(17.11 96.197)" fill="#d4d6d6"/>
        <path id="Caminho_1314" data-name="Caminho 1314" d="M141.37,212.14c.292,1.72.533,3.44.688,5.161a2.649,2.649,0,0,0,2.58,2.58,2.6,2.6,0,0,0,2.58-2.58c-.206-2.167-.5-4.318-.877-6.468a2.6,2.6,0,0,0-3.165-1.806,2.649,2.649,0,0,0-1.72,3.182Z" transform="translate(17.518 93.354)" fill="#d4d6d6"/>
        <path id="Caminho_1315" data-name="Caminho 1315" d="M85.921,218.844c-1.72-2.7-.929-5.78-.292-8.6.722-3.251-4.249-4.627-4.971-1.376-.946,4.283-1.6,8.7.808,12.643a2.58,2.58,0,0,0,4.455-2.6Z" transform="translate(-26.819 91.966)" fill="#86012b"/>
        <path id="Caminho_1316" data-name="Caminho 1316" d="M87.377,218.324q-.774-6.5-1.909-12.9c-.585-3.268-5.556-1.892-4.988,1.359.688,3.836,1.273,7.672,1.72,11.542.4,3.251,5.556,3.285,5.16,0Z" transform="translate(-26.365 89.475)" fill="#86012b"/>
        <path id="Caminho_1317" data-name="Caminho 1317" d="M85.5,221.912a63.044,63.044,0,0,1,1.72-30.963c.963-3.182-4.008-4.541-4.989-1.376a68.91,68.91,0,0,0-1.72,33.612c.636,3.268,5.608,1.892,4.988-1.359Z" transform="translate(-27.256 78.112)" fill="#86012b"/>
        <path id="Caminho_1318" data-name="Caminho 1318" d="M83.056,209.875a86.361,86.361,0,0,0,2.322-8.756,30.774,30.774,0,0,1,1.875-8.068c1.428-2.976-3.01-5.591-4.455-2.6a26.49,26.49,0,0,0-2.167,8.033A80.516,80.516,0,0,1,78.05,208.5c-.946,3.182,4.025,4.558,4.971,1.376Z" transform="translate(-28.168 79.089)" fill="#86012b"/>
        <path id="Caminho_1319" data-name="Caminho 1319" d="M84.27,210.475a19.662,19.662,0,0,1-.344-6.743,66.939,66.939,0,0,1,.533-7.379c.447-3.234-4.524-4.644-4.971-1.359a74.88,74.88,0,0,0-.791,8.773,23.789,23.789,0,0,0,.6,8.068c1.084,3.131,6.072,1.72,4.971-1.376Z" transform="translate(-27.696 81.963)" fill="#86012b"/>
        <path id="Caminho_1320" data-name="Caminho 1320" d="M86.852,226.268c-.6-16.359-.189-32.683,9.943-46.341,1.978-2.683-2.494-5.247-4.455-2.615-10.613,14.295-11.284,31.806-10.648,48.956C81.811,229.588,86.972,229.6,86.852,226.268Z" transform="translate(-25.582 69.783)" fill="#86012b"/>
        <path id="Caminho_1321" data-name="Caminho 1321" d="M91.195,177.559c-4.8,5.952-7.672,12.815-10.407,19.885-1.2,3.1,3.784,4.438,4.971,1.359,2.408-6.158,4.885-12.385,9.082-17.6,2.064-2.563-1.565-6.227-3.647-3.647Z" transform="translate(-26.244 70.121)" fill="#86012b"/>
        <path id="Caminho_1322" data-name="Caminho 1322" d="M110.236,169.4a50.418,50.418,0,0,0-22.362,11.181c-1.72,1.428.757,3.853,2.425,2.425a47.167,47.167,0,0,1,20.78-10.321c2.167-.464,1.239-3.784-.912-3.3Z" transform="translate(-21.427 64.831)" fill="#86012b"/>
        <path id="Caminho_1323" data-name="Caminho 1323" d="M92.349,181.454a66.085,66.085,0,0,1,5.935-5.677c1.72-1.428-.757-3.853-2.443-2.425a71.041,71.041,0,0,0-5.935,5.677C88.41,180.645,90.836,183.088,92.349,181.454Z" transform="translate(-19.881 67.413)" fill="#86012b"/>
        <path id="Caminho_1324" data-name="Caminho 1324" d="M106.02,166.436c-3.974,9.925,5.522,15.6,14.243,15.378,6.5-.155,19.025-6.726,12.85-14.587l-2.374,2.408c6.657,7.964-5.8,7.827-10.424,7.362l.464,3.44c5.16-1.6,9.96-3.784,12.351-8.945.929-2-2.047-3.75-2.976-1.72-2.013,4.352-5.917,6-10.321,7.362a1.735,1.735,0,1,0,.447,3.44c4.283.43,12.041,1.015,14.965-3.079,2.46-3.44.241-7.345-2.116-10.166-1.428-1.72-3.767.74-2.425,2.443,2.787,3.561-3.991,7.414-6.261,8.119a18.1,18.1,0,0,1-8.36.292c-5.4-1.049-8.979-5.16-6.726-10.734.826-2.047-2.511-2.941-3.32-.912Z" transform="translate(-8.61 61.995)" fill="#86012b"/>
        <path id="Caminho_1325" data-name="Caminho 1325" d="M112.574,176.99c6.605.258,12.54-.1,18.148-3.87,1.823-1.239.1-4.214-1.72-2.976-5.16,3.44-10.424,3.647-16.41,3.44-2.2-.086-2.2,3.354,0,3.44Z" transform="translate(-4.396 65.202)" fill="#86012b"/>
        <path id="Caminho_1326" data-name="Caminho 1326" d="M124.513,172.8c5.763,2.907,12.368,3.87,17.632,7.723,6.623,4.817,10.665,12.041,12.97,19.747,1.565,5.3,2.546,10.785,3.7,16.17.654,3.114,1.342,6.21,1.875,9.34.241,1.325,2.907,14.123,1,15.481s0,4.283,1.72,2.976c4.214-3.1,1.72-11.56,1.17-15.808a246.806,246.806,0,0,0-5.4-26.215,46.307,46.307,0,0,0-9.667-19.593c-6.726-7.706-14.553-8.429-23.274-12.832-1.978-1-3.733,1.978-1.72,2.976Z" transform="translate(4.737 65.018)" fill="#86012b"/>
        <path id="Caminho_1327" data-name="Caminho 1327" d="M145.778,216.928h3.01a6.52,6.52,0,0,0,2.942-.344,3.286,3.286,0,0,0,1.256-4.335,7.414,7.414,0,0,0-1.72-2.064,5.436,5.436,0,0,0-2.047-1.548,2.167,2.167,0,0,0-2.425,1.067,4.351,4.351,0,0,0-.447,1.1l-.1.619c-.138.378-.1.4,0,0h.912l-.275-.086a1.721,1.721,0,1,0-.912,3.32,2.58,2.58,0,0,0,2.821-.946,3.285,3.285,0,0,0,.636-1.273,3.933,3.933,0,0,0,.12-.619c0-.464.327-.413-.12-.12l-1.325.172c-.361-.258-.43-.292-.189-.086l.413.4.705.654.791.826.12-.241h-4.3a1.72,1.72,0,1,0,0,3.44Z" transform="translate(19.355 93.09)" fill="#86012b"/>
        <path id="Caminho_1328" data-name="Caminho 1328" d="M149.042,220.531c.877-7.156-1.1-15.206-1.927-22.362-.241-2.185-3.681-2.2-3.44,0,.826,7.139,2.8,15.189,1.927,22.362C145.326,222.733,148.784,222.715,149.042,220.531Z" transform="translate(19.17 84.413)" fill="#86012b"/>
        <path id="Caminho_1329" data-name="Caminho 1329" d="M148.826,220.217a22.7,22.7,0,0,0-.31-8.6,47.337,47.337,0,0,1-.929-11.336,1.72,1.72,0,0,0-3.44,0,56.029,56.029,0,0,0,.361,8.824c.516,3.44,1.565,6.571,1,10.218-.327,2.167,2.993,3.1,3.32.912Z" transform="translate(19.489 85.88)" fill="#86012b"/>
        <path id="Caminho_1330" data-name="Caminho 1330" d="M155.3,233.364c.1-8.738-2.391-17.855-3.8-26.456a132.57,132.57,0,0,0-7.552-29.088c-.826-2.03-4.146-1.135-3.32.912a121.046,121.046,0,0,1,7.053,26.043c1.531,9.254,4.283,19.231,4.18,28.589a1.72,1.72,0,0,0,3.44,0Z" transform="translate(16.888 70.118)" fill="#86012b"/>
        <path id="Caminho_1331" data-name="Caminho 1331" d="M140.247,178.271a122.883,122.883,0,0,0,.464,14.243c.206,2.185,3.647,2.219,3.44,0a122.887,122.887,0,0,1-.464-14.243A1.722,1.722,0,0,0,140.247,178.271Z" transform="translate(16.681 70.079)" fill="#86012b"/>
        <path id="Caminho_1332" data-name="Caminho 1332" d="M127.879,173.184c3.44,1.514,6.881,3.027,10.321,4.816s8.842,4.249,9.874,8c.585,2.167,3.664,1.221,3.3-.929a14.381,14.381,0,0,0-4.9-8.721c-1.72-1.445-4.111.98-2.425,2.443A11.628,11.628,0,0,1,148.074,186l3.3-.929c-1.015-3.716-4.7-5.952-7.792-7.913a101.492,101.492,0,0,0-13.882-6.881c-2.013-.877-3.767,2.081-1.72,2.976Z" transform="translate(7.22 65.396)" fill="#86012b"/>
        <path id="Caminho_1333" data-name="Caminho 1333" d="M130.061,176.135a156.428,156.428,0,0,1,16.41,14.518c1.548,1.583,3.974-.843,2.425-2.425a159.972,159.972,0,0,0-17.1-15.069c-1.72-1.342-3.44,1.72-1.72,2.976Z" transform="translate(8.874 67.347)" fill="#86012b"/>
        <path id="Caminho_1334" data-name="Caminho 1334" d="M134.62,175.649l4.111,4.4c1.514,1.617,3.939-.808,2.425-2.425l-4.111-4.386c-1.514-1.72-3.939.808-2.425,2.425Z" transform="translate(12.313 67.231)" fill="#86012b"/>
        <path id="Caminho_1335" data-name="Caminho 1335" d="M83.44,214.56a.86.86,0,1,0-.86-.86A.86.86,0,0,0,83.44,214.56Z" transform="translate(-24.82 96.163)" fill="#86012b"/>
        <path id="Caminho_1336" data-name="Caminho 1336" d="M147.52,217.96a2.58,2.58,0,1,0-2.58-2.58A2.58,2.58,0,0,0,147.52,217.96Z" transform="translate(20.09 96.135)" fill="#86012b"/>
        <path id="Caminho_1337" data-name="Caminho 1337" d="M148.33,217.78a2.58,2.58,0,1,0-2.58-2.58,2.58,2.58,0,0,0,2.58,2.58Z" transform="translate(20.673 96.005)" fill="#86012b"/>
        <path id="Caminho_1338" data-name="Caminho 1338" d="M148.42,217.78a2.58,2.58,0,1,0-2.58-2.58,2.58,2.58,0,0,0,2.58,2.58Z" transform="translate(20.738 96.005)" fill="#86012b"/>
        <path id="Caminho_1339" data-name="Caminho 1339" d="M82.54,218.161a2.58,2.58,0,1,0-2.58-2.58A2.58,2.58,0,0,0,82.54,218.161Z" transform="translate(-26.706 96.279)" fill="#86012b"/>
        <path id="Caminho_1340" data-name="Caminho 1340" d="M87.644,94.305c8.412-3.01,17.718-2.976,26.577-3.63,10.441-.774,20.917-1.29,31.376-1.187a165.136,165.136,0,0,1,56.146,9.633c10.459,3.853,22.62-4.318,25.39-14.415,3.165-11.525-3.922-21.536-14.415-25.39C191.335,51.439,168.3,48.446,145.63,48.205c-11.009-.1-22.035.464-33.027,1.307-11.749.912-24.719.98-35.9,4.988-10.527,3.681-17.563,14-14.381,25.39,2.787,10.149,14.845,18.182,25.39,14.415Z" transform="translate(-39.963 -22.409)" fill="#632b46"/>
        <path id="Caminho_1341" data-name="Caminho 1341" d="M94.9,90.008c22.362-13.864,54.684-10.08,78.147-1.548,10.476,3.8,22.6-4.283,25.39-14.415,3.165-11.491-3.9-21.571-14.415-25.39-33.474-12.179-78.7-13.761-109.97,5.711C51.517,68.316,72.211,104.044,94.9,90.008Z" transform="translate(-37.965 -28.604)" fill="#632b46"/>
        <path id="Caminho_1342" data-name="Caminho 1342" d="M65.118,90.162c13.3,0,13.314-20.642,0-20.642S51.821,90.162,65.118,90.162Z" transform="translate(-44.582 -7.05)" fill="#632b46"/>
        <path id="Caminho_1343" data-name="Caminho 1343" d="M71.892,75.45c-.808-.791-.705-.619.275.516q.774,2.133.258.516l-.155-.705c-.206-1.153-.189-.946,0,.585a12.869,12.869,0,0,0-.155-2.46c0-1.359-.155-2.718-.241-4.077-.224-4.369-3.045-8.893-7.552-9.925a10.717,10.717,0,0,0-11.646,4.73,17.1,17.1,0,0,0-2.271,5.384c-1.221,5.16,1.617,11.422,7.207,12.695C62.878,83.9,69,81.127,70.31,75.5c.533-2.288-1.084,1.514.189-.447l-19.231-5.16c.413,7.139.327,14.948,6.021,20.212,3.974,3.664,10.717,4.214,14.6,0s4.232-10.682,0-14.6Z" transform="translate(-48.191 -14.202)" fill="#632b46"/>
        <path id="Caminho_1344" data-name="Caminho 1344" d="M74.519,66.7l-.568-.688,2.735,4.558q-1.118-3.217-.705,3.44c-.464.568-.258.378.585-.568,1.187-1.2,2.357-2.46,3.544-3.681a23.586,23.586,0,0,1,3.44-3.44c-.4.258-2.219,0,.344.1,5.573.31,10.321-4.954,10.321-10.321A10.51,10.51,0,0,0,83.894,45.781c-8.928-.482-14.948,5.8-20.642,11.7-2.838,2.959-5.677,6-6.795,10.063-1.428,5.16.206,9.8,3.44,13.847,3.44,4.318,10.94,3.664,14.6,0,4.266-4.283,3.526-10.321,0-14.6Z" transform="translate(-44.006 -24.165)" fill="#632b46"/>
        <path id="Caminho_1345" data-name="Caminho 1345" d="M84.719,69.2c4.4-2.683,9.375-3.784,13.641-6.881s7.225-4.816,12.54-5.487c10.648-1.376,21.622-2.322,32.167-.946,5.573.74,10.321-5.264,10.321-10.321,0-6.175-4.816-9.6-10.321-10.321-12.265-1.6-25.218-.4-37.568,1.617a37.844,37.844,0,0,0-15.481,5.952c-5.16,3.44-10.321,5.3-15.653,8.6C63.027,58.29,73.4,76.162,84.684,69.23Z" transform="translate(-34.269 -32.27)" fill="#632b46"/>
        <path id="Caminho_1346" data-name="Caminho 1346" d="M117.628,49.925A48.165,48.165,0,0,0,136.068,53c2.959,0,4.988-.6,7.861.533,1.445.568,6.588,3.6,6.777,5.4,1.066,9.788,16.565,9.908,15.481,0-.963-8.91-6.881-14.535-14.449-18.784-9.237-5.16-20.126-1.479-30-5.16-9.34-3.44-13.383,11.473-4.111,14.931Z" transform="translate(-3.36 -32.283)" fill="#632b46"/>
        <path id="Caminho_1347" data-name="Caminho 1347" d="M141.109,48.867c-.774.5-1.548,1-2.357,1.428-.206.1-1.359.516-.447.241s-.688.138-.757.155a16.412,16.412,0,0,0-3.44,1.273,9.117,9.117,0,0,0-2.236,1.72c-1,1-1.376.258,1.72-.774a7.9,7.9,0,0,0-5.418,9.53c1.239,3.8,5.418,6.777,9.53,5.4a9.77,9.77,0,0,0,4.61-2.718c1.084-1.411-2.752,1.015-1.428.791a12.788,12.788,0,0,0,1.342-.344,25.8,25.8,0,0,0,6.709-3.251,7.74,7.74,0,1,0-7.81-13.366Z" transform="translate(7.837 -22.624)" fill="#632b46"/>
        <path id="Caminho_1348" data-name="Caminho 1348" d="M139.634,54.186a19.421,19.421,0,0,1,7.637,4.438c1,.946,1.72,2.322,2.752,3.182q1.462,2.494.258-3.853L152,56.595h.55a22.036,22.036,0,0,1-2.357-.74,7.743,7.743,0,0,0-4.111,14.931c5.16,1.72,10.871,1.858,15.12-2.013a11.2,11.2,0,0,0,2.718-13.933A35.16,35.16,0,0,0,143.8,39.359c-9.512-3.027-13.589,11.9-4.111,14.931Z" transform="translate(12.426 -29.061)" fill="#632b46"/>
        <path id="Caminho_1349" data-name="Caminho 1349" d="M147.733,58.78c3.251,2.838,6.193,3.44,8.205,7.4A67.19,67.19,0,0,1,160.359,79.3c2.6,9.616,17.528,5.539,14.931-4.111a85.509,85.509,0,0,0-5.935-16.84,25.563,25.563,0,0,0-4.214-6.244c-1.944-1.927-4.541-2.546-6.5-4.266-7.483-6.519-18.475,4.386-10.94,10.957Z" transform="translate(20.255 -24.108)" fill="#632b46"/>
        <path id="Caminho_1350" data-name="Caminho 1350" d="M154.274,64.911c.5,2.873,1.6,5.315,1.411,8.291s-1.565,5.384-.774,8.222a8.36,8.36,0,0,0,9.925,5.728A8.257,8.257,0,0,0,170,83.437c.447-.705,1.909-3.991.826-2.081,4.971-8.6-8.394-16.462-13.366-7.827-.43.74-1.978,3.922-.826,2.1l4.627-3.475h-.5l5.969.774-.4-.31,3.836,6.691c.1.826.224.6.344-.688s.361-2.116.482-3.182a27.523,27.523,0,0,0,.206-4.61,85.781,85.781,0,0,0-1.944-10.1c-.722-4.128-5.78-6.451-9.53-5.419-4.352,1.2-6.124,5.384-5.4,9.53Z" transform="translate(26.736 -17.458)" fill="#632b46"/>
        <path id="Caminho_1351" data-name="Caminho 1351" d="M157.758,89.042c1.6-.447-1.5,0,0,0a12.716,12.716,0,0,0,1.617,0,11.68,11.68,0,0,0,5.573-1.72,15.31,15.31,0,0,0,5.264-6.365c1.72-3.647,1.135-8.6-2.769-10.6-3.44-1.823-8.738-1.118-10.6,2.787a14.775,14.775,0,0,1-.929,1.72c-.138.224-.74,1.135,0,.1.4-.482.447-.568.172-.292s-.172.224.74-.55c.361-.224,1.634-.791,2.064-.55a3.837,3.837,0,0,0-1.084,0,16.377,16.377,0,0,0-4.18.516,7.746,7.746,0,0,0,4.128,14.931Z" transform="translate(22.255 -7.134)" fill="#632b46"/>
        <path id="Caminho_1352" data-name="Caminho 1352" d="M151.7,102.6c6.4,0,7.087-9.8,7.207-14.295,0-2.615,1.084-6.881-.688-9.134-2.185-2.735-6.691-.894-9.547-2.013a2.615,2.615,0,0,0-3.165,1.72c-.826,1.961.464,3.991,1.29,5.728,1.72,3.6,3.767,6.967,2.3,11.043-1.118,3.131,3.87,4.49,4.988,1.376a13.176,13.176,0,0,0,0-8.756c-.482-1.5-4.077-6.881-3.6-8.016l-3.148,1.858a9.891,9.891,0,0,0,4.627.774c.1,0,2.649-.808,2-1.049a21.157,21.157,0,0,1,0,3.578c0,1.875,0,3.767-.172,5.642,0,.877-.688,6.347-1.961,6.365a2.58,2.58,0,0,0,0,5.16Z" transform="translate(20.31 -1.615)" fill="#632b46"/>
        <path id="Caminho_1353" data-name="Caminho 1353" d="M154.7,87.635c-1.5-2.2-.688-5.436-1.376-7.947a2.585,2.585,0,1,0-4.988,1.359c.877,3.131,0,6.347,1.909,9.2S156.578,90.387,154.7,87.635Z" transform="translate(22.471 -1.1)" fill="#632b46"/>
        <path id="Caminho_1354" data-name="Caminho 1354" d="M58.9,89.312c4.816,2.064,11.37,5.814,15.481.619,2.976-3.716,4.558-12.334,2.271-16.617a2.58,2.58,0,0,0-2.787-1.187c-2.288.757-2.563,2.477-3.337,4.61-1.066,2.924-3.87,7.6-3.32,10.682.464,2.666,2.787,3.75,4.988,4.885,3.148,1.617,3.44,1.445,4.558,4.954a23.051,23.051,0,0,0,1.892,6,2.632,2.632,0,0,0,2.924,1.187c4.232-1.72,8.756-6.5,11.611-9.977,3.32-4.008,3.956-9.65,3.2-14.69-1.359-9.048-15.309-8.824-21.536-4.816a2.683,2.683,0,0,0-1.187,2.907c.413,2,.86,2,2.03,3.63a8.033,8.033,0,0,1,3.234,5.419c-2.374-.585-3.44.6-2.907,3.578l5.16.688-1.72,3.544,5.057.688V93.234l-5.16-.671a19.4,19.4,0,0,1,.241,4.352,2.6,2.6,0,0,0,4.8,1.307c1.72-2.339,3.268-4.7,4.782-7.1l-4.8-1.961-.722,3.44a2.6,2.6,0,0,0,4.713,2,33.028,33.028,0,0,0,2.89-4.782L86.435,88.5v1.72a2.6,2.6,0,0,0,4.816,1.29,21.365,21.365,0,0,0,2.167-5.453A2.6,2.6,0,0,0,88.757,84l-1.29,1.72,4.713.619-.086-2.941c.43-2.615-3.44-4.92-4.713-2a5.3,5.3,0,0,1-2.15,2.993l4.318,1.135a9.409,9.409,0,0,1,.636-6.33l-5.074-.688-1.72,5.625,4.318,1.135.327-4.644-4.713-.6A6.227,6.227,0,0,1,82.7,86.9l3.2-.413c-1.067-.55.671-9.151.774-9.6l-4.713.6,1.393-.327-2.615,2.58,2.443-1.565L82.771,81.3c.671-.619,5.556.981,6.313,1.2a2.615,2.615,0,0,0,2.924-1.187l.447-.86-3.544.929a3.612,3.612,0,0,0,3.87-.155L89,79.679l.619,2.976a2.615,2.615,0,0,0,4.816,1.307l1.2-1.72L90.89,80.195l-.808,1.927,4.8,1.307a11.422,11.422,0,0,1,.843-4.593c1.015-3.182-3.922-4.507-4.971-1.376l-3.7-.482L83.27,79.9l1.909,3.028L89.5,81.794,88.671,81c-2.425-2.271-6.072,1.376-3.647,3.664l.826.774a2.615,2.615,0,0,0,4.318-1.135c.98-3.44.74-10.2-4.352-10.218-4.077,0-5.47,5.573-4.507,8.6S86.177,88.176,89,85.407c3.44-3.337,0-8.205-3.131-10.029a2.6,2.6,0,0,0-3.784,2.907c2.7,7.947,10.889,8.738,13.641.482l-4.971-1.376a21.642,21.642,0,0,0-1.032,5.986,2.6,2.6,0,0,0,4.816,1.307A16.136,16.136,0,0,0,95.862,81.5c.912-2.907-3.148-4.318-4.713-1.978l-1.221,1.72,4.816,1.29a17.7,17.7,0,0,0-.808-4.335,2.6,2.6,0,0,0-3.784-1.548l1.325.155a2.632,2.632,0,0,0-3.44.929l-.447.86,2.907-1.187c-3.3-.98-8.48-2.6-11.336.12a2.649,2.649,0,0,0-.4,3.131c1.445,2.666,6.107,3.526,7.758.4C88.5,77.27,83.8,74.6,80.776,74.467a2.58,2.58,0,0,0-2.58,2.58c.241,3.165,1.72,9.943,6.468,8.6s3.578-7.9,1.72-10.837a2.615,2.615,0,0,0-4.713.619c-.894,3.956-3.045,13.022,1.583,15.481a2.7,2.7,0,0,0,3.131-.4c3.44-2.8,3.268-8.188,1.944-11.938-.671-1.892-3.7-2.787-4.713-.619a11.3,11.3,0,0,0-.86,8.6,2.615,2.615,0,0,0,4.318,1.135,12.041,12.041,0,0,0,3.251-9.272,2.58,2.58,0,0,0-5.057-.671,16.29,16.29,0,0,0-.636,9.065,2.6,2.6,0,0,0,4.3,1.135A10.2,10.2,0,0,0,91.836,84l-4.713-1.978a11.818,11.818,0,0,0,.086,5.694c.482,2.408,3.44,2.219,4.713.619l1.29-1.72L88.482,84.6a10.906,10.906,0,0,1-1.72,4.232l4.8,1.307v-1.72c0-2.408-3.612-3.7-4.8-1.29a32.857,32.857,0,0,1-2.89,4.765l4.73,2,.705-3.44a2.6,2.6,0,0,0-4.713-2c-1.514,2.425-3.113,4.782-4.782,7.1l4.816,1.307a19.4,19.4,0,0,0-.206-4.266c-.275-2.649-4.455-3.8-5.057-.688a9.856,9.856,0,0,0-.258,3.544c.224,2.683,4.541,3.767,5.16.688s1.307-9.392-2.683-10.751c-3.681-1.239-5.367,3.062-5.659,5.831-.327,3.062,4.146,3.251,5.074.688,1.032-2.89,2.529-10.631-2.718-10.51-4.713.12-5.023,7.242-3.1,10.149,2.322,3.44,6.244,1.823,7.982-1.445a8.893,8.893,0,0,0,.533-7.07c-.98-2.477-4.679-4.2-5.143-6.537L77.3,79.421c1.411-.929,10.527-2.58,12.488-1.153s1.6,4.713,1.462,6.588c-.292,4.008-2.253,6.261-4.92,9-1.514,1.548-4.283,4.834-6.3,5.625l2.907,1.187c-2.546-3.974-.912-8.945-5.487-11.594-2.339-1.359-4.593-1.153-4.782-3.44,0-.5,2.873-8.6,2.408-8.463L72.158,75.98c.946,1.72,0,6.743-.774,8.222-2.769,4.868-6.021,2.391-9.96.705-3.01-1.29-5.642,3.165-2.6,4.455Z" transform="translate(-42.9 -5.219)" fill="#632b46"/>
        <path id="Caminho_1355" data-name="Caminho 1355" d="M85,85.456c19.231-4.094,38.841-4.541,58.486-4.73,16.806-.155,36.123,4.558,49.885,14.518,7.19,5.16,14.071-6.743,6.881-11.886-14.587-10.545-35.8-16.376-53.669-16.428-21.846,0-43.864.688-65.366,5.264-8.6,1.841-4.988,15.1,3.664,13.262Z" transform="translate(-29.341 -8.915)" fill="#632b46"/>
        <path id="Caminho_1356" data-name="Caminho 1356" d="M87.149,91.771c3.44-1.548,7.878-.826,11.525-1.909s6.605-3.44,10.321-4.094c7.724-1.428,15.688-2.253,23.48-3.561,8.7-1.479,5.006-14.742-3.664-13.28-8.291,1.411-17.614,1.6-25.648,3.888-4.163,1.17-7.414,3.7-11.8,4.335a40.457,40.457,0,0,0-11.25,2.735c-8.085,3.578-1.084,15.481,6.881,11.886Z" transform="translate(-29.182 -7.558)" fill="#632b46"/>
        <path id="Caminho_1357" data-name="Caminho 1357" d="M122.246,81.694c7.724-.4,16.2,3.853,23.48,6.175S161.6,91.86,165.182,99.636c3.7,8.033,15.481,1.049,11.886-6.881-4.2-9.117-12.781-13.194-21.863-16.221-10.2-3.44-22.121-9.1-32.958-8.6-8.807.482-8.876,14.243,0,13.761Z" transform="translate(-1.029 -8.215)" fill="#632b46"/>
        <path id="Caminho_1358" data-name="Caminho 1358" d="M156.561,94.045a24.237,24.237,0,0,0-6.554-7.9,67.086,67.086,0,0,0-9.994-5.35c-1.978-.963-3.733,2-1.72,2.976,2.8,1.376,5.694,2.632,8.36,4.266a20.23,20.23,0,0,1,6.881,7.741,1.72,1.72,0,0,0,2.976-1.72Z" transform="translate(14.661 0.936)" fill="#632b46"/>
        <path id="Caminho_1359" data-name="Caminho 1359" d="M121.679,77.911c2.443.774,29.071,9.323,28.572,10.889l1.72-1.256c-5.487.189-9.925-3.6-14.346-6.175-4.851-2.838-10.132-5.16-15.172-7.569-1.978-.963-3.733,2-1.72,2.976a159.116,159.116,0,0,1,18.3,9.685c3.578,2.391,8.412,4.679,12.832,4.524a1.72,1.72,0,0,0,1.72-1.256c1.359-4.2-4.782-5.677-7.534-6.777-7.689-3.114-15.481-5.866-23.411-8.36-2.133-.654-3.027,2.666-.929,3.32Z" transform="translate(2.015 -4.105)" fill="#632b46"/>
        <path id="Caminho_1360" data-name="Caminho 1360" d="M122.479,78.33a21.915,21.915,0,0,1,11.8,2.769c1.944,1.084,3.681-1.892,1.72-2.976a25.493,25.493,0,0,0-13.538-3.234c-2.2.1-2.2,3.544,0,3.44Z" transform="translate(2.712 -3.2)" fill="#632b46"/>
        <path id="Caminho_1361" data-name="Caminho 1361" d="M84.61,83.806a40.613,40.613,0,0,0,8.6-.55c2.167-.361,1.256-3.681-.929-3.3a36.417,36.417,0,0,1-7.741.413c-2.2-.1-2.2,3.337,0,3.44Z" transform="translate(-24.596 0.441)" fill="#632b46"/>
        <path id="Caminho_1362" data-name="Caminho 1362" d="M114.665,111.142a8.6,8.6,0,0,1,0,2.821,2.6,2.6,0,0,0,2.58,2.58,2.649,2.649,0,0,0,2.58-2.58,12.781,12.781,0,0,0-.258-4.2,2.587,2.587,0,0,0-4.988,1.376Z" transform="translate(-1.842 20.565)" fill="#f9f9f9"/>
        <path id="Caminho_1363" data-name="Caminho 1363" d="M114.327,112.26a5.952,5.952,0,0,0,.482,1.067c.206.327.1.138,0-.138a2.632,2.632,0,0,0,2.58,2.58,2.566,2.566,0,0,0,2.58-2.58,6.229,6.229,0,0,0-.258-1.393c-.12-.292-.241-.568-.378-.843s-.172-.292-.1,0a2.58,2.58,0,1,0-4.971,1.376Z" transform="translate(-2.089 21.373)" fill="#f9f9f9"/>
        <path id="Caminho_1364" data-name="Caminho 1364" d="M114.449,113.866a7.208,7.208,0,0,0,5.4,3.956,48.971,48.971,0,0,0,7.62,1.72c3.3.292,3.285-4.885,0-5.16a38.623,38.623,0,0,1-4.748-1.256c-1.514-.361-3.148-.4-3.819-1.944-1.307-3.027-5.763-.413-4.455,2.615Z" transform="translate(-2.039 21.985)" fill="#f9f9f9"/>
        <path id="Caminho_1365" data-name="Caminho 1365" d="M122.761,118.761c4.73.98,7.448,1.376,12.041-.5,4.008-1.72,7.087-4.885,11.3-5.831,3.251-.722,1.875-5.694-1.359-4.971-3.7.826-5.659,2.7-8.824,4.558a19.679,19.679,0,0,1-5.745,2.443,14.69,14.69,0,0,1-6-.688c-3.234-.671-4.627,4.3-1.376,4.988Z" transform="translate(2.808 20.221)" fill="#f9f9f9"/>
        <path id="Caminho_1366" data-name="Caminho 1366" d="M127.741,105.072c5.849.808,10.579,4.283,14.639,8.343.791.774,2.013-.447,1.221-1.221-4.249-4.214-9.306-7.93-15.4-8.79-1.084-.138-1.565,1.514-.464,1.72Z" transform="translate(7.254 17.346)" fill="#f9f9f9"/>
        <path id="Caminho_1367" data-name="Caminho 1367" d="M117.331,110.22c.155,1.72-.636,4.18,1.858,4.541a7.345,7.345,0,0,0,6.33-1.823l-1.479-.6c0,1.342-2.511.327-2.959,0a2.477,2.477,0,0,1-.774-1.1c-.189-.705.224-1.72,1-1s2.03-.464,1.2-1.2-2.305-1.428-3.44-.378a3.251,3.251,0,0,0,0,3.939,4.576,4.576,0,0,0,3.888,2.167,2.494,2.494,0,0,0,2.8-2.357.86.86,0,0,0-1.462-.619,4.834,4.834,0,0,1-3.7,1.359c-.826,0-1.479,0-1.72-.963-.1-.568.155-1.29.1-1.892-.1-1.084-1.823-1.1-1.72,0Z" transform="translate(0.154 20.747)" fill="#f9f9f9"/>
        <path id="Caminho_1368" data-name="Caminho 1368" d="M120.416,116.221c5.608.774,15.069,2.443,19.747-1.909a4.576,4.576,0,0,0,0-7,6.055,6.055,0,0,0-7.466.241c-3.44,2.649,0,8.6,3.44,5.952,1.17-.585.826-1.2-1.066-1.841l.344-2.649c-1.049,2.408-11.129.86-13.245.585-4.335-.6-6.21,6.021-1.823,6.623Z" transform="translate(0.577 19.322)" fill="#f9f9f9"/>
        <path id="Caminho_1369" data-name="Caminho 1369" d="M127.275,109.346a50.125,50.125,0,0,0,5.47,2.253c1.927.843,2.873,2.632,5.264,2.494a3.526,3.526,0,0,0,3.44-3.44,3.44,3.44,0,0,0-3.44-3.44c.516,0,1.084.654.327-.1a8.943,8.943,0,0,0-1.118-.877,11.784,11.784,0,0,0-2.477-1.2,25.8,25.8,0,0,1-3.991-1.617c-3.853-2.2-7.311,3.75-3.44,5.935Z" transform="translate(6.173 17.011)" fill="#f9f9f9"/>
        <path id="Caminho_1370" data-name="Caminho 1370" d="M135.464,112.781c4.421,0,4.438-6.881,0-6.881S131.025,112.781,135.464,112.781Z" transform="translate(10.868 19.149)" fill="#f9f9f9"/>
        <path id="Caminho_1371" data-name="Caminho 1371" d="M136.274,113.661c4.421,0,4.438-6.881,0-6.881S131.835,113.661,136.274,113.661Z" transform="translate(11.451 19.783)" fill="#f9f9f9"/>
        <path id="Caminho_1372" data-name="Caminho 1372" d="M134.811,109.281c-2.116,1.978-5.866,2.081-8.6,2.58a3.44,3.44,0,0,0-2.408,4.232,3.526,3.526,0,0,0,4.232,2.408c4.2-.774,8.377-1.307,11.611-4.352s-1.634-7.9-4.868-4.868Z" transform="translate(4.778 20.895)" fill="#f9f9f9"/>
        <path id="Caminho_1373" data-name="Caminho 1373" d="M88.371,112.282c-.619,1.084-.275.963,1.015-.361.585-.413,1.187-.791,1.72-1.135a36.129,36.129,0,0,1,3.44-1.892c2.425-1.049,5.16-1.239,7.655-2.064,2.1-.688,1.187-4.008-.912-3.32-3.44,1.152-6.881,1.531-10.115,3.268-1.858,1.015-6.451,2.855-6.365,5.5a1.72,1.72,0,1,0,3.44,0Z" transform="translate(-23.214 17.36)" fill="#f9f9f9"/>
        <path id="Caminho_1374" data-name="Caminho 1374" d="M87.657,111.69a7.621,7.621,0,0,1,3.612,1.617c1.2.74,2.374,1.5,3.544,2.288,1.841,1.239,3.561-1.72,1.72-2.976-2.529-1.72-5.711-4.4-8.893-4.369a1.72,1.72,0,1,0,0,3.44Z" transform="translate(-22.414 20.842)" fill="#f9f9f9"/>
        <path id="Caminho_1375" data-name="Caminho 1375" d="M87.158,113.16c8.48,4.335,38.411,15.051,34.592-4.421-.43-2.167-3.75-1.256-3.32.912,2.718,13.864-24.6,3.062-29.535.533-1.961-1-3.7,1.961-1.72,2.976Z" transform="translate(-22.139 20.301)" fill="#f9f9f9"/>
        <path id="Caminho_1376" data-name="Caminho 1376" d="M107.236,111.712c-.1-.361,0-.12-.189.12a6.606,6.606,0,0,1-.464.843,1.393,1.393,0,0,1-1.032.636,1.721,1.721,0,1,0,.912,3.32,4.782,4.782,0,0,0,3.045-2.167,4.713,4.713,0,0,0,1.049-3.664,1.721,1.721,0,0,0-3.32.912Z" transform="translate(-9.189 21.766)" fill="#f9f9f9"/>
        <path id="Caminho_1377" data-name="Caminho 1377" d="M116.938,110.9c-6.468,9.7-19.438,1.841-26.749-2.391v2.976c.877-.6,5.9-3.44,7.053-2.8l-.791-1.944c-1.72,1.135-2.047,1.927-.808,2.357.894.31,1.221,1.015,1.032,2.133l2.357.619.464,1.823h3.32L101.1,111.5v2.425l3.028,1.479,1.2-2.116-3.3-.172,1.479,2.6c.74-1.29,6.451-1.187,7.62-1.1l-1.221-2.941-2.7,1.342.912,3.32a50.927,50.927,0,0,1,7.328-1.72L113.5,112.1l-.258.344c-1.032,1.376.98,3.268,2.357,2.339a33.5,33.5,0,0,1,4.335-2.46l-2.1-2.7-.224.344c-1.531,1.6.894,4.025,2.425,2.425l.275-.275a1.72,1.72,0,0,0-2.081-2.7,29.916,29.916,0,0,0-4.335,2.46l2.357,2.339.258-.344c1.015-1.342-.654-2.718-1.944-2.511a48.676,48.676,0,0,0-7.328,1.72,1.721,1.721,0,0,0,.912,3.32,8.464,8.464,0,0,0,4.214-2.236,1.72,1.72,0,0,0-1.2-2.924c-2.907-.206-8.91,0-10.579,2.8a1.72,1.72,0,0,0,1.479,2.58c3.148.1,6.347-3.045,1.944-4.748a1.72,1.72,0,0,0-1.72.43c-2.8,2.425,1.583,5.16,3.939,4.369a1.72,1.72,0,0,0,1.2-2.116c-.6-3.44-6.175-5.367-8.79-2.993a1.72,1.72,0,0,0,0,2.425c1.944,2.322,6.709.464,5.04-2.615-1.841-3.44-5.384.43-4.283,3.268.568,1.462,2.907,1.72,3.32,0,1.858-8.033-9.426-5.16-6.76-1a1.72,1.72,0,0,0,2.357.619c6.468-3.733-.378-13.314-5.16-6.709-3.63,5.006,5.16,6.881,6.5.155a1.72,1.72,0,0,0-.774-1.927c-2.752-1.72-8.274,1.239-10.527,2.787a1.72,1.72,0,0,0,0,2.976c9.375,5.436,23.738,12.729,31.445,1.152,1.239-1.841-1.72-3.561-2.959-1.72Z" transform="translate(-21.282 18.693)" fill="#f9f9f9"/>
        <path id="Caminho_1378" data-name="Caminho 1378" d="M95.755,108.077a7.949,7.949,0,0,0,1.359.43h-.12a1.6,1.6,0,0,1-.5-1.411,3.165,3.165,0,0,0,0,1.2,2.649,2.649,0,0,0,2.58,2.58,2.555,2.555,0,0,0,2.58-2.58v-.206c-.1.275,0,0,0-.619a3.269,3.269,0,0,0,0-1,3.44,3.44,0,0,0-1.015-1.72,8.033,8.033,0,0,0-3.44-1.548,2.6,2.6,0,0,0-3.165,1.72A2.632,2.632,0,0,0,95.755,108.077Z" transform="translate(-16.63 17.144)" fill="#252e40"/>
        <path id="Caminho_1379" data-name="Caminho 1379" d="M94.539,106.835c3.217,8.6,13,6.537,19.541,3.131,1.479-.757.172-2.993-1.307-2.219-4.765,2.477-13.194,5.16-15.757-1.6C96.448,104.6,93.937,105.27,94.539,106.835Z" transform="translate(-16.274 18.696)" fill="#252e40"/>
        <path id="Caminho_1380" data-name="Caminho 1380" d="M111.558,108.258c-2.993.688-11.835,4.593-12.368-.447v-.843c-.292-1.135,0-1.5,1.1-1.084a8.48,8.48,0,0,1,3.681.946c1.2.43,5.057,1.2,5.556,2.271v-1.29c-.31.722-3.784.568-4.541.671s-1.514.258-2.271.413l-1.135.241c-1.066.327-.808,0,.74-.877l.344-1.256-2.133,1.015.327,1.256,1.1-.361-.327-1.256-.6.464,1.445,1.892a1.514,1.514,0,0,1,1.5-1.066l1.892-1.462-.172-.138.636,1.118v-.241l-.636,1.118-.086-.43,1.72-1.239h-.172l.894.894v-.189l-.327,1.256h-.12l-.894-.894h-4.558a9.1,9.1,0,0,1-4.765-1.428c-1.393-.929-2.683,1.307-1.307,2.219,2.494,1.72,13.882,4.077,13.108-1.531a1.239,1.239,0,0,0-.894-.894c-2.081-.516-4.094,2.425-1.6,3.1a1.307,1.307,0,0,0,1.634-1.256c-.189-4.421-6.588-1.393-3.63.791.929.688,2.2-.447,1.892-1.445-1.032-3.561-4.644-1.617-6.193.464-.671.894.447,2.236,1.462,1.892,1.531-.533,3.44-2.374,1.72-3.87a3.44,3.44,0,0,0-5.057,1.841,1.256,1.256,0,0,0,.327,1.256c1.565,1.325,5.935.447,6.158-1.927.241-2.7-4.008-3.3-5.591-2.064-2.116,1.72-2.408,5.659.826,6.038,2.2.258,4.73-.86,6.881-1.032,1.428-.1,3.44,0,4.421-1.2,2.15-2.787-3.44-4.094-4.9-4.627-2.185-.757-7.913-3.647-9.564-.482-1.411,2.718-.516,6.571,2.322,7.706,4.249,1.72,8.773-.55,12.9-1.5,1.617-.378.946-2.873-.688-2.494Z" transform="translate(-15.524 17.152)" fill="#252e40"/>
        <path id="Caminho_1381" data-name="Caminho 1381" d="M115.963,111.206c2.89,3.767,12.454,5.487,12.609-1.118s-9.461-4.713-12.041-.963a1.29,1.29,0,0,0,1.1,1.944c4.111.138,6.089-3.44,9.719-4.61,2.15-.74,7.672-1.909,5.453,2.443-.688,1.359-6.21,5.367-7.466,2.769-.808-1.72,2.6-2.408,3.647-2.959.292-.138,3.44-1.72,3.337-1.6.55-1.72-2.735-1.462-3.44-1.462a12.592,12.592,0,0,0-9.478,4.2,1.307,1.307,0,0,0,.568,2.167c.757.138,4.73.843,4.834-.258a1.324,1.324,0,0,0,.946,1.256c2.752,1.032,5.952-1.892,8.016-3.44.809-.568.895-2.15-.31-2.357a9.788,9.788,0,0,0-7.5,1.479c-.843.568-.86,2.15.31,2.357a6.967,6.967,0,0,0,5.35-.86,1.3,1.3,0,1,0-1.307-2.236l-3.44.619.31,2.357a7.448,7.448,0,0,1,5.5-1.239l-.31-2.357c-1.239.894-4.386,3.733-6.021,3.113l.946,1.239c.327-3.561-4.937-1.875-6.726-2.236l.568,2.15a9.753,9.753,0,0,1,6.365-3.44c1.5-.155,3.01.206,4.507,0s2.305-.378,2.89-1.841a1.256,1.256,0,0,0-.327-1.256c-1.548-1.359-3.6-.516-5.161.292s-3.268,1.531-4.937,2.253a4.249,4.249,0,0,0-2.133,1.531c-2.873,4.49,4.885,6.124,7.775,4.9s9.358-7.4,5.264-10.562c-1.72-1.342-5.763-.413-7.741,0-3.561.86-6.451,4.937-10.08,4.816l1.118,1.944a5.161,5.161,0,0,1,3.6-2.013c.722-.1,6.313-.55,3.44,2.752-1.445,1.72-6.588,0-7.638-1.273s-3.234,0-2.219,1.307Z" transform="translate(-1.042 16.905)" fill="#252e40"/>
        <path id="Caminho_1382" data-name="Caminho 1382" d="M117.4,115.628a16.771,16.771,0,0,1,4.524,1.875.654.654,0,0,0,.654-1.118,18.767,18.767,0,0,0-4.851-2.013.654.654,0,0,0-.327,1.256Z" transform="translate(-0.039 25.247)" fill="#8f45d6"/>
        <path id="Caminho_1383" data-name="Caminho 1383" d="M118.321,119.639c11.542,5.281,23.429.981,30.808-8.6.516-.671-.6-1.307-1.1-.654-6.881,9.014-18.234,13.159-29.054,8.205-.757-.344-1.411.757-.654,1.118Z" transform="translate(0.677 22.182)" fill="#8f45d6"/>
        <path id="Caminho_1384" data-name="Caminho 1384" d="M130.092,120.436c2.013-1.72,4.472-2.649,6.623-4.146a17.975,17.975,0,0,0,4.438-4.954c.482-.688-.637-1.342-1.118-.654a16.926,16.926,0,0,1-5.59,5.5,36.276,36.276,0,0,0-5.264,3.337c-.637.533.275,1.445.912.912Z" transform="translate(8.585 22.383)" fill="#8f45d6"/>
        <path id="Caminho_1385" data-name="Caminho 1385" d="M146.885,110.5a36.433,36.433,0,0,1-15.481,8.859,22.672,22.672,0,0,1-5.16.877c-1.462-.241-2.924-.447-4.369-.654-.12,0,2.735-.1,2.769-.12l-.344-1.238a5.263,5.263,0,0,0-2.46,1.445c-.55.464,0,1.17.637,1.084,1.548-.241,2.425-1.187,3.991-1.72l-.619-1.084-1.72,1.239a.64.64,0,0,0,.654,1.1,23.858,23.858,0,0,1,3.1-1.583l-.791-1.015a8.171,8.171,0,0,1-2,1.927c-.619.5.172,1.29.774,1.015l4.18-1.892-.791-1.015-2.529,2c-.585.447.172,1.393.774,1.015a34.4,34.4,0,0,1,5.384-2.89l-.636-1.084a15.706,15.706,0,0,1-3.836,2.425l.654,1.118a43,43,0,0,1,6.623-3.079l-.5-1.187c-1.583.929-3.165,1.72-4.816,2.58-.757.361-.1,1.462.654,1.118q6.726-3.148,13.589-6.072l-.654-1.118a55.046,55.046,0,0,1-12.454,6.519c-.757.31-.43,1.565.344,1.256a57.4,57.4,0,0,0,12.764-6.657.654.654,0,0,0-.654-1.118c-4.558,1.961-9.1,3.974-13.589,6.072l.654,1.118c1.72-.809,3.234-1.72,4.816-2.58.619-.361.206-1.445-.5-1.17a47.651,47.651,0,0,0-6.881,3.2c-.722.413-.086,1.5.654,1.118a25.527,25.527,0,0,0,4.094-2.632.646.646,0,0,0-.619-1.084,40.118,40.118,0,0,0-5.694,3.027l.791,1.015,2.529-2c.619-.5-.172-1.29-.774-1.015l-4.18,1.892.791,1.015a8.171,8.171,0,0,0,2-1.927.638.638,0,1,0-.774-1.015,26.346,26.346,0,0,0-3.1,1.6l.654,1.1c.826-.568,1.118-.791,1.909-1.428.516-.413,0-1.256-.636-1.067a34.155,34.155,0,0,1-3.991,1.634l.619,1.084,1.892-1.118a.643.643,0,0,0-.344-1.239c-1.5.206-3.578-.361-5.16-.138a.654.654,0,0,0-.447,1.1c3.079,3.251,9.254,2.46,13.125,1.428a38.376,38.376,0,0,0,16.032-9.2c.6-.568-.31-1.479-.912-.912Z" transform="translate(1.046 22.286)" fill="#8f45d6"/>
        <path id="Caminho_1386" data-name="Caminho 1386" d="M116.429,110.043a13.761,13.761,0,0,1,10.183-6.76c.808,0,.826-1.393,0-1.29a15.1,15.1,0,0,0-11.3,7.4C114.88,110.094,116,110.748,116.429,110.043Z" transform="translate(-1.318 16.331)" fill="#8f45d6"/>
        <path id="Caminho_1387" data-name="Caminho 1387" d="M117.378,108.291c3.1-1.72,6.571-4.214,10.063-4.8.826-.138.464-1.359-.344-1.239a26.782,26.782,0,0,0-6.709,1.841c-.757.31-.43,1.565.344,1.239a27.523,27.523,0,0,1,6.709-1.841l-.344-1.239c-3.647.619-7.139,3.2-10.321,4.92-.722.4,0,1.514.654,1.118Z" transform="translate(-0.41 16.517)" fill="#8f45d6"/>
        <path id="Caminho_1388" data-name="Caminho 1388" d="M119.227,105.891c3.337-1.72,6.691-3.44,10.579-3.2l-.172-1.273a29.069,29.069,0,0,0-4.472,1.342.636.636,0,0,0,.172,1.256h4.455a.654.654,0,0,0,0-1.29H125.4l.172,1.273a28.5,28.5,0,0,1,4.472-1.342c.74-.155.516-1.2-.172-1.256-4.111-.275-7.706,1.5-11.215,3.44-.74.4,0,1.5.636,1.1Z" transform="translate(0.941 15.89)" fill="#8f45d6"/>
        <path id="Caminho_1389" data-name="Caminho 1389" d="M125.335,103.126a24.669,24.669,0,0,1,6.881.1c.808.12,1.153-1.118.344-1.238a25.8,25.8,0,0,0-7.19-.155c-.826,0-.826,1.393,0,1.29Z" transform="translate(5.55 16.092)" fill="#8f45d6"/>
        <path id="Caminho_1390" data-name="Caminho 1390" d="M125.7,103.552a22.792,22.792,0,0,1,14.346,4.18c.688.482,1.342-.636.654-1.1a23.945,23.945,0,0,0-15-4.369C124.874,102.262,124.874,103.586,125.7,103.552Z" transform="translate(5.787 16.509)" fill="#8f45d6"/>
        <path id="Caminho_1391" data-name="Caminho 1391" d="M128,103.133a28.228,28.228,0,0,1,9.53,4.713c.688.464,1.324-.654.654-1.118a29.381,29.381,0,0,0-9.839-4.851C127.532,101.7,127.17,102.943,128,103.133Z" transform="translate(7.55 16.24)" fill="#8f45d6"/>
        <path id="Caminho_1392" data-name="Caminho 1392" d="M118.4,106.433a11.594,11.594,0,0,0,2.494-1.978c.585-.6-.327-1.514-.912-.912a11.87,11.87,0,0,1-2.236,1.72.64.64,0,0,0,.654,1.1Z" transform="translate(0.284 17.309)" fill="#8f45d6"/>
        <path id="Caminho_1393" data-name="Caminho 1393" d="M132.156,168.67c12.764,7.586-3.63,12.351-9.186,12.592a22.878,22.878,0,0,1-8.222-.757c-5.35-1.565-12.351-7.517-5.849-14.037a1.29,1.29,0,0,0-1.823-1.823,10.321,10.321,0,0,0-.929,13.589c3.922,5.591,10.682,5.883,16.823,5.608,5.315-.241,13.142-1.256,16.015-6.605,2.58-4.8-1.72-8.6-5.522-10.8a1.3,1.3,0,1,0-1.307,2.236Z" transform="translate(-9.374 61.206)" fill="#252e40"/>
        <path id="Caminho_1394" data-name="Caminho 1394" d="M83.344,250.4c-.155-8.274-2.546-16.152-3.1-24.375A63.646,63.646,0,0,1,84,201.784c5.986-17.838,20.143-30.154,39.289-30.963a1.29,1.29,0,1,0,0-2.58,44.415,44.415,0,0,0-38.222,24.443,72.677,72.677,0,0,0-7.07,24.426c-1.256,11.319,2.649,22.053,2.873,33.285a1.29,1.29,0,1,0,2.58,0Z" transform="translate(-28.301 64.044)" fill="#252e40"/>
        <path id="Caminho_1395" data-name="Caminho 1395" d="M168.777,244.178c.516-8.962-1.393-17.322-3.285-26.026-2.064-9.5-2.529-19.472-6.038-28.606-5.264-13.761-20.814-18.44-34.214-20.8-1.72-.275-2.322,2.2-.688,2.494A68.289,68.289,0,0,1,147.361,179c7.827,4.593,10.493,12.041,12.265,20.47,2.976,14.105,7.4,30.361,6.571,44.724-.1,1.72,2.477,1.72,2.58,0Z" transform="translate(4.716 64.395)" fill="#252e40"/>
        <path id="Caminho_1396" data-name="Caminho 1396" d="M119.479,169.005c-14.088,3.75-24.34,10.837-30.258,24.5-7.517,17.288-5.16,36.691-5.952,55.045a1.29,1.29,0,1,0,2.58,0c1.256-30.808-2.649-67.189,34.4-77.012a1.294,1.294,0,1,0-.688-2.494Z" transform="translate(-24.323 64.586)" fill="#252e40"/>
        <path id="Caminho_1397" data-name="Caminho 1397" d="M123.762,172.962c12.041,6.055,25.218,13.245,29.38,27.075s5.642,29.243,5.728,43.4a1.29,1.29,0,0,0,2.58,0c-.086-14.776-1.273-32.924-6.76-46.823-5.16-12.936-17.855-19.954-29.621-25.8-1.479-.74-2.787,1.479-1.307,2.236Z" transform="translate(4.37 65.79)" fill="#252e40"/>
        <path id="Caminho_1398" data-name="Caminho 1398" d="M107.477,158.489l-.5,11.611c-.138,3.182-.636,6.743.654,9.77,1.858,4.386,6.365,5.074,10.7,4.765,13.761-.981,13.624-16.066,13.761-26.766a1.29,1.29,0,0,0-2.58,0c-.138,8.7.636,22.654-10.613,24.082-3.733.464-7.6.482-9.254-4.077-.722-1.978-.241-4.834-.155-6.881.155-4.163.344-8.326.533-12.506a1.29,1.29,0,1,0-2.58,0Z" transform="translate(-7.4 55.647)" fill="#252e40"/>
        <path id="Caminho_1399" data-name="Caminho 1399" d="M107.552,166.818l.74-.327a1.29,1.29,0,1,0-1.307-2.219l-.74.31a1.29,1.29,0,0,0-.447,1.72,1.307,1.307,0,0,0,1.72.464Z" transform="translate(-8.215 61.028)" fill="#252e40"/>
        <path id="Caminho_1400" data-name="Caminho 1400" d="M118.521,210.508c13.641,7.947,32.511,11.061,46.96,3.114,8.308-4.558,15.378-12.867,21.88-19.575,7.087-7.276,13.658-14.9,17.8-24.254l-2.357-1-.292.912a1.29,1.29,0,0,0,2.357,1c5.16-9.8,7.259-20.487,8.6-31.393,1.066-8.033,2.615-18.629-.482-26.473-2.718-6.881-10.08-16.2-15.825-20.848a13.641,13.641,0,0,0-7.276-2.976c-3.165-.516-6.072-.292-9.117-1.5a74.05,74.05,0,0,1-7.5-4.146c-7.947-4.283-18.285-8.756-27.523-8.721-4.679,0-8.876,1.72-13.28,3.027a33.079,33.079,0,0,1-7.311,1.72c-2.924.258-5.556-.791-8.412-.705a9.8,9.8,0,0,0-5.849,1.927c-3.165,1.944-5.367,4.73-9.082,5.814-4.507,1.325-7.07-.447-11.3-.344-3.114,0-3.2.361-5.315,2.511-4.816,4.868-6,10.682-13.3,13.469a1.307,1.307,0,0,0-.568,2.15c1.17,1.152-2.477,12.918-2.735,15.481a58.091,58.091,0,0,0,.912,17.2,111.81,111.81,0,0,0,12.041,31.565,129.649,129.649,0,0,0,18.027,25.562c4.765,5.16,12.179,14.553,19.249,16.617a1.291,1.291,0,1,0,.671-2.494c-4.352-1.273-9.168-7-12.471-10.166a117.562,117.562,0,0,1-9.151-9.822,130.872,130.872,0,0,1-17.735-28.142c-5.4-11.525-9.788-24.323-9.186-37.224.172-3.44,5.384-17.2,2.219-20.384l-.568,2.167c6.055-2.305,8.377-6.657,12.506-11.233,5.625-6.193,13.022-2.167,19.988-5.367,5.4-2.46,8.154-5.591,14.862-6.055,2.976-.189,5.264.361,8.222-.275,3.853-.843,7.448-2.6,11.267-3.44,6.485-1.6,12.334-.43,18.457,1.72a92.885,92.885,0,0,1,15.481,6.537,38.548,38.548,0,0,0,8.721,4.524c4.49,1.221,8.24.361,12.42,2.907,5.057,3.079,8.859,8.928,12.162,13.761,6.021,8.721,5.9,17.924,4.8,28.279-1.238,11.559-3.268,23.274-8.773,33.629l2.357,1,.292-.912c.447-1.376-1.72-2.339-2.357-1-6.76,15.241-20.539,27.987-33.027,38.721-14.019,12.041-35.005,9.857-50.108,1.084a1.29,1.29,0,0,0-1.359,2.047Z" transform="translate(-35.078 -3.356)" fill="#252e40"/>
        <path id="Caminho_1401" data-name="Caminho 1401" d="M223.269,136.476a23.188,23.188,0,0,0,5.47-11.387c.155-.946-.4-6.881-.1-7.414,1.307-1.978,6.881-.946,9.323-1.927a9.272,9.272,0,0,0,6.227-7.208c.138-.774-.809-4.713-.654-5.281.636-2.288.619-.55,2.185-3.01,6.64-10.459,1.858-19.954-2.821-30.4a23.239,23.239,0,0,0-9.839-10.889A45.775,45.775,0,0,1,222.735,50.9a20.126,20.126,0,0,0-5.694-4.472c-5.367-2.6-11.319-2.787-16.789-5.384s-10.785-4.352-17-3.716c-4.92.516-7.053.826-11.732-.791a28.95,28.95,0,0,0-5.47-1.5c-3.44-.5-7.207.86-10.545.31-2.305-.361-4.18-1.944-6.726-2.133a25.011,25.011,0,0,0-8.05,1.084,42.075,42.075,0,0,1-14.793,1.445A26.955,26.955,0,0,0,111.2,38.289c-7.156,3.6-12.557,10.046-20.367,12.506a51.45,51.45,0,0,0-16.565,7.689C67.628,63.489,65.2,70.68,59.6,76.115c-3.354,3.268-7.483,3.681-9.392,8.738C45.989,96.018,53.42,110.5,63.792,115.111v-2.219l-1.72,1.118a1.324,1.324,0,0,0-.258,2.03,15.206,15.206,0,0,0,12.815,6.089c4.627-.12,7.018,1.187,8.394,6.158.619,2.253.172,3.6,1.72,5.659.98,1.307,3.217,0,2.219-1.307-2.838-3.784.826-10.218-3.612-13.176-1.325-.877-1.927-.722-3.767-.757s-3.991.963-6.021.877c-.258,0-10.459-3.148-8.446-4.472a1.3,1.3,0,0,0,0-2.219c-7.4-3.286-11.439-9.8-12.746-17.649-.86-5.16-.671-9.564,3.664-12.987,1.307-1.032,3.44-1.583,4.61-2.683,3.561-3.268,5.023-8.6,8.119-12.282A42.213,42.213,0,0,1,82.3,56.523c4.3-2.15,8.824-2.494,13.108-4.352,5.849-2.511,10.321-8.05,16.032-11.043,7.672-4.06,13.125-1.72,20.917-2.253,5.16-.31,10.011-3.3,15.206-3.148,5.591.172,6.038,2.064,10.734,1.978,3.286,0,6.726-.619,9.96.344a48.852,48.852,0,0,0,6.4,3.406c4.8.533,9.323-1.875,14.346-1.325,6.158.688,10.424,4.576,16.1,6.193,7.672,2.185,10.648,1.531,16.806,8.1a28.538,28.538,0,0,0,8.738,6.244c7.362,3.956,9.564,9.616,12.041,17.081,2.253,6.691,8.136,18.922-1.72,22.362a1.307,1.307,0,0,0-.895,1.6c3.44,8.962-6.726,12.488-13.366,12.781a1.307,1.307,0,0,0-1.256,1.634,20.177,20.177,0,0,1-4.128,18.578c-1.049,1.273.774,3.113,1.823,1.823Z" transform="translate(-49.002 -33.204)" fill="#252e40"/>
        <path id="Caminho_1402" data-name="Caminho 1402" d="M80.8,109.142c8.687-2.167,16.565-6.881,23.893-11.921s14.26-10.837,21.88-15.481a3.664,3.664,0,0,1,0,2.064c-1.342,6.881-2.855,14.174-7.638,19.335a36.794,36.794,0,0,1-10.665,7.173,147.556,147.556,0,0,1-17.511,7.81,4.035,4.035,0,0,1-5.178-.912c-2.391-2.167-4.937-4.644-5.264-7.844" transform="translate(-26.447 1.75)" fill="#632b46"/>
        <path id="Caminho_1403" data-name="Caminho 1403" d="M81.271,110.007a73.572,73.572,0,0,0,20.332-9.478c3.75-2.443,7.345-5.16,10.957-7.775,2.494-1.841,7.964-7.534,10.889-7.844,2.15-.224,2.047,0,2,2.8a19.37,19.37,0,0,1-1.325,5.16,25.94,25.94,0,0,1-11.37,14.639c-8.412,5.16-27.368,17.374-31.582,1.909a.64.64,0,0,0-1.239.327c4.094,15.1,16.307,7.6,26.043,2.769,12.815-6.33,21.485-15.241,21.468-30.55a.636.636,0,0,0-.963-.55c-14.983,9.667-27.987,22.448-45.55,27.4a.643.643,0,1,0,.344,1.239Z" transform="translate(-26.744 1.453)" fill="#252e40"/>
        <path id="Caminho_1404" data-name="Caminho 1404" d="M160.312,109.523c-8.756-2.236-16.548-6.881-23.876-12.041S122.158,86.644,114.555,82a3.44,3.44,0,0,0,0,2.047c1.325,6.881,2.855,14.191,7.62,19.335a36.692,36.692,0,0,0,10.665,7.173,146.026,146.026,0,0,0,17.511,7.81,5.315,5.315,0,0,0,3.285.4,5.676,5.676,0,0,0,1.909-1.29c2.391-2.167,4.937-4.644,5.247-7.861" transform="translate(-1.904 1.937)" fill="#632b46"/>
        <path id="Caminho_1405" data-name="Caminho 1405" d="M160.692,109.1c-17.546-4.954-30.567-17.821-45.6-27.4a.654.654,0,0,0-.98.568c0,15.309,8.6,24.22,21.468,30.55,9.753,4.816,21.949,12.351,26.043-2.769a.643.643,0,1,0-1.239-.344c-1.084,4.025-5.16,8.377-9.65,8.308-3.01,0-7.448-2.976-10.166-4.232-3.6-1.72-7.19-3.44-10.631-5.332A25.39,25.39,0,0,1,117.894,94.46a25.079,25.079,0,0,1-1.445-5.16c-.344-2.718-1.273-4.421,1.72-4.094,2.735.292,7.466,5.3,9.685,6.881,3.6,2.666,7.173,5.35,10.906,7.844a75.893,75.893,0,0,0,21.571,10.321.643.643,0,0,0,.344-1.239Z" transform="translate(-2.113 1.656)" fill="#252e40"/>
        <path id="Caminho_1406" data-name="Caminho 1406" d="M85.195,113.454c4.283-5.8,11.336-8.257,18.234-9.151,5.556-.722,18.113,2.683,20.195,9.633,3.148,10.579-15.344,9.392-19.713,8.188A58.606,58.606,0,0,1,85.3,112.645c-.636-.5-1.565.4-.912.912,7.534,5.952,17.528,10.562,27.2,10.493,5.969,0,14.553-.378,13.761-8.6-.791-7.242-11.456-12.523-17.976-12.781-8.394-.327-18.131,3.286-23.2,10.166-.5.654.619,1.307,1.118.636Z" transform="translate(-23.77 16.807)" fill="#252e40"/>
        <path id="Caminho_1407" data-name="Caminho 1407" d="M94.135,103.783c-2.89,12.4,14.415,13.658,21.313,7.534.619-.568-.292-1.462-.912-.912-5.763,5.16-21.794,5.057-19.163-6.279C95.563,103.319,94.324,102.975,94.135,103.783Z" transform="translate(-16.73 17.293)" fill="#252e40"/>
        <path id="Caminho_1408" data-name="Caminho 1408" d="M154.891,112.825c-5.074-6.881-14.793-10.493-23.2-10.166-6.605.275-17.2,5.5-17.958,12.781-.894,8.257,7.672,8.6,13.761,8.6,9.667,0,19.661-4.541,27.179-10.493.654-.516-.258-1.411-.912-.912a59.553,59.553,0,0,1-16.617,8.6,26.749,26.749,0,0,1-9.65,1.445c-4.283,0-14.845.568-12.041-8.824,1.72-5.986,13.262-10.08,18.079-9.925,7.4.224,15.877,3.44,20.35,9.444.482.671,1.6,0,1.1-.636Z" transform="translate(-2.435 16.8)" fill="#252e40"/>
        <path id="Caminho_1409" data-name="Caminho 1409" d="M135.49,104.127c2.632,11.284-13.366,11.4-19.145,6.279-.619-.55-1.548.344-.929.912,6.881,6.124,24.2,4.868,21.33-7.534C136.556,102.975,135.3,103.319,135.49,104.127Z" transform="translate(-1.32 17.293)" fill="#252e40"/>
        <path id="Caminho_1410" data-name="Caminho 1410" d="M128,150.684s6.5-.929,21.777-28.589c1.858-1.72,11.043,3.3,1.29,18.371S128.705,161.315,128,151.613Z" transform="translate(7.89 30.58)" fill="#e2d5af" stroke="#252e40" stroke-miterlimit="10" stroke-width="0.5"/>
        <path id="Caminho_1411" data-name="Caminho 1411" d="M144.017,97.649a39.461,39.461,0,0,0,2.7,16.256c.292.774,1.531.43,1.238-.344a38.669,38.669,0,0,1-2.649-15.911.646.646,0,0,0-1.29,0Z" transform="translate(19.396 12.761)" fill="#252e40"/>
        <path id="Caminho_1412" data-name="Caminho 1412" d="M140.39,96.449c0,5.78,3.285,11.594,5.333,16.892.292.757,1.548.43,1.238-.344-1.978-5.16-5.281-10.992-5.281-16.548a.654.654,0,0,0-1.29,0Z" transform="translate(16.813 11.949)" fill="#252e40"/>
        <path id="Caminho_1413" data-name="Caminho 1413" d="M139.949,104.556c5.367.5,10.321-3.354,15.636-1.72.791.258,1.135-.98.344-1.239-5.5-1.72-10.476,2.116-15.98,1.6a.646.646,0,0,0,0,1.29Z" transform="translate(16.05 15.729)" fill="#252e40"/>
        <path id="Caminho_1414" data-name="Caminho 1414" d="M107.284,150.323c6.141-6.107,14.828-2.563,21.519.206.774.31,1.1-.929.344-1.256-4.558-1.875-8.6-3.956-13.606-3.44a14.02,14.02,0,0,0-9.168,3.578c-.6.585.31,1.5.912.912Z" transform="translate(-7.827 47.85)" fill="#252e40"/>
        <path id="Caminho_1415" data-name="Caminho 1415" d="M108.522,132.4a27.521,27.521,0,0,0,.275,6.416,23.308,23.308,0,0,0,2.1,4.627c1.634,3.131,2.959,3.819,6.674,3.44,8.463-.74,5.814-10.768,6.416-16.548a.646.646,0,0,0-1.29,0c-.533,5.16,2.03,14.845-5.591,15.258-3.2.189-4.438-1.5-5.745-4.094-1.583-3.165-1.462-5.763-1.548-9.169a.654.654,0,0,0-1.29,0Z" transform="translate(-6.192 36.304)" fill="#252e40"/>
        <path id="Caminho_1416" data-name="Caminho 1416" d="M110.724,136.382c.533,2.15,2.185,4.283,4.644,3.974a6.726,6.726,0,0,0,4.9-4.283c.258-.791-1-1.135-1.256-.344a5.59,5.59,0,0,1-3.337,3.234c-2,.636-3.3-1.256-3.7-2.924a.654.654,0,0,0-1.256.344Z" transform="translate(-4.559 40.307)" fill="#252e40"/>
        <path id="Caminho_1417" data-name="Caminho 1417" d="M152.048,96.153c9.22-5.281,22.551,0,20.074,11.645-1.325,6.141-4.2,8.6-8.6,12.454A15.327,15.327,0,0,0,159,125.74c-1.462,3.44-.619,12.162-6,12.626-1.634.138-1.72,2.718,0,2.58,5.763-.5,6.347-6.64,7.724-11.181,2.511-8.24,11.078-10.166,13.348-18.475,1.359-5.006,2.752-11.267-1.5-15.017a18.75,18.75,0,0,0-21.88-2.357A1.3,1.3,0,1,0,152,96.153Z" transform="translate(23.768 8.736)" fill="#252e40"/>
        <path id="Caminho_1418" data-name="Caminho 1418" d="M155.175,101.62a3.733,3.733,0,0,1,2.03-3.853,4.92,4.92,0,0,1,3.7.172,4.421,4.421,0,0,1,2.339,6.623c-.4.74.705,1.393,1.1.654a5.763,5.763,0,0,0-3.6-8.6,5.333,5.333,0,0,0-5.161.705,5.16,5.16,0,0,0-1.72,4.73c.172.808,1.411.464,1.256-.344Z" transform="translate(26.471 12.196)" fill="#252e40"/>
        <path id="Caminho_1419" data-name="Caminho 1419" d="M159.171,97.168a24.357,24.357,0,0,1,1.462,11.8c-.275,3.045-3.32,11.732-7.552,11.886-.826,0-.843,1.325,0,1.29,4.008-.155,6.881-5.935,8.068-9.254a24.082,24.082,0,0,0-.86-16.376c-.327-.774-1.445-.1-1.118.654Z" transform="translate(25.503 12.142)" fill="#252e40"/>
        <path id="Caminho_1420" data-name="Caminho 1420" d="M82.153,93.95a19.713,19.713,0,0,0-20.642.757c-6.571,4.094-5.866,9.478-3.956,16.651a13.52,13.52,0,0,0,4.988,7.792c4.834,4.042,7.156,5.161,9.289,11.766,1.445,4.472,2.443,9.65,7.913,10.1,1.72.138,1.72-2.443,0-2.58-5.487-.447-4.937-9.117-6.4-12.626a13.555,13.555,0,0,0-4.214-5.16c-4.7-3.991-8.136-5.986-9.581-12.729C56.918,95.739,71.78,91.094,80.863,96.272a1.291,1.291,0,0,0,1.29-2.236Z" transform="translate(-43.796 8.703)" fill="#252e40"/>
        <path id="Caminho_1421" data-name="Caminho 1421" d="M72.647,101.958c.808-4.128-3.32-6.416-6.881-5.5-4.2,1.067-6.279,4.834-4.06,8.756.4.722,1.514,0,1.1-.654a4.4,4.4,0,0,1,2.752-6.709c2.529-.826,6.554.155,5.849,3.767-.155.808,1.084,1.153,1.239.344Z" transform="translate(-40.5 12.203)" fill="#252e40"/>
        <path id="Caminho_1422" data-name="Caminho 1422" d="M65.252,96.511a23.188,23.188,0,0,0-.912,16.376c1.239,3.44,4.386,9.1,8.5,9.254a.646.646,0,0,0,0-1.29c-4.472-.155-7.672-8.412-8.033-11.886a23.532,23.532,0,0,1,1.548-11.8c.344-.757-.774-1.411-1.1-.654Z" transform="translate(-38.73 12.145)" fill="#252e40"/>
        <path id="Caminho_1423" data-name="Caminho 1423" d="M70.43,121.34h2.718a1.29,1.29,0,0,0,0-2.58H70.43C68.71,118.863,68.71,121.443,70.43,121.34Z" transform="translate(-34.499 28.411)" fill="#252e40"/>
        <path id="Caminho_1424" data-name="Caminho 1424" d="M86.967,109.36s6.4.722,8.6,2.735,5.16-1.393,9.7,0,7.844,2.081,10.837.654,10.631,2.391,8.257,4.868,6.33,19.4.946,23.429-5.16-2.89-3.939-8.979-1.445-14.036-3.612-12.041-2.787,8.05,0,10.218.516,9.289-2.374,7.225-1.445-11.456-7.225-13.624-7.741-10.115-11.766-4.541-.413,21.571,4.851,21.674,11.818,7.328,5.763,8.876S80.947,131.447,86.967,109.36Z" transform="translate(-22.464 21.641)" fill="#8addd9" opacity="0.33"/>
        <path id="Caminho_1425" data-name="Caminho 1425" d="M115.305,117.778c5.16,5.659,12.041,7,19.386,5.883,9.134-1.393,14.191-6.107,18.543-14a.654.654,0,0,0-1.118-.654c-3.561,6.451-7.827,11.336-15.378,12.953s-15.12.912-20.522-5.161c-.568-.619-1.479.292-.912.912Z" transform="translate(-1.381 21.205)" fill="#252e40"/>
        <path id="Caminho_1426" data-name="Caminho 1426" d="M114.923,115.313c2.425-8.807,8.1-13.022,17.2-12.918,7.173.086,15.946,2.7,19.352,9.564.361.74,1.479,0,1.1-.654-3.974-8.05-14.793-10.665-23.1-10.149-9.014.568-13.5,5.16-15.877,13.761a.64.64,0,1,0,1.239.327Z" transform="translate(-2.496 15.688)" fill="#252e40"/>
        <path id="Caminho_1427" data-name="Caminho 1427" d="M115.844,115.363s7.9-1.29,9.358,1.015,6.537-1.359,10.648,0,8.962-8.394,14.226-6.881-13.3,18.922-7.483,29.243c2.942,6.519-5.694,14.381-7.9,7.878s3.991-14.381,1.152-18.475-7.483-5.866-7.276,2.941,4.954,9.53-.1,13.847-.843-10.476-4.524-14.57S112.489,124.858,115.844,115.363Z" transform="translate(-1.455 21.624)" fill="#8addd9" opacity="0.33"/>
        <path id="Caminho_1428" data-name="Caminho 1428" d="M133.9,133.631a26.851,26.851,0,0,0,6.881,6.175.654.654,0,0,0,.654-1.118,25.562,25.562,0,0,1-6.571-5.969c-.533-.636-1.445.292-.912.912Z" transform="translate(12.057 38.31)" fill="#252e40"/>
        <path id="Caminho_1429" data-name="Caminho 1429" d="M137.87,126.873c-.258,1.256,1.583,2.89,2.374,3.681a35.3,35.3,0,0,0,4.61,3.7c.688.482,1.325-.636.654-1.1a40.024,40.024,0,0,1-3.716-2.907,17.529,17.529,0,0,1-1.376-1.393,13.219,13.219,0,0,1-.86-1.084c-.155-.224-.361-.929-.447-.55.172-.809-1.084-1.153-1.239-.344Z" transform="translate(14.981 33.921)" fill="#252e40"/>
        <path id="Caminho_1430" data-name="Caminho 1430" d="M140.729,125.54a.654.654,0,1,0-.548-.645A.654.654,0,0,0,140.729,125.54Z" transform="translate(16.663 32.364)" fill="#252e40"/>
        <path id="Caminho_1431" data-name="Caminho 1431" d="M142.289,126.48a.654.654,0,1,0-.548-.645A.654.654,0,0,0,142.289,126.48Z" transform="translate(17.786 33.041)" fill="#252e40"/>
        <path id="Caminho_1432" data-name="Caminho 1432" d="M141.659,128.25a.654.654,0,1,0-.548-.645.654.654,0,0,0,.548.645Z" transform="translate(17.333 34.316)" fill="#252e40"/>
        <path id="Caminho_1433" data-name="Caminho 1433" d="M140.489,127.29a.654.654,0,1,0-.548-.645A.654.654,0,0,0,140.489,127.29Z" transform="translate(16.49 33.625)" fill="#252e40"/>
        <path id="Caminho_1434" data-name="Caminho 1434" d="M130.739,139.32a.654.654,0,1,0-.548-.645A.654.654,0,0,0,130.739,139.32Z" transform="translate(9.468 42.288)" fill="#252e40"/>
        <path id="Caminho_1435" data-name="Caminho 1435" d="M132.808,140.9v-.1c.378-.74-.74-1.393-1.118-.636v.1C131.329,141,132.43,141.658,132.808,140.9Z" transform="translate(10.496 43.58)" fill="#252e40"/>
        <path id="Caminho_1436" data-name="Caminho 1436" d="M134.729,139.08a.654.654,0,1,0-.548-.645A.654.654,0,0,0,134.729,139.08Z" transform="translate(12.342 42.115)" fill="#252e40"/>
        <path id="Caminho_1437" data-name="Caminho 1437" d="M133.289,137.43a.654.654,0,1,0-.548-.645A.654.654,0,0,0,133.289,137.43Z" transform="translate(11.305 40.927)" fill="#252e40"/>
        <path id="Caminho_1438" data-name="Caminho 1438" d="M80.68,217.87H198.752a1.29,1.29,0,1,0,0-2.58H80.68a1.29,1.29,0,0,0,0,2.58Z" transform="translate(-27.117 97.928)" fill="#252e40"/>
        <path id="Caminho_1439" data-name="Caminho 1439" d="M148.5,213.46a15.583,15.583,0,0,1-.361,4.2c-.361,1.617,2.133,2.322,2.494.688a18.613,18.613,0,0,0,.447-4.885,1.29,1.29,0,1,0-2.58,0Z" transform="translate(22.365 95.681)" fill="#252e40"/>
        <path id="Caminho_1440" data-name="Caminho 1440" d="M143.83,213.82v3.3a1.29,1.29,0,0,0,2.58,0v-3.3a1.29,1.29,0,1,0-2.58,0Z" transform="translate(19.29 95.94)" fill="#252e40"/>
        <path id="Caminho_1441" data-name="Caminho 1441" d="M134.729,177.044l1.514,1.875c.705.86,1.909-.361,1.221-1.221l-1.531-1.875c-.688-.86-1.909.361-1.2,1.221Z" transform="translate(12.583 69.294)" fill="#86012b"/>
        <path id="Caminho_1442" data-name="Caminho 1442" d="M142.66,184.24a.86.86,0,1,0-.86-.86A.86.86,0,0,0,142.66,184.24Z" transform="translate(17.828 74.328)" fill="#86012b"/>
        <path id="Caminho_1443" data-name="Caminho 1443" d="M73.579,63.04c2.271.361,5.04-.912,6.261,1.72a12.248,12.248,0,0,1,.585,7.483c-.224,1.084,1.428,1.548,1.72.464a14.329,14.329,0,0,0-.826-9.048c-1.548-3.2-4.386-1.806-7.207-2.253-1.084-.189-1.548,1.479-.464,1.72Z" transform="translate(-31.696 -12.904)" fill="#632b46"/>
        <path id="Caminho_1444" data-name="Caminho 1444" d="M86.267,80.59c-.894-4.386-.74-12.3,3.681-14.759,3.578-2,8.6-.189,12.282.74L96.554,59.1v1.72l2.271-5.487c-9.719,10.734-27.23,15.034-34.4,28.228C57.73,95.761,69.1,107.3,81.468,105.927c12.041-1.273,21.278-11.25,28.3-20.263,3.767-4.834,7.259-9.908,11.491-14.363a25.544,25.544,0,0,1,7-5.969c3.939-1.72,4.61-.258,7.242,2.959,6.3,7.724,17.2-3.285,10.94-10.94-18.251-22.362-37.4,4.541-49.025,19.18a49.316,49.316,0,0,1-11.25,11.284c-.654.413-6.433,3.888-7.121,2.873-1.152-1.72,7.225-7.018,7.861-7.483,8.154-5.969,24.908-12.729,25.252-24.22a7.844,7.844,0,0,0-5.745-7.345c-9.272-2.357-19.885-3.87-27.66,3.113C70.6,62.1,69.306,74.552,71.388,84.7c1.978,9.753,16.909,5.625,14.931-4.111Z" transform="translate(-39.327 -21.973)" fill="#632b46"/>
      </g>
    </g>
  </g>
</svg>
