<svg xmlns="http://www.w3.org/2000/svg" viewBox="0 0 505.16 154.55"><defs><style>.cls-1,.cls-2{fill:#632b46;}.cls-1{opacity:0.7;}</style></defs><title>Ativo 1</title><g id="Camada_2" data-name="Camada 2"><g id="Layer_1" data-name="Layer 1"><polygon class="cls-1" points="70.42 54.04 87.08 41.01 104.49 54.63 115.68 45.88 126.1 54.04 142.76 41.01 160.17 54.63 171.36 45.88 181.79 54.04 198.44 41.01 215.86 54.63 227.05 45.88 237.47 54.04 254.13 41.01 271.54 54.63 282.73 45.88 293.16 54.04 309.81 41.01 327.23 54.63 338.42 45.88 348.85 54.04 365.5 41.01 382.92 54.63 394.11 45.88 404.54 54.04 421.19 41.01 438.61 54.63 449.8 45.88 460.23 54.04 476.88 41.01 494.3 54.63 505.16 46.14 505.16 44.69 504.73 45.02 487.68 31.69 477.64 39.55 466.84 31.1 449.04 45.02 432 31.69 421.96 39.55 411.15 31.1 393.35 45.02 376.3 31.69 366.26 39.55 355.46 31.1 337.66 45.02 320.62 31.69 310.58 39.55 299.77 31.1 281.97 45.02 264.93 31.69 254.89 39.55 244.09 31.1 226.28 45.02 209.24 31.69 199.2 39.55 188.4 31.1 170.6 45.02 153.56 31.69 143.51 39.55 132.72 31.1 114.92 45.02 97.87 31.69 87.83 39.55 77.03 31.1 59.23 45.02 42.19 31.69 32.15 39.55 28.08 36.36 27.08 37.64 27.08 37.64 48.8 54.63 59.99 45.88 70.42 54.04"/><polygon class="cls-1" points="70.42 99.92 87.08 86.89 104.49 100.51 115.68 91.76 126.1 99.92 142.76 86.89 160.17 100.51 171.36 91.76 181.79 99.92 198.44 86.89 215.86 100.51 227.05 91.76 237.47 99.92 254.13 86.89 271.54 100.51 282.73 91.76 293.16 99.92 309.81 86.89 327.23 100.51 338.42 91.76 348.85 99.92 365.5 86.89 382.92 100.51 394.11 91.76 404.54 99.92 421.19 86.89 438.61 100.51 449.8 91.76 460.23 99.92 476.88 86.89 494.3 100.51 505.16 92.02 505.16 90.56 504.73 90.9 487.69 77.57 477.64 85.42 466.84 76.98 449.04 90.9 432 77.57 421.96 85.42 411.15 76.98 393.35 90.9 376.3 77.57 366.26 85.42 355.46 76.98 337.66 90.9 320.62 77.57 310.58 85.42 299.77 76.98 281.97 90.9 264.93 77.57 254.89 85.42 244.09 76.98 226.28 90.9 209.24 77.57 199.2 85.42 188.4 76.98 170.6 90.9 153.56 77.57 143.51 85.42 132.72 76.98 114.92 90.9 97.87 77.57 87.83 85.42 77.03 76.98 59.23 90.9 42.19 77.57 32.15 85.42 28.08 82.24 27.08 83.52 48.8 100.51 59.99 91.76 70.42 99.92"/><polygon class="cls-1" points="504.73 136.78 487.68 123.45 477.64 131.3 466.84 122.86 449.04 136.78 432 123.45 421.96 131.3 411.15 122.86 393.35 136.78 376.3 123.45 366.26 131.3 355.46 122.86 337.66 136.78 320.62 123.45 310.58 131.3 299.77 122.86 281.97 136.78 264.93 123.45 254.89 131.3 244.09 122.86 226.28 136.78 209.24 123.45 199.2 131.3 188.4 122.86 170.6 136.78 153.56 123.45 143.51 131.3 132.72 122.86 114.92 136.78 97.87 123.45 87.83 131.3 77.03 122.86 59.23 136.78 42.19 123.45 32.15 131.3 28.08 128.12 27.08 129.4 27.08 129.4 59.23 154.55 87.08 132.77 114.91 154.55 142.76 132.77 170.6 154.55 198.44 132.77 226.28 154.55 254.13 132.77 281.97 154.55 309.81 132.77 337.66 154.55 365.5 132.77 393.35 154.55 421.19 132.77 449.04 154.55 476.88 132.77 504.73 154.55 505.16 154.21 505.16 136.44 504.73 136.78"/><polygon class="cls-2" points="42.19 31.69 59.99 17.77 77.03 31.1 87.83 39.55 97.87 31.69 115.67 17.77 132.72 31.1 143.51 39.55 153.56 31.69 171.36 17.77 188.4 31.1 199.2 39.55 209.24 31.69 227.05 17.77 244.09 31.1 254.89 39.55 264.93 31.69 282.73 17.77 299.77 31.1 310.58 39.55 320.62 31.69 338.42 17.77 355.46 31.1 366.26 39.55 376.3 31.69 394.11 17.77 411.15 31.1 421.96 39.55 432 31.69 449.8 17.77 466.84 31.1 477.64 39.55 487.68 31.69 505.16 18.02 505.16 0.26 477.64 21.78 449.8 0 421.96 21.78 394.11 0 366.26 21.78 338.42 0 310.58 21.78 282.73 0 254.89 21.78 227.05 0 199.2 21.78 171.36 0 143.51 21.78 115.68 0 87.83 21.78 59.99 0 32.15 21.78 8.62 3.37 0 14.39 28.08 36.36 32.15 39.55 42.19 31.69"/><polygon class="cls-2" points="42.19 77.57 59.99 63.65 77.03 76.98 87.83 85.42 97.87 77.57 115.67 63.65 132.72 76.98 143.51 85.42 153.56 77.57 171.36 63.65 188.4 76.98 199.2 85.42 209.24 77.57 227.05 63.65 244.09 76.98 254.89 85.42 264.93 77.57 282.73 63.65 299.77 76.98 310.58 85.42 320.62 77.57 338.42 63.65 355.46 76.98 366.26 85.42 376.3 77.57 394.11 63.65 411.15 76.98 421.96 85.42 432 77.57 449.8 63.65 466.84 76.98 477.64 85.42 487.69 77.57 505.16 63.9 505.16 46.14 494.3 54.63 477.64 67.66 460.23 54.04 449.8 45.88 438.61 54.63 421.96 67.66 404.54 54.04 394.11 45.88 382.92 54.63 366.26 67.66 348.85 54.04 338.42 45.88 327.23 54.63 310.58 67.66 293.16 54.04 282.73 45.88 271.54 54.63 254.89 67.66 237.47 54.04 227.05 45.88 215.86 54.63 199.2 67.66 181.79 54.04 171.36 45.88 160.17 54.63 143.51 67.66 126.1 54.04 115.68 45.88 104.49 54.63 87.83 67.66 70.42 54.04 59.99 45.88 48.8 54.63 32.15 67.66 8.62 49.25 0 60.27 28.08 82.24 32.15 85.42 42.19 77.57"/><polygon class="cls-2" points="42.19 123.45 59.99 109.53 77.03 122.86 87.83 131.3 97.87 123.45 115.67 109.53 132.72 122.86 143.51 131.3 153.56 123.45 171.36 109.53 188.4 122.86 199.2 131.3 209.24 123.45 227.05 109.53 244.09 122.86 254.89 131.3 264.93 123.45 282.73 109.53 299.77 122.86 310.58 131.3 320.62 123.45 338.42 109.53 355.46 122.86 366.26 131.3 376.3 123.45 394.11 109.53 411.15 122.86 421.96 131.3 432 123.45 449.8 109.53 466.84 122.86 477.64 131.3 487.68 123.45 505.16 109.78 505.16 92.02 494.3 100.51 477.64 113.54 460.23 99.92 449.8 91.76 438.61 100.51 421.96 113.54 404.54 99.92 394.11 91.76 382.92 100.51 366.26 113.54 348.85 99.92 338.42 91.76 327.23 100.51 310.58 113.54 293.16 99.92 282.73 91.76 271.54 100.51 254.89 113.54 237.47 99.92 227.05 91.76 215.86 100.51 199.2 113.54 181.79 99.92 171.36 91.76 160.17 100.51 143.51 113.54 126.1 99.92 115.68 91.76 104.49 100.51 87.83 113.54 70.42 99.92 59.99 91.76 48.8 100.51 32.15 113.54 8.62 95.13 0 106.15 28.08 128.12 32.15 131.3 42.19 123.45"/></g></g></svg>