<?xml version="1.0" encoding="UTF-8" standalone="no"?>
<svg
   xmlns:dc="http://purl.org/dc/elements/1.1/"
   xmlns:cc="http://creativecommons.org/ns#"
   xmlns:rdf="http://www.w3.org/1999/02/22-rdf-syntax-ns#"
   xmlns:svg="http://www.w3.org/2000/svg"
   xmlns="http://www.w3.org/2000/svg"
   xmlns:sodipodi="http://sodipodi.sourceforge.net/DTD/sodipodi-0.dtd"
   xmlns:inkscape="http://www.inkscape.org/namespaces/inkscape"
   width="1366.501"
   height="195.354"
   viewBox="0 0 1366.501 195.354"
   version="1.1"
   id="svg5"
   sodipodi:docname="nav.svg"
   inkscape:version="1.0 (4035a4fb49, 2020-05-01)">
  <metadata
     id="metadata11">
    <rdf:RDF>
      <cc:Work
         rdf:about="">
        <dc:format>image/svg+xml</dc:format>
        <dc:type
           rdf:resource="http://purl.org/dc/dcmitype/StillImage" />
      </cc:Work>
    </rdf:RDF>
  </metadata>
  <defs
     id="defs9" />
  <sodipodi:namedview
     inkscape:document-rotation="0"
     pagecolor="#ffffff"
     bordercolor="#666666"
     borderopacity="1"
     objecttolerance="10"
     gridtolerance="10"
     guidetolerance="10"
     inkscape:pageopacity="0"
     inkscape:pageshadow="2"
     inkscape:window-width="1366"
     inkscape:window-height="705"
     id="namedview7"
     showgrid="false"
     inkscape:zoom="0.85400598"
     inkscape:cx="1299.2885"
     inkscape:cy="102.15664"
     inkscape:window-x="-8"
     inkscape:window-y="-8"
     inkscape:window-maximized="1"
     inkscape:current-layer="Grupo_19" />
  <g
     id="Grupo_19"
     data-name="Grupo 19"
     transform="translate(0.5 0.5)">
    <path
       sodipodi:nodetypes="csccscccsccccccccccc"
       id="Subtração_9"
       data-name="Subtração 9"
       d="m 820.648,205.353 v 0 c -4.11994,-0.45257 4.05126,0.87521 0,0 -8.93719,-1.97299 -31.18096,-10.06869 -49.12884,-16.53991 C 735.67118,175.55507 721.853,170.267 698.55,161.754 670.265,151.421 644.641,143.327 620.214,137.01 c -26.48809,-6.88629 -53.39677,-12.0392 -80.555,-15.426 -29.99097,-3.65571 -60.18127,-5.43151 -90.394,-5.317 -49.281,0 -105.369,4.187 -171.468,12.8 -19.3,2.515 -38.039,4.409 -55.689,5.63 -16.643,1.15 -32.756,1.734 -47.891,1.735 -16.95982,0.0489 -33.91112,-0.76613 -50.788,-2.442 -13.50103,-1.34372 -26.909623,-3.49355 -40.154,-6.438 C 62.488,122.838 44.6,116.266 30.1,108.018 24.691356,104.97036 19.544132,101.48046 14.711,97.584 11.287706,94.822739 8.1024996,91.778696 5.189,88.484 2.7236304,85.824299 0.64062858,82.834254 -1,79.6 L 9.735,10.5 h 810.913 z"
       transform="translate(545.352,-10.5)"
       fill="#632b46" />
    <path
       id="nuvem_azul"
       data-name="nuvem azul"
       d="m 546.126,148.067 v 0 c -22.767,0 -46.382,-2.794 -72.195,-8.537 -23.8,-5.3 -46.482,-12.465 -65.527,-18.779 -5.671,-1.881 -11.282,-3.774 -16.232,-5.445 l -0.156,-0.053 h -0.007 -0.005 c -34.7,-11.706 -62.19065,-19.323414 -87.34965,-19.323414 -15.738,0 -41.28735,9.876414 -41.28735,9.876414 -13.8,5.031 -27.393,9.452 -40.387,13.139 -12.505,3.549 -24.82,6.519 -36.6,8.828 -11.309,2.217 -22.457,3.888 -33.135,4.967 -9.96299,1.02018 -19.97092,1.5395 -29.986,1.556 h -0.014 C 97.596013,134.44829 72.087995,130.49393 47.689,122.583 37.204683,119.14736 26.943636,115.06452 16.965,110.358 11.487,107.794 5.939,105.01 0,101.844 V 0 h 814.433 c -16.76948,21.22692 -35.59416,40.745965 -56.2,58.273 -15.07918,12.82256 -31.01624,24.600616 -47.7,35.252 -18.8248,11.99409 -38.4829,22.62719 -58.824,31.818 -8.85029,4.01244 -17.91812,7.52659 -27.161,10.526 -8.75737,2.8347 -17.66459,5.18361 -26.681,7.036 -8.64346,1.76875 -17.3738,3.08256 -26.155,3.936 -8.355,0.813 -16.962,1.225 -25.582,1.225 z"
       fill="#252d40"
       stroke="#252d40"
       stroke-width="1"
       sodipodi:nodetypes="csccccccsccccscccccccccccccc" />
  </g>
</svg>
