<?xml version="1.0" encoding="UTF-8" standalone="no"?>
<svg
   xmlns:dc="http://purl.org/dc/elements/1.1/"
   xmlns:cc="http://creativecommons.org/ns#"
   xmlns:rdf="http://www.w3.org/1999/02/22-rdf-syntax-ns#"
   xmlns:svg="http://www.w3.org/2000/svg"
   xmlns="http://www.w3.org/2000/svg"
   xmlns:sodipodi="http://sodipodi.sourceforge.net/DTD/sodipodi-0.dtd"
   xmlns:inkscape="http://www.inkscape.org/namespaces/inkscape"
   inkscape:version="1.0 (4035a4fb49, 2020-05-01)"
   sodipodi:docname="nav.svg"
   id="svg5"
   version="1.1"
   viewBox="0 0 1366.501 195.354"
   height="195.354"
   width="1366.501">
  <metadata
     id="metadata11">
    <rdf:RDF>
      <cc:Work
         rdf:about="">
        <dc:format>image/svg+xml</dc:format>
        <dc:type
           rdf:resource="http://purl.org/dc/dcmitype/StillImage" />
      </cc:Work>
    </rdf:RDF>
  </metadata>
  <defs
     id="defs9" />
  <sodipodi:namedview
     inkscape:current-layer="Grupo_19"
     inkscape:window-maximized="1"
     inkscape:window-y="-8"
     inkscape:window-x="-8"
     inkscape:cy="85.683361"
     inkscape:cx="259.77565"
     inkscape:zoom="0.85400598"
     showgrid="false"
     id="namedview7"
     inkscape:window-height="705"
     inkscape:window-width="1366"
     inkscape:pageshadow="2"
     inkscape:pageopacity="0"
     guidetolerance="10"
     gridtolerance="10"
     objecttolerance="10"
     borderopacity="1"
     bordercolor="#666666"
     pagecolor="#ffffff" />
  <g
     transform="translate(0.5 0.5)"
     data-name="Grupo 19"
     id="Grupo_19">
    <path
       fill="#632b46"
       transform="translate(545.352 -10.5)"
       d="M820.648,205.353h0a120.282,120.282,0,0,1-12.265-1.993,149.273,149.273,0,0,1-26.1-8.337c-34.606-14.5-60.43-24.756-83.733-33.269-28.285-10.333-53.909-18.427-78.336-24.744a630,630,0,0,0-80.555-15.426,724.38,724.38,0,0,0-90.394-5.317c-49.281,0-105.369,4.187-171.468,12.8-19.3,2.515-38.039,4.409-55.689,5.63-16.643,1.15-32.756,1.734-47.891,1.735a499.4,499.4,0,0,1-50.788-2.442,340.344,340.344,0,0,1-40.154-6.438C62.488,122.838,44.6,116.266,30.1,108.018A112.554,112.554,0,0,1,14.711,97.584a78.508,78.508,0,0,1-9.522-9.1A39.065,39.065,0,0,1-1,79.6L9.735,10.5H820.648Z"
       data-name="Subtração 9"
       id="Subtração_9" />
    <path
       sodipodi:nodetypes="csccccccsccccscccccccccccccc"
       stroke-width="1"
       stroke="#252d40"
       fill="#252d40"
       d="m 546.126,148.067 v 0 c -22.767,0 -46.382,-2.794 -72.195,-8.537 -23.8,-5.3 -46.482,-12.465 -65.527,-18.779 -5.671,-1.881 -11.282,-3.774 -16.232,-5.445 l -0.156,-0.053 h -0.007 -0.005 c -34.7,-11.706 -62.19065,-19.323414 -87.34965,-19.323414 -15.738,0 -41.28735,9.876414 -41.28735,9.876414 -13.8,5.031 -27.393,9.452 -40.387,13.139 -12.505,3.549 -24.82,6.519 -36.6,8.828 -11.309,2.217 -22.457,3.888 -33.135,4.967 -9.96299,1.02018 -19.97092,1.5395 -29.986,1.556 h -0.014 C 97.596013,134.44829 72.087995,130.49393 47.689,122.583 37.204683,119.14736 26.943636,115.06452 16.965,110.358 11.487,107.794 5.939,105.01 0,101.844 V 0 h 814.433 c -16.76948,21.22692 -35.59416,40.745965 -56.2,58.273 -15.07918,12.82256 -31.01624,24.600616 -47.7,35.252 -18.8248,11.99409 -38.4829,22.62719 -58.824,31.818 -8.85029,4.01244 -17.91812,7.52659 -27.161,10.526 -8.75737,2.8347 -17.66459,5.18361 -26.681,7.036 -8.64346,1.76875 -17.3738,3.08256 -26.155,3.936 -8.355,0.813 -16.962,1.225 -25.582,1.225 z"
       data-name="nuvem azul"
       id="nuvem_azul" />
  </g>
</svg>
