<svg xmlns="http://www.w3.org/2000/svg" viewBox="0 0 142.39 250.28"><defs><style>.cls-1,.cls-5{fill:#252e40;}.cls-1,.cls-2,.cls-3,.cls-4,.cls-6{stroke:#f8f8f8;stroke-miterlimit:10;stroke-width:3px;}.cls-2{fill:#85152f;}.cls-3{fill:#632c46;}.cls-4{fill:#d8d8d8;}.cls-6{fill:none;}.cls-7{fill:#f8f8f8;}</style></defs><title>Ativo 1</title><g id="Camada_2" data-name="Camada 2"><g id="Camada_3" data-name="Camada 3"><path class="cls-1" d="M91.1,108.31a24.38,24.38,0,0,1-2.72.16A21.76,21.76,0,0,1,70.4,99a21.88,21.88,0,0,1-1.61,4.29c-.28.55-.58,1.1-.91,1.62a21.78,21.78,0,0,1-17.34,10.37,21.81,21.81,0,0,0,10.6,12.15l.5.25a21.69,21.69,0,0,0,8.27,2.12h.33c.2,0,.41,0,.61,0,1.67-.07,3.32-.22,5-.44a21.26,21.26,0,0,0,4.74-1.64A21.78,21.78,0,0,0,92.88,108v0C92.29,108.13,91.7,108.23,91.1,108.31Z"/><path class="cls-2" d="M95.3,91.34a7.26,7.26,0,0,0-14-2.58,21.59,21.59,0,0,0-10.16-2.51c-.41,0-.82,0-1.22,0a20.59,20.59,0,0,0-3.27.43,21.59,21.59,0,0,0-4.66,1.54c-.34.16-.67.32-1,.5a7.26,7.26,0,0,0-5.69-4.6,6.71,6.71,0,0,0-1.1-.08,7.28,7.28,0,0,0-5,2A7.24,7.24,0,0,0,47.86,95,7.37,7.37,0,0,0,51,97.87a7.06,7.06,0,0,0,.71.29,21.83,21.83,0,0,0-1.9,14.33,19.9,19.9,0,0,0,.77,2.77,21.78,21.78,0,0,0,17.34-10.37c.33-.52.63-1.07.91-1.62A21.88,21.88,0,0,0,70.4,99a21.76,21.76,0,0,0,18,9.49,24.38,24.38,0,0,0,2.72-.16c.6-.08,1.19-.18,1.78-.3a21.85,21.85,0,0,0-2.36-9.85A7.25,7.25,0,0,0,95.3,91.34Z"/><path class="cls-1" d="M102.46,149.61a36.39,36.39,0,0,0-18-15.48l-.67-.25a36,36,0,0,0-12.71-2.29h-.45l-.75,0a35.9,35.9,0,0,0-11.5,2.27l-.67.25A36.3,36.3,0,0,0,34.8,166.91c0,.33,0,.65,0,1a36.17,36.17,0,0,0,.35,5c0,.14,0,.29,0,.43.1.6.2,1.2.32,1.79s.25,1.18.41,1.76l.74-1.42,1.91-3.66,7.25-13.87L58.1,134.43A21.68,21.68,0,0,0,68,138.5c.42.06.85.11,1.29.14a18,18,0,0,0,1.81.08,21.7,21.7,0,0,0,13-4.29l12.28,23.51,9.16,17.53.74,1.42c.15-.58.29-1.17.41-1.76a36.73,36.73,0,0,0,.72-7.24A36.08,36.08,0,0,0,102.46,149.61Z"/><path class="cls-3" d="M114.2,192.07a111.42,111.42,0,0,1-86.23,0l7.56-14.48.39-.73.74-1.43,1.91-3.65,7.25-13.88L58.1,134.43A21.68,21.68,0,0,0,68,138.5c.42.07.85.11,1.28.14.6.06,1.21.08,1.82.08a21.7,21.7,0,0,0,13-4.29l12.27,23.51,9.17,17.53.74,1.43Z"/><path class="cls-1" d="M106,27.73c0-.09,0-.19-.08-.29a36.31,36.31,0,0,0-64.37-10.7,35.18,35.18,0,0,0-3,4.93A36.09,36.09,0,0,0,34.79,37.8,36.69,36.69,0,0,0,35,41.89,36.24,36.24,0,0,0,70.6,74.1h.49A36.14,36.14,0,0,0,94.3,65.72,36.71,36.71,0,0,0,98,62.16a36.11,36.11,0,0,0,9.16-20.27A36.43,36.43,0,0,0,106,27.73Z"/><path class="cls-4" d="M110.24,111.65c-.18-1.32-.4-2.62-.67-3.91a56.91,56.91,0,0,0-2.8-9.37,58.11,58.11,0,0,0-15.52-22.2,36.1,36.1,0,0,1-20.16,6.11c-1.07,0-2.14,0-3.2-.14l-.79-.08A35.86,35.86,0,0,1,53,77.44c-.69-.4-1.37-.82-2-1.27-.76.67-1.49,1.36-2.2,2.07q-.78.75-1.5,1.53c-.19.19-.36.38-.54.57a58.25,58.25,0,0,0-11,17.22c-.59,1.42-1.11,2.86-1.58,4.33l.36.52c.68,1,1.34,2,1.95,3.1a56.91,56.91,0,0,1,3.84,7.84c.22.55.43,1.11.64,1.66a58,58,0,0,1,2.27,8,58.18,58.18,0,0,1-11.73-6.67c0,.16,0,.32,0,.48,0,.93-.07,1.85-.07,2.79a57.9,57.9,0,0,0,8.32,30,36,36,0,0,1,4-5.55,36.55,36.55,0,0,1,14-9.93l.67-.25a35.9,35.9,0,0,1,11.5-2.27l.75,0h.45a36,36,0,0,1,12.71,2.29l.67.25a36.39,36.39,0,0,1,18,15.48,58.12,58.12,0,0,0,7.78-38Zm-29.69,16a21.26,21.26,0,0,1-4.74,1.64,21.6,21.6,0,0,1-4.72.51h-.86l-.32,0a21.69,21.69,0,0,1-8.27-2.12l-.5-.25a21.81,21.81,0,0,1-10.6-12.15,19.9,19.9,0,0,1-.77-2.77,21.83,21.83,0,0,1,1.9-14.33,7.06,7.06,0,0,1-.71-.29A7.37,7.37,0,0,1,47.86,95a7.24,7.24,0,0,1,1.24-8.83,7.28,7.28,0,0,1,5-2,6.71,6.71,0,0,1,1.1.08,7.26,7.26,0,0,1,5.69,4.6c.33-.18.66-.34,1-.5a21.59,21.59,0,0,1,4.66-1.54,20.59,20.59,0,0,1,3.27-.43c.4,0,.81,0,1.22,0a21.59,21.59,0,0,1,10.16,2.51,7.26,7.26,0,1,1,9.27,9.4A21.85,21.85,0,0,1,92.88,108v0a21.8,21.8,0,0,1-12.33,19.63Z"/><path class="cls-5" d="M48.74,78.24c-.51.5-1,1-1.5,1.53a14.49,14.49,0,0,0-9.11-3.21,14,14,0,0,0-2.83.28A14.53,14.53,0,0,0,23.63,90.33c1.36,1.14,2.66,2.33,3.91,3.59s2.27,2.38,3.33,3.64,2.27,2.83,3.3,4.33l.35.52c.69,1,1.34,2,2,3.1a58.08,58.08,0,0,1,3.84,7.84c.22.55.43,1.11.63,1.66a56.7,56.7,0,0,1,2.28,8,57.91,57.91,0,0,1-11.73-6.67c-.77-.56-1.52-1.14-2.25-1.73A58,58,0,0,1,9,81.4s0,0,0,0c-.24-1.16-.45-2.32-.62-3.5,0-.12,0-.25,0-.38a58.22,58.22,0,0,1-.55-8c0-1.11,0-2.21.1-3.3,1-.09,2-.15,3-.19.72,0,1.45,0,2.18,0a58.48,58.48,0,0,1,13.78,1.64,55.81,55.81,0,0,1,6.06,1.83,59.17,59.17,0,0,1,8.37,3.82q1.8,1,3.51,2.13c.5.31,1,.64,1.47,1C47.08,77,47.92,77.59,48.74,78.24Z"/><path class="cls-6" d="M35.3,76.84a14,14,0,0,1,2.83-.28,14.49,14.49,0,0,1,9.11,3.21c.48-.52,1-1,1.5-1.53-.82-.65-1.66-1.26-2.51-1.86-.49-.34-1-.67-1.47-1q-1.71-1.12-3.51-2.13a59.17,59.17,0,0,0-8.37-3.82,55.81,55.81,0,0,0-6.06-1.83A58.48,58.48,0,0,0,13,66c-.73,0-1.46,0-2.18,0-1,0-2,.1-3,.19-.06,1.09-.1,2.19-.1,3.3a58.22,58.22,0,0,0,.55,8c0,.13,0,.26,0,.38.17,1.18.38,2.34.62,3.5,0,0,0,0,0,0a58,58,0,0,0,20.27,33.23c.73.59,1.48,1.17,2.25,1.73A57.91,57.91,0,0,0,43.23,123,56.7,56.7,0,0,0,41,115c-.2-.55-.41-1.11-.63-1.66a58.08,58.08,0,0,0-3.84-7.84c-.62-1.05-1.27-2.09-2-3.1l-.35-.52q-1.55-2.25-3.3-4.33-1.59-1.89-3.33-3.64c-1.25-1.26-2.55-2.45-3.91-3.59A14.53,14.53,0,0,1,35.3,76.84Z"/><path class="cls-1" d="M106.78,76.74a14,14,0,0,0-2.83-.28,14.49,14.49,0,0,0-9.11,3.21q-.74-.78-1.5-1.53c.82-.65,1.66-1.26,2.51-1.86.49-.34,1-.67,1.47-1,1.14-.75,2.31-1.45,3.51-2.12a58.07,58.07,0,0,1,8.37-3.82,55.81,55.81,0,0,1,6.06-1.83A58.42,58.42,0,0,1,129,65.87c.73,0,1.45,0,2.18,0,1,0,2,.1,3,.19q.09,1.64.09,3.3a58.34,58.34,0,0,1-.54,8c0,.13,0,.26-.05.38-.17,1.18-.38,2.34-.62,3.5,0,0,0,0,0,0a58,58,0,0,1-20.27,33.23c-.74.59-1.48,1.17-2.25,1.73a57.91,57.91,0,0,1-11.73,6.67,56.7,56.7,0,0,1,2.28-8c.2-.55.41-1.11.63-1.66a58.08,58.08,0,0,1,3.84-7.84c.62-1,1.27-2.09,2-3.1l.35-.52q1.55-2.25,3.3-4.33,1.59-1.89,3.33-3.64c1.25-1.26,2.55-2.45,3.91-3.59A14.53,14.53,0,0,0,106.78,76.74Z"/><path class="cls-7" d="M64.41,52.38a7.26,7.26,0,1,1-10.81-9,7.26,7.26,0,0,0,6.59,10.31A7.16,7.16,0,0,0,64.41,52.38Z"/><path class="cls-7" d="M77.78,52.38a7.26,7.26,0,1,0,10.81-9A7.26,7.26,0,0,1,82,53.74,7.14,7.14,0,0,1,77.78,52.38Z"/><path class="cls-7" d="M67.32,111.27a7.26,7.26,0,1,1-12.91,6A7.26,7.26,0,0,0,67.53,113,7,7,0,0,0,67.32,111.27Z"/><path class="cls-7" d="M74.87,111.27a7.26,7.26,0,1,0,12.91,6A7.26,7.26,0,0,1,74.66,113,7,7,0,0,1,74.87,111.27Z"/><path class="cls-7" d="M16,228a4.67,4.67,0,0,1-3.71,2.25c-1.54.1-3.22-.62-5-2.08a23.7,23.7,0,0,1-3.6-3.47,4.61,4.61,0,0,1-1.28-2.41,1.76,1.76,0,0,1,.52-1c.35-.41.62-.57.81-.43s.42.39.41.54a.25.25,0,0,1-.13.22.32.32,0,0,0-.13.27,2.49,2.49,0,0,0,.43.74,14.36,14.36,0,0,0,1.35,1.54A18.15,18.15,0,0,0,7.85,226a5.71,5.71,0,0,0,3.81,1.38,3.62,3.62,0,0,0,2.7-1.65,6.29,6.29,0,0,0,1.08-3.34,8.1,8.1,0,0,0-1.39-4.8,23.32,23.32,0,0,0-4.94-5.15c-2.2-1.85-3.9-3.27-5.09-4.31A18,18,0,0,1,1.12,205,5.37,5.37,0,0,1,0,201.83c0-1.47.78-2.7,2.41-4a24.86,24.86,0,0,1,6.12-3.5,18.27,18.27,0,0,1,6.8-1.64c1.06,0,1.62.3,1.67.91a13.42,13.42,0,0,1,0,2c0,.57-.18.84-.48.83a.79.79,0,0,1-.44-.22,4.17,4.17,0,0,0-.45-.33,4.67,4.67,0,0,0-.54-.25,3.1,3.1,0,0,0-.91-.15,12.94,12.94,0,0,0-5,1.1,23.73,23.73,0,0,0-5,2.58c-1.41,1-2.1,1.89-2.11,2.93a4,4,0,0,0,.9,2.48,13.78,13.78,0,0,0,2.44,2.47c1,.82,2.46,1.92,4.33,3.36a24.17,24.17,0,0,1,6,6.08,10.74,10.74,0,0,1,1.76,6.42A9.65,9.65,0,0,1,16,228Z"/><path class="cls-7" d="M37.52,238.79a2.63,2.63,0,0,1,.26,1,4.85,4.85,0,0,1-.5,1.83c-.3.65-.59.92-.86.83-.47-.17-.8-.79-1-1.86a15.44,15.44,0,0,1-.22-3.56c.05-1.12.23-4.47.55-10.07.06-.89.11-1.77.16-2.66a4.65,4.65,0,0,0-.39-2.42c-1.37,3.28-2.63,6-3.8,8.21a19.42,19.42,0,0,1-4.29,5.59,4.23,4.23,0,0,1-5.12.82,4.07,4.07,0,0,1-1.87-2.24,8.41,8.41,0,0,1-.52-3.49,18.06,18.06,0,0,1,1.72-6,64.3,64.3,0,0,1,4.05-7.65,50.06,50.06,0,0,1,4.83-6.74A14.91,14.91,0,0,1,33,207.94a2.53,2.53,0,0,1,1.6-.53,2.07,2.07,0,0,1,1.29.85A6.22,6.22,0,0,1,37,210.37a8.51,8.51,0,0,1,.36,3,11.8,11.8,0,0,1-.86,4l.7-.23q.45.07.45,2c0,.76,0,2.31-.09,4.63s-.1,4.26-.14,5.78-.07,3.1-.1,4.58-.06,2.64-.06,3.51A3.33,3.33,0,0,0,37.52,238.79Zm-10.28-6.18a18,18,0,0,0,3.88-5.1c1.17-2.19,2.49-5,3.94-8.49a18.71,18.71,0,0,0,.68-4.45,6.31,6.31,0,0,0-.39-2.63c-.3-.77-.74-1.19-1.3-1.27s-1.56.56-2.67,1.91a44.81,44.81,0,0,0-4.11,5.89,59.92,59.92,0,0,0-3.68,7A16.77,16.77,0,0,0,22,231c-.06,1.23.28,2,1,2.38A3.66,3.66,0,0,0,27.24,232.61Z"/><path class="cls-7" d="M62.54,208.64a5.3,5.3,0,0,0-.69,1,69.11,69.11,0,0,0-4.2,13,183.15,183.15,0,0,0-3.35,18.13c-.1.76-.28,2.28-.53,4.56L53.5,248a3.91,3.91,0,0,1-.63,1.83,1.45,1.45,0,0,1-1.57.39c-.14,0-.59-1.67-1.32-4.91s-1.5-6.69-2.28-10.37q-.8-3.7-1.57-7.37c-.93-4.41-1.71-7.82-2.33-10.27s-1.09-3.68-1.42-3.72c-.11,0-.2.09-.28.33s-.15.35-.23.34-.25-.15-.34-.38a1.89,1.89,0,0,1-.11-.71,6.92,6.92,0,0,1,.68-2.4c.43-1,.83-1.46,1.21-1.42a.75.75,0,0,1,.6.35,5.07,5.07,0,0,1,.34.7c.1.26.17.46.22.61a115.2,115.2,0,0,1,3,12.18c.51,2.34,1.74,8.42,3.83,18.51.28,1.41.58,2.82.87,4.23,0-1.33.23-3.45.58-6.38.76-5.94,1.82-11.83,3.16-17.73a94.56,94.56,0,0,1,4.5-14.88,13,13,0,0,1,.82-1.74.89.89,0,0,1,.8-.49c.14,0,.35.41.64,1.23a6.18,6.18,0,0,1,.42,1.62A2.09,2.09,0,0,1,62.54,208.64Z"/><path class="cls-7" d="M80.87,228.47a37.41,37.41,0,0,1-1,6.28,34.89,34.89,0,0,1-3.32,9.09c-1.51,2.81-3.39,4.25-5.64,4.24-1.84,0-3.37-1.11-4.59-3.27s-1.79-5.43-1.75-9.79a50,50,0,0,1,1.61-12.14,34.72,34.72,0,0,1,3.93-9.82c1.59-2.55,3.22-3.84,4.91-3.86a3.17,3.17,0,0,1,2.56,1.26,5.73,5.73,0,0,1,1.08,3.72A10,10,0,0,1,77,219.59a16.84,16.84,0,0,1-4.24,4.66,16.17,16.17,0,0,1-5.44,2.81,52.62,52.62,0,0,0-.54,7.1A17.37,17.37,0,0,0,68,241.31c.78,1.71,1.9,2.58,3.35,2.58,2.2,0,4-1.52,5.33-4.47a54,54,0,0,0,3.29-9.95l.28-1.23q.19-.92.36-.93C80.76,227.3,80.86,227.69,80.87,228.47Zm-4.78-15.34a2.14,2.14,0,0,0-1.59-.68c-1,0-2,.68-3,2a18.74,18.74,0,0,0-2.43,4.73,25.8,25.8,0,0,0-1.28,4.89,9.43,9.43,0,0,0,4-2,17.53,17.53,0,0,0,3.54-3.68,6.12,6.12,0,0,0,1.4-3.27A2.76,2.76,0,0,0,76.09,213.13Z"/><path class="cls-7" d="M93.84,227.46a5.47,5.47,0,0,1-2.17,1.11l-2.78,1c-.66.23-1.29.42-1.87.56a16,16,0,0,1-2.13.33,1.26,1.26,0,0,1-1-.3,1.67,1.67,0,0,1-.44-1.29,1.8,1.8,0,0,1,.36-1.36,2.05,2.05,0,0,1,1.24-.42c1.06-.09,1.8-.18,2.23-.24a3.34,3.34,0,0,0,1.14-.39c.11-.06.43-.22,1-.45s1.36-.58,2.51-1c.22-.08.4-.43.53-1.06s.29-.95.45-1,.62.24,1,.83a4,4,0,0,1,.53,1.85A2.43,2.43,0,0,1,93.84,227.46Z"/><path class="cls-7" d="M124,234.49a1.94,1.94,0,0,1-.78,1c-.47.27-.71,0-.75-.69-.39-8.13-.86-14.28-1.42-18.54s-1.25-6.33-2.09-6.16c-1.43.32-3.12,8.42-5.1,26.22v.07a3.37,3.37,0,0,1-.25,1.49,1.58,1.58,0,0,1-.82.92c-.48.21-.74-.1-.78-.91-.08-1.8-.16-4.62-.22-8.43-.09-4.26-.19-7.59-.3-10q-.24-5-.52-7.13c-.18-1.4-.47-2.07-.88-2-.91.14-1.93,3.12-3.08,9.2s-2.34,13.38-3.59,22l-.3,2a5,5,0,0,1-.43,1.37,1.24,1.24,0,0,1-.66.73,1,1,0,0,1-.67.06c-.12-.07-.2-.34-.24-.82-.23-2.34-.46-5.51-.69-9.49-.09-1-.21-2.68-.35-5-.57-8.19-1-13.76-1.34-16.65s-.49-4.52-.5-4.87a4.07,4.07,0,0,1,.28-1.43c.19-.55.38-.84.57-.85q.65,0,1.11,1.59a57.34,57.34,0,0,1,.69,6.36q.46,5.57.94,13.79l.63,11q1.8-12.94,3.76-23.08c1.31-6.76,2.61-10,3.92-10.19.88-.1,1.53.9,1.95,3a65.6,65.6,0,0,1,.91,9.15q.15,3.19.35,9.19c0,1,.07,2.05.11,3.07.79-6.72,1.62-12.24,2.49-16.64s1.86-6.58,2.94-6.77q4.08-.52,5.35,26.15A3.17,3.17,0,0,1,124,234.49Z"/><path class="cls-7" d="M142.39,210.89a20.54,20.54,0,0,1-.93,3.77,45.05,45.05,0,0,1-2.74,6.84,16.15,16.15,0,0,1-4.6,6c-1.53,1.14-2.86,1.37-4,.61s-1.77-2.74-1.9-5.79a30.45,30.45,0,0,1,1-9,23.32,23.32,0,0,1,3.34-7.62,7.81,7.81,0,0,1,4.55-3.42,3.69,3.69,0,0,1,2.41.17,1.78,1.78,0,0,1,1,1.75,6.13,6.13,0,0,1-1.44,3.44,31.25,31.25,0,0,1-3.76,4.19,33.69,33.69,0,0,1-4.83,3.85,27.65,27.65,0,0,0-.25,5c.08,2.06.5,3.48,1.22,4.18s1.7.62,2.93-.23a13.48,13.48,0,0,0,4.4-5.66,66.7,66.7,0,0,0,2.78-7.08c.05-.14.13-.4.25-.78a1.41,1.41,0,0,1,.32-.64C142.31,210.33,142.39,210.49,142.39,210.89Zm-4.21-6.64a2.52,2.52,0,0,0-1.47,0,5.39,5.39,0,0,0-2.76,1.95,14,14,0,0,0-2.13,3.69,16.17,16.17,0,0,0-1,3.62,17.54,17.54,0,0,0,3.62-2.71,31.67,31.67,0,0,0,3.16-3.35,4.65,4.65,0,0,0,1.26-2.26A.91.91,0,0,0,138.18,204.25Z"/></g></g></svg>