<svg xmlns="http://www.w3.org/2000/svg" viewBox="0 0 235.44 288.83"><defs><style>.cls-1,.cls-5{fill:#252e40;}.cls-1,.cls-2,.cls-3,.cls-4,.cls-6{stroke:#f8f8f8;stroke-miterlimit:10;stroke-width:3px;}.cls-2{fill:#85152f;}.cls-3{fill:#632c46;}.cls-4{fill:#d8d8d8;}.cls-6{fill:none;}.cls-7,.cls-8{fill:#f8f8f8;}.cls-8{font-size:64.84px;font-family:InkFree, Ink Free;}</style></defs><title>Ativo 3</title><g id="Camada_2" data-name="Camada 2"><g id="Camada_3" data-name="Camada 3"><path class="cls-1" d="M228.78,112.56A111.06,111.06,0,1,1,117.72,1.5,111.08,111.08,0,0,1,228.78,112.56Z"/><path class="cls-1" d="M137.78,131.16a24.24,24.24,0,0,1-2.72.16,21.77,21.77,0,0,1-18-9.48,21.79,21.79,0,0,1-1.61,4.28c-.28.55-.58,1.1-.9,1.62a21.78,21.78,0,0,1-17.35,10.37,21.81,21.81,0,0,0,10.6,12.15l.5.25a21.51,21.51,0,0,0,8.27,2.12h.33c.2,0,.41,0,.61,0,1.67-.07,3.33-.22,5-.44a21.26,21.26,0,0,0,4.74-1.64,21.78,21.78,0,0,0,12.33-19.63v0C139,131,138.38,131.08,137.78,131.16Z"/><path class="cls-2" d="M142,114.19a7.26,7.26,0,0,0-14-2.58,21.69,21.69,0,0,0-10.15-2.51c-.42,0-.82,0-1.23,0a20.74,20.74,0,0,0-3.27.43,21.59,21.59,0,0,0-4.66,1.54c-.34.16-.67.32-1,.5a7.26,7.26,0,0,0-5.69-4.6,7.91,7.91,0,0,0-1.1-.08,7.07,7.07,0,0,0-3,.64,7.25,7.25,0,0,0-3.32,10.24,7.34,7.34,0,0,0,3.11,2.91c.23.11.46.21.7.3a21.8,21.8,0,0,0-1.9,14.32,23.1,23.1,0,0,0,.77,2.77,21.78,21.78,0,0,0,17.35-10.37c.32-.52.62-1.07.9-1.62a21.79,21.79,0,0,0,1.61-4.28,21.77,21.77,0,0,0,18,9.48,24.24,24.24,0,0,0,2.72-.16c.6-.08,1.19-.18,1.78-.3A21.77,21.77,0,0,0,137.2,121,7.27,7.27,0,0,0,142,114.19Z"/><path class="cls-1" d="M149.15,172.46a36.5,36.5,0,0,0-18-15.48l-.67-.25a36.12,36.12,0,0,0-12.7-2.29h-.46l-.75,0a36,36,0,0,0-11.5,2.27l-.67.25a36.31,36.31,0,0,0-22.91,32.78c0,.33,0,.66,0,1a36.07,36.07,0,0,0,.35,5l.06.43c.09.6.19,1.2.31,1.79s.26,1.19.41,1.77l.74-1.43,1.91-3.65,7.26-13.88,12.27-23.51a21.72,21.72,0,0,0,9.89,4.07c.42.07.85.11,1.29.15.6.05,1.2.08,1.82.08a21.7,21.7,0,0,0,13-4.3l12.28,23.51,9.16,17.53.74,1.43c.16-.58.29-1.17.41-1.77a36.73,36.73,0,0,0,.72-7.24A36.2,36.2,0,0,0,149.15,172.46Z"/><path class="cls-3" d="M160.88,214.92a111.42,111.42,0,0,1-86.23,0l7.56-14.48.39-.73.74-1.43,1.91-3.65,7.26-13.88,12.27-23.51a21.72,21.72,0,0,0,9.89,4.07c.43.07.85.11,1.29.15.6.05,1.21.07,1.82.07a21.7,21.7,0,0,0,13-4.29l12.28,23.51,9.16,17.53.75,1.43Z"/><path class="cls-1" d="M152.66,50.58c0-.09,0-.19-.08-.28A36.3,36.3,0,0,0,88.21,39.6a35.46,35.46,0,0,0-3,4.92,36.1,36.1,0,0,0-3.78,16.14,36.65,36.65,0,0,0,.23,4.08A36.25,36.25,0,0,0,117.28,97h.5A36.14,36.14,0,0,0,141,88.57a35.54,35.54,0,0,0,3.7-3.56,36,36,0,0,0,9.16-20.27,34.39,34.39,0,0,0,.23-4.08A36.42,36.42,0,0,0,152.66,50.58Z"/><path class="cls-4" d="M156.93,134.5c-.19-1.32-.41-2.62-.68-3.91A57.79,57.79,0,0,0,137.93,99a36.14,36.14,0,0,1-20.15,6.1c-1.08,0-2.15,0-3.2-.14l-.8-.08a35.92,35.92,0,0,1-14.13-4.62c-.69-.4-1.37-.82-2-1.26-.75.66-1.49,1.35-2.2,2.06q-.78.75-1.5,1.53c-.19.19-.36.38-.53.57a58.08,58.08,0,0,0-11,17.22c-.58,1.42-1.11,2.86-1.58,4.33.13.17.24.35.36.52.68,1,1.34,2,2,3.1A59.29,59.29,0,0,1,87,136.2c.22.55.43,1.11.63,1.66a56.67,56.67,0,0,1,2.27,8,58.45,58.45,0,0,1-11.73-6.67c0,.16,0,.33,0,.49-.05.92-.07,1.84-.07,2.78a57.78,57.78,0,0,0,8.33,30,36.48,36.48,0,0,1,18-15.48l.67-.25a36,36,0,0,1,11.5-2.27l.75,0h.46a36.12,36.12,0,0,1,12.7,2.29l.67.25a36.5,36.5,0,0,1,18,15.48,58.38,58.38,0,0,0,7.78-38Zm-29.7,16a21.26,21.26,0,0,1-4.74,1.64,21.58,21.58,0,0,1-4.71.52h-.86l-.33,0a21.51,21.51,0,0,1-8.27-2.12l-.5-.25a21.81,21.81,0,0,1-10.6-12.15,23.1,23.1,0,0,1-.77-2.77A21.8,21.8,0,0,1,98.35,121c-.24-.09-.47-.19-.7-.3a7.34,7.34,0,0,1-3.11-2.91,7.26,7.26,0,0,1,3.32-10.24,7.07,7.07,0,0,1,3-.64,7.91,7.91,0,0,1,1.1.08,7.26,7.26,0,0,1,5.69,4.6c.33-.18.66-.34,1-.5a21.59,21.59,0,0,1,4.66-1.54,20.74,20.74,0,0,1,3.27-.43c.41,0,.81,0,1.23,0a21.69,21.69,0,0,1,10.15,2.51A7.26,7.26,0,1,1,137.2,121a21.77,21.77,0,0,1,2.36,9.84v0a21.8,21.8,0,0,1-12.33,19.63Z"/><path class="cls-5" d="M95.42,101.09c-.51.5-1,1-1.5,1.53a14.49,14.49,0,0,0-9.11-3.21,14,14,0,0,0-2.83.28,14.53,14.53,0,0,0-11.67,13.49c1.36,1.14,2.66,2.33,3.91,3.59s2.27,2.38,3.33,3.64,2.27,2.83,3.3,4.33l.35.52c.69,1,1.34,2,2,3.1A58.08,58.08,0,0,1,87,136.2c.22.55.43,1.11.63,1.66a56.7,56.7,0,0,1,2.28,8,57.91,57.91,0,0,1-11.73-6.67c-.77-.56-1.52-1.14-2.25-1.73a58,58,0,0,1-20.27-33.23s0,0,0,0c-.24-1.16-.45-2.32-.62-3.5,0-.12,0-.25-.05-.38a58.22,58.22,0,0,1-.55-8c0-1.11,0-2.21.1-3.3,1-.09,2-.15,3-.19.72,0,1.45,0,2.18,0A58.48,58.48,0,0,1,73.5,90.47a55.81,55.81,0,0,1,6.06,1.83,59.17,59.17,0,0,1,8.37,3.82q1.8,1,3.51,2.13c.5.31,1,.64,1.47,1C93.76,99.83,94.6,100.44,95.42,101.09Z"/><path class="cls-6" d="M82,99.69a14,14,0,0,1,2.83-.28,14.49,14.49,0,0,1,9.11,3.21c.48-.52,1-1,1.5-1.53-.82-.65-1.66-1.26-2.51-1.86-.49-.34-1-.67-1.47-1q-1.71-1.12-3.51-2.13a59.17,59.17,0,0,0-8.37-3.82,55.81,55.81,0,0,0-6.06-1.83,58.48,58.48,0,0,0-13.78-1.64c-.73,0-1.46,0-2.18,0-1,0-2,.1-3,.19-.06,1.09-.1,2.19-.1,3.3a58.22,58.22,0,0,0,.55,8c0,.13,0,.26.05.38.17,1.18.38,2.34.62,3.5,0,0,0,0,0,0a58,58,0,0,0,20.27,33.23c.73.59,1.48,1.17,2.25,1.73a57.91,57.91,0,0,0,11.73,6.67,56.7,56.7,0,0,0-2.28-8c-.2-.55-.41-1.11-.63-1.66a58.08,58.08,0,0,0-3.84-7.84c-.62-1.05-1.27-2.09-2-3.1l-.35-.52q-1.55-2.25-3.3-4.33-1.59-1.89-3.33-3.64c-1.25-1.26-2.55-2.45-3.91-3.59A14.53,14.53,0,0,1,82,99.69Z"/><path class="cls-1" d="M153.46,99.59a13.93,13.93,0,0,0-2.83-.28,14.51,14.51,0,0,0-9.11,3.21q-.72-.78-1.5-1.53c.82-.65,1.66-1.26,2.52-1.86.48-.34,1-.67,1.46-1,1.14-.75,2.32-1.46,3.51-2.13a58.78,58.78,0,0,1,8.38-3.82,55.64,55.64,0,0,1,6.05-1.83,58.48,58.48,0,0,1,13.78-1.64c.73,0,1.46,0,2.18,0,1,0,2,.1,3,.19.07,1.09.1,2.19.1,3.3a58.22,58.22,0,0,1-.55,8c0,.13,0,.26-.05.38-.17,1.18-.38,2.34-.62,3.5,0,0,0,0,0,0a58,58,0,0,1-20.27,33.23c-.73.59-1.48,1.17-2.24,1.73a58.45,58.45,0,0,1-11.73,6.67,56.16,56.16,0,0,1,2.27-8c.2-.56.41-1.12.63-1.67a59.29,59.29,0,0,1,3.84-7.84c.62-1,1.28-2.09,2-3.1.12-.17.23-.35.36-.52,1-1.5,2.12-2.94,3.29-4.33s2.17-2.47,3.33-3.64,2.55-2.45,3.91-3.59A14.52,14.52,0,0,0,153.46,99.59Z"/><path class="cls-7" d="M111.09,75.24a7.26,7.26,0,1,1-10.81-9,7.26,7.26,0,0,0,10.81,9Z"/><path class="cls-7" d="M124.46,75.24a7.26,7.26,0,1,0,10.81-9,7.26,7.26,0,0,1-10.81,9Z"/><path class="cls-7" d="M114,134.12a7.26,7.26,0,1,1-12.91,6,7.26,7.26,0,0,0,13.12-4.29A7,7,0,0,0,114,134.12Z"/><path class="cls-7" d="M121.55,134.12a7.26,7.26,0,1,0,12.91,6,7.26,7.26,0,0,1-13.12-4.29A7,7,0,0,1,121.55,134.12Z"/><text class="cls-8" transform="translate(0 267.56)">Save-me</text></g></g></svg>